%TF.GenerationSoftware,KiCad,Pcbnew,7.0.8*%
%TF.CreationDate,2023-10-11T21:34:52+02:00*%
%TF.ProjectId,Noise Toaster PCB,4e6f6973-6520-4546-9f61-737465722050,0.5*%
%TF.SameCoordinates,PX51719c0PY79698b0*%
%TF.FileFunction,Drillmap*%
%TF.FilePolarity,Positive*%
%FSLAX45Y45*%
G04 Gerber Fmt 4.5, Leading zero omitted, Abs format (unit mm)*
G04 Created by KiCad (PCBNEW 7.0.8) date 2023-10-11 21:34:52*
%MOMM*%
%LPD*%
G01*
G04 APERTURE LIST*
%ADD10C,0.200000*%
%ADD11C,0.050000*%
%ADD12C,0.060000*%
%ADD13C,0.075000*%
%ADD14C,0.080000*%
%ADD15C,0.100000*%
%ADD16C,0.120000*%
G04 APERTURE END LIST*
D10*
X0Y6858000D02*
X13208000Y6858000D01*
X13208000Y0D01*
X0Y0D01*
X0Y6858000D01*
D11*
X508000Y5898000D02*
X558000Y5848000D01*
X558000Y5898000D02*
X508000Y5848000D01*
X508000Y5644000D02*
X558000Y5594000D01*
X558000Y5644000D02*
X508000Y5594000D01*
X515500Y4755000D02*
X565500Y4705000D01*
X565500Y4755000D02*
X515500Y4705000D01*
X515500Y4501000D02*
X565500Y4451000D01*
X565500Y4501000D02*
X515500Y4451000D01*
X515500Y4247000D02*
X565500Y4197000D01*
X565500Y4247000D02*
X515500Y4197000D01*
X515500Y3993000D02*
X565500Y3943000D01*
X565500Y3993000D02*
X515500Y3943000D01*
X515500Y3548500D02*
X565500Y3498500D01*
X565500Y3548500D02*
X515500Y3498500D01*
X515500Y3231000D02*
X565500Y3181000D01*
X565500Y3231000D02*
X515500Y3181000D01*
X518000Y5043000D02*
X568000Y4993000D01*
X568000Y5043000D02*
X518000Y4993000D01*
X3373000Y6333000D02*
X3423000Y6283000D01*
X3423000Y6333000D02*
X3373000Y6283000D01*
X3581000Y437000D02*
X3631000Y387000D01*
X3631000Y437000D02*
X3581000Y387000D01*
X3723000Y6333000D02*
X3773000Y6283000D01*
X3773000Y6333000D02*
X3723000Y6283000D01*
X3881000Y437000D02*
X3931000Y387000D01*
X3931000Y437000D02*
X3881000Y387000D01*
X4452500Y437500D02*
X4502500Y387500D01*
X4502500Y437500D02*
X4452500Y387500D01*
X4770000Y437000D02*
X4820000Y387000D01*
X4820000Y437000D02*
X4770000Y387000D01*
X5063000Y440000D02*
X5113000Y390000D01*
X5113000Y440000D02*
X5063000Y390000D01*
X5341500Y437000D02*
X5391500Y387000D01*
X5391500Y437000D02*
X5341500Y387000D01*
X6198000Y6333000D02*
X6248000Y6283000D01*
X6248000Y6333000D02*
X6198000Y6283000D01*
X6548000Y6333000D02*
X6598000Y6283000D01*
X6598000Y6333000D02*
X6548000Y6283000D01*
X6858000Y437000D02*
X6908000Y387000D01*
X6908000Y437000D02*
X6858000Y387000D01*
X6898000Y6333000D02*
X6948000Y6283000D01*
X6948000Y6333000D02*
X6898000Y6283000D01*
X7183000Y437000D02*
X7233000Y387000D01*
X7233000Y437000D02*
X7183000Y387000D01*
X7870000Y6333000D02*
X7920000Y6283000D01*
X7920000Y6333000D02*
X7870000Y6283000D01*
X8230000Y6333000D02*
X8280000Y6283000D01*
X8280000Y6333000D02*
X8230000Y6283000D01*
X8580000Y6333000D02*
X8630000Y6283000D01*
X8630000Y6333000D02*
X8580000Y6283000D01*
X11120000Y6342500D02*
X11170000Y6292500D01*
X11170000Y6342500D02*
X11120000Y6292500D01*
X12707500Y3360500D02*
X12757500Y3310500D01*
X12757500Y3360500D02*
X12707500Y3310500D01*
X12707500Y3033500D02*
X12757500Y2983500D01*
X12757500Y3033500D02*
X12707500Y2983500D01*
X12707500Y2723500D02*
X12757500Y2673500D01*
X12757500Y2723500D02*
X12707500Y2673500D01*
X12707500Y2405500D02*
X12757500Y2355500D01*
X12757500Y2405500D02*
X12707500Y2355500D01*
D12*
X1205500Y4222000D02*
G75*
G03*
X1205500Y4222000I-30000J0D01*
G01*
X1355500Y4222000D02*
G75*
G03*
X1355500Y4222000I-30000J0D01*
G01*
X4317000Y4349000D02*
G75*
G03*
X4317000Y4349000I-30000J0D01*
G01*
X4317000Y4199000D02*
G75*
G03*
X4317000Y4199000I-30000J0D01*
G01*
X5587000Y2253500D02*
G75*
G03*
X5587000Y2253500I-30000J0D01*
G01*
X5587000Y2103500D02*
G75*
G03*
X5587000Y2103500I-30000J0D01*
G01*
X9206500Y6000000D02*
G75*
G03*
X9206500Y6000000I-30000J0D01*
G01*
X9206500Y5850000D02*
G75*
G03*
X9206500Y5850000I-30000J0D01*
G01*
X9905000Y6381000D02*
G75*
G03*
X9905000Y6381000I-30000J0D01*
G01*
X9905000Y6231000D02*
G75*
G03*
X9905000Y6231000I-30000J0D01*
G01*
D13*
X504500Y1402000D02*
X504500Y1327000D01*
X467000Y1364500D02*
X542000Y1364500D01*
X504500Y1275000D02*
X504500Y1200000D01*
X467000Y1237500D02*
X542000Y1237500D01*
X504500Y1148000D02*
X504500Y1073000D01*
X467000Y1110500D02*
X542000Y1110500D01*
X1048500Y6037500D02*
X1048500Y5962500D01*
X1011000Y6000000D02*
X1086000Y6000000D01*
X1175500Y6037500D02*
X1175500Y5962500D01*
X1138000Y6000000D02*
X1213000Y6000000D01*
X1239000Y830500D02*
X1239000Y755500D01*
X1201500Y793000D02*
X1276500Y793000D01*
X1239000Y703500D02*
X1239000Y628500D01*
X1201500Y666000D02*
X1276500Y666000D01*
X1239000Y576500D02*
X1239000Y501500D01*
X1201500Y539000D02*
X1276500Y539000D01*
X1302500Y6037500D02*
X1302500Y5962500D01*
X1265000Y6000000D02*
X1340000Y6000000D01*
X1874000Y4305500D02*
X1874000Y4230500D01*
X1836500Y4268000D02*
X1911500Y4268000D01*
X1874000Y1910000D02*
X1874000Y1835000D01*
X1836500Y1872500D02*
X1911500Y1872500D01*
X2001000Y4305500D02*
X2001000Y4230500D01*
X1963500Y4268000D02*
X2038500Y4268000D01*
X2001000Y1910000D02*
X2001000Y1835000D01*
X1963500Y1872500D02*
X2038500Y1872500D01*
X2128000Y4305500D02*
X2128000Y4230500D01*
X2090500Y4268000D02*
X2165500Y4268000D01*
X2128000Y1910000D02*
X2128000Y1835000D01*
X2090500Y1872500D02*
X2165500Y1872500D01*
X2699500Y830500D02*
X2699500Y755500D01*
X2662000Y793000D02*
X2737000Y793000D01*
X2699500Y703500D02*
X2699500Y628500D01*
X2662000Y666000D02*
X2737000Y666000D01*
X2699500Y576500D02*
X2699500Y501500D01*
X2662000Y539000D02*
X2737000Y539000D01*
X6001500Y1747000D02*
X6001500Y1672000D01*
X5964000Y1709500D02*
X6039000Y1709500D01*
X6128500Y1747000D02*
X6128500Y1672000D01*
X6091000Y1709500D02*
X6166000Y1709500D01*
X6255500Y1747000D02*
X6255500Y1672000D01*
X6218000Y1709500D02*
X6293000Y1709500D01*
X8478000Y3878500D02*
X8478000Y3803500D01*
X8440500Y3841000D02*
X8515500Y3841000D01*
X8478000Y3751500D02*
X8478000Y3676500D01*
X8440500Y3714000D02*
X8515500Y3714000D01*
X8478000Y3624500D02*
X8478000Y3549500D01*
X8440500Y3587000D02*
X8515500Y3587000D01*
X8986000Y3878500D02*
X8986000Y3803500D01*
X8948500Y3841000D02*
X9023500Y3841000D01*
X8986000Y3751500D02*
X8986000Y3676500D01*
X8948500Y3714000D02*
X9023500Y3714000D01*
X8986000Y3624500D02*
X8986000Y3549500D01*
X8948500Y3587000D02*
X9023500Y3587000D01*
X9113000Y2327000D02*
X9113000Y2252000D01*
X9075500Y2289500D02*
X9150500Y2289500D01*
X9240000Y2327000D02*
X9240000Y2252000D01*
X9202500Y2289500D02*
X9277500Y2289500D01*
X9367000Y2327000D02*
X9367000Y2252000D01*
X9329500Y2289500D02*
X9404500Y2289500D01*
D14*
X568785Y2860215D02*
X568785Y2916784D01*
X512215Y2916784D01*
X512215Y2860215D01*
X568785Y2860215D01*
X568785Y1844215D02*
X568785Y1900784D01*
X512215Y1900784D01*
X512215Y1844215D01*
X568785Y1844215D01*
X1076785Y1907715D02*
X1076785Y1964284D01*
X1020215Y1964284D01*
X1020215Y1907715D01*
X1076785Y1907715D01*
X1076785Y1407715D02*
X1076785Y1464284D01*
X1020215Y1464284D01*
X1020215Y1407715D01*
X1076785Y1407715D01*
X1203785Y5527216D02*
X1203785Y5583785D01*
X1147216Y5583785D01*
X1147216Y5527216D01*
X1203785Y5527216D01*
X1203785Y5146216D02*
X1203785Y5202785D01*
X1147216Y5202785D01*
X1147216Y5146216D01*
X1203785Y5146216D01*
X1203785Y4765216D02*
X1203785Y4821785D01*
X1147216Y4821785D01*
X1147216Y4765216D01*
X1203785Y4765216D01*
X1203785Y2860215D02*
X1203785Y2916784D01*
X1147216Y2916784D01*
X1147216Y2860215D01*
X1203785Y2860215D01*
X1203785Y2479216D02*
X1203785Y2535785D01*
X1147216Y2535785D01*
X1147216Y2479216D01*
X1203785Y2479216D01*
X1394285Y3304715D02*
X1394285Y3361284D01*
X1337716Y3361284D01*
X1337716Y3304715D01*
X1394285Y3304715D01*
X1396285Y3678215D02*
X1396285Y3734784D01*
X1339716Y3734784D01*
X1339716Y3678215D01*
X1396285Y3678215D01*
X1457784Y2161716D02*
X1457784Y2218285D01*
X1401215Y2218285D01*
X1401215Y2161716D01*
X1457784Y2161716D01*
X1457784Y1145716D02*
X1457784Y1202285D01*
X1401215Y1202285D01*
X1401215Y1145716D01*
X1457784Y1145716D01*
X1775284Y6035215D02*
X1775284Y6091784D01*
X1718715Y6091784D01*
X1718715Y6035215D01*
X1775284Y6035215D01*
X1775284Y820215D02*
X1775284Y876784D01*
X1718715Y876784D01*
X1718715Y820215D01*
X1775284Y820215D01*
X1775284Y320216D02*
X1775284Y376784D01*
X1718715Y376784D01*
X1718715Y320216D01*
X1775284Y320216D01*
X2219785Y5527216D02*
X2219785Y5583785D01*
X2163216Y5583785D01*
X2163216Y5527216D01*
X2219785Y5527216D01*
X2219785Y5146216D02*
X2219785Y5202785D01*
X2163216Y5202785D01*
X2163216Y5146216D01*
X2219785Y5146216D01*
X2219785Y4765216D02*
X2219785Y4821785D01*
X2163216Y4821785D01*
X2163216Y4765216D01*
X2219785Y4765216D01*
X2219785Y2860215D02*
X2219785Y2916784D01*
X2163216Y2916784D01*
X2163216Y2860215D01*
X2219785Y2860215D01*
X2219785Y2479216D02*
X2219785Y2535785D01*
X2163216Y2535785D01*
X2163216Y2479216D01*
X2219785Y2479216D01*
X2283285Y1526715D02*
X2283285Y1583284D01*
X2226716Y1583284D01*
X2226716Y1526715D01*
X2283285Y1526715D01*
X2283285Y510715D02*
X2283285Y567285D01*
X2226716Y567285D01*
X2226716Y510715D01*
X2283285Y510715D01*
X2410285Y3304715D02*
X2410285Y3361284D01*
X2353716Y3361284D01*
X2353716Y3304715D01*
X2410285Y3304715D01*
X2412285Y3678215D02*
X2412285Y3734784D01*
X2355716Y3734784D01*
X2355716Y3678215D01*
X2412285Y3678215D01*
X2791285Y6035215D02*
X2791285Y6091784D01*
X2734716Y6091784D01*
X2734716Y6035215D01*
X2791285Y6035215D01*
X2791285Y5400216D02*
X2791285Y5456785D01*
X2734716Y5456785D01*
X2734716Y5400216D01*
X2791285Y5400216D01*
X2791285Y5200216D02*
X2791285Y5256785D01*
X2734716Y5256785D01*
X2734716Y5200216D01*
X2791285Y5200216D01*
X2791285Y3114215D02*
X2791285Y3170784D01*
X2734716Y3170784D01*
X2734716Y3114215D01*
X2791285Y3114215D01*
X2791285Y2796715D02*
X2791285Y2853284D01*
X2734716Y2853284D01*
X2734716Y2796715D01*
X2791285Y2796715D01*
X2791285Y1780715D02*
X2791285Y1837284D01*
X2734716Y1837284D01*
X2734716Y1780715D01*
X2791285Y1780715D01*
X2854784Y4511216D02*
X2854784Y4567785D01*
X2798215Y4567785D01*
X2798215Y4511216D01*
X2854784Y4511216D01*
X2854784Y3495215D02*
X2854784Y3551784D01*
X2798215Y3551784D01*
X2798215Y3495215D01*
X2854784Y3495215D01*
X3172284Y2796715D02*
X3172284Y2853284D01*
X3115715Y2853284D01*
X3115715Y2796715D01*
X3172284Y2796715D01*
X3172284Y1780715D02*
X3172284Y1837284D01*
X3115715Y1837284D01*
X3115715Y1780715D01*
X3172284Y1780715D01*
X3172284Y1336216D02*
X3172284Y1392785D01*
X3115715Y1392785D01*
X3115715Y1336216D01*
X3172284Y1336216D01*
X3172284Y320216D02*
X3172284Y376784D01*
X3115715Y376784D01*
X3115715Y320216D01*
X3172284Y320216D01*
X3235784Y4511216D02*
X3235784Y4567785D01*
X3179215Y4567785D01*
X3179215Y4511216D01*
X3235784Y4511216D01*
X3235784Y3495215D02*
X3235784Y3551784D01*
X3179215Y3551784D01*
X3179215Y3495215D01*
X3235784Y3495215D01*
X3616784Y4511216D02*
X3616784Y4567785D01*
X3560215Y4567785D01*
X3560215Y4511216D01*
X3616784Y4511216D01*
X3616784Y3495215D02*
X3616784Y3551784D01*
X3560215Y3551784D01*
X3560215Y3495215D01*
X3616784Y3495215D01*
X3743784Y2796715D02*
X3743784Y2853284D01*
X3687215Y2853284D01*
X3687215Y2796715D01*
X3743784Y2796715D01*
X3743784Y1780715D02*
X3743784Y1837284D01*
X3687215Y1837284D01*
X3687215Y1780715D01*
X3743784Y1780715D01*
X3807284Y3114215D02*
X3807284Y3170784D01*
X3750715Y3170784D01*
X3750715Y3114215D01*
X3807284Y3114215D01*
X4120784Y2606216D02*
X4120784Y2662785D01*
X4064215Y2662785D01*
X4064215Y2606216D01*
X4120784Y2606216D01*
X4120784Y2161716D02*
X4120784Y2218285D01*
X4064215Y2218285D01*
X4064215Y2161716D01*
X4120784Y2161716D01*
X4132784Y1844215D02*
X4132784Y1900784D01*
X4076215Y1900784D01*
X4076215Y1844215D01*
X4132784Y1844215D01*
X4132784Y828215D02*
X4132784Y884784D01*
X4076215Y884784D01*
X4076215Y828215D01*
X4132784Y828215D01*
X4378785Y3812715D02*
X4378785Y3869284D01*
X4322216Y3869284D01*
X4322216Y3812715D01*
X4378785Y3812715D01*
X4378785Y3050715D02*
X4378785Y3107284D01*
X4322216Y3107284D01*
X4322216Y3050715D01*
X4378785Y3050715D01*
X4505785Y1844215D02*
X4505785Y1900784D01*
X4449216Y1900784D01*
X4449216Y1844215D01*
X4505785Y1844215D01*
X4505785Y828215D02*
X4505785Y884784D01*
X4449216Y884784D01*
X4449216Y828215D01*
X4505785Y828215D01*
X4620785Y2606216D02*
X4620785Y2662785D01*
X4564216Y2662785D01*
X4564216Y2606216D01*
X4620785Y2606216D01*
X4632785Y3812715D02*
X4632785Y3869284D01*
X4576216Y3869284D01*
X4576216Y3812715D01*
X4632785Y3812715D01*
X4632785Y3050715D02*
X4632785Y3107284D01*
X4576216Y3107284D01*
X4576216Y3050715D01*
X4632785Y3050715D01*
X4823285Y6225715D02*
X4823285Y6282284D01*
X4766716Y6282284D01*
X4766716Y6225715D01*
X4823285Y6225715D01*
X4823285Y5844715D02*
X4823285Y5901284D01*
X4766716Y5901284D01*
X4766716Y5844715D01*
X4823285Y5844715D01*
X4886785Y3812715D02*
X4886785Y3869284D01*
X4830216Y3869284D01*
X4830216Y3812715D01*
X4886785Y3812715D01*
X4886785Y3050715D02*
X4886785Y3107284D01*
X4830216Y3107284D01*
X4830216Y3050715D01*
X4886785Y3050715D01*
X4886785Y1336216D02*
X4886785Y1392785D01*
X4830216Y1392785D01*
X4830216Y1336216D01*
X4886785Y1336216D01*
X4886785Y836215D02*
X4886785Y892784D01*
X4830216Y892784D01*
X4830216Y836215D01*
X4886785Y836215D01*
X4944285Y5400216D02*
X4944285Y5456785D01*
X4887716Y5456785D01*
X4887716Y5400216D01*
X4944285Y5400216D01*
X4944285Y4384216D02*
X4944285Y4440785D01*
X4887716Y4440785D01*
X4887716Y4384216D01*
X4944285Y4384216D01*
X4950285Y2606216D02*
X4950285Y2662785D01*
X4893716Y2662785D01*
X4893716Y2606216D01*
X4950285Y2606216D01*
X5136785Y2161716D02*
X5136785Y2218285D01*
X5080216Y2218285D01*
X5080216Y2161716D01*
X5136785Y2161716D01*
X5140785Y3812715D02*
X5140785Y3869284D01*
X5084216Y3869284D01*
X5084216Y3812715D01*
X5140785Y3812715D01*
X5140785Y3050715D02*
X5140785Y3107284D01*
X5084216Y3107284D01*
X5084216Y3050715D01*
X5140785Y3050715D01*
X5267785Y1780715D02*
X5267785Y1837284D01*
X5211216Y1837284D01*
X5211216Y1780715D01*
X5267785Y1780715D01*
X5267785Y764715D02*
X5267785Y821284D01*
X5211216Y821284D01*
X5211216Y764715D01*
X5267785Y764715D01*
X5331285Y5400216D02*
X5331285Y5456785D01*
X5274716Y5456785D01*
X5274716Y5400216D01*
X5331285Y5400216D01*
X5331285Y4384216D02*
X5331285Y4440785D01*
X5274716Y4440785D01*
X5274716Y4384216D01*
X5331285Y4384216D01*
X5394785Y3812715D02*
X5394785Y3869284D01*
X5338216Y3869284D01*
X5338216Y3812715D01*
X5394785Y3812715D01*
X5394785Y3050715D02*
X5394785Y3107284D01*
X5338216Y3107284D01*
X5338216Y3050715D01*
X5394785Y3050715D01*
X5450285Y2606216D02*
X5450285Y2662785D01*
X5393716Y2662785D01*
X5393716Y2606216D01*
X5450285Y2606216D01*
X5643284Y1780715D02*
X5643284Y1837284D01*
X5586716Y1837284D01*
X5586716Y1780715D01*
X5643284Y1780715D01*
X5643284Y764715D02*
X5643284Y821284D01*
X5586716Y821284D01*
X5586716Y764715D01*
X5643284Y764715D01*
X5648784Y3812715D02*
X5648784Y3869284D01*
X5592216Y3869284D01*
X5592216Y3812715D01*
X5648784Y3812715D01*
X5648784Y3050715D02*
X5648784Y3107284D01*
X5592216Y3107284D01*
X5592216Y3050715D01*
X5648784Y3050715D01*
X5712284Y5400216D02*
X5712284Y5456785D01*
X5655715Y5456785D01*
X5655715Y5400216D01*
X5712284Y5400216D01*
X5712284Y4384216D02*
X5712284Y4440785D01*
X5655715Y4440785D01*
X5655715Y4384216D01*
X5712284Y4384216D01*
X5839284Y6225715D02*
X5839284Y6282284D01*
X5782715Y6282284D01*
X5782715Y6225715D01*
X5839284Y6225715D01*
X5839284Y5844715D02*
X5839284Y5901284D01*
X5782715Y5901284D01*
X5782715Y5844715D01*
X5839284Y5844715D01*
X5902784Y3812715D02*
X5902784Y3869284D01*
X5846215Y3869284D01*
X5846215Y3812715D01*
X5902784Y3812715D01*
X5902784Y3050715D02*
X5902784Y3107284D01*
X5846215Y3107284D01*
X5846215Y3050715D01*
X5902784Y3050715D01*
X6029784Y2661716D02*
X6029784Y2718285D01*
X5973215Y2718285D01*
X5973215Y2661716D01*
X6029784Y2661716D01*
X6029784Y2161716D02*
X6029784Y2218285D01*
X5973215Y2218285D01*
X5973215Y2161716D01*
X6029784Y2161716D01*
X6029784Y1272716D02*
X6029784Y1329285D01*
X5973215Y1329285D01*
X5973215Y1272716D01*
X6029784Y1272716D01*
X6029784Y772715D02*
X6029784Y829284D01*
X5973215Y829284D01*
X5973215Y772715D01*
X6029784Y772715D01*
X6093284Y5400216D02*
X6093284Y5456785D01*
X6036715Y5456785D01*
X6036715Y5400216D01*
X6093284Y5400216D01*
X6093284Y4384216D02*
X6093284Y4440785D01*
X6036715Y4440785D01*
X6036715Y4384216D01*
X6093284Y4384216D01*
X6347284Y3114215D02*
X6347284Y3170784D01*
X6290715Y3170784D01*
X6290715Y3114215D01*
X6347284Y3114215D01*
X6347284Y2733216D02*
X6347284Y2789785D01*
X6290715Y2789785D01*
X6290715Y2733216D01*
X6347284Y2733216D01*
X6347284Y2352216D02*
X6347284Y2408785D01*
X6290715Y2408785D01*
X6290715Y2352216D01*
X6347284Y2352216D01*
X6537784Y3844727D02*
X6537784Y3901296D01*
X6481215Y3901296D01*
X6481215Y3844727D01*
X6537784Y3844727D01*
X6537784Y3644727D02*
X6537784Y3701296D01*
X6481215Y3701296D01*
X6481215Y3644727D01*
X6537784Y3644727D01*
X6601284Y1844215D02*
X6601284Y1900784D01*
X6544715Y1900784D01*
X6544715Y1844215D01*
X6601284Y1844215D01*
X6601284Y1463215D02*
X6601284Y1519784D01*
X6544715Y1519784D01*
X6544715Y1463215D01*
X6601284Y1463215D01*
X6601284Y1082216D02*
X6601284Y1138785D01*
X6544715Y1138785D01*
X6544715Y1082216D01*
X6601284Y1082216D01*
X6601284Y701215D02*
X6601284Y757784D01*
X6544715Y757784D01*
X6544715Y701215D01*
X6601284Y701215D01*
X7045784Y4384216D02*
X7045784Y4440785D01*
X6989215Y4440785D01*
X6989215Y4384216D01*
X7045784Y4384216D01*
X7045784Y4003215D02*
X7045784Y4059784D01*
X6989215Y4059784D01*
X6989215Y4003215D01*
X7045784Y4003215D01*
X7045784Y3622215D02*
X7045784Y3678784D01*
X6989215Y3678784D01*
X6989215Y3622215D01*
X7045784Y3622215D01*
X7363284Y3114215D02*
X7363284Y3170784D01*
X7306715Y3170784D01*
X7306715Y3114215D01*
X7363284Y3114215D01*
X7363284Y2733216D02*
X7363284Y2789785D01*
X7306715Y2789785D01*
X7306715Y2733216D01*
X7363284Y2733216D01*
X7363284Y2352216D02*
X7363284Y2408785D01*
X7306715Y2408785D01*
X7306715Y2352216D01*
X7363284Y2352216D01*
X7617284Y1844215D02*
X7617284Y1900784D01*
X7560715Y1900784D01*
X7560715Y1844215D01*
X7617284Y1844215D01*
X7617284Y1463215D02*
X7617284Y1519784D01*
X7560715Y1519784D01*
X7560715Y1463215D01*
X7617284Y1463215D01*
X7617284Y1082216D02*
X7617284Y1138785D01*
X7560715Y1138785D01*
X7560715Y1082216D01*
X7617284Y1082216D01*
X7617284Y701215D02*
X7617284Y757784D01*
X7560715Y757784D01*
X7560715Y701215D01*
X7617284Y701215D01*
X7934784Y2733216D02*
X7934784Y2789785D01*
X7878215Y2789785D01*
X7878215Y2733216D01*
X7934784Y2733216D01*
X7934784Y1717215D02*
X7934784Y1773784D01*
X7878215Y1773784D01*
X7878215Y1717215D01*
X7934784Y1717215D01*
X7934784Y637716D02*
X7934784Y694285D01*
X7878215Y694285D01*
X7878215Y637716D01*
X7934784Y637716D01*
X7998284Y5781215D02*
X7998284Y5837784D01*
X7941715Y5837784D01*
X7941715Y5781215D01*
X7998284Y5781215D01*
X7998284Y1459215D02*
X7998284Y1515784D01*
X7941715Y1515784D01*
X7941715Y1459215D01*
X7998284Y1459215D01*
X7998284Y959215D02*
X7998284Y1015784D01*
X7941715Y1015784D01*
X7941715Y959215D01*
X7998284Y959215D01*
X8061784Y4384216D02*
X8061784Y4440785D01*
X8005215Y4440785D01*
X8005215Y4384216D01*
X8061784Y4384216D01*
X8061784Y4003215D02*
X8061784Y4059784D01*
X8005215Y4059784D01*
X8005215Y4003215D01*
X8061784Y4003215D01*
X8061784Y3622215D02*
X8061784Y3678784D01*
X8005215Y3678784D01*
X8005215Y3622215D01*
X8061784Y3622215D01*
X8198284Y5781215D02*
X8198284Y5837784D01*
X8141715Y5837784D01*
X8141715Y5781215D01*
X8198284Y5781215D01*
X8315784Y3114215D02*
X8315784Y3170784D01*
X8259215Y3170784D01*
X8259215Y3114215D01*
X8315784Y3114215D01*
X8315784Y2733216D02*
X8315784Y2789785D01*
X8259215Y2789785D01*
X8259215Y2733216D01*
X8315784Y2733216D01*
X8315784Y1717215D02*
X8315784Y1773784D01*
X8259215Y1773784D01*
X8259215Y1717215D01*
X8315784Y1717215D01*
X8379284Y1399715D02*
X8379284Y1456284D01*
X8322715Y1456284D01*
X8322715Y1399715D01*
X8379284Y1399715D01*
X8379284Y1018715D02*
X8379284Y1075285D01*
X8322715Y1075285D01*
X8322715Y1018715D01*
X8379284Y1018715D01*
X8696785Y2733216D02*
X8696785Y2789785D01*
X8640216Y2789785D01*
X8640216Y2733216D01*
X8696785Y2733216D01*
X8696785Y1717215D02*
X8696785Y1773784D01*
X8640216Y1773784D01*
X8640216Y1717215D01*
X8696785Y1717215D01*
X8815785Y3114215D02*
X8815785Y3170784D01*
X8759216Y3170784D01*
X8759216Y3114215D01*
X8815785Y3114215D01*
X8950785Y637716D02*
X8950785Y694285D01*
X8894216Y694285D01*
X8894216Y637716D01*
X8950785Y637716D01*
X9081785Y2796715D02*
X9081785Y2853284D01*
X9025216Y2853284D01*
X9025216Y2796715D01*
X9081785Y2796715D01*
X9268285Y574216D02*
X9268285Y630785D01*
X9211716Y630785D01*
X9211716Y574216D01*
X9268285Y574216D01*
X9395285Y1399715D02*
X9395285Y1456284D01*
X9338716Y1456284D01*
X9338716Y1399715D01*
X9395285Y1399715D01*
X9395285Y1018715D02*
X9395285Y1075285D01*
X9338716Y1075285D01*
X9338716Y1018715D01*
X9395285Y1018715D01*
X9522285Y3939715D02*
X9522285Y3996284D01*
X9465716Y3996284D01*
X9465716Y3939715D01*
X9522285Y3939715D01*
X9522285Y3177715D02*
X9522285Y3234284D01*
X9465716Y3234284D01*
X9465716Y3177715D01*
X9522285Y3177715D01*
X9581785Y2796715D02*
X9581785Y2853284D01*
X9525216Y2853284D01*
X9525216Y2796715D01*
X9581785Y2796715D01*
X9712785Y1018715D02*
X9712785Y1075285D01*
X9656216Y1075285D01*
X9656216Y1018715D01*
X9712785Y1018715D01*
X9776285Y4701716D02*
X9776285Y4758285D01*
X9719716Y4758285D01*
X9719716Y4701716D01*
X9776285Y4701716D01*
X9776285Y4320716D02*
X9776285Y4377285D01*
X9719716Y4377285D01*
X9719716Y4320716D01*
X9776285Y4320716D01*
X9776285Y3939715D02*
X9776285Y3996284D01*
X9719716Y3996284D01*
X9719716Y3939715D01*
X9776285Y3939715D01*
X9776285Y3177715D02*
X9776285Y3234284D01*
X9719716Y3234284D01*
X9719716Y3177715D01*
X9776285Y3177715D01*
X9839785Y5844715D02*
X9839785Y5901284D01*
X9783216Y5901284D01*
X9783216Y5844715D01*
X9839785Y5844715D01*
X9839785Y5082716D02*
X9839785Y5139285D01*
X9783216Y5139285D01*
X9783216Y5082716D01*
X9839785Y5082716D01*
X9893125Y2857675D02*
X9893125Y2914244D01*
X9836556Y2914244D01*
X9836556Y2857675D01*
X9893125Y2857675D01*
X9893125Y1841675D02*
X9893125Y1898244D01*
X9836556Y1898244D01*
X9836556Y1841675D01*
X9893125Y1841675D01*
X10030285Y3939715D02*
X10030285Y3996284D01*
X9973716Y3996284D01*
X9973716Y3939715D01*
X10030285Y3939715D01*
X10030285Y3177715D02*
X10030285Y3234284D01*
X9973716Y3234284D01*
X9973716Y3177715D01*
X10030285Y3177715D01*
X10030285Y574216D02*
X10030285Y630785D01*
X9973716Y630785D01*
X9973716Y574216D01*
X10030285Y574216D01*
X10093785Y5844715D02*
X10093785Y5901284D01*
X10037216Y5901284D01*
X10037216Y5844715D01*
X10093785Y5844715D01*
X10093785Y5082716D02*
X10093785Y5139285D01*
X10037216Y5139285D01*
X10037216Y5082716D01*
X10093785Y5082716D01*
X10269045Y2364916D02*
X10269045Y2421485D01*
X10212476Y2421485D01*
X10212476Y2364916D01*
X10269045Y2364916D01*
X10269045Y1348916D02*
X10269045Y1405484D01*
X10212476Y1405484D01*
X10212476Y1348916D01*
X10269045Y1348916D01*
X10284285Y3939715D02*
X10284285Y3996284D01*
X10227716Y3996284D01*
X10227716Y3939715D01*
X10284285Y3939715D01*
X10284285Y3177715D02*
X10284285Y3234284D01*
X10227716Y3234284D01*
X10227716Y3177715D01*
X10284285Y3177715D01*
X10347785Y5844715D02*
X10347785Y5901284D01*
X10291216Y5901284D01*
X10291216Y5844715D01*
X10347785Y5844715D01*
X10347785Y5082716D02*
X10347785Y5139285D01*
X10291216Y5139285D01*
X10291216Y5082716D01*
X10347785Y5082716D01*
X10538285Y3939715D02*
X10538285Y3996284D01*
X10481716Y3996284D01*
X10481716Y3939715D01*
X10538285Y3939715D01*
X10538285Y3177715D02*
X10538285Y3234284D01*
X10481716Y3234284D01*
X10481716Y3177715D01*
X10538285Y3177715D01*
X10601785Y5844715D02*
X10601785Y5901284D01*
X10545216Y5901284D01*
X10545216Y5844715D01*
X10601785Y5844715D01*
X10601785Y5082716D02*
X10601785Y5139285D01*
X10545216Y5139285D01*
X10545216Y5082716D01*
X10601785Y5082716D01*
X10624645Y2364916D02*
X10624645Y2421485D01*
X10568076Y2421485D01*
X10568076Y2364916D01*
X10624645Y2364916D01*
X10624645Y1348916D02*
X10624645Y1405484D01*
X10568076Y1405484D01*
X10568076Y1348916D01*
X10624645Y1348916D01*
X10728785Y1018715D02*
X10728785Y1075285D01*
X10672216Y1075285D01*
X10672216Y1018715D01*
X10728785Y1018715D01*
X10792285Y4701716D02*
X10792285Y4758285D01*
X10735716Y4758285D01*
X10735716Y4701716D01*
X10792285Y4701716D01*
X10792285Y4320716D02*
X10792285Y4377285D01*
X10735716Y4377285D01*
X10735716Y4320716D01*
X10792285Y4320716D01*
X10792285Y3939715D02*
X10792285Y3996284D01*
X10735716Y3996284D01*
X10735716Y3939715D01*
X10792285Y3939715D01*
X10792285Y3177715D02*
X10792285Y3234284D01*
X10735716Y3234284D01*
X10735716Y3177715D01*
X10792285Y3177715D01*
X10982785Y5713715D02*
X10982785Y5770284D01*
X10926216Y5770284D01*
X10926216Y5713715D01*
X10982785Y5713715D01*
X10982785Y5213716D02*
X10982785Y5270285D01*
X10926216Y5270285D01*
X10926216Y5213716D01*
X10982785Y5213716D01*
X10990405Y2364916D02*
X10990405Y2421485D01*
X10933836Y2421485D01*
X10933836Y2364916D01*
X10990405Y2364916D01*
X10990405Y1348916D02*
X10990405Y1405484D01*
X10933836Y1405484D01*
X10933836Y1348916D01*
X10990405Y1348916D01*
X11046285Y3939715D02*
X11046285Y3996284D01*
X10989716Y3996284D01*
X10989716Y3939715D01*
X11046285Y3939715D01*
X11046285Y3177715D02*
X11046285Y3234284D01*
X10989716Y3234284D01*
X10989716Y3177715D01*
X11046285Y3177715D01*
X11363784Y5527216D02*
X11363784Y5583785D01*
X11307215Y5583785D01*
X11307215Y5527216D01*
X11363784Y5527216D01*
X11363784Y4511216D02*
X11363784Y4567785D01*
X11307215Y4567785D01*
X11307215Y4511216D01*
X11363784Y4511216D01*
X11363784Y2225216D02*
X11363784Y2281785D01*
X11307215Y2281785D01*
X11307215Y2225216D01*
X11363784Y2225216D01*
X11363784Y1209216D02*
X11363784Y1265785D01*
X11307215Y1265785D01*
X11307215Y1209216D01*
X11363784Y1209216D01*
X11427284Y3304715D02*
X11427284Y3361284D01*
X11370715Y3361284D01*
X11370715Y3304715D01*
X11427284Y3304715D01*
X11427284Y2923715D02*
X11427284Y2980284D01*
X11370715Y2980284D01*
X11370715Y2923715D01*
X11427284Y2923715D01*
X11427284Y2542716D02*
X11427284Y2599285D01*
X11370715Y2599285D01*
X11370715Y2542716D01*
X11427284Y2542716D01*
X11490784Y4126215D02*
X11490784Y4182784D01*
X11434215Y4182784D01*
X11434215Y4126215D01*
X11490784Y4126215D01*
X11490784Y3626215D02*
X11490784Y3682784D01*
X11434215Y3682784D01*
X11434215Y3626215D01*
X11490784Y3626215D01*
X11744784Y5015216D02*
X11744784Y5071785D01*
X11688215Y5071785D01*
X11688215Y5015216D01*
X11744784Y5015216D01*
X11744784Y4515216D02*
X11744784Y4571785D01*
X11688215Y4571785D01*
X11688215Y4515216D01*
X11744784Y4515216D01*
X11744784Y2225216D02*
X11744784Y2281785D01*
X11688215Y2281785D01*
X11688215Y2225216D01*
X11744784Y2225216D01*
X11744784Y1725215D02*
X11744784Y1781784D01*
X11688215Y1781784D01*
X11688215Y1725215D01*
X11744784Y1725215D01*
X12189284Y2161716D02*
X12189284Y2218285D01*
X12132715Y2218285D01*
X12132715Y2161716D01*
X12189284Y2161716D01*
X12189284Y1145716D02*
X12189284Y1202285D01*
X12132715Y1202285D01*
X12132715Y1145716D01*
X12189284Y1145716D01*
X12443284Y3304715D02*
X12443284Y3361284D01*
X12386715Y3361284D01*
X12386715Y3304715D01*
X12443284Y3304715D01*
X12443284Y2923715D02*
X12443284Y2980284D01*
X12386715Y2980284D01*
X12386715Y2923715D01*
X12443284Y2923715D01*
X12443284Y2542716D02*
X12443284Y2599285D01*
X12386715Y2599285D01*
X12386715Y2542716D01*
X12443284Y2542716D01*
D15*
X11907000Y6267500D02*
X11957000Y6317500D01*
X11907000Y6367500D01*
X11857000Y6317500D01*
X11907000Y6267500D01*
X11907000Y5767500D02*
X11957000Y5817500D01*
X11907000Y5867500D01*
X11857000Y5817500D01*
X11907000Y5767500D01*
D16*
X3782500Y5718273D02*
X3902500Y5598273D01*
X3902500Y5718273D02*
X3782500Y5598273D01*
X3902500Y5658273D02*
G75*
G03*
X3902500Y5658273I-60000J0D01*
G01*
X3782500Y5218273D02*
X3902500Y5098273D01*
X3902500Y5218273D02*
X3782500Y5098273D01*
X3902500Y5158273D02*
G75*
G03*
X3902500Y5158273I-60000J0D01*
G01*
X6957500Y5718273D02*
X7077500Y5598273D01*
X7077500Y5718273D02*
X6957500Y5598273D01*
X7077500Y5658273D02*
G75*
G03*
X7077500Y5658273I-60000J0D01*
G01*
X6957500Y5218273D02*
X7077500Y5098273D01*
X7077500Y5218273D02*
X6957500Y5098273D01*
X7077500Y5158273D02*
G75*
G03*
X7077500Y5158273I-60000J0D01*
G01*
X8505727Y4980500D02*
X8625727Y4860500D01*
X8625727Y4980500D02*
X8505727Y4860500D01*
X8625727Y4920500D02*
G75*
G03*
X8625727Y4920500I-60000J0D01*
G01*
X9005727Y4980500D02*
X9125727Y4860500D01*
X9125727Y4980500D02*
X9005727Y4860500D01*
X9125727Y4920500D02*
G75*
G03*
X9125727Y4920500I-60000J0D01*
G01*
D10*
X250777Y-321484D02*
X250777Y-121484D01*
X250777Y-121484D02*
X298396Y-121484D01*
X298396Y-121484D02*
X326967Y-131008D01*
X326967Y-131008D02*
X346015Y-150055D01*
X346015Y-150055D02*
X355539Y-169103D01*
X355539Y-169103D02*
X365062Y-207198D01*
X365062Y-207198D02*
X365062Y-235769D01*
X365062Y-235769D02*
X355539Y-273865D01*
X355539Y-273865D02*
X346015Y-292912D01*
X346015Y-292912D02*
X326967Y-311960D01*
X326967Y-311960D02*
X298396Y-321484D01*
X298396Y-321484D02*
X250777Y-321484D01*
X450777Y-321484D02*
X450777Y-188150D01*
X450777Y-226246D02*
X460301Y-207198D01*
X460301Y-207198D02*
X469824Y-197674D01*
X469824Y-197674D02*
X488872Y-188150D01*
X488872Y-188150D02*
X507920Y-188150D01*
X574586Y-321484D02*
X574586Y-188150D01*
X574586Y-121484D02*
X565063Y-131008D01*
X565063Y-131008D02*
X574586Y-140531D01*
X574586Y-140531D02*
X584110Y-131008D01*
X584110Y-131008D02*
X574586Y-121484D01*
X574586Y-121484D02*
X574586Y-140531D01*
X698396Y-321484D02*
X679348Y-311960D01*
X679348Y-311960D02*
X669824Y-292912D01*
X669824Y-292912D02*
X669824Y-121484D01*
X803158Y-321484D02*
X784110Y-311960D01*
X784110Y-311960D02*
X774586Y-292912D01*
X774586Y-292912D02*
X774586Y-121484D01*
X1031729Y-321484D02*
X1031729Y-121484D01*
X1031729Y-121484D02*
X1098396Y-264341D01*
X1098396Y-264341D02*
X1165063Y-121484D01*
X1165063Y-121484D02*
X1165063Y-321484D01*
X1346015Y-321484D02*
X1346015Y-216722D01*
X1346015Y-216722D02*
X1336491Y-197674D01*
X1336491Y-197674D02*
X1317444Y-188150D01*
X1317444Y-188150D02*
X1279348Y-188150D01*
X1279348Y-188150D02*
X1260301Y-197674D01*
X1346015Y-311960D02*
X1326967Y-321484D01*
X1326967Y-321484D02*
X1279348Y-321484D01*
X1279348Y-321484D02*
X1260301Y-311960D01*
X1260301Y-311960D02*
X1250777Y-292912D01*
X1250777Y-292912D02*
X1250777Y-273865D01*
X1250777Y-273865D02*
X1260301Y-254817D01*
X1260301Y-254817D02*
X1279348Y-245293D01*
X1279348Y-245293D02*
X1326967Y-245293D01*
X1326967Y-245293D02*
X1346015Y-235769D01*
X1441253Y-188150D02*
X1441253Y-388150D01*
X1441253Y-197674D02*
X1460301Y-188150D01*
X1460301Y-188150D02*
X1498396Y-188150D01*
X1498396Y-188150D02*
X1517443Y-197674D01*
X1517443Y-197674D02*
X1526967Y-207198D01*
X1526967Y-207198D02*
X1536491Y-226246D01*
X1536491Y-226246D02*
X1536491Y-283389D01*
X1536491Y-283389D02*
X1526967Y-302436D01*
X1526967Y-302436D02*
X1517443Y-311960D01*
X1517443Y-311960D02*
X1498396Y-321484D01*
X1498396Y-321484D02*
X1460301Y-321484D01*
X1460301Y-321484D02*
X1441253Y-311960D01*
X1622205Y-302436D02*
X1631729Y-311960D01*
X1631729Y-311960D02*
X1622205Y-321484D01*
X1622205Y-321484D02*
X1612682Y-311960D01*
X1612682Y-311960D02*
X1622205Y-302436D01*
X1622205Y-302436D02*
X1622205Y-321484D01*
X1622205Y-197674D02*
X1631729Y-207198D01*
X1631729Y-207198D02*
X1622205Y-216722D01*
X1622205Y-216722D02*
X1612682Y-207198D01*
X1612682Y-207198D02*
X1622205Y-197674D01*
X1622205Y-197674D02*
X1622205Y-216722D01*
D11*
X-60000Y-625000D02*
X-10000Y-675000D01*
X-10000Y-625000D02*
X-60000Y-675000D01*
D10*
X288872Y-541484D02*
X307920Y-541484D01*
X307920Y-541484D02*
X326967Y-551008D01*
X326967Y-551008D02*
X336491Y-560531D01*
X336491Y-560531D02*
X346015Y-579579D01*
X346015Y-579579D02*
X355539Y-617674D01*
X355539Y-617674D02*
X355539Y-665293D01*
X355539Y-665293D02*
X346015Y-703388D01*
X346015Y-703388D02*
X336491Y-722436D01*
X336491Y-722436D02*
X326967Y-731960D01*
X326967Y-731960D02*
X307920Y-741484D01*
X307920Y-741484D02*
X288872Y-741484D01*
X288872Y-741484D02*
X269824Y-731960D01*
X269824Y-731960D02*
X260301Y-722436D01*
X260301Y-722436D02*
X250777Y-703388D01*
X250777Y-703388D02*
X241253Y-665293D01*
X241253Y-665293D02*
X241253Y-617674D01*
X241253Y-617674D02*
X250777Y-579579D01*
X250777Y-579579D02*
X260301Y-560531D01*
X260301Y-560531D02*
X269824Y-551008D01*
X269824Y-551008D02*
X288872Y-541484D01*
X441253Y-722436D02*
X450777Y-731960D01*
X450777Y-731960D02*
X441253Y-741484D01*
X441253Y-741484D02*
X431729Y-731960D01*
X431729Y-731960D02*
X441253Y-722436D01*
X441253Y-722436D02*
X441253Y-741484D01*
X631729Y-541484D02*
X536491Y-541484D01*
X536491Y-541484D02*
X526967Y-636722D01*
X526967Y-636722D02*
X536491Y-627198D01*
X536491Y-627198D02*
X555539Y-617674D01*
X555539Y-617674D02*
X603158Y-617674D01*
X603158Y-617674D02*
X622205Y-627198D01*
X622205Y-627198D02*
X631729Y-636722D01*
X631729Y-636722D02*
X641253Y-655770D01*
X641253Y-655770D02*
X641253Y-703388D01*
X641253Y-703388D02*
X631729Y-722436D01*
X631729Y-722436D02*
X622205Y-731960D01*
X622205Y-731960D02*
X603158Y-741484D01*
X603158Y-741484D02*
X555539Y-741484D01*
X555539Y-741484D02*
X536491Y-731960D01*
X536491Y-731960D02*
X526967Y-722436D01*
X765062Y-541484D02*
X784110Y-541484D01*
X784110Y-541484D02*
X803158Y-551008D01*
X803158Y-551008D02*
X812682Y-560531D01*
X812682Y-560531D02*
X822205Y-579579D01*
X822205Y-579579D02*
X831729Y-617674D01*
X831729Y-617674D02*
X831729Y-665293D01*
X831729Y-665293D02*
X822205Y-703388D01*
X822205Y-703388D02*
X812682Y-722436D01*
X812682Y-722436D02*
X803158Y-731960D01*
X803158Y-731960D02*
X784110Y-741484D01*
X784110Y-741484D02*
X765062Y-741484D01*
X765062Y-741484D02*
X746015Y-731960D01*
X746015Y-731960D02*
X736491Y-722436D01*
X736491Y-722436D02*
X726967Y-703388D01*
X726967Y-703388D02*
X717443Y-665293D01*
X717443Y-665293D02*
X717443Y-617674D01*
X717443Y-617674D02*
X726967Y-579579D01*
X726967Y-579579D02*
X736491Y-560531D01*
X736491Y-560531D02*
X746015Y-551008D01*
X746015Y-551008D02*
X765062Y-541484D01*
X955539Y-541484D02*
X974586Y-541484D01*
X974586Y-541484D02*
X993634Y-551008D01*
X993634Y-551008D02*
X1003158Y-560531D01*
X1003158Y-560531D02*
X1012682Y-579579D01*
X1012682Y-579579D02*
X1022205Y-617674D01*
X1022205Y-617674D02*
X1022205Y-665293D01*
X1022205Y-665293D02*
X1012682Y-703388D01*
X1012682Y-703388D02*
X1003158Y-722436D01*
X1003158Y-722436D02*
X993634Y-731960D01*
X993634Y-731960D02*
X974586Y-741484D01*
X974586Y-741484D02*
X955539Y-741484D01*
X955539Y-741484D02*
X936491Y-731960D01*
X936491Y-731960D02*
X926967Y-722436D01*
X926967Y-722436D02*
X917443Y-703388D01*
X917443Y-703388D02*
X907920Y-665293D01*
X907920Y-665293D02*
X907920Y-617674D01*
X907920Y-617674D02*
X917443Y-579579D01*
X917443Y-579579D02*
X926967Y-560531D01*
X926967Y-560531D02*
X936491Y-551008D01*
X936491Y-551008D02*
X955539Y-541484D01*
X1107920Y-741484D02*
X1107920Y-608150D01*
X1107920Y-627198D02*
X1117444Y-617674D01*
X1117444Y-617674D02*
X1136491Y-608150D01*
X1136491Y-608150D02*
X1165063Y-608150D01*
X1165063Y-608150D02*
X1184110Y-617674D01*
X1184110Y-617674D02*
X1193634Y-636722D01*
X1193634Y-636722D02*
X1193634Y-741484D01*
X1193634Y-636722D02*
X1203158Y-617674D01*
X1203158Y-617674D02*
X1222205Y-608150D01*
X1222205Y-608150D02*
X1250777Y-608150D01*
X1250777Y-608150D02*
X1269825Y-617674D01*
X1269825Y-617674D02*
X1279348Y-636722D01*
X1279348Y-636722D02*
X1279348Y-741484D01*
X1374586Y-741484D02*
X1374586Y-608150D01*
X1374586Y-627198D02*
X1384110Y-617674D01*
X1384110Y-617674D02*
X1403158Y-608150D01*
X1403158Y-608150D02*
X1431729Y-608150D01*
X1431729Y-608150D02*
X1450777Y-617674D01*
X1450777Y-617674D02*
X1460301Y-636722D01*
X1460301Y-636722D02*
X1460301Y-741484D01*
X1460301Y-636722D02*
X1469824Y-617674D01*
X1469824Y-617674D02*
X1488872Y-608150D01*
X1488872Y-608150D02*
X1517443Y-608150D01*
X1517443Y-608150D02*
X1536491Y-617674D01*
X1536491Y-617674D02*
X1546015Y-636722D01*
X1546015Y-636722D02*
X1546015Y-741484D01*
X1936491Y-531960D02*
X1765063Y-789103D01*
X2193634Y-541484D02*
X2212682Y-541484D01*
X2212682Y-541484D02*
X2231729Y-551008D01*
X2231729Y-551008D02*
X2241253Y-560531D01*
X2241253Y-560531D02*
X2250777Y-579579D01*
X2250777Y-579579D02*
X2260301Y-617674D01*
X2260301Y-617674D02*
X2260301Y-665293D01*
X2260301Y-665293D02*
X2250777Y-703388D01*
X2250777Y-703388D02*
X2241253Y-722436D01*
X2241253Y-722436D02*
X2231729Y-731960D01*
X2231729Y-731960D02*
X2212682Y-741484D01*
X2212682Y-741484D02*
X2193634Y-741484D01*
X2193634Y-741484D02*
X2174587Y-731960D01*
X2174587Y-731960D02*
X2165063Y-722436D01*
X2165063Y-722436D02*
X2155539Y-703388D01*
X2155539Y-703388D02*
X2146015Y-665293D01*
X2146015Y-665293D02*
X2146015Y-617674D01*
X2146015Y-617674D02*
X2155539Y-579579D01*
X2155539Y-579579D02*
X2165063Y-560531D01*
X2165063Y-560531D02*
X2174587Y-551008D01*
X2174587Y-551008D02*
X2193634Y-541484D01*
X2346015Y-722436D02*
X2355539Y-731960D01*
X2355539Y-731960D02*
X2346015Y-741484D01*
X2346015Y-741484D02*
X2336491Y-731960D01*
X2336491Y-731960D02*
X2346015Y-722436D01*
X2346015Y-722436D02*
X2346015Y-741484D01*
X2479348Y-541484D02*
X2498396Y-541484D01*
X2498396Y-541484D02*
X2517444Y-551008D01*
X2517444Y-551008D02*
X2526968Y-560531D01*
X2526968Y-560531D02*
X2536491Y-579579D01*
X2536491Y-579579D02*
X2546015Y-617674D01*
X2546015Y-617674D02*
X2546015Y-665293D01*
X2546015Y-665293D02*
X2536491Y-703388D01*
X2536491Y-703388D02*
X2526968Y-722436D01*
X2526968Y-722436D02*
X2517444Y-731960D01*
X2517444Y-731960D02*
X2498396Y-741484D01*
X2498396Y-741484D02*
X2479348Y-741484D01*
X2479348Y-741484D02*
X2460301Y-731960D01*
X2460301Y-731960D02*
X2450777Y-722436D01*
X2450777Y-722436D02*
X2441253Y-703388D01*
X2441253Y-703388D02*
X2431729Y-665293D01*
X2431729Y-665293D02*
X2431729Y-617674D01*
X2431729Y-617674D02*
X2441253Y-579579D01*
X2441253Y-579579D02*
X2450777Y-560531D01*
X2450777Y-560531D02*
X2460301Y-551008D01*
X2460301Y-551008D02*
X2479348Y-541484D01*
X2736491Y-741484D02*
X2622206Y-741484D01*
X2679348Y-741484D02*
X2679348Y-541484D01*
X2679348Y-541484D02*
X2660301Y-570055D01*
X2660301Y-570055D02*
X2641253Y-589103D01*
X2641253Y-589103D02*
X2622206Y-598627D01*
X2831729Y-741484D02*
X2869825Y-741484D01*
X2869825Y-741484D02*
X2888872Y-731960D01*
X2888872Y-731960D02*
X2898396Y-722436D01*
X2898396Y-722436D02*
X2917444Y-693865D01*
X2917444Y-693865D02*
X2926967Y-655770D01*
X2926967Y-655770D02*
X2926967Y-579579D01*
X2926967Y-579579D02*
X2917444Y-560531D01*
X2917444Y-560531D02*
X2907920Y-551008D01*
X2907920Y-551008D02*
X2888872Y-541484D01*
X2888872Y-541484D02*
X2850777Y-541484D01*
X2850777Y-541484D02*
X2831729Y-551008D01*
X2831729Y-551008D02*
X2822206Y-560531D01*
X2822206Y-560531D02*
X2812682Y-579579D01*
X2812682Y-579579D02*
X2812682Y-627198D01*
X2812682Y-627198D02*
X2822206Y-646246D01*
X2822206Y-646246D02*
X2831729Y-655770D01*
X2831729Y-655770D02*
X2850777Y-665293D01*
X2850777Y-665293D02*
X2888872Y-665293D01*
X2888872Y-665293D02*
X2907920Y-655770D01*
X2907920Y-655770D02*
X2917444Y-646246D01*
X2917444Y-646246D02*
X2926967Y-627198D01*
X2993634Y-541484D02*
X3126967Y-541484D01*
X3126967Y-541484D02*
X3041253Y-741484D01*
X3193634Y-541484D02*
X3193634Y-579579D01*
X3269825Y-541484D02*
X3269825Y-579579D01*
X3565063Y-817674D02*
X3555539Y-808150D01*
X3555539Y-808150D02*
X3536491Y-779579D01*
X3536491Y-779579D02*
X3526968Y-760531D01*
X3526968Y-760531D02*
X3517444Y-731960D01*
X3517444Y-731960D02*
X3507920Y-684341D01*
X3507920Y-684341D02*
X3507920Y-646246D01*
X3507920Y-646246D02*
X3517444Y-598627D01*
X3517444Y-598627D02*
X3526968Y-570055D01*
X3526968Y-570055D02*
X3536491Y-551008D01*
X3536491Y-551008D02*
X3555539Y-522436D01*
X3555539Y-522436D02*
X3565063Y-512912D01*
X3622206Y-541484D02*
X3746015Y-541484D01*
X3746015Y-541484D02*
X3679348Y-617674D01*
X3679348Y-617674D02*
X3707920Y-617674D01*
X3707920Y-617674D02*
X3726968Y-627198D01*
X3726968Y-627198D02*
X3736491Y-636722D01*
X3736491Y-636722D02*
X3746015Y-655770D01*
X3746015Y-655770D02*
X3746015Y-703388D01*
X3746015Y-703388D02*
X3736491Y-722436D01*
X3736491Y-722436D02*
X3726968Y-731960D01*
X3726968Y-731960D02*
X3707920Y-741484D01*
X3707920Y-741484D02*
X3650777Y-741484D01*
X3650777Y-741484D02*
X3631729Y-731960D01*
X3631729Y-731960D02*
X3622206Y-722436D01*
X3869825Y-541484D02*
X3888872Y-541484D01*
X3888872Y-541484D02*
X3907920Y-551008D01*
X3907920Y-551008D02*
X3917444Y-560531D01*
X3917444Y-560531D02*
X3926968Y-579579D01*
X3926968Y-579579D02*
X3936491Y-617674D01*
X3936491Y-617674D02*
X3936491Y-665293D01*
X3936491Y-665293D02*
X3926968Y-703388D01*
X3926968Y-703388D02*
X3917444Y-722436D01*
X3917444Y-722436D02*
X3907920Y-731960D01*
X3907920Y-731960D02*
X3888872Y-741484D01*
X3888872Y-741484D02*
X3869825Y-741484D01*
X3869825Y-741484D02*
X3850777Y-731960D01*
X3850777Y-731960D02*
X3841253Y-722436D01*
X3841253Y-722436D02*
X3831729Y-703388D01*
X3831729Y-703388D02*
X3822206Y-665293D01*
X3822206Y-665293D02*
X3822206Y-617674D01*
X3822206Y-617674D02*
X3831729Y-579579D01*
X3831729Y-579579D02*
X3841253Y-560531D01*
X3841253Y-560531D02*
X3850777Y-551008D01*
X3850777Y-551008D02*
X3869825Y-541484D01*
X4174587Y-741484D02*
X4174587Y-541484D01*
X4260301Y-741484D02*
X4260301Y-636722D01*
X4260301Y-636722D02*
X4250777Y-617674D01*
X4250777Y-617674D02*
X4231730Y-608150D01*
X4231730Y-608150D02*
X4203158Y-608150D01*
X4203158Y-608150D02*
X4184110Y-617674D01*
X4184110Y-617674D02*
X4174587Y-627198D01*
X4384111Y-741484D02*
X4365063Y-731960D01*
X4365063Y-731960D02*
X4355539Y-722436D01*
X4355539Y-722436D02*
X4346015Y-703388D01*
X4346015Y-703388D02*
X4346015Y-646246D01*
X4346015Y-646246D02*
X4355539Y-627198D01*
X4355539Y-627198D02*
X4365063Y-617674D01*
X4365063Y-617674D02*
X4384111Y-608150D01*
X4384111Y-608150D02*
X4412682Y-608150D01*
X4412682Y-608150D02*
X4431730Y-617674D01*
X4431730Y-617674D02*
X4441253Y-627198D01*
X4441253Y-627198D02*
X4450777Y-646246D01*
X4450777Y-646246D02*
X4450777Y-703388D01*
X4450777Y-703388D02*
X4441253Y-722436D01*
X4441253Y-722436D02*
X4431730Y-731960D01*
X4431730Y-731960D02*
X4412682Y-741484D01*
X4412682Y-741484D02*
X4384111Y-741484D01*
X4565063Y-741484D02*
X4546015Y-731960D01*
X4546015Y-731960D02*
X4536492Y-712912D01*
X4536492Y-712912D02*
X4536492Y-541484D01*
X4717444Y-731960D02*
X4698396Y-741484D01*
X4698396Y-741484D02*
X4660301Y-741484D01*
X4660301Y-741484D02*
X4641253Y-731960D01*
X4641253Y-731960D02*
X4631730Y-712912D01*
X4631730Y-712912D02*
X4631730Y-636722D01*
X4631730Y-636722D02*
X4641253Y-617674D01*
X4641253Y-617674D02*
X4660301Y-608150D01*
X4660301Y-608150D02*
X4698396Y-608150D01*
X4698396Y-608150D02*
X4717444Y-617674D01*
X4717444Y-617674D02*
X4726968Y-636722D01*
X4726968Y-636722D02*
X4726968Y-655770D01*
X4726968Y-655770D02*
X4631730Y-674817D01*
X4803158Y-731960D02*
X4822206Y-741484D01*
X4822206Y-741484D02*
X4860301Y-741484D01*
X4860301Y-741484D02*
X4879349Y-731960D01*
X4879349Y-731960D02*
X4888873Y-712912D01*
X4888873Y-712912D02*
X4888873Y-703388D01*
X4888873Y-703388D02*
X4879349Y-684341D01*
X4879349Y-684341D02*
X4860301Y-674817D01*
X4860301Y-674817D02*
X4831730Y-674817D01*
X4831730Y-674817D02*
X4812682Y-665293D01*
X4812682Y-665293D02*
X4803158Y-646246D01*
X4803158Y-646246D02*
X4803158Y-636722D01*
X4803158Y-636722D02*
X4812682Y-617674D01*
X4812682Y-617674D02*
X4831730Y-608150D01*
X4831730Y-608150D02*
X4860301Y-608150D01*
X4860301Y-608150D02*
X4879349Y-617674D01*
X4955539Y-817674D02*
X4965063Y-808150D01*
X4965063Y-808150D02*
X4984111Y-779579D01*
X4984111Y-779579D02*
X4993634Y-760531D01*
X4993634Y-760531D02*
X5003158Y-731960D01*
X5003158Y-731960D02*
X5012682Y-684341D01*
X5012682Y-684341D02*
X5012682Y-646246D01*
X5012682Y-646246D02*
X5003158Y-598627D01*
X5003158Y-598627D02*
X4993634Y-570055D01*
X4993634Y-570055D02*
X4984111Y-551008D01*
X4984111Y-551008D02*
X4965063Y-522436D01*
X4965063Y-522436D02*
X4955539Y-512912D01*
D12*
X-10000Y-914000D02*
G75*
G03*
X-10000Y-914000I-30000J0D01*
G01*
D10*
X288872Y-805484D02*
X307920Y-805484D01*
X307920Y-805484D02*
X326967Y-815008D01*
X326967Y-815008D02*
X336491Y-824531D01*
X336491Y-824531D02*
X346015Y-843579D01*
X346015Y-843579D02*
X355539Y-881674D01*
X355539Y-881674D02*
X355539Y-929293D01*
X355539Y-929293D02*
X346015Y-967388D01*
X346015Y-967388D02*
X336491Y-986436D01*
X336491Y-986436D02*
X326967Y-995960D01*
X326967Y-995960D02*
X307920Y-1005484D01*
X307920Y-1005484D02*
X288872Y-1005484D01*
X288872Y-1005484D02*
X269824Y-995960D01*
X269824Y-995960D02*
X260301Y-986436D01*
X260301Y-986436D02*
X250777Y-967388D01*
X250777Y-967388D02*
X241253Y-929293D01*
X241253Y-929293D02*
X241253Y-881674D01*
X241253Y-881674D02*
X250777Y-843579D01*
X250777Y-843579D02*
X260301Y-824531D01*
X260301Y-824531D02*
X269824Y-815008D01*
X269824Y-815008D02*
X288872Y-805484D01*
X441253Y-986436D02*
X450777Y-995960D01*
X450777Y-995960D02*
X441253Y-1005484D01*
X441253Y-1005484D02*
X431729Y-995960D01*
X431729Y-995960D02*
X441253Y-986436D01*
X441253Y-986436D02*
X441253Y-1005484D01*
X622205Y-805484D02*
X584110Y-805484D01*
X584110Y-805484D02*
X565063Y-815008D01*
X565063Y-815008D02*
X555539Y-824531D01*
X555539Y-824531D02*
X536491Y-853103D01*
X536491Y-853103D02*
X526967Y-891198D01*
X526967Y-891198D02*
X526967Y-967388D01*
X526967Y-967388D02*
X536491Y-986436D01*
X536491Y-986436D02*
X546015Y-995960D01*
X546015Y-995960D02*
X565063Y-1005484D01*
X565063Y-1005484D02*
X603158Y-1005484D01*
X603158Y-1005484D02*
X622205Y-995960D01*
X622205Y-995960D02*
X631729Y-986436D01*
X631729Y-986436D02*
X641253Y-967388D01*
X641253Y-967388D02*
X641253Y-919769D01*
X641253Y-919769D02*
X631729Y-900722D01*
X631729Y-900722D02*
X622205Y-891198D01*
X622205Y-891198D02*
X603158Y-881674D01*
X603158Y-881674D02*
X565063Y-881674D01*
X565063Y-881674D02*
X546015Y-891198D01*
X546015Y-891198D02*
X536491Y-900722D01*
X536491Y-900722D02*
X526967Y-919769D01*
X765062Y-805484D02*
X784110Y-805484D01*
X784110Y-805484D02*
X803158Y-815008D01*
X803158Y-815008D02*
X812682Y-824531D01*
X812682Y-824531D02*
X822205Y-843579D01*
X822205Y-843579D02*
X831729Y-881674D01*
X831729Y-881674D02*
X831729Y-929293D01*
X831729Y-929293D02*
X822205Y-967388D01*
X822205Y-967388D02*
X812682Y-986436D01*
X812682Y-986436D02*
X803158Y-995960D01*
X803158Y-995960D02*
X784110Y-1005484D01*
X784110Y-1005484D02*
X765062Y-1005484D01*
X765062Y-1005484D02*
X746015Y-995960D01*
X746015Y-995960D02*
X736491Y-986436D01*
X736491Y-986436D02*
X726967Y-967388D01*
X726967Y-967388D02*
X717443Y-929293D01*
X717443Y-929293D02*
X717443Y-881674D01*
X717443Y-881674D02*
X726967Y-843579D01*
X726967Y-843579D02*
X736491Y-824531D01*
X736491Y-824531D02*
X746015Y-815008D01*
X746015Y-815008D02*
X765062Y-805484D01*
X955539Y-805484D02*
X974586Y-805484D01*
X974586Y-805484D02*
X993634Y-815008D01*
X993634Y-815008D02*
X1003158Y-824531D01*
X1003158Y-824531D02*
X1012682Y-843579D01*
X1012682Y-843579D02*
X1022205Y-881674D01*
X1022205Y-881674D02*
X1022205Y-929293D01*
X1022205Y-929293D02*
X1012682Y-967388D01*
X1012682Y-967388D02*
X1003158Y-986436D01*
X1003158Y-986436D02*
X993634Y-995960D01*
X993634Y-995960D02*
X974586Y-1005484D01*
X974586Y-1005484D02*
X955539Y-1005484D01*
X955539Y-1005484D02*
X936491Y-995960D01*
X936491Y-995960D02*
X926967Y-986436D01*
X926967Y-986436D02*
X917443Y-967388D01*
X917443Y-967388D02*
X907920Y-929293D01*
X907920Y-929293D02*
X907920Y-881674D01*
X907920Y-881674D02*
X917443Y-843579D01*
X917443Y-843579D02*
X926967Y-824531D01*
X926967Y-824531D02*
X936491Y-815008D01*
X936491Y-815008D02*
X955539Y-805484D01*
X1107920Y-1005484D02*
X1107920Y-872150D01*
X1107920Y-891198D02*
X1117444Y-881674D01*
X1117444Y-881674D02*
X1136491Y-872150D01*
X1136491Y-872150D02*
X1165063Y-872150D01*
X1165063Y-872150D02*
X1184110Y-881674D01*
X1184110Y-881674D02*
X1193634Y-900722D01*
X1193634Y-900722D02*
X1193634Y-1005484D01*
X1193634Y-900722D02*
X1203158Y-881674D01*
X1203158Y-881674D02*
X1222205Y-872150D01*
X1222205Y-872150D02*
X1250777Y-872150D01*
X1250777Y-872150D02*
X1269825Y-881674D01*
X1269825Y-881674D02*
X1279348Y-900722D01*
X1279348Y-900722D02*
X1279348Y-1005484D01*
X1374586Y-1005484D02*
X1374586Y-872150D01*
X1374586Y-891198D02*
X1384110Y-881674D01*
X1384110Y-881674D02*
X1403158Y-872150D01*
X1403158Y-872150D02*
X1431729Y-872150D01*
X1431729Y-872150D02*
X1450777Y-881674D01*
X1450777Y-881674D02*
X1460301Y-900722D01*
X1460301Y-900722D02*
X1460301Y-1005484D01*
X1460301Y-900722D02*
X1469824Y-881674D01*
X1469824Y-881674D02*
X1488872Y-872150D01*
X1488872Y-872150D02*
X1517443Y-872150D01*
X1517443Y-872150D02*
X1536491Y-881674D01*
X1536491Y-881674D02*
X1546015Y-900722D01*
X1546015Y-900722D02*
X1546015Y-1005484D01*
X1936491Y-795960D02*
X1765063Y-1053103D01*
X2193634Y-805484D02*
X2212682Y-805484D01*
X2212682Y-805484D02*
X2231729Y-815008D01*
X2231729Y-815008D02*
X2241253Y-824531D01*
X2241253Y-824531D02*
X2250777Y-843579D01*
X2250777Y-843579D02*
X2260301Y-881674D01*
X2260301Y-881674D02*
X2260301Y-929293D01*
X2260301Y-929293D02*
X2250777Y-967388D01*
X2250777Y-967388D02*
X2241253Y-986436D01*
X2241253Y-986436D02*
X2231729Y-995960D01*
X2231729Y-995960D02*
X2212682Y-1005484D01*
X2212682Y-1005484D02*
X2193634Y-1005484D01*
X2193634Y-1005484D02*
X2174587Y-995960D01*
X2174587Y-995960D02*
X2165063Y-986436D01*
X2165063Y-986436D02*
X2155539Y-967388D01*
X2155539Y-967388D02*
X2146015Y-929293D01*
X2146015Y-929293D02*
X2146015Y-881674D01*
X2146015Y-881674D02*
X2155539Y-843579D01*
X2155539Y-843579D02*
X2165063Y-824531D01*
X2165063Y-824531D02*
X2174587Y-815008D01*
X2174587Y-815008D02*
X2193634Y-805484D01*
X2346015Y-986436D02*
X2355539Y-995960D01*
X2355539Y-995960D02*
X2346015Y-1005484D01*
X2346015Y-1005484D02*
X2336491Y-995960D01*
X2336491Y-995960D02*
X2346015Y-986436D01*
X2346015Y-986436D02*
X2346015Y-1005484D01*
X2479348Y-805484D02*
X2498396Y-805484D01*
X2498396Y-805484D02*
X2517444Y-815008D01*
X2517444Y-815008D02*
X2526968Y-824531D01*
X2526968Y-824531D02*
X2536491Y-843579D01*
X2536491Y-843579D02*
X2546015Y-881674D01*
X2546015Y-881674D02*
X2546015Y-929293D01*
X2546015Y-929293D02*
X2536491Y-967388D01*
X2536491Y-967388D02*
X2526968Y-986436D01*
X2526968Y-986436D02*
X2517444Y-995960D01*
X2517444Y-995960D02*
X2498396Y-1005484D01*
X2498396Y-1005484D02*
X2479348Y-1005484D01*
X2479348Y-1005484D02*
X2460301Y-995960D01*
X2460301Y-995960D02*
X2450777Y-986436D01*
X2450777Y-986436D02*
X2441253Y-967388D01*
X2441253Y-967388D02*
X2431729Y-929293D01*
X2431729Y-929293D02*
X2431729Y-881674D01*
X2431729Y-881674D02*
X2441253Y-843579D01*
X2441253Y-843579D02*
X2450777Y-824531D01*
X2450777Y-824531D02*
X2460301Y-815008D01*
X2460301Y-815008D02*
X2479348Y-805484D01*
X2622206Y-824531D02*
X2631729Y-815008D01*
X2631729Y-815008D02*
X2650777Y-805484D01*
X2650777Y-805484D02*
X2698396Y-805484D01*
X2698396Y-805484D02*
X2717444Y-815008D01*
X2717444Y-815008D02*
X2726968Y-824531D01*
X2726968Y-824531D02*
X2736491Y-843579D01*
X2736491Y-843579D02*
X2736491Y-862627D01*
X2736491Y-862627D02*
X2726968Y-891198D01*
X2726968Y-891198D02*
X2612682Y-1005484D01*
X2612682Y-1005484D02*
X2736491Y-1005484D01*
X2803158Y-805484D02*
X2926967Y-805484D01*
X2926967Y-805484D02*
X2860301Y-881674D01*
X2860301Y-881674D02*
X2888872Y-881674D01*
X2888872Y-881674D02*
X2907920Y-891198D01*
X2907920Y-891198D02*
X2917444Y-900722D01*
X2917444Y-900722D02*
X2926967Y-919769D01*
X2926967Y-919769D02*
X2926967Y-967388D01*
X2926967Y-967388D02*
X2917444Y-986436D01*
X2917444Y-986436D02*
X2907920Y-995960D01*
X2907920Y-995960D02*
X2888872Y-1005484D01*
X2888872Y-1005484D02*
X2831729Y-1005484D01*
X2831729Y-1005484D02*
X2812682Y-995960D01*
X2812682Y-995960D02*
X2803158Y-986436D01*
X3098396Y-805484D02*
X3060301Y-805484D01*
X3060301Y-805484D02*
X3041253Y-815008D01*
X3041253Y-815008D02*
X3031729Y-824531D01*
X3031729Y-824531D02*
X3012682Y-853103D01*
X3012682Y-853103D02*
X3003158Y-891198D01*
X3003158Y-891198D02*
X3003158Y-967388D01*
X3003158Y-967388D02*
X3012682Y-986436D01*
X3012682Y-986436D02*
X3022206Y-995960D01*
X3022206Y-995960D02*
X3041253Y-1005484D01*
X3041253Y-1005484D02*
X3079348Y-1005484D01*
X3079348Y-1005484D02*
X3098396Y-995960D01*
X3098396Y-995960D02*
X3107920Y-986436D01*
X3107920Y-986436D02*
X3117444Y-967388D01*
X3117444Y-967388D02*
X3117444Y-919769D01*
X3117444Y-919769D02*
X3107920Y-900722D01*
X3107920Y-900722D02*
X3098396Y-891198D01*
X3098396Y-891198D02*
X3079348Y-881674D01*
X3079348Y-881674D02*
X3041253Y-881674D01*
X3041253Y-881674D02*
X3022206Y-891198D01*
X3022206Y-891198D02*
X3012682Y-900722D01*
X3012682Y-900722D02*
X3003158Y-919769D01*
X3193634Y-805484D02*
X3193634Y-843579D01*
X3269825Y-805484D02*
X3269825Y-843579D01*
X3565063Y-1081674D02*
X3555539Y-1072150D01*
X3555539Y-1072150D02*
X3536491Y-1043579D01*
X3536491Y-1043579D02*
X3526968Y-1024531D01*
X3526968Y-1024531D02*
X3517444Y-995960D01*
X3517444Y-995960D02*
X3507920Y-948341D01*
X3507920Y-948341D02*
X3507920Y-910246D01*
X3507920Y-910246D02*
X3517444Y-862627D01*
X3517444Y-862627D02*
X3526968Y-834055D01*
X3526968Y-834055D02*
X3536491Y-815008D01*
X3536491Y-815008D02*
X3555539Y-786436D01*
X3555539Y-786436D02*
X3565063Y-776912D01*
X3746015Y-1005484D02*
X3631729Y-1005484D01*
X3688872Y-1005484D02*
X3688872Y-805484D01*
X3688872Y-805484D02*
X3669825Y-834055D01*
X3669825Y-834055D02*
X3650777Y-853103D01*
X3650777Y-853103D02*
X3631729Y-862627D01*
X3869825Y-805484D02*
X3888872Y-805484D01*
X3888872Y-805484D02*
X3907920Y-815008D01*
X3907920Y-815008D02*
X3917444Y-824531D01*
X3917444Y-824531D02*
X3926968Y-843579D01*
X3926968Y-843579D02*
X3936491Y-881674D01*
X3936491Y-881674D02*
X3936491Y-929293D01*
X3936491Y-929293D02*
X3926968Y-967388D01*
X3926968Y-967388D02*
X3917444Y-986436D01*
X3917444Y-986436D02*
X3907920Y-995960D01*
X3907920Y-995960D02*
X3888872Y-1005484D01*
X3888872Y-1005484D02*
X3869825Y-1005484D01*
X3869825Y-1005484D02*
X3850777Y-995960D01*
X3850777Y-995960D02*
X3841253Y-986436D01*
X3841253Y-986436D02*
X3831729Y-967388D01*
X3831729Y-967388D02*
X3822206Y-929293D01*
X3822206Y-929293D02*
X3822206Y-881674D01*
X3822206Y-881674D02*
X3831729Y-843579D01*
X3831729Y-843579D02*
X3841253Y-824531D01*
X3841253Y-824531D02*
X3850777Y-815008D01*
X3850777Y-815008D02*
X3869825Y-805484D01*
X4174587Y-1005484D02*
X4174587Y-805484D01*
X4260301Y-1005484D02*
X4260301Y-900722D01*
X4260301Y-900722D02*
X4250777Y-881674D01*
X4250777Y-881674D02*
X4231730Y-872150D01*
X4231730Y-872150D02*
X4203158Y-872150D01*
X4203158Y-872150D02*
X4184110Y-881674D01*
X4184110Y-881674D02*
X4174587Y-891198D01*
X4384111Y-1005484D02*
X4365063Y-995960D01*
X4365063Y-995960D02*
X4355539Y-986436D01*
X4355539Y-986436D02*
X4346015Y-967388D01*
X4346015Y-967388D02*
X4346015Y-910246D01*
X4346015Y-910246D02*
X4355539Y-891198D01*
X4355539Y-891198D02*
X4365063Y-881674D01*
X4365063Y-881674D02*
X4384111Y-872150D01*
X4384111Y-872150D02*
X4412682Y-872150D01*
X4412682Y-872150D02*
X4431730Y-881674D01*
X4431730Y-881674D02*
X4441253Y-891198D01*
X4441253Y-891198D02*
X4450777Y-910246D01*
X4450777Y-910246D02*
X4450777Y-967388D01*
X4450777Y-967388D02*
X4441253Y-986436D01*
X4441253Y-986436D02*
X4431730Y-995960D01*
X4431730Y-995960D02*
X4412682Y-1005484D01*
X4412682Y-1005484D02*
X4384111Y-1005484D01*
X4565063Y-1005484D02*
X4546015Y-995960D01*
X4546015Y-995960D02*
X4536492Y-976912D01*
X4536492Y-976912D02*
X4536492Y-805484D01*
X4717444Y-995960D02*
X4698396Y-1005484D01*
X4698396Y-1005484D02*
X4660301Y-1005484D01*
X4660301Y-1005484D02*
X4641253Y-995960D01*
X4641253Y-995960D02*
X4631730Y-976912D01*
X4631730Y-976912D02*
X4631730Y-900722D01*
X4631730Y-900722D02*
X4641253Y-881674D01*
X4641253Y-881674D02*
X4660301Y-872150D01*
X4660301Y-872150D02*
X4698396Y-872150D01*
X4698396Y-872150D02*
X4717444Y-881674D01*
X4717444Y-881674D02*
X4726968Y-900722D01*
X4726968Y-900722D02*
X4726968Y-919769D01*
X4726968Y-919769D02*
X4631730Y-938817D01*
X4803158Y-995960D02*
X4822206Y-1005484D01*
X4822206Y-1005484D02*
X4860301Y-1005484D01*
X4860301Y-1005484D02*
X4879349Y-995960D01*
X4879349Y-995960D02*
X4888873Y-976912D01*
X4888873Y-976912D02*
X4888873Y-967388D01*
X4888873Y-967388D02*
X4879349Y-948341D01*
X4879349Y-948341D02*
X4860301Y-938817D01*
X4860301Y-938817D02*
X4831730Y-938817D01*
X4831730Y-938817D02*
X4812682Y-929293D01*
X4812682Y-929293D02*
X4803158Y-910246D01*
X4803158Y-910246D02*
X4803158Y-900722D01*
X4803158Y-900722D02*
X4812682Y-881674D01*
X4812682Y-881674D02*
X4831730Y-872150D01*
X4831730Y-872150D02*
X4860301Y-872150D01*
X4860301Y-872150D02*
X4879349Y-881674D01*
X4955539Y-1081674D02*
X4965063Y-1072150D01*
X4965063Y-1072150D02*
X4984111Y-1043579D01*
X4984111Y-1043579D02*
X4993634Y-1024531D01*
X4993634Y-1024531D02*
X5003158Y-995960D01*
X5003158Y-995960D02*
X5012682Y-948341D01*
X5012682Y-948341D02*
X5012682Y-910246D01*
X5012682Y-910246D02*
X5003158Y-862627D01*
X5003158Y-862627D02*
X4993634Y-834055D01*
X4993634Y-834055D02*
X4984111Y-815008D01*
X4984111Y-815008D02*
X4965063Y-786436D01*
X4965063Y-786436D02*
X4955539Y-776912D01*
D13*
X-47500Y-1140500D02*
X-47500Y-1215500D01*
X-85000Y-1178000D02*
X-10000Y-1178000D01*
D10*
X288872Y-1069484D02*
X307920Y-1069484D01*
X307920Y-1069484D02*
X326967Y-1079008D01*
X326967Y-1079008D02*
X336491Y-1088531D01*
X336491Y-1088531D02*
X346015Y-1107579D01*
X346015Y-1107579D02*
X355539Y-1145674D01*
X355539Y-1145674D02*
X355539Y-1193293D01*
X355539Y-1193293D02*
X346015Y-1231389D01*
X346015Y-1231389D02*
X336491Y-1250436D01*
X336491Y-1250436D02*
X326967Y-1259960D01*
X326967Y-1259960D02*
X307920Y-1269484D01*
X307920Y-1269484D02*
X288872Y-1269484D01*
X288872Y-1269484D02*
X269824Y-1259960D01*
X269824Y-1259960D02*
X260301Y-1250436D01*
X260301Y-1250436D02*
X250777Y-1231389D01*
X250777Y-1231389D02*
X241253Y-1193293D01*
X241253Y-1193293D02*
X241253Y-1145674D01*
X241253Y-1145674D02*
X250777Y-1107579D01*
X250777Y-1107579D02*
X260301Y-1088531D01*
X260301Y-1088531D02*
X269824Y-1079008D01*
X269824Y-1079008D02*
X288872Y-1069484D01*
X441253Y-1250436D02*
X450777Y-1259960D01*
X450777Y-1259960D02*
X441253Y-1269484D01*
X441253Y-1269484D02*
X431729Y-1259960D01*
X431729Y-1259960D02*
X441253Y-1250436D01*
X441253Y-1250436D02*
X441253Y-1269484D01*
X517443Y-1069484D02*
X650777Y-1069484D01*
X650777Y-1069484D02*
X565063Y-1269484D01*
X822205Y-1069484D02*
X726967Y-1069484D01*
X726967Y-1069484D02*
X717443Y-1164722D01*
X717443Y-1164722D02*
X726967Y-1155198D01*
X726967Y-1155198D02*
X746015Y-1145674D01*
X746015Y-1145674D02*
X793634Y-1145674D01*
X793634Y-1145674D02*
X812682Y-1155198D01*
X812682Y-1155198D02*
X822205Y-1164722D01*
X822205Y-1164722D02*
X831729Y-1183770D01*
X831729Y-1183770D02*
X831729Y-1231389D01*
X831729Y-1231389D02*
X822205Y-1250436D01*
X822205Y-1250436D02*
X812682Y-1259960D01*
X812682Y-1259960D02*
X793634Y-1269484D01*
X793634Y-1269484D02*
X746015Y-1269484D01*
X746015Y-1269484D02*
X726967Y-1259960D01*
X726967Y-1259960D02*
X717443Y-1250436D01*
X955539Y-1069484D02*
X974586Y-1069484D01*
X974586Y-1069484D02*
X993634Y-1079008D01*
X993634Y-1079008D02*
X1003158Y-1088531D01*
X1003158Y-1088531D02*
X1012682Y-1107579D01*
X1012682Y-1107579D02*
X1022205Y-1145674D01*
X1022205Y-1145674D02*
X1022205Y-1193293D01*
X1022205Y-1193293D02*
X1012682Y-1231389D01*
X1012682Y-1231389D02*
X1003158Y-1250436D01*
X1003158Y-1250436D02*
X993634Y-1259960D01*
X993634Y-1259960D02*
X974586Y-1269484D01*
X974586Y-1269484D02*
X955539Y-1269484D01*
X955539Y-1269484D02*
X936491Y-1259960D01*
X936491Y-1259960D02*
X926967Y-1250436D01*
X926967Y-1250436D02*
X917443Y-1231389D01*
X917443Y-1231389D02*
X907920Y-1193293D01*
X907920Y-1193293D02*
X907920Y-1145674D01*
X907920Y-1145674D02*
X917443Y-1107579D01*
X917443Y-1107579D02*
X926967Y-1088531D01*
X926967Y-1088531D02*
X936491Y-1079008D01*
X936491Y-1079008D02*
X955539Y-1069484D01*
X1107920Y-1269484D02*
X1107920Y-1136150D01*
X1107920Y-1155198D02*
X1117444Y-1145674D01*
X1117444Y-1145674D02*
X1136491Y-1136150D01*
X1136491Y-1136150D02*
X1165063Y-1136150D01*
X1165063Y-1136150D02*
X1184110Y-1145674D01*
X1184110Y-1145674D02*
X1193634Y-1164722D01*
X1193634Y-1164722D02*
X1193634Y-1269484D01*
X1193634Y-1164722D02*
X1203158Y-1145674D01*
X1203158Y-1145674D02*
X1222205Y-1136150D01*
X1222205Y-1136150D02*
X1250777Y-1136150D01*
X1250777Y-1136150D02*
X1269825Y-1145674D01*
X1269825Y-1145674D02*
X1279348Y-1164722D01*
X1279348Y-1164722D02*
X1279348Y-1269484D01*
X1374586Y-1269484D02*
X1374586Y-1136150D01*
X1374586Y-1155198D02*
X1384110Y-1145674D01*
X1384110Y-1145674D02*
X1403158Y-1136150D01*
X1403158Y-1136150D02*
X1431729Y-1136150D01*
X1431729Y-1136150D02*
X1450777Y-1145674D01*
X1450777Y-1145674D02*
X1460301Y-1164722D01*
X1460301Y-1164722D02*
X1460301Y-1269484D01*
X1460301Y-1164722D02*
X1469824Y-1145674D01*
X1469824Y-1145674D02*
X1488872Y-1136150D01*
X1488872Y-1136150D02*
X1517443Y-1136150D01*
X1517443Y-1136150D02*
X1536491Y-1145674D01*
X1536491Y-1145674D02*
X1546015Y-1164722D01*
X1546015Y-1164722D02*
X1546015Y-1269484D01*
X1936491Y-1059960D02*
X1765063Y-1317103D01*
X2193634Y-1069484D02*
X2212682Y-1069484D01*
X2212682Y-1069484D02*
X2231729Y-1079008D01*
X2231729Y-1079008D02*
X2241253Y-1088531D01*
X2241253Y-1088531D02*
X2250777Y-1107579D01*
X2250777Y-1107579D02*
X2260301Y-1145674D01*
X2260301Y-1145674D02*
X2260301Y-1193293D01*
X2260301Y-1193293D02*
X2250777Y-1231389D01*
X2250777Y-1231389D02*
X2241253Y-1250436D01*
X2241253Y-1250436D02*
X2231729Y-1259960D01*
X2231729Y-1259960D02*
X2212682Y-1269484D01*
X2212682Y-1269484D02*
X2193634Y-1269484D01*
X2193634Y-1269484D02*
X2174587Y-1259960D01*
X2174587Y-1259960D02*
X2165063Y-1250436D01*
X2165063Y-1250436D02*
X2155539Y-1231389D01*
X2155539Y-1231389D02*
X2146015Y-1193293D01*
X2146015Y-1193293D02*
X2146015Y-1145674D01*
X2146015Y-1145674D02*
X2155539Y-1107579D01*
X2155539Y-1107579D02*
X2165063Y-1088531D01*
X2165063Y-1088531D02*
X2174587Y-1079008D01*
X2174587Y-1079008D02*
X2193634Y-1069484D01*
X2346015Y-1250436D02*
X2355539Y-1259960D01*
X2355539Y-1259960D02*
X2346015Y-1269484D01*
X2346015Y-1269484D02*
X2336491Y-1259960D01*
X2336491Y-1259960D02*
X2346015Y-1250436D01*
X2346015Y-1250436D02*
X2346015Y-1269484D01*
X2479348Y-1069484D02*
X2498396Y-1069484D01*
X2498396Y-1069484D02*
X2517444Y-1079008D01*
X2517444Y-1079008D02*
X2526968Y-1088531D01*
X2526968Y-1088531D02*
X2536491Y-1107579D01*
X2536491Y-1107579D02*
X2546015Y-1145674D01*
X2546015Y-1145674D02*
X2546015Y-1193293D01*
X2546015Y-1193293D02*
X2536491Y-1231389D01*
X2536491Y-1231389D02*
X2526968Y-1250436D01*
X2526968Y-1250436D02*
X2517444Y-1259960D01*
X2517444Y-1259960D02*
X2498396Y-1269484D01*
X2498396Y-1269484D02*
X2479348Y-1269484D01*
X2479348Y-1269484D02*
X2460301Y-1259960D01*
X2460301Y-1259960D02*
X2450777Y-1250436D01*
X2450777Y-1250436D02*
X2441253Y-1231389D01*
X2441253Y-1231389D02*
X2431729Y-1193293D01*
X2431729Y-1193293D02*
X2431729Y-1145674D01*
X2431729Y-1145674D02*
X2441253Y-1107579D01*
X2441253Y-1107579D02*
X2450777Y-1088531D01*
X2450777Y-1088531D02*
X2460301Y-1079008D01*
X2460301Y-1079008D02*
X2479348Y-1069484D01*
X2622206Y-1088531D02*
X2631729Y-1079008D01*
X2631729Y-1079008D02*
X2650777Y-1069484D01*
X2650777Y-1069484D02*
X2698396Y-1069484D01*
X2698396Y-1069484D02*
X2717444Y-1079008D01*
X2717444Y-1079008D02*
X2726968Y-1088531D01*
X2726968Y-1088531D02*
X2736491Y-1107579D01*
X2736491Y-1107579D02*
X2736491Y-1126627D01*
X2736491Y-1126627D02*
X2726968Y-1155198D01*
X2726968Y-1155198D02*
X2612682Y-1269484D01*
X2612682Y-1269484D02*
X2736491Y-1269484D01*
X2831729Y-1269484D02*
X2869825Y-1269484D01*
X2869825Y-1269484D02*
X2888872Y-1259960D01*
X2888872Y-1259960D02*
X2898396Y-1250436D01*
X2898396Y-1250436D02*
X2917444Y-1221865D01*
X2917444Y-1221865D02*
X2926967Y-1183770D01*
X2926967Y-1183770D02*
X2926967Y-1107579D01*
X2926967Y-1107579D02*
X2917444Y-1088531D01*
X2917444Y-1088531D02*
X2907920Y-1079008D01*
X2907920Y-1079008D02*
X2888872Y-1069484D01*
X2888872Y-1069484D02*
X2850777Y-1069484D01*
X2850777Y-1069484D02*
X2831729Y-1079008D01*
X2831729Y-1079008D02*
X2822206Y-1088531D01*
X2822206Y-1088531D02*
X2812682Y-1107579D01*
X2812682Y-1107579D02*
X2812682Y-1155198D01*
X2812682Y-1155198D02*
X2822206Y-1174246D01*
X2822206Y-1174246D02*
X2831729Y-1183770D01*
X2831729Y-1183770D02*
X2850777Y-1193293D01*
X2850777Y-1193293D02*
X2888872Y-1193293D01*
X2888872Y-1193293D02*
X2907920Y-1183770D01*
X2907920Y-1183770D02*
X2917444Y-1174246D01*
X2917444Y-1174246D02*
X2926967Y-1155198D01*
X3107920Y-1069484D02*
X3012682Y-1069484D01*
X3012682Y-1069484D02*
X3003158Y-1164722D01*
X3003158Y-1164722D02*
X3012682Y-1155198D01*
X3012682Y-1155198D02*
X3031729Y-1145674D01*
X3031729Y-1145674D02*
X3079348Y-1145674D01*
X3079348Y-1145674D02*
X3098396Y-1155198D01*
X3098396Y-1155198D02*
X3107920Y-1164722D01*
X3107920Y-1164722D02*
X3117444Y-1183770D01*
X3117444Y-1183770D02*
X3117444Y-1231389D01*
X3117444Y-1231389D02*
X3107920Y-1250436D01*
X3107920Y-1250436D02*
X3098396Y-1259960D01*
X3098396Y-1259960D02*
X3079348Y-1269484D01*
X3079348Y-1269484D02*
X3031729Y-1269484D01*
X3031729Y-1269484D02*
X3012682Y-1259960D01*
X3012682Y-1259960D02*
X3003158Y-1250436D01*
X3193634Y-1069484D02*
X3193634Y-1107579D01*
X3269825Y-1069484D02*
X3269825Y-1107579D01*
X3565063Y-1345674D02*
X3555539Y-1336150D01*
X3555539Y-1336150D02*
X3536491Y-1307579D01*
X3536491Y-1307579D02*
X3526968Y-1288531D01*
X3526968Y-1288531D02*
X3517444Y-1259960D01*
X3517444Y-1259960D02*
X3507920Y-1212341D01*
X3507920Y-1212341D02*
X3507920Y-1174246D01*
X3507920Y-1174246D02*
X3517444Y-1126627D01*
X3517444Y-1126627D02*
X3526968Y-1098055D01*
X3526968Y-1098055D02*
X3536491Y-1079008D01*
X3536491Y-1079008D02*
X3555539Y-1050436D01*
X3555539Y-1050436D02*
X3565063Y-1040912D01*
X3622206Y-1069484D02*
X3746015Y-1069484D01*
X3746015Y-1069484D02*
X3679348Y-1145674D01*
X3679348Y-1145674D02*
X3707920Y-1145674D01*
X3707920Y-1145674D02*
X3726968Y-1155198D01*
X3726968Y-1155198D02*
X3736491Y-1164722D01*
X3736491Y-1164722D02*
X3746015Y-1183770D01*
X3746015Y-1183770D02*
X3746015Y-1231389D01*
X3746015Y-1231389D02*
X3736491Y-1250436D01*
X3736491Y-1250436D02*
X3726968Y-1259960D01*
X3726968Y-1259960D02*
X3707920Y-1269484D01*
X3707920Y-1269484D02*
X3650777Y-1269484D01*
X3650777Y-1269484D02*
X3631729Y-1259960D01*
X3631729Y-1259960D02*
X3622206Y-1250436D01*
X3869825Y-1069484D02*
X3888872Y-1069484D01*
X3888872Y-1069484D02*
X3907920Y-1079008D01*
X3907920Y-1079008D02*
X3917444Y-1088531D01*
X3917444Y-1088531D02*
X3926968Y-1107579D01*
X3926968Y-1107579D02*
X3936491Y-1145674D01*
X3936491Y-1145674D02*
X3936491Y-1193293D01*
X3936491Y-1193293D02*
X3926968Y-1231389D01*
X3926968Y-1231389D02*
X3917444Y-1250436D01*
X3917444Y-1250436D02*
X3907920Y-1259960D01*
X3907920Y-1259960D02*
X3888872Y-1269484D01*
X3888872Y-1269484D02*
X3869825Y-1269484D01*
X3869825Y-1269484D02*
X3850777Y-1259960D01*
X3850777Y-1259960D02*
X3841253Y-1250436D01*
X3841253Y-1250436D02*
X3831729Y-1231389D01*
X3831729Y-1231389D02*
X3822206Y-1193293D01*
X3822206Y-1193293D02*
X3822206Y-1145674D01*
X3822206Y-1145674D02*
X3831729Y-1107579D01*
X3831729Y-1107579D02*
X3841253Y-1088531D01*
X3841253Y-1088531D02*
X3850777Y-1079008D01*
X3850777Y-1079008D02*
X3869825Y-1069484D01*
X4174587Y-1269484D02*
X4174587Y-1069484D01*
X4260301Y-1269484D02*
X4260301Y-1164722D01*
X4260301Y-1164722D02*
X4250777Y-1145674D01*
X4250777Y-1145674D02*
X4231730Y-1136150D01*
X4231730Y-1136150D02*
X4203158Y-1136150D01*
X4203158Y-1136150D02*
X4184110Y-1145674D01*
X4184110Y-1145674D02*
X4174587Y-1155198D01*
X4384111Y-1269484D02*
X4365063Y-1259960D01*
X4365063Y-1259960D02*
X4355539Y-1250436D01*
X4355539Y-1250436D02*
X4346015Y-1231389D01*
X4346015Y-1231389D02*
X4346015Y-1174246D01*
X4346015Y-1174246D02*
X4355539Y-1155198D01*
X4355539Y-1155198D02*
X4365063Y-1145674D01*
X4365063Y-1145674D02*
X4384111Y-1136150D01*
X4384111Y-1136150D02*
X4412682Y-1136150D01*
X4412682Y-1136150D02*
X4431730Y-1145674D01*
X4431730Y-1145674D02*
X4441253Y-1155198D01*
X4441253Y-1155198D02*
X4450777Y-1174246D01*
X4450777Y-1174246D02*
X4450777Y-1231389D01*
X4450777Y-1231389D02*
X4441253Y-1250436D01*
X4441253Y-1250436D02*
X4431730Y-1259960D01*
X4431730Y-1259960D02*
X4412682Y-1269484D01*
X4412682Y-1269484D02*
X4384111Y-1269484D01*
X4565063Y-1269484D02*
X4546015Y-1259960D01*
X4546015Y-1259960D02*
X4536492Y-1240912D01*
X4536492Y-1240912D02*
X4536492Y-1069484D01*
X4717444Y-1259960D02*
X4698396Y-1269484D01*
X4698396Y-1269484D02*
X4660301Y-1269484D01*
X4660301Y-1269484D02*
X4641253Y-1259960D01*
X4641253Y-1259960D02*
X4631730Y-1240912D01*
X4631730Y-1240912D02*
X4631730Y-1164722D01*
X4631730Y-1164722D02*
X4641253Y-1145674D01*
X4641253Y-1145674D02*
X4660301Y-1136150D01*
X4660301Y-1136150D02*
X4698396Y-1136150D01*
X4698396Y-1136150D02*
X4717444Y-1145674D01*
X4717444Y-1145674D02*
X4726968Y-1164722D01*
X4726968Y-1164722D02*
X4726968Y-1183770D01*
X4726968Y-1183770D02*
X4631730Y-1202817D01*
X4803158Y-1259960D02*
X4822206Y-1269484D01*
X4822206Y-1269484D02*
X4860301Y-1269484D01*
X4860301Y-1269484D02*
X4879349Y-1259960D01*
X4879349Y-1259960D02*
X4888873Y-1240912D01*
X4888873Y-1240912D02*
X4888873Y-1231389D01*
X4888873Y-1231389D02*
X4879349Y-1212341D01*
X4879349Y-1212341D02*
X4860301Y-1202817D01*
X4860301Y-1202817D02*
X4831730Y-1202817D01*
X4831730Y-1202817D02*
X4812682Y-1193293D01*
X4812682Y-1193293D02*
X4803158Y-1174246D01*
X4803158Y-1174246D02*
X4803158Y-1164722D01*
X4803158Y-1164722D02*
X4812682Y-1145674D01*
X4812682Y-1145674D02*
X4831730Y-1136150D01*
X4831730Y-1136150D02*
X4860301Y-1136150D01*
X4860301Y-1136150D02*
X4879349Y-1145674D01*
X4955539Y-1345674D02*
X4965063Y-1336150D01*
X4965063Y-1336150D02*
X4984111Y-1307579D01*
X4984111Y-1307579D02*
X4993634Y-1288531D01*
X4993634Y-1288531D02*
X5003158Y-1259960D01*
X5003158Y-1259960D02*
X5012682Y-1212341D01*
X5012682Y-1212341D02*
X5012682Y-1174246D01*
X5012682Y-1174246D02*
X5003158Y-1126627D01*
X5003158Y-1126627D02*
X4993634Y-1098055D01*
X4993634Y-1098055D02*
X4984111Y-1079008D01*
X4984111Y-1079008D02*
X4965063Y-1050436D01*
X4965063Y-1050436D02*
X4955539Y-1040912D01*
D14*
X-21716Y-1470284D02*
X-21716Y-1413715D01*
X-78285Y-1413715D01*
X-78285Y-1470284D01*
X-21716Y-1470284D01*
D10*
X288872Y-1333484D02*
X307920Y-1333484D01*
X307920Y-1333484D02*
X326967Y-1343008D01*
X326967Y-1343008D02*
X336491Y-1352531D01*
X336491Y-1352531D02*
X346015Y-1371579D01*
X346015Y-1371579D02*
X355539Y-1409674D01*
X355539Y-1409674D02*
X355539Y-1457293D01*
X355539Y-1457293D02*
X346015Y-1495388D01*
X346015Y-1495388D02*
X336491Y-1514436D01*
X336491Y-1514436D02*
X326967Y-1523960D01*
X326967Y-1523960D02*
X307920Y-1533484D01*
X307920Y-1533484D02*
X288872Y-1533484D01*
X288872Y-1533484D02*
X269824Y-1523960D01*
X269824Y-1523960D02*
X260301Y-1514436D01*
X260301Y-1514436D02*
X250777Y-1495388D01*
X250777Y-1495388D02*
X241253Y-1457293D01*
X241253Y-1457293D02*
X241253Y-1409674D01*
X241253Y-1409674D02*
X250777Y-1371579D01*
X250777Y-1371579D02*
X260301Y-1352531D01*
X260301Y-1352531D02*
X269824Y-1343008D01*
X269824Y-1343008D02*
X288872Y-1333484D01*
X441253Y-1514436D02*
X450777Y-1523960D01*
X450777Y-1523960D02*
X441253Y-1533484D01*
X441253Y-1533484D02*
X431729Y-1523960D01*
X431729Y-1523960D02*
X441253Y-1514436D01*
X441253Y-1514436D02*
X441253Y-1533484D01*
X565063Y-1419198D02*
X546015Y-1409674D01*
X546015Y-1409674D02*
X536491Y-1400150D01*
X536491Y-1400150D02*
X526967Y-1381103D01*
X526967Y-1381103D02*
X526967Y-1371579D01*
X526967Y-1371579D02*
X536491Y-1352531D01*
X536491Y-1352531D02*
X546015Y-1343008D01*
X546015Y-1343008D02*
X565063Y-1333484D01*
X565063Y-1333484D02*
X603158Y-1333484D01*
X603158Y-1333484D02*
X622205Y-1343008D01*
X622205Y-1343008D02*
X631729Y-1352531D01*
X631729Y-1352531D02*
X641253Y-1371579D01*
X641253Y-1371579D02*
X641253Y-1381103D01*
X641253Y-1381103D02*
X631729Y-1400150D01*
X631729Y-1400150D02*
X622205Y-1409674D01*
X622205Y-1409674D02*
X603158Y-1419198D01*
X603158Y-1419198D02*
X565063Y-1419198D01*
X565063Y-1419198D02*
X546015Y-1428722D01*
X546015Y-1428722D02*
X536491Y-1438246D01*
X536491Y-1438246D02*
X526967Y-1457293D01*
X526967Y-1457293D02*
X526967Y-1495388D01*
X526967Y-1495388D02*
X536491Y-1514436D01*
X536491Y-1514436D02*
X546015Y-1523960D01*
X546015Y-1523960D02*
X565063Y-1533484D01*
X565063Y-1533484D02*
X603158Y-1533484D01*
X603158Y-1533484D02*
X622205Y-1523960D01*
X622205Y-1523960D02*
X631729Y-1514436D01*
X631729Y-1514436D02*
X641253Y-1495388D01*
X641253Y-1495388D02*
X641253Y-1457293D01*
X641253Y-1457293D02*
X631729Y-1438246D01*
X631729Y-1438246D02*
X622205Y-1428722D01*
X622205Y-1428722D02*
X603158Y-1419198D01*
X765062Y-1333484D02*
X784110Y-1333484D01*
X784110Y-1333484D02*
X803158Y-1343008D01*
X803158Y-1343008D02*
X812682Y-1352531D01*
X812682Y-1352531D02*
X822205Y-1371579D01*
X822205Y-1371579D02*
X831729Y-1409674D01*
X831729Y-1409674D02*
X831729Y-1457293D01*
X831729Y-1457293D02*
X822205Y-1495388D01*
X822205Y-1495388D02*
X812682Y-1514436D01*
X812682Y-1514436D02*
X803158Y-1523960D01*
X803158Y-1523960D02*
X784110Y-1533484D01*
X784110Y-1533484D02*
X765062Y-1533484D01*
X765062Y-1533484D02*
X746015Y-1523960D01*
X746015Y-1523960D02*
X736491Y-1514436D01*
X736491Y-1514436D02*
X726967Y-1495388D01*
X726967Y-1495388D02*
X717443Y-1457293D01*
X717443Y-1457293D02*
X717443Y-1409674D01*
X717443Y-1409674D02*
X726967Y-1371579D01*
X726967Y-1371579D02*
X736491Y-1352531D01*
X736491Y-1352531D02*
X746015Y-1343008D01*
X746015Y-1343008D02*
X765062Y-1333484D01*
X955539Y-1333484D02*
X974586Y-1333484D01*
X974586Y-1333484D02*
X993634Y-1343008D01*
X993634Y-1343008D02*
X1003158Y-1352531D01*
X1003158Y-1352531D02*
X1012682Y-1371579D01*
X1012682Y-1371579D02*
X1022205Y-1409674D01*
X1022205Y-1409674D02*
X1022205Y-1457293D01*
X1022205Y-1457293D02*
X1012682Y-1495388D01*
X1012682Y-1495388D02*
X1003158Y-1514436D01*
X1003158Y-1514436D02*
X993634Y-1523960D01*
X993634Y-1523960D02*
X974586Y-1533484D01*
X974586Y-1533484D02*
X955539Y-1533484D01*
X955539Y-1533484D02*
X936491Y-1523960D01*
X936491Y-1523960D02*
X926967Y-1514436D01*
X926967Y-1514436D02*
X917443Y-1495388D01*
X917443Y-1495388D02*
X907920Y-1457293D01*
X907920Y-1457293D02*
X907920Y-1409674D01*
X907920Y-1409674D02*
X917443Y-1371579D01*
X917443Y-1371579D02*
X926967Y-1352531D01*
X926967Y-1352531D02*
X936491Y-1343008D01*
X936491Y-1343008D02*
X955539Y-1333484D01*
X1107920Y-1533484D02*
X1107920Y-1400150D01*
X1107920Y-1419198D02*
X1117444Y-1409674D01*
X1117444Y-1409674D02*
X1136491Y-1400150D01*
X1136491Y-1400150D02*
X1165063Y-1400150D01*
X1165063Y-1400150D02*
X1184110Y-1409674D01*
X1184110Y-1409674D02*
X1193634Y-1428722D01*
X1193634Y-1428722D02*
X1193634Y-1533484D01*
X1193634Y-1428722D02*
X1203158Y-1409674D01*
X1203158Y-1409674D02*
X1222205Y-1400150D01*
X1222205Y-1400150D02*
X1250777Y-1400150D01*
X1250777Y-1400150D02*
X1269825Y-1409674D01*
X1269825Y-1409674D02*
X1279348Y-1428722D01*
X1279348Y-1428722D02*
X1279348Y-1533484D01*
X1374586Y-1533484D02*
X1374586Y-1400150D01*
X1374586Y-1419198D02*
X1384110Y-1409674D01*
X1384110Y-1409674D02*
X1403158Y-1400150D01*
X1403158Y-1400150D02*
X1431729Y-1400150D01*
X1431729Y-1400150D02*
X1450777Y-1409674D01*
X1450777Y-1409674D02*
X1460301Y-1428722D01*
X1460301Y-1428722D02*
X1460301Y-1533484D01*
X1460301Y-1428722D02*
X1469824Y-1409674D01*
X1469824Y-1409674D02*
X1488872Y-1400150D01*
X1488872Y-1400150D02*
X1517443Y-1400150D01*
X1517443Y-1400150D02*
X1536491Y-1409674D01*
X1536491Y-1409674D02*
X1546015Y-1428722D01*
X1546015Y-1428722D02*
X1546015Y-1533484D01*
X1936491Y-1323960D02*
X1765063Y-1581103D01*
X2193634Y-1333484D02*
X2212682Y-1333484D01*
X2212682Y-1333484D02*
X2231729Y-1343008D01*
X2231729Y-1343008D02*
X2241253Y-1352531D01*
X2241253Y-1352531D02*
X2250777Y-1371579D01*
X2250777Y-1371579D02*
X2260301Y-1409674D01*
X2260301Y-1409674D02*
X2260301Y-1457293D01*
X2260301Y-1457293D02*
X2250777Y-1495388D01*
X2250777Y-1495388D02*
X2241253Y-1514436D01*
X2241253Y-1514436D02*
X2231729Y-1523960D01*
X2231729Y-1523960D02*
X2212682Y-1533484D01*
X2212682Y-1533484D02*
X2193634Y-1533484D01*
X2193634Y-1533484D02*
X2174587Y-1523960D01*
X2174587Y-1523960D02*
X2165063Y-1514436D01*
X2165063Y-1514436D02*
X2155539Y-1495388D01*
X2155539Y-1495388D02*
X2146015Y-1457293D01*
X2146015Y-1457293D02*
X2146015Y-1409674D01*
X2146015Y-1409674D02*
X2155539Y-1371579D01*
X2155539Y-1371579D02*
X2165063Y-1352531D01*
X2165063Y-1352531D02*
X2174587Y-1343008D01*
X2174587Y-1343008D02*
X2193634Y-1333484D01*
X2346015Y-1514436D02*
X2355539Y-1523960D01*
X2355539Y-1523960D02*
X2346015Y-1533484D01*
X2346015Y-1533484D02*
X2336491Y-1523960D01*
X2336491Y-1523960D02*
X2346015Y-1514436D01*
X2346015Y-1514436D02*
X2346015Y-1533484D01*
X2479348Y-1333484D02*
X2498396Y-1333484D01*
X2498396Y-1333484D02*
X2517444Y-1343008D01*
X2517444Y-1343008D02*
X2526968Y-1352531D01*
X2526968Y-1352531D02*
X2536491Y-1371579D01*
X2536491Y-1371579D02*
X2546015Y-1409674D01*
X2546015Y-1409674D02*
X2546015Y-1457293D01*
X2546015Y-1457293D02*
X2536491Y-1495388D01*
X2536491Y-1495388D02*
X2526968Y-1514436D01*
X2526968Y-1514436D02*
X2517444Y-1523960D01*
X2517444Y-1523960D02*
X2498396Y-1533484D01*
X2498396Y-1533484D02*
X2479348Y-1533484D01*
X2479348Y-1533484D02*
X2460301Y-1523960D01*
X2460301Y-1523960D02*
X2450777Y-1514436D01*
X2450777Y-1514436D02*
X2441253Y-1495388D01*
X2441253Y-1495388D02*
X2431729Y-1457293D01*
X2431729Y-1457293D02*
X2431729Y-1409674D01*
X2431729Y-1409674D02*
X2441253Y-1371579D01*
X2441253Y-1371579D02*
X2450777Y-1352531D01*
X2450777Y-1352531D02*
X2460301Y-1343008D01*
X2460301Y-1343008D02*
X2479348Y-1333484D01*
X2612682Y-1333484D02*
X2736491Y-1333484D01*
X2736491Y-1333484D02*
X2669825Y-1409674D01*
X2669825Y-1409674D02*
X2698396Y-1409674D01*
X2698396Y-1409674D02*
X2717444Y-1419198D01*
X2717444Y-1419198D02*
X2726968Y-1428722D01*
X2726968Y-1428722D02*
X2736491Y-1447769D01*
X2736491Y-1447769D02*
X2736491Y-1495388D01*
X2736491Y-1495388D02*
X2726968Y-1514436D01*
X2726968Y-1514436D02*
X2717444Y-1523960D01*
X2717444Y-1523960D02*
X2698396Y-1533484D01*
X2698396Y-1533484D02*
X2641253Y-1533484D01*
X2641253Y-1533484D02*
X2622206Y-1523960D01*
X2622206Y-1523960D02*
X2612682Y-1514436D01*
X2926967Y-1533484D02*
X2812682Y-1533484D01*
X2869825Y-1533484D02*
X2869825Y-1333484D01*
X2869825Y-1333484D02*
X2850777Y-1362055D01*
X2850777Y-1362055D02*
X2831729Y-1381103D01*
X2831729Y-1381103D02*
X2812682Y-1390627D01*
X3107920Y-1333484D02*
X3012682Y-1333484D01*
X3012682Y-1333484D02*
X3003158Y-1428722D01*
X3003158Y-1428722D02*
X3012682Y-1419198D01*
X3012682Y-1419198D02*
X3031729Y-1409674D01*
X3031729Y-1409674D02*
X3079348Y-1409674D01*
X3079348Y-1409674D02*
X3098396Y-1419198D01*
X3098396Y-1419198D02*
X3107920Y-1428722D01*
X3107920Y-1428722D02*
X3117444Y-1447769D01*
X3117444Y-1447769D02*
X3117444Y-1495388D01*
X3117444Y-1495388D02*
X3107920Y-1514436D01*
X3107920Y-1514436D02*
X3098396Y-1523960D01*
X3098396Y-1523960D02*
X3079348Y-1533484D01*
X3079348Y-1533484D02*
X3031729Y-1533484D01*
X3031729Y-1533484D02*
X3012682Y-1523960D01*
X3012682Y-1523960D02*
X3003158Y-1514436D01*
X3193634Y-1333484D02*
X3193634Y-1371579D01*
X3269825Y-1333484D02*
X3269825Y-1371579D01*
X3565063Y-1609674D02*
X3555539Y-1600150D01*
X3555539Y-1600150D02*
X3536491Y-1571579D01*
X3536491Y-1571579D02*
X3526968Y-1552531D01*
X3526968Y-1552531D02*
X3517444Y-1523960D01*
X3517444Y-1523960D02*
X3507920Y-1476341D01*
X3507920Y-1476341D02*
X3507920Y-1438246D01*
X3507920Y-1438246D02*
X3517444Y-1390627D01*
X3517444Y-1390627D02*
X3526968Y-1362055D01*
X3526968Y-1362055D02*
X3536491Y-1343008D01*
X3536491Y-1343008D02*
X3555539Y-1314436D01*
X3555539Y-1314436D02*
X3565063Y-1304912D01*
X3746015Y-1533484D02*
X3631729Y-1533484D01*
X3688872Y-1533484D02*
X3688872Y-1333484D01*
X3688872Y-1333484D02*
X3669825Y-1362055D01*
X3669825Y-1362055D02*
X3650777Y-1381103D01*
X3650777Y-1381103D02*
X3631729Y-1390627D01*
X3841253Y-1533484D02*
X3879348Y-1533484D01*
X3879348Y-1533484D02*
X3898396Y-1523960D01*
X3898396Y-1523960D02*
X3907920Y-1514436D01*
X3907920Y-1514436D02*
X3926968Y-1485865D01*
X3926968Y-1485865D02*
X3936491Y-1447769D01*
X3936491Y-1447769D02*
X3936491Y-1371579D01*
X3936491Y-1371579D02*
X3926968Y-1352531D01*
X3926968Y-1352531D02*
X3917444Y-1343008D01*
X3917444Y-1343008D02*
X3898396Y-1333484D01*
X3898396Y-1333484D02*
X3860301Y-1333484D01*
X3860301Y-1333484D02*
X3841253Y-1343008D01*
X3841253Y-1343008D02*
X3831729Y-1352531D01*
X3831729Y-1352531D02*
X3822206Y-1371579D01*
X3822206Y-1371579D02*
X3822206Y-1419198D01*
X3822206Y-1419198D02*
X3831729Y-1438246D01*
X3831729Y-1438246D02*
X3841253Y-1447769D01*
X3841253Y-1447769D02*
X3860301Y-1457293D01*
X3860301Y-1457293D02*
X3898396Y-1457293D01*
X3898396Y-1457293D02*
X3917444Y-1447769D01*
X3917444Y-1447769D02*
X3926968Y-1438246D01*
X3926968Y-1438246D02*
X3936491Y-1419198D01*
X4060301Y-1333484D02*
X4079349Y-1333484D01*
X4079349Y-1333484D02*
X4098396Y-1343008D01*
X4098396Y-1343008D02*
X4107920Y-1352531D01*
X4107920Y-1352531D02*
X4117444Y-1371579D01*
X4117444Y-1371579D02*
X4126968Y-1409674D01*
X4126968Y-1409674D02*
X4126968Y-1457293D01*
X4126968Y-1457293D02*
X4117444Y-1495388D01*
X4117444Y-1495388D02*
X4107920Y-1514436D01*
X4107920Y-1514436D02*
X4098396Y-1523960D01*
X4098396Y-1523960D02*
X4079349Y-1533484D01*
X4079349Y-1533484D02*
X4060301Y-1533484D01*
X4060301Y-1533484D02*
X4041253Y-1523960D01*
X4041253Y-1523960D02*
X4031729Y-1514436D01*
X4031729Y-1514436D02*
X4022206Y-1495388D01*
X4022206Y-1495388D02*
X4012682Y-1457293D01*
X4012682Y-1457293D02*
X4012682Y-1409674D01*
X4012682Y-1409674D02*
X4022206Y-1371579D01*
X4022206Y-1371579D02*
X4031729Y-1352531D01*
X4031729Y-1352531D02*
X4041253Y-1343008D01*
X4041253Y-1343008D02*
X4060301Y-1333484D01*
X4365063Y-1533484D02*
X4365063Y-1333484D01*
X4450777Y-1533484D02*
X4450777Y-1428722D01*
X4450777Y-1428722D02*
X4441253Y-1409674D01*
X4441253Y-1409674D02*
X4422206Y-1400150D01*
X4422206Y-1400150D02*
X4393634Y-1400150D01*
X4393634Y-1400150D02*
X4374587Y-1409674D01*
X4374587Y-1409674D02*
X4365063Y-1419198D01*
X4574587Y-1533484D02*
X4555539Y-1523960D01*
X4555539Y-1523960D02*
X4546015Y-1514436D01*
X4546015Y-1514436D02*
X4536492Y-1495388D01*
X4536492Y-1495388D02*
X4536492Y-1438246D01*
X4536492Y-1438246D02*
X4546015Y-1419198D01*
X4546015Y-1419198D02*
X4555539Y-1409674D01*
X4555539Y-1409674D02*
X4574587Y-1400150D01*
X4574587Y-1400150D02*
X4603158Y-1400150D01*
X4603158Y-1400150D02*
X4622206Y-1409674D01*
X4622206Y-1409674D02*
X4631730Y-1419198D01*
X4631730Y-1419198D02*
X4641253Y-1438246D01*
X4641253Y-1438246D02*
X4641253Y-1495388D01*
X4641253Y-1495388D02*
X4631730Y-1514436D01*
X4631730Y-1514436D02*
X4622206Y-1523960D01*
X4622206Y-1523960D02*
X4603158Y-1533484D01*
X4603158Y-1533484D02*
X4574587Y-1533484D01*
X4755539Y-1533484D02*
X4736492Y-1523960D01*
X4736492Y-1523960D02*
X4726968Y-1504912D01*
X4726968Y-1504912D02*
X4726968Y-1333484D01*
X4907920Y-1523960D02*
X4888873Y-1533484D01*
X4888873Y-1533484D02*
X4850777Y-1533484D01*
X4850777Y-1533484D02*
X4831730Y-1523960D01*
X4831730Y-1523960D02*
X4822206Y-1504912D01*
X4822206Y-1504912D02*
X4822206Y-1428722D01*
X4822206Y-1428722D02*
X4831730Y-1409674D01*
X4831730Y-1409674D02*
X4850777Y-1400150D01*
X4850777Y-1400150D02*
X4888873Y-1400150D01*
X4888873Y-1400150D02*
X4907920Y-1409674D01*
X4907920Y-1409674D02*
X4917444Y-1428722D01*
X4917444Y-1428722D02*
X4917444Y-1447769D01*
X4917444Y-1447769D02*
X4822206Y-1466817D01*
X4993634Y-1523960D02*
X5012682Y-1533484D01*
X5012682Y-1533484D02*
X5050777Y-1533484D01*
X5050777Y-1533484D02*
X5069825Y-1523960D01*
X5069825Y-1523960D02*
X5079349Y-1504912D01*
X5079349Y-1504912D02*
X5079349Y-1495388D01*
X5079349Y-1495388D02*
X5069825Y-1476341D01*
X5069825Y-1476341D02*
X5050777Y-1466817D01*
X5050777Y-1466817D02*
X5022206Y-1466817D01*
X5022206Y-1466817D02*
X5003158Y-1457293D01*
X5003158Y-1457293D02*
X4993634Y-1438246D01*
X4993634Y-1438246D02*
X4993634Y-1428722D01*
X4993634Y-1428722D02*
X5003158Y-1409674D01*
X5003158Y-1409674D02*
X5022206Y-1400150D01*
X5022206Y-1400150D02*
X5050777Y-1400150D01*
X5050777Y-1400150D02*
X5069825Y-1409674D01*
X5146015Y-1609674D02*
X5155539Y-1600150D01*
X5155539Y-1600150D02*
X5174587Y-1571579D01*
X5174587Y-1571579D02*
X5184111Y-1552531D01*
X5184111Y-1552531D02*
X5193634Y-1523960D01*
X5193634Y-1523960D02*
X5203158Y-1476341D01*
X5203158Y-1476341D02*
X5203158Y-1438246D01*
X5203158Y-1438246D02*
X5193634Y-1390627D01*
X5193634Y-1390627D02*
X5184111Y-1362055D01*
X5184111Y-1362055D02*
X5174587Y-1343008D01*
X5174587Y-1343008D02*
X5155539Y-1314436D01*
X5155539Y-1314436D02*
X5146015Y-1304912D01*
D15*
X-60000Y-1756000D02*
X-10000Y-1706000D01*
X-60000Y-1656000D01*
X-110000Y-1706000D01*
X-60000Y-1756000D01*
D10*
X355539Y-1797484D02*
X241253Y-1797484D01*
X298396Y-1797484D02*
X298396Y-1597484D01*
X298396Y-1597484D02*
X279348Y-1626055D01*
X279348Y-1626055D02*
X260301Y-1645103D01*
X260301Y-1645103D02*
X241253Y-1654627D01*
X441253Y-1778436D02*
X450777Y-1787960D01*
X450777Y-1787960D02*
X441253Y-1797484D01*
X441253Y-1797484D02*
X431729Y-1787960D01*
X431729Y-1787960D02*
X441253Y-1778436D01*
X441253Y-1778436D02*
X441253Y-1797484D01*
X574586Y-1597484D02*
X593634Y-1597484D01*
X593634Y-1597484D02*
X612682Y-1607008D01*
X612682Y-1607008D02*
X622205Y-1616531D01*
X622205Y-1616531D02*
X631729Y-1635579D01*
X631729Y-1635579D02*
X641253Y-1673674D01*
X641253Y-1673674D02*
X641253Y-1721293D01*
X641253Y-1721293D02*
X631729Y-1759388D01*
X631729Y-1759388D02*
X622205Y-1778436D01*
X622205Y-1778436D02*
X612682Y-1787960D01*
X612682Y-1787960D02*
X593634Y-1797484D01*
X593634Y-1797484D02*
X574586Y-1797484D01*
X574586Y-1797484D02*
X555539Y-1787960D01*
X555539Y-1787960D02*
X546015Y-1778436D01*
X546015Y-1778436D02*
X536491Y-1759388D01*
X536491Y-1759388D02*
X526967Y-1721293D01*
X526967Y-1721293D02*
X526967Y-1673674D01*
X526967Y-1673674D02*
X536491Y-1635579D01*
X536491Y-1635579D02*
X546015Y-1616531D01*
X546015Y-1616531D02*
X555539Y-1607008D01*
X555539Y-1607008D02*
X574586Y-1597484D01*
X765062Y-1597484D02*
X784110Y-1597484D01*
X784110Y-1597484D02*
X803158Y-1607008D01*
X803158Y-1607008D02*
X812682Y-1616531D01*
X812682Y-1616531D02*
X822205Y-1635579D01*
X822205Y-1635579D02*
X831729Y-1673674D01*
X831729Y-1673674D02*
X831729Y-1721293D01*
X831729Y-1721293D02*
X822205Y-1759388D01*
X822205Y-1759388D02*
X812682Y-1778436D01*
X812682Y-1778436D02*
X803158Y-1787960D01*
X803158Y-1787960D02*
X784110Y-1797484D01*
X784110Y-1797484D02*
X765062Y-1797484D01*
X765062Y-1797484D02*
X746015Y-1787960D01*
X746015Y-1787960D02*
X736491Y-1778436D01*
X736491Y-1778436D02*
X726967Y-1759388D01*
X726967Y-1759388D02*
X717443Y-1721293D01*
X717443Y-1721293D02*
X717443Y-1673674D01*
X717443Y-1673674D02*
X726967Y-1635579D01*
X726967Y-1635579D02*
X736491Y-1616531D01*
X736491Y-1616531D02*
X746015Y-1607008D01*
X746015Y-1607008D02*
X765062Y-1597484D01*
X955539Y-1597484D02*
X974586Y-1597484D01*
X974586Y-1597484D02*
X993634Y-1607008D01*
X993634Y-1607008D02*
X1003158Y-1616531D01*
X1003158Y-1616531D02*
X1012682Y-1635579D01*
X1012682Y-1635579D02*
X1022205Y-1673674D01*
X1022205Y-1673674D02*
X1022205Y-1721293D01*
X1022205Y-1721293D02*
X1012682Y-1759388D01*
X1012682Y-1759388D02*
X1003158Y-1778436D01*
X1003158Y-1778436D02*
X993634Y-1787960D01*
X993634Y-1787960D02*
X974586Y-1797484D01*
X974586Y-1797484D02*
X955539Y-1797484D01*
X955539Y-1797484D02*
X936491Y-1787960D01*
X936491Y-1787960D02*
X926967Y-1778436D01*
X926967Y-1778436D02*
X917443Y-1759388D01*
X917443Y-1759388D02*
X907920Y-1721293D01*
X907920Y-1721293D02*
X907920Y-1673674D01*
X907920Y-1673674D02*
X917443Y-1635579D01*
X917443Y-1635579D02*
X926967Y-1616531D01*
X926967Y-1616531D02*
X936491Y-1607008D01*
X936491Y-1607008D02*
X955539Y-1597484D01*
X1107920Y-1797484D02*
X1107920Y-1664150D01*
X1107920Y-1683198D02*
X1117444Y-1673674D01*
X1117444Y-1673674D02*
X1136491Y-1664150D01*
X1136491Y-1664150D02*
X1165063Y-1664150D01*
X1165063Y-1664150D02*
X1184110Y-1673674D01*
X1184110Y-1673674D02*
X1193634Y-1692722D01*
X1193634Y-1692722D02*
X1193634Y-1797484D01*
X1193634Y-1692722D02*
X1203158Y-1673674D01*
X1203158Y-1673674D02*
X1222205Y-1664150D01*
X1222205Y-1664150D02*
X1250777Y-1664150D01*
X1250777Y-1664150D02*
X1269825Y-1673674D01*
X1269825Y-1673674D02*
X1279348Y-1692722D01*
X1279348Y-1692722D02*
X1279348Y-1797484D01*
X1374586Y-1797484D02*
X1374586Y-1664150D01*
X1374586Y-1683198D02*
X1384110Y-1673674D01*
X1384110Y-1673674D02*
X1403158Y-1664150D01*
X1403158Y-1664150D02*
X1431729Y-1664150D01*
X1431729Y-1664150D02*
X1450777Y-1673674D01*
X1450777Y-1673674D02*
X1460301Y-1692722D01*
X1460301Y-1692722D02*
X1460301Y-1797484D01*
X1460301Y-1692722D02*
X1469824Y-1673674D01*
X1469824Y-1673674D02*
X1488872Y-1664150D01*
X1488872Y-1664150D02*
X1517443Y-1664150D01*
X1517443Y-1664150D02*
X1536491Y-1673674D01*
X1536491Y-1673674D02*
X1546015Y-1692722D01*
X1546015Y-1692722D02*
X1546015Y-1797484D01*
X1936491Y-1587960D02*
X1765063Y-1845103D01*
X2193634Y-1597484D02*
X2212682Y-1597484D01*
X2212682Y-1597484D02*
X2231729Y-1607008D01*
X2231729Y-1607008D02*
X2241253Y-1616531D01*
X2241253Y-1616531D02*
X2250777Y-1635579D01*
X2250777Y-1635579D02*
X2260301Y-1673674D01*
X2260301Y-1673674D02*
X2260301Y-1721293D01*
X2260301Y-1721293D02*
X2250777Y-1759388D01*
X2250777Y-1759388D02*
X2241253Y-1778436D01*
X2241253Y-1778436D02*
X2231729Y-1787960D01*
X2231729Y-1787960D02*
X2212682Y-1797484D01*
X2212682Y-1797484D02*
X2193634Y-1797484D01*
X2193634Y-1797484D02*
X2174587Y-1787960D01*
X2174587Y-1787960D02*
X2165063Y-1778436D01*
X2165063Y-1778436D02*
X2155539Y-1759388D01*
X2155539Y-1759388D02*
X2146015Y-1721293D01*
X2146015Y-1721293D02*
X2146015Y-1673674D01*
X2146015Y-1673674D02*
X2155539Y-1635579D01*
X2155539Y-1635579D02*
X2165063Y-1616531D01*
X2165063Y-1616531D02*
X2174587Y-1607008D01*
X2174587Y-1607008D02*
X2193634Y-1597484D01*
X2346015Y-1778436D02*
X2355539Y-1787960D01*
X2355539Y-1787960D02*
X2346015Y-1797484D01*
X2346015Y-1797484D02*
X2336491Y-1787960D01*
X2336491Y-1787960D02*
X2346015Y-1778436D01*
X2346015Y-1778436D02*
X2346015Y-1797484D01*
X2479348Y-1597484D02*
X2498396Y-1597484D01*
X2498396Y-1597484D02*
X2517444Y-1607008D01*
X2517444Y-1607008D02*
X2526968Y-1616531D01*
X2526968Y-1616531D02*
X2536491Y-1635579D01*
X2536491Y-1635579D02*
X2546015Y-1673674D01*
X2546015Y-1673674D02*
X2546015Y-1721293D01*
X2546015Y-1721293D02*
X2536491Y-1759388D01*
X2536491Y-1759388D02*
X2526968Y-1778436D01*
X2526968Y-1778436D02*
X2517444Y-1787960D01*
X2517444Y-1787960D02*
X2498396Y-1797484D01*
X2498396Y-1797484D02*
X2479348Y-1797484D01*
X2479348Y-1797484D02*
X2460301Y-1787960D01*
X2460301Y-1787960D02*
X2450777Y-1778436D01*
X2450777Y-1778436D02*
X2441253Y-1759388D01*
X2441253Y-1759388D02*
X2431729Y-1721293D01*
X2431729Y-1721293D02*
X2431729Y-1673674D01*
X2431729Y-1673674D02*
X2441253Y-1635579D01*
X2441253Y-1635579D02*
X2450777Y-1616531D01*
X2450777Y-1616531D02*
X2460301Y-1607008D01*
X2460301Y-1607008D02*
X2479348Y-1597484D01*
X2612682Y-1597484D02*
X2736491Y-1597484D01*
X2736491Y-1597484D02*
X2669825Y-1673674D01*
X2669825Y-1673674D02*
X2698396Y-1673674D01*
X2698396Y-1673674D02*
X2717444Y-1683198D01*
X2717444Y-1683198D02*
X2726968Y-1692722D01*
X2726968Y-1692722D02*
X2736491Y-1711769D01*
X2736491Y-1711769D02*
X2736491Y-1759388D01*
X2736491Y-1759388D02*
X2726968Y-1778436D01*
X2726968Y-1778436D02*
X2717444Y-1787960D01*
X2717444Y-1787960D02*
X2698396Y-1797484D01*
X2698396Y-1797484D02*
X2641253Y-1797484D01*
X2641253Y-1797484D02*
X2622206Y-1787960D01*
X2622206Y-1787960D02*
X2612682Y-1778436D01*
X2831729Y-1797484D02*
X2869825Y-1797484D01*
X2869825Y-1797484D02*
X2888872Y-1787960D01*
X2888872Y-1787960D02*
X2898396Y-1778436D01*
X2898396Y-1778436D02*
X2917444Y-1749865D01*
X2917444Y-1749865D02*
X2926967Y-1711769D01*
X2926967Y-1711769D02*
X2926967Y-1635579D01*
X2926967Y-1635579D02*
X2917444Y-1616531D01*
X2917444Y-1616531D02*
X2907920Y-1607008D01*
X2907920Y-1607008D02*
X2888872Y-1597484D01*
X2888872Y-1597484D02*
X2850777Y-1597484D01*
X2850777Y-1597484D02*
X2831729Y-1607008D01*
X2831729Y-1607008D02*
X2822206Y-1616531D01*
X2822206Y-1616531D02*
X2812682Y-1635579D01*
X2812682Y-1635579D02*
X2812682Y-1683198D01*
X2812682Y-1683198D02*
X2822206Y-1702246D01*
X2822206Y-1702246D02*
X2831729Y-1711769D01*
X2831729Y-1711769D02*
X2850777Y-1721293D01*
X2850777Y-1721293D02*
X2888872Y-1721293D01*
X2888872Y-1721293D02*
X2907920Y-1711769D01*
X2907920Y-1711769D02*
X2917444Y-1702246D01*
X2917444Y-1702246D02*
X2926967Y-1683198D01*
X3098396Y-1664150D02*
X3098396Y-1797484D01*
X3050777Y-1587960D02*
X3003158Y-1730817D01*
X3003158Y-1730817D02*
X3126967Y-1730817D01*
X3193634Y-1597484D02*
X3193634Y-1635579D01*
X3269825Y-1597484D02*
X3269825Y-1635579D01*
X3565063Y-1873674D02*
X3555539Y-1864150D01*
X3555539Y-1864150D02*
X3536491Y-1835579D01*
X3536491Y-1835579D02*
X3526968Y-1816531D01*
X3526968Y-1816531D02*
X3517444Y-1787960D01*
X3517444Y-1787960D02*
X3507920Y-1740341D01*
X3507920Y-1740341D02*
X3507920Y-1702246D01*
X3507920Y-1702246D02*
X3517444Y-1654627D01*
X3517444Y-1654627D02*
X3526968Y-1626055D01*
X3526968Y-1626055D02*
X3536491Y-1607008D01*
X3536491Y-1607008D02*
X3555539Y-1578436D01*
X3555539Y-1578436D02*
X3565063Y-1568912D01*
X3631729Y-1616531D02*
X3641253Y-1607008D01*
X3641253Y-1607008D02*
X3660301Y-1597484D01*
X3660301Y-1597484D02*
X3707920Y-1597484D01*
X3707920Y-1597484D02*
X3726968Y-1607008D01*
X3726968Y-1607008D02*
X3736491Y-1616531D01*
X3736491Y-1616531D02*
X3746015Y-1635579D01*
X3746015Y-1635579D02*
X3746015Y-1654627D01*
X3746015Y-1654627D02*
X3736491Y-1683198D01*
X3736491Y-1683198D02*
X3622206Y-1797484D01*
X3622206Y-1797484D02*
X3746015Y-1797484D01*
X3984110Y-1797484D02*
X3984110Y-1597484D01*
X4069825Y-1797484D02*
X4069825Y-1692722D01*
X4069825Y-1692722D02*
X4060301Y-1673674D01*
X4060301Y-1673674D02*
X4041253Y-1664150D01*
X4041253Y-1664150D02*
X4012682Y-1664150D01*
X4012682Y-1664150D02*
X3993634Y-1673674D01*
X3993634Y-1673674D02*
X3984110Y-1683198D01*
X4193634Y-1797484D02*
X4174587Y-1787960D01*
X4174587Y-1787960D02*
X4165063Y-1778436D01*
X4165063Y-1778436D02*
X4155539Y-1759388D01*
X4155539Y-1759388D02*
X4155539Y-1702246D01*
X4155539Y-1702246D02*
X4165063Y-1683198D01*
X4165063Y-1683198D02*
X4174587Y-1673674D01*
X4174587Y-1673674D02*
X4193634Y-1664150D01*
X4193634Y-1664150D02*
X4222206Y-1664150D01*
X4222206Y-1664150D02*
X4241253Y-1673674D01*
X4241253Y-1673674D02*
X4250777Y-1683198D01*
X4250777Y-1683198D02*
X4260301Y-1702246D01*
X4260301Y-1702246D02*
X4260301Y-1759388D01*
X4260301Y-1759388D02*
X4250777Y-1778436D01*
X4250777Y-1778436D02*
X4241253Y-1787960D01*
X4241253Y-1787960D02*
X4222206Y-1797484D01*
X4222206Y-1797484D02*
X4193634Y-1797484D01*
X4374587Y-1797484D02*
X4355539Y-1787960D01*
X4355539Y-1787960D02*
X4346015Y-1768912D01*
X4346015Y-1768912D02*
X4346015Y-1597484D01*
X4526968Y-1787960D02*
X4507920Y-1797484D01*
X4507920Y-1797484D02*
X4469825Y-1797484D01*
X4469825Y-1797484D02*
X4450777Y-1787960D01*
X4450777Y-1787960D02*
X4441253Y-1768912D01*
X4441253Y-1768912D02*
X4441253Y-1692722D01*
X4441253Y-1692722D02*
X4450777Y-1673674D01*
X4450777Y-1673674D02*
X4469825Y-1664150D01*
X4469825Y-1664150D02*
X4507920Y-1664150D01*
X4507920Y-1664150D02*
X4526968Y-1673674D01*
X4526968Y-1673674D02*
X4536492Y-1692722D01*
X4536492Y-1692722D02*
X4536492Y-1711769D01*
X4536492Y-1711769D02*
X4441253Y-1730817D01*
X4612682Y-1787960D02*
X4631730Y-1797484D01*
X4631730Y-1797484D02*
X4669825Y-1797484D01*
X4669825Y-1797484D02*
X4688873Y-1787960D01*
X4688873Y-1787960D02*
X4698396Y-1768912D01*
X4698396Y-1768912D02*
X4698396Y-1759388D01*
X4698396Y-1759388D02*
X4688873Y-1740341D01*
X4688873Y-1740341D02*
X4669825Y-1730817D01*
X4669825Y-1730817D02*
X4641253Y-1730817D01*
X4641253Y-1730817D02*
X4622206Y-1721293D01*
X4622206Y-1721293D02*
X4612682Y-1702246D01*
X4612682Y-1702246D02*
X4612682Y-1692722D01*
X4612682Y-1692722D02*
X4622206Y-1673674D01*
X4622206Y-1673674D02*
X4641253Y-1664150D01*
X4641253Y-1664150D02*
X4669825Y-1664150D01*
X4669825Y-1664150D02*
X4688873Y-1673674D01*
X4765063Y-1873674D02*
X4774587Y-1864150D01*
X4774587Y-1864150D02*
X4793634Y-1835579D01*
X4793634Y-1835579D02*
X4803158Y-1816531D01*
X4803158Y-1816531D02*
X4812682Y-1787960D01*
X4812682Y-1787960D02*
X4822206Y-1740341D01*
X4822206Y-1740341D02*
X4822206Y-1702246D01*
X4822206Y-1702246D02*
X4812682Y-1654627D01*
X4812682Y-1654627D02*
X4803158Y-1626055D01*
X4803158Y-1626055D02*
X4793634Y-1607008D01*
X4793634Y-1607008D02*
X4774587Y-1578436D01*
X4774587Y-1578436D02*
X4765063Y-1568912D01*
D16*
X-130000Y-1910000D02*
X-10000Y-2030000D01*
X-10000Y-1910000D02*
X-130000Y-2030000D01*
X-10000Y-1970000D02*
G75*
G03*
X-10000Y-1970000I-60000J0D01*
G01*
D10*
X355539Y-2061484D02*
X241253Y-2061484D01*
X298396Y-2061484D02*
X298396Y-1861484D01*
X298396Y-1861484D02*
X279348Y-1890055D01*
X279348Y-1890055D02*
X260301Y-1909103D01*
X260301Y-1909103D02*
X241253Y-1918627D01*
X441253Y-2042436D02*
X450777Y-2051960D01*
X450777Y-2051960D02*
X441253Y-2061484D01*
X441253Y-2061484D02*
X431729Y-2051960D01*
X431729Y-2051960D02*
X441253Y-2042436D01*
X441253Y-2042436D02*
X441253Y-2061484D01*
X526967Y-1880531D02*
X536491Y-1871008D01*
X536491Y-1871008D02*
X555539Y-1861484D01*
X555539Y-1861484D02*
X603158Y-1861484D01*
X603158Y-1861484D02*
X622205Y-1871008D01*
X622205Y-1871008D02*
X631729Y-1880531D01*
X631729Y-1880531D02*
X641253Y-1899579D01*
X641253Y-1899579D02*
X641253Y-1918627D01*
X641253Y-1918627D02*
X631729Y-1947198D01*
X631729Y-1947198D02*
X517443Y-2061484D01*
X517443Y-2061484D02*
X641253Y-2061484D01*
X765062Y-1861484D02*
X784110Y-1861484D01*
X784110Y-1861484D02*
X803158Y-1871008D01*
X803158Y-1871008D02*
X812682Y-1880531D01*
X812682Y-1880531D02*
X822205Y-1899579D01*
X822205Y-1899579D02*
X831729Y-1937674D01*
X831729Y-1937674D02*
X831729Y-1985293D01*
X831729Y-1985293D02*
X822205Y-2023388D01*
X822205Y-2023388D02*
X812682Y-2042436D01*
X812682Y-2042436D02*
X803158Y-2051960D01*
X803158Y-2051960D02*
X784110Y-2061484D01*
X784110Y-2061484D02*
X765062Y-2061484D01*
X765062Y-2061484D02*
X746015Y-2051960D01*
X746015Y-2051960D02*
X736491Y-2042436D01*
X736491Y-2042436D02*
X726967Y-2023388D01*
X726967Y-2023388D02*
X717443Y-1985293D01*
X717443Y-1985293D02*
X717443Y-1937674D01*
X717443Y-1937674D02*
X726967Y-1899579D01*
X726967Y-1899579D02*
X736491Y-1880531D01*
X736491Y-1880531D02*
X746015Y-1871008D01*
X746015Y-1871008D02*
X765062Y-1861484D01*
X955539Y-1861484D02*
X974586Y-1861484D01*
X974586Y-1861484D02*
X993634Y-1871008D01*
X993634Y-1871008D02*
X1003158Y-1880531D01*
X1003158Y-1880531D02*
X1012682Y-1899579D01*
X1012682Y-1899579D02*
X1022205Y-1937674D01*
X1022205Y-1937674D02*
X1022205Y-1985293D01*
X1022205Y-1985293D02*
X1012682Y-2023388D01*
X1012682Y-2023388D02*
X1003158Y-2042436D01*
X1003158Y-2042436D02*
X993634Y-2051960D01*
X993634Y-2051960D02*
X974586Y-2061484D01*
X974586Y-2061484D02*
X955539Y-2061484D01*
X955539Y-2061484D02*
X936491Y-2051960D01*
X936491Y-2051960D02*
X926967Y-2042436D01*
X926967Y-2042436D02*
X917443Y-2023388D01*
X917443Y-2023388D02*
X907920Y-1985293D01*
X907920Y-1985293D02*
X907920Y-1937674D01*
X907920Y-1937674D02*
X917443Y-1899579D01*
X917443Y-1899579D02*
X926967Y-1880531D01*
X926967Y-1880531D02*
X936491Y-1871008D01*
X936491Y-1871008D02*
X955539Y-1861484D01*
X1107920Y-2061484D02*
X1107920Y-1928150D01*
X1107920Y-1947198D02*
X1117444Y-1937674D01*
X1117444Y-1937674D02*
X1136491Y-1928150D01*
X1136491Y-1928150D02*
X1165063Y-1928150D01*
X1165063Y-1928150D02*
X1184110Y-1937674D01*
X1184110Y-1937674D02*
X1193634Y-1956722D01*
X1193634Y-1956722D02*
X1193634Y-2061484D01*
X1193634Y-1956722D02*
X1203158Y-1937674D01*
X1203158Y-1937674D02*
X1222205Y-1928150D01*
X1222205Y-1928150D02*
X1250777Y-1928150D01*
X1250777Y-1928150D02*
X1269825Y-1937674D01*
X1269825Y-1937674D02*
X1279348Y-1956722D01*
X1279348Y-1956722D02*
X1279348Y-2061484D01*
X1374586Y-2061484D02*
X1374586Y-1928150D01*
X1374586Y-1947198D02*
X1384110Y-1937674D01*
X1384110Y-1937674D02*
X1403158Y-1928150D01*
X1403158Y-1928150D02*
X1431729Y-1928150D01*
X1431729Y-1928150D02*
X1450777Y-1937674D01*
X1450777Y-1937674D02*
X1460301Y-1956722D01*
X1460301Y-1956722D02*
X1460301Y-2061484D01*
X1460301Y-1956722D02*
X1469824Y-1937674D01*
X1469824Y-1937674D02*
X1488872Y-1928150D01*
X1488872Y-1928150D02*
X1517443Y-1928150D01*
X1517443Y-1928150D02*
X1536491Y-1937674D01*
X1536491Y-1937674D02*
X1546015Y-1956722D01*
X1546015Y-1956722D02*
X1546015Y-2061484D01*
X1936491Y-1851960D02*
X1765063Y-2109103D01*
X2193634Y-1861484D02*
X2212682Y-1861484D01*
X2212682Y-1861484D02*
X2231729Y-1871008D01*
X2231729Y-1871008D02*
X2241253Y-1880531D01*
X2241253Y-1880531D02*
X2250777Y-1899579D01*
X2250777Y-1899579D02*
X2260301Y-1937674D01*
X2260301Y-1937674D02*
X2260301Y-1985293D01*
X2260301Y-1985293D02*
X2250777Y-2023388D01*
X2250777Y-2023388D02*
X2241253Y-2042436D01*
X2241253Y-2042436D02*
X2231729Y-2051960D01*
X2231729Y-2051960D02*
X2212682Y-2061484D01*
X2212682Y-2061484D02*
X2193634Y-2061484D01*
X2193634Y-2061484D02*
X2174587Y-2051960D01*
X2174587Y-2051960D02*
X2165063Y-2042436D01*
X2165063Y-2042436D02*
X2155539Y-2023388D01*
X2155539Y-2023388D02*
X2146015Y-1985293D01*
X2146015Y-1985293D02*
X2146015Y-1937674D01*
X2146015Y-1937674D02*
X2155539Y-1899579D01*
X2155539Y-1899579D02*
X2165063Y-1880531D01*
X2165063Y-1880531D02*
X2174587Y-1871008D01*
X2174587Y-1871008D02*
X2193634Y-1861484D01*
X2346015Y-2042436D02*
X2355539Y-2051960D01*
X2355539Y-2051960D02*
X2346015Y-2061484D01*
X2346015Y-2061484D02*
X2336491Y-2051960D01*
X2336491Y-2051960D02*
X2346015Y-2042436D01*
X2346015Y-2042436D02*
X2346015Y-2061484D01*
X2479348Y-1861484D02*
X2498396Y-1861484D01*
X2498396Y-1861484D02*
X2517444Y-1871008D01*
X2517444Y-1871008D02*
X2526968Y-1880531D01*
X2526968Y-1880531D02*
X2536491Y-1899579D01*
X2536491Y-1899579D02*
X2546015Y-1937674D01*
X2546015Y-1937674D02*
X2546015Y-1985293D01*
X2546015Y-1985293D02*
X2536491Y-2023388D01*
X2536491Y-2023388D02*
X2526968Y-2042436D01*
X2526968Y-2042436D02*
X2517444Y-2051960D01*
X2517444Y-2051960D02*
X2498396Y-2061484D01*
X2498396Y-2061484D02*
X2479348Y-2061484D01*
X2479348Y-2061484D02*
X2460301Y-2051960D01*
X2460301Y-2051960D02*
X2450777Y-2042436D01*
X2450777Y-2042436D02*
X2441253Y-2023388D01*
X2441253Y-2023388D02*
X2431729Y-1985293D01*
X2431729Y-1985293D02*
X2431729Y-1937674D01*
X2431729Y-1937674D02*
X2441253Y-1899579D01*
X2441253Y-1899579D02*
X2450777Y-1880531D01*
X2450777Y-1880531D02*
X2460301Y-1871008D01*
X2460301Y-1871008D02*
X2479348Y-1861484D01*
X2717444Y-1928150D02*
X2717444Y-2061484D01*
X2669825Y-1851960D02*
X2622206Y-1994817D01*
X2622206Y-1994817D02*
X2746015Y-1994817D01*
X2803158Y-1861484D02*
X2936491Y-1861484D01*
X2936491Y-1861484D02*
X2850777Y-2061484D01*
X3003158Y-1880531D02*
X3012682Y-1871008D01*
X3012682Y-1871008D02*
X3031729Y-1861484D01*
X3031729Y-1861484D02*
X3079348Y-1861484D01*
X3079348Y-1861484D02*
X3098396Y-1871008D01*
X3098396Y-1871008D02*
X3107920Y-1880531D01*
X3107920Y-1880531D02*
X3117444Y-1899579D01*
X3117444Y-1899579D02*
X3117444Y-1918627D01*
X3117444Y-1918627D02*
X3107920Y-1947198D01*
X3107920Y-1947198D02*
X2993634Y-2061484D01*
X2993634Y-2061484D02*
X3117444Y-2061484D01*
X3193634Y-1861484D02*
X3193634Y-1899579D01*
X3269825Y-1861484D02*
X3269825Y-1899579D01*
X3565063Y-2137674D02*
X3555539Y-2128150D01*
X3555539Y-2128150D02*
X3536491Y-2099579D01*
X3536491Y-2099579D02*
X3526968Y-2080531D01*
X3526968Y-2080531D02*
X3517444Y-2051960D01*
X3517444Y-2051960D02*
X3507920Y-2004341D01*
X3507920Y-2004341D02*
X3507920Y-1966246D01*
X3507920Y-1966246D02*
X3517444Y-1918627D01*
X3517444Y-1918627D02*
X3526968Y-1890055D01*
X3526968Y-1890055D02*
X3536491Y-1871008D01*
X3536491Y-1871008D02*
X3555539Y-1842436D01*
X3555539Y-1842436D02*
X3565063Y-1832912D01*
X3726968Y-1861484D02*
X3688872Y-1861484D01*
X3688872Y-1861484D02*
X3669825Y-1871008D01*
X3669825Y-1871008D02*
X3660301Y-1880531D01*
X3660301Y-1880531D02*
X3641253Y-1909103D01*
X3641253Y-1909103D02*
X3631729Y-1947198D01*
X3631729Y-1947198D02*
X3631729Y-2023388D01*
X3631729Y-2023388D02*
X3641253Y-2042436D01*
X3641253Y-2042436D02*
X3650777Y-2051960D01*
X3650777Y-2051960D02*
X3669825Y-2061484D01*
X3669825Y-2061484D02*
X3707920Y-2061484D01*
X3707920Y-2061484D02*
X3726968Y-2051960D01*
X3726968Y-2051960D02*
X3736491Y-2042436D01*
X3736491Y-2042436D02*
X3746015Y-2023388D01*
X3746015Y-2023388D02*
X3746015Y-1975769D01*
X3746015Y-1975769D02*
X3736491Y-1956722D01*
X3736491Y-1956722D02*
X3726968Y-1947198D01*
X3726968Y-1947198D02*
X3707920Y-1937674D01*
X3707920Y-1937674D02*
X3669825Y-1937674D01*
X3669825Y-1937674D02*
X3650777Y-1947198D01*
X3650777Y-1947198D02*
X3641253Y-1956722D01*
X3641253Y-1956722D02*
X3631729Y-1975769D01*
X3984110Y-2061484D02*
X3984110Y-1861484D01*
X4069825Y-2061484D02*
X4069825Y-1956722D01*
X4069825Y-1956722D02*
X4060301Y-1937674D01*
X4060301Y-1937674D02*
X4041253Y-1928150D01*
X4041253Y-1928150D02*
X4012682Y-1928150D01*
X4012682Y-1928150D02*
X3993634Y-1937674D01*
X3993634Y-1937674D02*
X3984110Y-1947198D01*
X4193634Y-2061484D02*
X4174587Y-2051960D01*
X4174587Y-2051960D02*
X4165063Y-2042436D01*
X4165063Y-2042436D02*
X4155539Y-2023388D01*
X4155539Y-2023388D02*
X4155539Y-1966246D01*
X4155539Y-1966246D02*
X4165063Y-1947198D01*
X4165063Y-1947198D02*
X4174587Y-1937674D01*
X4174587Y-1937674D02*
X4193634Y-1928150D01*
X4193634Y-1928150D02*
X4222206Y-1928150D01*
X4222206Y-1928150D02*
X4241253Y-1937674D01*
X4241253Y-1937674D02*
X4250777Y-1947198D01*
X4250777Y-1947198D02*
X4260301Y-1966246D01*
X4260301Y-1966246D02*
X4260301Y-2023388D01*
X4260301Y-2023388D02*
X4250777Y-2042436D01*
X4250777Y-2042436D02*
X4241253Y-2051960D01*
X4241253Y-2051960D02*
X4222206Y-2061484D01*
X4222206Y-2061484D02*
X4193634Y-2061484D01*
X4374587Y-2061484D02*
X4355539Y-2051960D01*
X4355539Y-2051960D02*
X4346015Y-2032912D01*
X4346015Y-2032912D02*
X4346015Y-1861484D01*
X4526968Y-2051960D02*
X4507920Y-2061484D01*
X4507920Y-2061484D02*
X4469825Y-2061484D01*
X4469825Y-2061484D02*
X4450777Y-2051960D01*
X4450777Y-2051960D02*
X4441253Y-2032912D01*
X4441253Y-2032912D02*
X4441253Y-1956722D01*
X4441253Y-1956722D02*
X4450777Y-1937674D01*
X4450777Y-1937674D02*
X4469825Y-1928150D01*
X4469825Y-1928150D02*
X4507920Y-1928150D01*
X4507920Y-1928150D02*
X4526968Y-1937674D01*
X4526968Y-1937674D02*
X4536492Y-1956722D01*
X4536492Y-1956722D02*
X4536492Y-1975769D01*
X4536492Y-1975769D02*
X4441253Y-1994817D01*
X4612682Y-2051960D02*
X4631730Y-2061484D01*
X4631730Y-2061484D02*
X4669825Y-2061484D01*
X4669825Y-2061484D02*
X4688873Y-2051960D01*
X4688873Y-2051960D02*
X4698396Y-2032912D01*
X4698396Y-2032912D02*
X4698396Y-2023388D01*
X4698396Y-2023388D02*
X4688873Y-2004341D01*
X4688873Y-2004341D02*
X4669825Y-1994817D01*
X4669825Y-1994817D02*
X4641253Y-1994817D01*
X4641253Y-1994817D02*
X4622206Y-1985293D01*
X4622206Y-1985293D02*
X4612682Y-1966246D01*
X4612682Y-1966246D02*
X4612682Y-1956722D01*
X4612682Y-1956722D02*
X4622206Y-1937674D01*
X4622206Y-1937674D02*
X4641253Y-1928150D01*
X4641253Y-1928150D02*
X4669825Y-1928150D01*
X4669825Y-1928150D02*
X4688873Y-1937674D01*
X4765063Y-2137674D02*
X4774587Y-2128150D01*
X4774587Y-2128150D02*
X4793634Y-2099579D01*
X4793634Y-2099579D02*
X4803158Y-2080531D01*
X4803158Y-2080531D02*
X4812682Y-2051960D01*
X4812682Y-2051960D02*
X4822206Y-2004341D01*
X4822206Y-2004341D02*
X4822206Y-1966246D01*
X4822206Y-1966246D02*
X4812682Y-1918627D01*
X4812682Y-1918627D02*
X4803158Y-1890055D01*
X4803158Y-1890055D02*
X4793634Y-1871008D01*
X4793634Y-1871008D02*
X4774587Y-1842436D01*
X4774587Y-1842436D02*
X4765063Y-1832912D01*
M02*
