M48
; DRILL file {KiCad 7.0.7} date Mo 18 Sep 2023 15:24:28 CEST
; FORMAT={-:-/ absolute / inch / decimal}
; #@! TF.CreationDate,2023-09-18T15:24:28+02:00
; #@! TF.GenerationSoftware,Kicad,Pcbnew,7.0.7
; #@! TF.FileFunction,Plated,1,2,PTH
FMAT,2
INCH
; #@! TA.AperFunction,Plated,PTH,ComponentDrill
T1C0.0197
; #@! TA.AperFunction,Plated,PTH,ComponentDrill
T2C0.0236
; #@! TA.AperFunction,Plated,PTH,ComponentDrill
T3C0.0295
; #@! TA.AperFunction,Plated,PTH,ComponentDrill
T4C0.0315
; #@! TA.AperFunction,Plated,PTH,ComponentDrill
T5C0.0394
; #@! TA.AperFunction,Plated,PTH,ComponentDrill
T6C0.0472
%
G90
G05
T1
X0.2343Y3.2087
X0.2343Y3.0512
X0.2382Y2.8937
X0.2382Y2.5787
X0.2382Y2.4252
X0.2382Y2.2638
X0.2421Y2.7362
X0.2461Y1.6339
X0.2461Y1.5157
X1.4567Y3.6024
X1.5945Y3.6024
X1.7224Y0.1772
X1.8406Y0.1772
X2.9724Y3.6024
X2.9724Y0.1772
X3.1102Y3.6024
X3.176Y0.1772
X3.248Y3.6024
X3.3055Y0.1772
X3.435Y0.1772
X3.6575Y3.6024
X3.7992Y3.6024
X3.937Y3.6024
X4.1535Y0.1772
X4.2815Y0.1772
X5.5008Y3.6366
X6.4764Y2.2441
X6.4764Y2.1154
X6.4764Y1.9933
X6.4764Y1.8681
T2
X0.6626Y2.4898
X0.7217Y2.4898
X2.5492Y2.2933
X2.5492Y2.2343
X2.7657Y1.2292
X2.7657Y1.1702
X4.1043Y3.0621
X4.1043Y3.003
X4.7008Y3.4957
X4.7008Y3.4366
T3
X0.3106Y0.5815
X0.3106Y0.5315
X0.3106Y0.4815
X0.5957Y3.4913
X0.6457Y3.4913
X0.6957Y3.4913
X0.7776Y0.4543
X0.7776Y0.4043
X0.7776Y0.3543
X0.9244Y1.4764
X0.9744Y1.4764
X1.0244Y1.4764
X1.0976Y2.7992
X1.1476Y2.7992
X1.1976Y2.7992
X1.2445Y0.4634
X1.2445Y0.4134
X1.2445Y0.3634
X3.2008Y0.6366
X3.2508Y0.6366
X3.3008Y0.6366
X4.5008Y0.8366
X4.5508Y0.8366
X4.6008Y2.2366
X4.6008Y2.1866
X4.6008Y2.1366
X4.6008Y0.8366
X4.8008Y2.2366
X4.8008Y2.1866
X4.8008Y2.1366
T4
X0.2697Y1.2323
X0.2697Y0.8323
X0.4957Y3.1913
X0.4957Y2.9913
X0.4957Y2.7913
X0.5217Y1.1417
X0.5217Y0.9449
X0.676Y2.0701
X0.676Y1.8701
X0.8051Y1.2354
X0.8051Y0.8354
X0.8768Y2.4921
X0.8768Y2.2921
X0.8917Y3.5079
X0.8957Y3.1913
X0.8957Y2.9913
X0.8957Y2.7913
X1.0335Y1.1732
X1.0335Y0.9764
X1.0335Y0.7346
X1.0335Y0.3346
X1.076Y2.0701
X1.076Y1.8701
X1.1469Y3.1858
X1.1469Y3.1071
X1.2768Y2.4921
X1.2768Y2.2921
X1.2917Y3.5079
X1.3628Y2.0709
X1.3642Y1.2354
X1.3642Y0.8354
X1.5059Y0.7315
X1.5059Y0.3315
X1.5287Y2.9205
X1.5287Y2.5205
X1.5642Y1.2354
X1.5642Y0.8354
X1.7287Y2.9205
X1.7287Y2.5205
X1.7628Y2.0709
X1.9161Y0.7346
X1.9161Y0.3346
X1.9287Y2.9205
X1.9287Y2.5205
X1.9291Y2.0866
X1.9291Y1.6866
X1.972Y1.2008
X2.0902Y0.9449
X2.1161Y0.7346
X2.1161Y0.3346
X2.1689Y1.2008
X2.2982Y2.0402
X2.2982Y1.7402
X2.313Y0.5315
X2.313Y0.3346
X2.3287Y2.9205
X2.3287Y2.5205
X2.372Y1.2008
X2.3982Y2.0402
X2.3982Y1.7402
X2.4232Y3.4882
X2.4232Y3.2882
X2.4902Y0.9449
X2.4982Y2.0402
X2.4982Y1.7402
X2.5287Y2.9205
X2.5287Y2.5205
X2.5657Y0.7315
X2.5657Y0.3315
X2.5689Y1.2008
X2.5982Y2.0402
X2.5982Y1.7402
X2.6982Y2.0402
X2.6982Y1.7402
X2.7287Y2.9205
X2.7287Y2.5205
X2.7657Y0.7315
X2.7657Y0.3315
X2.7982Y2.0402
X2.7982Y1.7402
X2.8232Y3.4882
X2.8232Y3.2882
X2.8982Y2.0402
X2.8982Y1.7402
X2.9311Y2.9205
X2.9311Y2.5205
X2.9429Y0.5315
X2.9429Y0.3346
X3.0008Y1.2366
X3.0008Y1.0366
X3.0492Y2.3146
X3.0492Y2.2358
X3.2008Y1.6366
X3.2008Y1.4398
X3.4008Y2.1366
X3.4008Y1.9366
X3.4008Y1.7366
X3.4008Y1.2366
X3.4008Y1.0366
X3.6008Y1.4366
X3.6008Y1.0366
X3.6008Y0.8366
X3.6008Y0.6366
X3.6008Y0.4366
X3.7205Y3.3465
X3.7992Y3.3465
X3.8008Y2.1366
X3.8008Y1.9366
X3.8008Y1.7366
X4.0008Y1.4366
X4.0008Y1.0366
X4.0008Y0.8366
X4.0008Y0.6366
X4.0008Y0.4366
X4.0846Y2.0701
X4.0846Y1.6701
X4.2846Y2.0701
X4.2846Y1.6701
X4.3878Y3.2016
X4.3878Y2.9016
X4.4008Y1.5366
X4.4008Y1.1366
X4.4878Y3.2016
X4.4878Y2.9016
X4.5008Y2.6366
X4.5008Y2.4366
X4.5008Y0.4366
X4.5878Y3.2016
X4.5878Y2.9016
X4.6039Y1.8366
X4.6878Y3.2016
X4.6878Y2.9016
X4.6998Y1.6661
X4.6998Y1.3661
X4.7039Y1.1366
X4.7998Y1.6661
X4.7998Y1.3661
X4.8008Y1.8366
X4.8998Y1.6661
X4.8998Y1.3661
X4.9008Y2.6366
X4.9008Y2.4366
X4.9008Y1.1366
X4.9008Y0.4366
X4.9016Y0.935
X4.9016Y0.7382
X4.9998Y1.6661
X4.9998Y1.3661
X5.0953Y0.6201
X5.0998Y1.6661
X5.0998Y1.3661
X5.1008Y3.6366
X5.1008Y3.4398
X5.1008Y2.1366
X5.1008Y1.9398
X5.1008Y1.1366
X5.102Y0.9366
X5.1998Y1.6661
X5.1998Y1.3661
X5.2008Y2.9366
X5.2008Y2.5366
X5.2998Y1.6661
X5.2998Y1.3661
X5.4008Y2.2366
X5.4008Y1.8366
X5.4953Y0.6201
X5.5008Y2.7366
X5.5008Y2.5398
X5.5008Y1.1366
X5.502Y0.9366
X5.5508Y0.4366
X5.6008Y2.2366
X5.6008Y2.0366
X5.6008Y1.8366
X5.6817Y1.6685
X5.6817Y1.2685
X5.8508Y0.4366
X5.8817Y1.6685
X5.8817Y1.2685
X5.8858Y1.1055
X5.8858Y0.7055
X6.0008Y2.2366
X6.0008Y2.0366
X6.0008Y1.8366
X6.0817Y1.6685
X6.0817Y1.2685
X6.1713Y0.9055
X6.1713Y0.7087
X6.4075Y1.3024
X6.4075Y0.9024
T5
X5.5008Y3.4335
X5.5008Y3.2366
T6
X1.9665Y3.3936
X1.9665Y3.1968
X3.435Y3.0512
X3.435Y2.8543
X4.0039Y2.5366
X4.2008Y2.5366
T0
M30
