%TF.GenerationSoftware,KiCad,Pcbnew,7.0.8*%
%TF.CreationDate,2023-10-29T18:00:52+01:00*%
%TF.ProjectId,Noise Toaster PCB,4e6f6973-6520-4546-9f61-737465722050,0.6.1*%
%TF.SameCoordinates,PX47c8b58PY892ee58*%
%TF.FileFunction,Drillmap*%
%TF.FilePolarity,Positive*%
%FSLAX45Y45*%
G04 Gerber Fmt 4.5, Leading zero omitted, Abs format (unit mm)*
G04 Created by KiCad (PCBNEW 7.0.8) date 2023-10-29 18:00:52*
%MOMM*%
%LPD*%
G01*
G04 APERTURE LIST*
%ADD10C,0.200000*%
%ADD11C,0.060000*%
%ADD12C,0.075000*%
%ADD13C,0.080000*%
%ADD14C,0.100000*%
%ADD15C,0.120000*%
G04 APERTURE END LIST*
D10*
X0Y6858000D02*
X13208000Y6858000D01*
X13208000Y0D01*
X0Y0D01*
X0Y6858000D01*
D11*
X1145500Y4252000D02*
X1205500Y4192000D01*
X1205500Y4252000D02*
X1145500Y4192000D01*
X1295500Y4252000D02*
X1355500Y4192000D01*
X1355500Y4252000D02*
X1295500Y4192000D01*
X4257000Y4379000D02*
X4317000Y4319000D01*
X4317000Y4379000D02*
X4257000Y4319000D01*
X4257000Y4229000D02*
X4317000Y4169000D01*
X4317000Y4229000D02*
X4257000Y4169000D01*
X5527000Y2283500D02*
X5587000Y2223500D01*
X5587000Y2283500D02*
X5527000Y2223500D01*
X5527000Y2133500D02*
X5587000Y2073500D01*
X5587000Y2133500D02*
X5527000Y2073500D01*
X9146500Y6030000D02*
X9206500Y5970000D01*
X9206500Y6030000D02*
X9146500Y5970000D01*
X9146500Y5880000D02*
X9206500Y5820000D01*
X9206500Y5880000D02*
X9146500Y5820000D01*
X9845000Y6411000D02*
X9905000Y6351000D01*
X9905000Y6411000D02*
X9845000Y6351000D01*
X9845000Y6261000D02*
X9905000Y6201000D01*
X9905000Y6261000D02*
X9845000Y6201000D01*
D12*
X542000Y1364500D02*
G75*
G03*
X542000Y1364500I-37500J0D01*
G01*
X542000Y1237500D02*
G75*
G03*
X542000Y1237500I-37500J0D01*
G01*
X542000Y1110500D02*
G75*
G03*
X542000Y1110500I-37500J0D01*
G01*
X1086000Y6000000D02*
G75*
G03*
X1086000Y6000000I-37500J0D01*
G01*
X1213000Y6000000D02*
G75*
G03*
X1213000Y6000000I-37500J0D01*
G01*
X1276500Y793000D02*
G75*
G03*
X1276500Y793000I-37500J0D01*
G01*
X1276500Y666000D02*
G75*
G03*
X1276500Y666000I-37500J0D01*
G01*
X1276500Y539000D02*
G75*
G03*
X1276500Y539000I-37500J0D01*
G01*
X1340000Y6000000D02*
G75*
G03*
X1340000Y6000000I-37500J0D01*
G01*
X1911500Y4268000D02*
G75*
G03*
X1911500Y4268000I-37500J0D01*
G01*
X1911500Y1872500D02*
G75*
G03*
X1911500Y1872500I-37500J0D01*
G01*
X2038500Y4268000D02*
G75*
G03*
X2038500Y4268000I-37500J0D01*
G01*
X2038500Y1872500D02*
G75*
G03*
X2038500Y1872500I-37500J0D01*
G01*
X2165500Y4268000D02*
G75*
G03*
X2165500Y4268000I-37500J0D01*
G01*
X2165500Y1872500D02*
G75*
G03*
X2165500Y1872500I-37500J0D01*
G01*
X2737000Y793000D02*
G75*
G03*
X2737000Y793000I-37500J0D01*
G01*
X2737000Y666000D02*
G75*
G03*
X2737000Y666000I-37500J0D01*
G01*
X2737000Y539000D02*
G75*
G03*
X2737000Y539000I-37500J0D01*
G01*
X6039000Y1709500D02*
G75*
G03*
X6039000Y1709500I-37500J0D01*
G01*
X6166000Y1709500D02*
G75*
G03*
X6166000Y1709500I-37500J0D01*
G01*
X6293000Y1709500D02*
G75*
G03*
X6293000Y1709500I-37500J0D01*
G01*
X8515500Y3841000D02*
G75*
G03*
X8515500Y3841000I-37500J0D01*
G01*
X8515500Y3714000D02*
G75*
G03*
X8515500Y3714000I-37500J0D01*
G01*
X8515500Y3587000D02*
G75*
G03*
X8515500Y3587000I-37500J0D01*
G01*
X9023500Y3841000D02*
G75*
G03*
X9023500Y3841000I-37500J0D01*
G01*
X9023500Y3714000D02*
G75*
G03*
X9023500Y3714000I-37500J0D01*
G01*
X9023500Y3587000D02*
G75*
G03*
X9023500Y3587000I-37500J0D01*
G01*
X9150500Y2289500D02*
G75*
G03*
X9150500Y2289500I-37500J0D01*
G01*
X9277500Y2289500D02*
G75*
G03*
X9277500Y2289500I-37500J0D01*
G01*
X9404500Y2289500D02*
G75*
G03*
X9404500Y2289500I-37500J0D01*
G01*
D13*
X515100Y5747900D02*
X515100Y5667900D01*
X475100Y5707900D02*
X555100Y5707900D01*
X515100Y5547900D02*
X515100Y5467900D01*
X475100Y5507900D02*
X555100Y5507900D01*
X515100Y5062100D02*
X515100Y4982100D01*
X475100Y5022100D02*
X555100Y5022100D01*
X515100Y4862100D02*
X515100Y4782100D01*
X475100Y4822100D02*
X555100Y4822100D01*
X515100Y4662100D02*
X515100Y4582100D01*
X475100Y4622100D02*
X555100Y4622100D01*
X515100Y4462100D02*
X515100Y4382100D01*
X475100Y4422100D02*
X555100Y4422100D01*
X515100Y4262100D02*
X515100Y4182100D01*
X475100Y4222100D02*
X555100Y4222100D01*
X540500Y3512700D02*
X540500Y3432700D01*
X500500Y3472700D02*
X580500Y3472700D01*
X540500Y3312700D02*
X540500Y3232700D01*
X500500Y3272700D02*
X580500Y3272700D01*
X540500Y2928500D02*
X540500Y2848500D01*
X500500Y2888500D02*
X580500Y2888500D01*
X540500Y1912500D02*
X540500Y1832500D01*
X500500Y1872500D02*
X580500Y1872500D01*
X1048500Y1976000D02*
X1048500Y1896000D01*
X1008500Y1936000D02*
X1088500Y1936000D01*
X1048500Y1476000D02*
X1048500Y1396000D01*
X1008500Y1436000D02*
X1088500Y1436000D01*
X1175500Y5595500D02*
X1175500Y5515500D01*
X1135500Y5555500D02*
X1215500Y5555500D01*
X1175500Y5214500D02*
X1175500Y5134500D01*
X1135500Y5174500D02*
X1215500Y5174500D01*
X1175500Y4833500D02*
X1175500Y4753500D01*
X1135500Y4793500D02*
X1215500Y4793500D01*
X1175500Y2928500D02*
X1175500Y2848500D01*
X1135500Y2888500D02*
X1215500Y2888500D01*
X1175500Y2547500D02*
X1175500Y2467500D01*
X1135500Y2507500D02*
X1215500Y2507500D01*
X1366000Y3373000D02*
X1366000Y3293000D01*
X1326000Y3333000D02*
X1406000Y3333000D01*
X1368000Y3746500D02*
X1368000Y3666500D01*
X1328000Y3706500D02*
X1408000Y3706500D01*
X1429500Y2230000D02*
X1429500Y2150000D01*
X1389500Y2190000D02*
X1469500Y2190000D01*
X1429500Y1214000D02*
X1429500Y1134000D01*
X1389500Y1174000D02*
X1469500Y1174000D01*
X1747000Y6103500D02*
X1747000Y6023500D01*
X1707000Y6063500D02*
X1787000Y6063500D01*
X1747000Y888500D02*
X1747000Y808500D01*
X1707000Y848500D02*
X1787000Y848500D01*
X1747000Y388500D02*
X1747000Y308500D01*
X1707000Y348500D02*
X1787000Y348500D01*
X2191500Y5595500D02*
X2191500Y5515500D01*
X2151500Y5555500D02*
X2231500Y5555500D01*
X2191500Y5214500D02*
X2191500Y5134500D01*
X2151500Y5174500D02*
X2231500Y5174500D01*
X2191500Y4833500D02*
X2191500Y4753500D01*
X2151500Y4793500D02*
X2231500Y4793500D01*
X2191500Y2928500D02*
X2191500Y2848500D01*
X2151500Y2888500D02*
X2231500Y2888500D01*
X2191500Y2547500D02*
X2191500Y2467500D01*
X2151500Y2507500D02*
X2231500Y2507500D01*
X2255000Y1595000D02*
X2255000Y1515000D01*
X2215000Y1555000D02*
X2295000Y1555000D01*
X2255000Y579000D02*
X2255000Y499000D01*
X2215000Y539000D02*
X2295000Y539000D01*
X2382000Y3373000D02*
X2382000Y3293000D01*
X2342000Y3333000D02*
X2422000Y3333000D01*
X2384000Y3746500D02*
X2384000Y3666500D01*
X2344000Y3706500D02*
X2424000Y3706500D01*
X2763000Y6103500D02*
X2763000Y6023500D01*
X2723000Y6063500D02*
X2803000Y6063500D01*
X2763000Y5468500D02*
X2763000Y5388500D01*
X2723000Y5428500D02*
X2803000Y5428500D01*
X2763000Y5268500D02*
X2763000Y5188500D01*
X2723000Y5228500D02*
X2803000Y5228500D01*
X2763000Y3182500D02*
X2763000Y3102500D01*
X2723000Y3142500D02*
X2803000Y3142500D01*
X2763000Y2865000D02*
X2763000Y2785000D01*
X2723000Y2825000D02*
X2803000Y2825000D01*
X2763000Y1849000D02*
X2763000Y1769000D01*
X2723000Y1809000D02*
X2803000Y1809000D01*
X2826500Y4579500D02*
X2826500Y4499500D01*
X2786500Y4539500D02*
X2866500Y4539500D01*
X2826500Y3563500D02*
X2826500Y3483500D01*
X2786500Y3523500D02*
X2866500Y3523500D01*
X3144000Y2865000D02*
X3144000Y2785000D01*
X3104000Y2825000D02*
X3184000Y2825000D01*
X3144000Y1849000D02*
X3144000Y1769000D01*
X3104000Y1809000D02*
X3184000Y1809000D01*
X3144000Y1404500D02*
X3144000Y1324500D01*
X3104000Y1364500D02*
X3184000Y1364500D01*
X3144000Y388500D02*
X3144000Y308500D01*
X3104000Y348500D02*
X3184000Y348500D01*
X3207500Y4579500D02*
X3207500Y4499500D01*
X3167500Y4539500D02*
X3247500Y4539500D01*
X3207500Y3563500D02*
X3207500Y3483500D01*
X3167500Y3523500D02*
X3247500Y3523500D01*
X3588500Y4579500D02*
X3588500Y4499500D01*
X3548500Y4539500D02*
X3628500Y4539500D01*
X3588500Y3563500D02*
X3588500Y3483500D01*
X3548500Y3523500D02*
X3628500Y3523500D01*
X3613900Y439300D02*
X3613900Y359300D01*
X3573900Y399300D02*
X3653900Y399300D01*
X3715500Y2865000D02*
X3715500Y2785000D01*
X3675500Y2825000D02*
X3755500Y2825000D01*
X3715500Y1849000D02*
X3715500Y1769000D01*
X3675500Y1809000D02*
X3755500Y1809000D01*
X3725100Y6509900D02*
X3725100Y6429900D01*
X3685100Y6469900D02*
X3765100Y6469900D01*
X3779000Y3182500D02*
X3779000Y3102500D01*
X3739000Y3142500D02*
X3819000Y3142500D01*
X3925100Y6509900D02*
X3925100Y6429900D01*
X3885100Y6469900D02*
X3965100Y6469900D01*
X4092500Y2674500D02*
X4092500Y2594500D01*
X4052500Y2634500D02*
X4132500Y2634500D01*
X4092500Y2230000D02*
X4092500Y2150000D01*
X4052500Y2190000D02*
X4132500Y2190000D01*
X4104500Y1912500D02*
X4104500Y1832500D01*
X4064500Y1872500D02*
X4144500Y1872500D01*
X4104500Y896500D02*
X4104500Y816500D01*
X4064500Y856500D02*
X4144500Y856500D01*
X4125100Y6509900D02*
X4125100Y6429900D01*
X4085100Y6469900D02*
X4165100Y6469900D01*
X4325100Y6509900D02*
X4325100Y6429900D01*
X4285100Y6469900D02*
X4365100Y6469900D01*
X4350500Y3881000D02*
X4350500Y3801000D01*
X4310500Y3841000D02*
X4390500Y3841000D01*
X4350500Y3119000D02*
X4350500Y3039000D01*
X4310500Y3079000D02*
X4390500Y3079000D01*
X4477500Y1912500D02*
X4477500Y1832500D01*
X4437500Y1872500D02*
X4517500Y1872500D01*
X4477500Y896500D02*
X4477500Y816500D01*
X4437500Y856500D02*
X4517500Y856500D01*
X4531500Y413900D02*
X4531500Y333900D01*
X4491500Y373900D02*
X4571500Y373900D01*
X4592500Y2674500D02*
X4592500Y2594500D01*
X4552500Y2634500D02*
X4632500Y2634500D01*
X4604500Y3881000D02*
X4604500Y3801000D01*
X4564500Y3841000D02*
X4644500Y3841000D01*
X4604500Y3119000D02*
X4604500Y3039000D01*
X4564500Y3079000D02*
X4644500Y3079000D01*
X4731500Y413900D02*
X4731500Y333900D01*
X4691500Y373900D02*
X4771500Y373900D01*
X4795000Y6294000D02*
X4795000Y6214000D01*
X4755000Y6254000D02*
X4835000Y6254000D01*
X4795000Y5913000D02*
X4795000Y5833000D01*
X4755000Y5873000D02*
X4835000Y5873000D01*
X4858500Y3881000D02*
X4858500Y3801000D01*
X4818500Y3841000D02*
X4898500Y3841000D01*
X4858500Y3119000D02*
X4858500Y3039000D01*
X4818500Y3079000D02*
X4898500Y3079000D01*
X4858500Y1404500D02*
X4858500Y1324500D01*
X4818500Y1364500D02*
X4898500Y1364500D01*
X4858500Y904500D02*
X4858500Y824500D01*
X4818500Y864500D02*
X4898500Y864500D01*
X4916000Y5468500D02*
X4916000Y5388500D01*
X4876000Y5428500D02*
X4956000Y5428500D01*
X4916000Y4452500D02*
X4916000Y4372500D01*
X4876000Y4412500D02*
X4956000Y4412500D01*
X4922000Y2674500D02*
X4922000Y2594500D01*
X4882000Y2634500D02*
X4962000Y2634500D01*
X4931500Y413900D02*
X4931500Y333900D01*
X4891500Y373900D02*
X4971500Y373900D01*
X5108500Y2230000D02*
X5108500Y2150000D01*
X5068500Y2190000D02*
X5148500Y2190000D01*
X5112500Y3881000D02*
X5112500Y3801000D01*
X5072500Y3841000D02*
X5152500Y3841000D01*
X5112500Y3119000D02*
X5112500Y3039000D01*
X5072500Y3079000D02*
X5152500Y3079000D01*
X5131500Y413900D02*
X5131500Y333900D01*
X5091500Y373900D02*
X5171500Y373900D01*
X5239500Y1849000D02*
X5239500Y1769000D01*
X5199500Y1809000D02*
X5279500Y1809000D01*
X5239500Y833000D02*
X5239500Y753000D01*
X5199500Y793000D02*
X5279500Y793000D01*
X5303000Y5468500D02*
X5303000Y5388500D01*
X5263000Y5428500D02*
X5343000Y5428500D01*
X5303000Y4452500D02*
X5303000Y4372500D01*
X5263000Y4412500D02*
X5343000Y4412500D01*
X5331500Y413900D02*
X5331500Y333900D01*
X5291500Y373900D02*
X5371500Y373900D01*
X5366500Y3881000D02*
X5366500Y3801000D01*
X5326500Y3841000D02*
X5406500Y3841000D01*
X5366500Y3119000D02*
X5366500Y3039000D01*
X5326500Y3079000D02*
X5406500Y3079000D01*
X5422000Y2674500D02*
X5422000Y2594500D01*
X5382000Y2634500D02*
X5462000Y2634500D01*
X5615000Y1849000D02*
X5615000Y1769000D01*
X5575000Y1809000D02*
X5655000Y1809000D01*
X5615000Y833000D02*
X5615000Y753000D01*
X5575000Y793000D02*
X5655000Y793000D01*
X5620500Y3881000D02*
X5620500Y3801000D01*
X5580500Y3841000D02*
X5660500Y3841000D01*
X5620500Y3119000D02*
X5620500Y3039000D01*
X5580500Y3079000D02*
X5660500Y3079000D01*
X5684000Y5468500D02*
X5684000Y5388500D01*
X5644000Y5428500D02*
X5724000Y5428500D01*
X5684000Y4452500D02*
X5684000Y4372500D01*
X5644000Y4412500D02*
X5724000Y4412500D01*
X5811000Y6294000D02*
X5811000Y6214000D01*
X5771000Y6254000D02*
X5851000Y6254000D01*
X5811000Y5913000D02*
X5811000Y5833000D01*
X5771000Y5873000D02*
X5851000Y5873000D01*
X5874500Y3881000D02*
X5874500Y3801000D01*
X5834500Y3841000D02*
X5914500Y3841000D01*
X5874500Y3119000D02*
X5874500Y3039000D01*
X5834500Y3079000D02*
X5914500Y3079000D01*
X6001500Y2730000D02*
X6001500Y2650000D01*
X5961500Y2690000D02*
X6041500Y2690000D01*
X6001500Y2230000D02*
X6001500Y2150000D01*
X5961500Y2190000D02*
X6041500Y2190000D01*
X6001500Y1341000D02*
X6001500Y1261000D01*
X5961500Y1301000D02*
X6041500Y1301000D01*
X6001500Y841000D02*
X6001500Y761000D01*
X5961500Y801000D02*
X6041500Y801000D01*
X6065000Y5468500D02*
X6065000Y5388500D01*
X6025000Y5428500D02*
X6105000Y5428500D01*
X6065000Y4452500D02*
X6065000Y4372500D01*
X6025000Y4412500D02*
X6105000Y4412500D01*
X6319000Y3182500D02*
X6319000Y3102500D01*
X6279000Y3142500D02*
X6359000Y3142500D01*
X6319000Y2801500D02*
X6319000Y2721500D01*
X6279000Y2761500D02*
X6359000Y2761500D01*
X6319000Y2420500D02*
X6319000Y2340500D01*
X6279000Y2380500D02*
X6359000Y2380500D01*
X6509500Y3913011D02*
X6509500Y3833011D01*
X6469500Y3873011D02*
X6549500Y3873011D01*
X6509500Y3713011D02*
X6509500Y3633011D01*
X6469500Y3673011D02*
X6549500Y3673011D01*
X6573000Y1912500D02*
X6573000Y1832500D01*
X6533000Y1872500D02*
X6613000Y1872500D01*
X6573000Y1531500D02*
X6573000Y1451500D01*
X6533000Y1491500D02*
X6613000Y1491500D01*
X6573000Y1150500D02*
X6573000Y1070500D01*
X6533000Y1110500D02*
X6613000Y1110500D01*
X6573000Y769500D02*
X6573000Y689500D01*
X6533000Y729500D02*
X6613000Y729500D01*
X6792100Y413900D02*
X6792100Y333900D01*
X6752100Y373900D02*
X6832100Y373900D01*
X6915900Y6509900D02*
X6915900Y6429900D01*
X6875900Y6469900D02*
X6955900Y6469900D01*
X6992100Y413900D02*
X6992100Y333900D01*
X6952100Y373900D02*
X7032100Y373900D01*
X7017500Y4452500D02*
X7017500Y4372500D01*
X6977500Y4412500D02*
X7057500Y4412500D01*
X7017500Y4071500D02*
X7017500Y3991500D01*
X6977500Y4031500D02*
X7057500Y4031500D01*
X7017500Y3690500D02*
X7017500Y3610500D01*
X6977500Y3650500D02*
X7057500Y3650500D01*
X7192100Y413900D02*
X7192100Y333900D01*
X7152100Y373900D02*
X7232100Y373900D01*
X7335000Y3182500D02*
X7335000Y3102500D01*
X7295000Y3142500D02*
X7375000Y3142500D01*
X7335000Y2801500D02*
X7335000Y2721500D01*
X7295000Y2761500D02*
X7375000Y2761500D01*
X7335000Y2420500D02*
X7335000Y2340500D01*
X7295000Y2380500D02*
X7375000Y2380500D01*
X7589000Y1912500D02*
X7589000Y1832500D01*
X7549000Y1872500D02*
X7629000Y1872500D01*
X7589000Y1531500D02*
X7589000Y1451500D01*
X7549000Y1491500D02*
X7629000Y1491500D01*
X7589000Y1150500D02*
X7589000Y1070500D01*
X7549000Y1110500D02*
X7629000Y1110500D01*
X7589000Y769500D02*
X7589000Y689500D01*
X7549000Y729500D02*
X7629000Y729500D01*
X7906500Y2801500D02*
X7906500Y2721500D01*
X7866500Y2761500D02*
X7946500Y2761500D01*
X7906500Y1785500D02*
X7906500Y1705500D01*
X7866500Y1745500D02*
X7946500Y1745500D01*
X7906500Y706000D02*
X7906500Y626000D01*
X7866500Y666000D02*
X7946500Y666000D01*
X7912900Y6509900D02*
X7912900Y6429900D01*
X7872900Y6469900D02*
X7952900Y6469900D01*
X7970000Y5849500D02*
X7970000Y5769500D01*
X7930000Y5809500D02*
X8010000Y5809500D01*
X7970000Y1527500D02*
X7970000Y1447500D01*
X7930000Y1487500D02*
X8010000Y1487500D01*
X7970000Y1027500D02*
X7970000Y947500D01*
X7930000Y987500D02*
X8010000Y987500D01*
X8033500Y4452500D02*
X8033500Y4372500D01*
X7993500Y4412500D02*
X8073500Y4412500D01*
X8033500Y4071500D02*
X8033500Y3991500D01*
X7993500Y4031500D02*
X8073500Y4031500D01*
X8033500Y3690500D02*
X8033500Y3610500D01*
X7993500Y3650500D02*
X8073500Y3650500D01*
X8112900Y6509900D02*
X8112900Y6429900D01*
X8072900Y6469900D02*
X8152900Y6469900D01*
X8170000Y5849500D02*
X8170000Y5769500D01*
X8130000Y5809500D02*
X8210000Y5809500D01*
X8287500Y3182500D02*
X8287500Y3102500D01*
X8247500Y3142500D02*
X8327500Y3142500D01*
X8287500Y2801500D02*
X8287500Y2721500D01*
X8247500Y2761500D02*
X8327500Y2761500D01*
X8287500Y1785500D02*
X8287500Y1705500D01*
X8247500Y1745500D02*
X8327500Y1745500D01*
X8312900Y6509900D02*
X8312900Y6429900D01*
X8272900Y6469900D02*
X8352900Y6469900D01*
X8351000Y1468000D02*
X8351000Y1388000D01*
X8311000Y1428000D02*
X8391000Y1428000D01*
X8351000Y1087000D02*
X8351000Y1007000D01*
X8311000Y1047000D02*
X8391000Y1047000D01*
X8512900Y6509900D02*
X8512900Y6429900D01*
X8472900Y6469900D02*
X8552900Y6469900D01*
X8668500Y2801500D02*
X8668500Y2721500D01*
X8628500Y2761500D02*
X8708500Y2761500D01*
X8668500Y1785500D02*
X8668500Y1705500D01*
X8628500Y1745500D02*
X8708500Y1745500D01*
X8787500Y3182500D02*
X8787500Y3102500D01*
X8747500Y3142500D02*
X8827500Y3142500D01*
X8922500Y706000D02*
X8922500Y626000D01*
X8882500Y666000D02*
X8962500Y666000D01*
X9053500Y2865000D02*
X9053500Y2785000D01*
X9013500Y2825000D02*
X9093500Y2825000D01*
X9240000Y642500D02*
X9240000Y562500D01*
X9200000Y602500D02*
X9280000Y602500D01*
X9367000Y1468000D02*
X9367000Y1388000D01*
X9327000Y1428000D02*
X9407000Y1428000D01*
X9367000Y1087000D02*
X9367000Y1007000D01*
X9327000Y1047000D02*
X9407000Y1047000D01*
X9494000Y4008000D02*
X9494000Y3928000D01*
X9454000Y3968000D02*
X9534000Y3968000D01*
X9494000Y3246000D02*
X9494000Y3166000D01*
X9454000Y3206000D02*
X9534000Y3206000D01*
X9553500Y2865000D02*
X9553500Y2785000D01*
X9513500Y2825000D02*
X9593500Y2825000D01*
X9684500Y1087000D02*
X9684500Y1007000D01*
X9644500Y1047000D02*
X9724500Y1047000D01*
X9748000Y4770000D02*
X9748000Y4690000D01*
X9708000Y4730000D02*
X9788000Y4730000D01*
X9748000Y4389000D02*
X9748000Y4309000D01*
X9708000Y4349000D02*
X9788000Y4349000D01*
X9748000Y4008000D02*
X9748000Y3928000D01*
X9708000Y3968000D02*
X9788000Y3968000D01*
X9748000Y3246000D02*
X9748000Y3166000D01*
X9708000Y3206000D02*
X9788000Y3206000D01*
X9811500Y5913000D02*
X9811500Y5833000D01*
X9771500Y5873000D02*
X9851500Y5873000D01*
X9811500Y5151000D02*
X9811500Y5071000D01*
X9771500Y5111000D02*
X9851500Y5111000D01*
X9864840Y2925960D02*
X9864840Y2845960D01*
X9824840Y2885960D02*
X9904840Y2885960D01*
X9864840Y1909960D02*
X9864840Y1829960D01*
X9824840Y1869960D02*
X9904840Y1869960D01*
X10002000Y4008000D02*
X10002000Y3928000D01*
X9962000Y3968000D02*
X10042000Y3968000D01*
X10002000Y3246000D02*
X10002000Y3166000D01*
X9962000Y3206000D02*
X10042000Y3206000D01*
X10002000Y642500D02*
X10002000Y562500D01*
X9962000Y602500D02*
X10042000Y602500D01*
X10065500Y5913000D02*
X10065500Y5833000D01*
X10025500Y5873000D02*
X10105500Y5873000D01*
X10065500Y5151000D02*
X10065500Y5071000D01*
X10025500Y5111000D02*
X10105500Y5111000D01*
X10240760Y2433200D02*
X10240760Y2353200D01*
X10200760Y2393200D02*
X10280760Y2393200D01*
X10240760Y1417200D02*
X10240760Y1337200D01*
X10200760Y1377200D02*
X10280760Y1377200D01*
X10256000Y4008000D02*
X10256000Y3928000D01*
X10216000Y3968000D02*
X10296000Y3968000D01*
X10256000Y3246000D02*
X10256000Y3166000D01*
X10216000Y3206000D02*
X10296000Y3206000D01*
X10319500Y5913000D02*
X10319500Y5833000D01*
X10279500Y5873000D02*
X10359500Y5873000D01*
X10319500Y5151000D02*
X10319500Y5071000D01*
X10279500Y5111000D02*
X10359500Y5111000D01*
X10510000Y4008000D02*
X10510000Y3928000D01*
X10470000Y3968000D02*
X10550000Y3968000D01*
X10510000Y3246000D02*
X10510000Y3166000D01*
X10470000Y3206000D02*
X10550000Y3206000D01*
X10573500Y5913000D02*
X10573500Y5833000D01*
X10533500Y5873000D02*
X10613500Y5873000D01*
X10573500Y5151000D02*
X10573500Y5071000D01*
X10533500Y5111000D02*
X10613500Y5111000D01*
X10596360Y2433200D02*
X10596360Y2353200D01*
X10556360Y2393200D02*
X10636360Y2393200D01*
X10596360Y1417200D02*
X10596360Y1337200D01*
X10556360Y1377200D02*
X10636360Y1377200D01*
X10700500Y1087000D02*
X10700500Y1007000D01*
X10660500Y1047000D02*
X10740500Y1047000D01*
X10764000Y4770000D02*
X10764000Y4690000D01*
X10724000Y4730000D02*
X10804000Y4730000D01*
X10764000Y4389000D02*
X10764000Y4309000D01*
X10724000Y4349000D02*
X10804000Y4349000D01*
X10764000Y4008000D02*
X10764000Y3928000D01*
X10724000Y3968000D02*
X10804000Y3968000D01*
X10764000Y3246000D02*
X10764000Y3166000D01*
X10724000Y3206000D02*
X10804000Y3206000D01*
X10954500Y5782000D02*
X10954500Y5702000D01*
X10914500Y5742000D02*
X10994500Y5742000D01*
X10954500Y5282000D02*
X10954500Y5202000D01*
X10914500Y5242000D02*
X10994500Y5242000D01*
X10962120Y2433200D02*
X10962120Y2353200D01*
X10922120Y2393200D02*
X11002120Y2393200D01*
X10962120Y1417200D02*
X10962120Y1337200D01*
X10922120Y1377200D02*
X11002120Y1377200D01*
X11018000Y4008000D02*
X11018000Y3928000D01*
X10978000Y3968000D02*
X11058000Y3968000D01*
X11018000Y3246000D02*
X11018000Y3166000D01*
X10978000Y3206000D02*
X11058000Y3206000D01*
X11335500Y5595500D02*
X11335500Y5515500D01*
X11295500Y5555500D02*
X11375500Y5555500D01*
X11335500Y4579500D02*
X11335500Y4499500D01*
X11295500Y4539500D02*
X11375500Y4539500D01*
X11335500Y2293500D02*
X11335500Y2213500D01*
X11295500Y2253500D02*
X11375500Y2253500D01*
X11335500Y1277500D02*
X11335500Y1197500D01*
X11295500Y1237500D02*
X11375500Y1237500D01*
X11399000Y3373000D02*
X11399000Y3293000D01*
X11359000Y3333000D02*
X11439000Y3333000D01*
X11399000Y2992000D02*
X11399000Y2912000D01*
X11359000Y2952000D02*
X11439000Y2952000D01*
X11399000Y2611000D02*
X11399000Y2531000D01*
X11359000Y2571000D02*
X11439000Y2571000D01*
X11462500Y4194500D02*
X11462500Y4114500D01*
X11422500Y4154500D02*
X11502500Y4154500D01*
X11462500Y3694500D02*
X11462500Y3614500D01*
X11422500Y3654500D02*
X11502500Y3654500D01*
X11716500Y5083500D02*
X11716500Y5003500D01*
X11676500Y5043500D02*
X11756500Y5043500D01*
X11716500Y4583500D02*
X11716500Y4503500D01*
X11676500Y4543500D02*
X11756500Y4543500D01*
X11716500Y2293500D02*
X11716500Y2213500D01*
X11676500Y2253500D02*
X11756500Y2253500D01*
X11716500Y1793500D02*
X11716500Y1713500D01*
X11676500Y1753500D02*
X11756500Y1753500D01*
X12161000Y2230000D02*
X12161000Y2150000D01*
X12121000Y2190000D02*
X12201000Y2190000D01*
X12161000Y1214000D02*
X12161000Y1134000D01*
X12121000Y1174000D02*
X12201000Y1174000D01*
X12415000Y3373000D02*
X12415000Y3293000D01*
X12375000Y3333000D02*
X12455000Y3333000D01*
X12415000Y2992000D02*
X12415000Y2912000D01*
X12375000Y2952000D02*
X12455000Y2952000D01*
X12415000Y2611000D02*
X12415000Y2531000D01*
X12375000Y2571000D02*
X12455000Y2571000D01*
X12757900Y3182500D02*
X12757900Y3102500D01*
X12717900Y3142500D02*
X12797900Y3142500D01*
X12757900Y2982500D02*
X12757900Y2902500D01*
X12717900Y2942500D02*
X12797900Y2942500D01*
X12757900Y2782500D02*
X12757900Y2702500D01*
X12717900Y2742500D02*
X12797900Y2742500D01*
D14*
X11942356Y6282144D02*
X11942356Y6352856D01*
X11871644Y6352856D01*
X11871644Y6282144D01*
X11942356Y6282144D01*
X11942356Y5782144D02*
X11942356Y5852856D01*
X11871644Y5852856D01*
X11871644Y5782144D01*
X11942356Y5782144D01*
X12209056Y5291544D02*
X12209056Y5362256D01*
X12138344Y5362256D01*
X12138344Y5291544D01*
X12209056Y5291544D01*
X12209056Y5037544D02*
X12209056Y5108256D01*
X12138344Y5108256D01*
X12138344Y5037544D01*
X12209056Y5037544D01*
X12209056Y4783544D02*
X12209056Y4854256D01*
X12138344Y4854256D01*
X12138344Y4783544D01*
X12209056Y4783544D01*
X12209056Y4529544D02*
X12209056Y4600256D01*
X12138344Y4600256D01*
X12138344Y4529544D01*
X12209056Y4529544D01*
X12209056Y4275544D02*
X12209056Y4346256D01*
X12138344Y4346256D01*
X12138344Y4275544D01*
X12209056Y4275544D01*
X12209056Y4021544D02*
X12209056Y4092256D01*
X12138344Y4092256D01*
X12138344Y4021544D01*
X12209056Y4021544D01*
X12463056Y5291544D02*
X12463056Y5362256D01*
X12392344Y5362256D01*
X12392344Y5291544D01*
X12463056Y5291544D01*
X12463056Y5037544D02*
X12463056Y5108256D01*
X12392344Y5108256D01*
X12392344Y5037544D01*
X12463056Y5037544D01*
X12463056Y4783544D02*
X12463056Y4854256D01*
X12392344Y4854256D01*
X12392344Y4783544D01*
X12463056Y4783544D01*
X12463056Y4529544D02*
X12463056Y4600256D01*
X12392344Y4600256D01*
X12392344Y4529544D01*
X12463056Y4529544D01*
X12463056Y4275544D02*
X12463056Y4346256D01*
X12392344Y4346256D01*
X12392344Y4275544D01*
X12463056Y4275544D01*
X12463056Y4021544D02*
X12463056Y4092256D01*
X12392344Y4092256D01*
X12392344Y4021544D01*
X12463056Y4021544D01*
X12717056Y5291544D02*
X12717056Y5362256D01*
X12646344Y5362256D01*
X12646344Y5291544D01*
X12717056Y5291544D01*
X12717056Y5037544D02*
X12717056Y5108256D01*
X12646344Y5108256D01*
X12646344Y5037544D01*
X12717056Y5037544D01*
X12717056Y4783544D02*
X12717056Y4854256D01*
X12646344Y4854256D01*
X12646344Y4783544D01*
X12717056Y4783544D01*
X12717056Y4529544D02*
X12717056Y4600256D01*
X12646344Y4600256D01*
X12646344Y4529544D01*
X12717056Y4529544D01*
X12717056Y4275544D02*
X12717056Y4346256D01*
X12646344Y4346256D01*
X12646344Y4275544D01*
X12717056Y4275544D01*
X12717056Y4021544D02*
X12717056Y4092256D01*
X12646344Y4092256D01*
X12646344Y4021544D01*
X12717056Y4021544D01*
X12971056Y5291544D02*
X12971056Y5362256D01*
X12900344Y5362256D01*
X12900344Y5291544D01*
X12971056Y5291544D01*
X12971056Y5037544D02*
X12971056Y5108256D01*
X12900344Y5108256D01*
X12900344Y5037544D01*
X12971056Y5037544D01*
X12971056Y4783544D02*
X12971056Y4854256D01*
X12900344Y4854256D01*
X12900344Y4783544D01*
X12971056Y4783544D01*
X12971056Y4529544D02*
X12971056Y4600256D01*
X12900344Y4600256D01*
X12900344Y4529544D01*
X12971056Y4529544D01*
X12971056Y4275544D02*
X12971056Y4346256D01*
X12900344Y4346256D01*
X12900344Y4275544D01*
X12971056Y4275544D01*
X12971056Y4021544D02*
X12971056Y4092256D01*
X12900344Y4092256D01*
X12900344Y4021544D01*
X12971056Y4021544D01*
D15*
X3842500Y5598273D02*
X3902500Y5658273D01*
X3842500Y5718273D01*
X3782500Y5658273D01*
X3842500Y5598273D01*
X3842500Y5098273D02*
X3902500Y5158273D01*
X3842500Y5218273D01*
X3782500Y5158273D01*
X3842500Y5098273D01*
X7017500Y5598273D02*
X7077500Y5658273D01*
X7017500Y5718273D01*
X6957500Y5658273D01*
X7017500Y5598273D01*
X7017500Y5098273D02*
X7077500Y5158273D01*
X7017500Y5218273D01*
X6957500Y5158273D01*
X7017500Y5098273D01*
X8565727Y4860500D02*
X8625727Y4920500D01*
X8565727Y4980500D01*
X8505727Y4920500D01*
X8565727Y4860500D01*
X9065727Y4860500D02*
X9125727Y4920500D01*
X9065727Y4980500D01*
X9005727Y4920500D01*
X9065727Y4860500D01*
D10*
X250777Y-321484D02*
X250777Y-121484D01*
X250777Y-121484D02*
X298396Y-121484D01*
X298396Y-121484D02*
X326967Y-131008D01*
X326967Y-131008D02*
X346015Y-150055D01*
X346015Y-150055D02*
X355539Y-169103D01*
X355539Y-169103D02*
X365062Y-207198D01*
X365062Y-207198D02*
X365062Y-235769D01*
X365062Y-235769D02*
X355539Y-273865D01*
X355539Y-273865D02*
X346015Y-292912D01*
X346015Y-292912D02*
X326967Y-311960D01*
X326967Y-311960D02*
X298396Y-321484D01*
X298396Y-321484D02*
X250777Y-321484D01*
X450777Y-321484D02*
X450777Y-188150D01*
X450777Y-226246D02*
X460301Y-207198D01*
X460301Y-207198D02*
X469824Y-197674D01*
X469824Y-197674D02*
X488872Y-188150D01*
X488872Y-188150D02*
X507920Y-188150D01*
X574586Y-321484D02*
X574586Y-188150D01*
X574586Y-121484D02*
X565063Y-131008D01*
X565063Y-131008D02*
X574586Y-140531D01*
X574586Y-140531D02*
X584110Y-131008D01*
X584110Y-131008D02*
X574586Y-121484D01*
X574586Y-121484D02*
X574586Y-140531D01*
X698396Y-321484D02*
X679348Y-311960D01*
X679348Y-311960D02*
X669824Y-292912D01*
X669824Y-292912D02*
X669824Y-121484D01*
X803158Y-321484D02*
X784110Y-311960D01*
X784110Y-311960D02*
X774586Y-292912D01*
X774586Y-292912D02*
X774586Y-121484D01*
X1031729Y-321484D02*
X1031729Y-121484D01*
X1031729Y-121484D02*
X1098396Y-264341D01*
X1098396Y-264341D02*
X1165063Y-121484D01*
X1165063Y-121484D02*
X1165063Y-321484D01*
X1346015Y-321484D02*
X1346015Y-216722D01*
X1346015Y-216722D02*
X1336491Y-197674D01*
X1336491Y-197674D02*
X1317444Y-188150D01*
X1317444Y-188150D02*
X1279348Y-188150D01*
X1279348Y-188150D02*
X1260301Y-197674D01*
X1346015Y-311960D02*
X1326967Y-321484D01*
X1326967Y-321484D02*
X1279348Y-321484D01*
X1279348Y-321484D02*
X1260301Y-311960D01*
X1260301Y-311960D02*
X1250777Y-292912D01*
X1250777Y-292912D02*
X1250777Y-273865D01*
X1250777Y-273865D02*
X1260301Y-254817D01*
X1260301Y-254817D02*
X1279348Y-245293D01*
X1279348Y-245293D02*
X1326967Y-245293D01*
X1326967Y-245293D02*
X1346015Y-235769D01*
X1441253Y-188150D02*
X1441253Y-388150D01*
X1441253Y-197674D02*
X1460301Y-188150D01*
X1460301Y-188150D02*
X1498396Y-188150D01*
X1498396Y-188150D02*
X1517443Y-197674D01*
X1517443Y-197674D02*
X1526967Y-207198D01*
X1526967Y-207198D02*
X1536491Y-226246D01*
X1536491Y-226246D02*
X1536491Y-283389D01*
X1536491Y-283389D02*
X1526967Y-302436D01*
X1526967Y-302436D02*
X1517443Y-311960D01*
X1517443Y-311960D02*
X1498396Y-321484D01*
X1498396Y-321484D02*
X1460301Y-321484D01*
X1460301Y-321484D02*
X1441253Y-311960D01*
X1622205Y-302436D02*
X1631729Y-311960D01*
X1631729Y-311960D02*
X1622205Y-321484D01*
X1622205Y-321484D02*
X1612682Y-311960D01*
X1612682Y-311960D02*
X1622205Y-302436D01*
X1622205Y-302436D02*
X1622205Y-321484D01*
X1622205Y-197674D02*
X1631729Y-207198D01*
X1631729Y-207198D02*
X1622205Y-216722D01*
X1622205Y-216722D02*
X1612682Y-207198D01*
X1612682Y-207198D02*
X1622205Y-197674D01*
X1622205Y-197674D02*
X1622205Y-216722D01*
D11*
X-70000Y-620000D02*
X-10000Y-680000D01*
X-10000Y-620000D02*
X-70000Y-680000D01*
D10*
X288872Y-541484D02*
X307920Y-541484D01*
X307920Y-541484D02*
X326967Y-551008D01*
X326967Y-551008D02*
X336491Y-560531D01*
X336491Y-560531D02*
X346015Y-579579D01*
X346015Y-579579D02*
X355539Y-617674D01*
X355539Y-617674D02*
X355539Y-665293D01*
X355539Y-665293D02*
X346015Y-703388D01*
X346015Y-703388D02*
X336491Y-722436D01*
X336491Y-722436D02*
X326967Y-731960D01*
X326967Y-731960D02*
X307920Y-741484D01*
X307920Y-741484D02*
X288872Y-741484D01*
X288872Y-741484D02*
X269824Y-731960D01*
X269824Y-731960D02*
X260301Y-722436D01*
X260301Y-722436D02*
X250777Y-703388D01*
X250777Y-703388D02*
X241253Y-665293D01*
X241253Y-665293D02*
X241253Y-617674D01*
X241253Y-617674D02*
X250777Y-579579D01*
X250777Y-579579D02*
X260301Y-560531D01*
X260301Y-560531D02*
X269824Y-551008D01*
X269824Y-551008D02*
X288872Y-541484D01*
X441253Y-722436D02*
X450777Y-731960D01*
X450777Y-731960D02*
X441253Y-741484D01*
X441253Y-741484D02*
X431729Y-731960D01*
X431729Y-731960D02*
X441253Y-722436D01*
X441253Y-722436D02*
X441253Y-741484D01*
X622205Y-541484D02*
X584110Y-541484D01*
X584110Y-541484D02*
X565063Y-551008D01*
X565063Y-551008D02*
X555539Y-560531D01*
X555539Y-560531D02*
X536491Y-589103D01*
X536491Y-589103D02*
X526967Y-627198D01*
X526967Y-627198D02*
X526967Y-703388D01*
X526967Y-703388D02*
X536491Y-722436D01*
X536491Y-722436D02*
X546015Y-731960D01*
X546015Y-731960D02*
X565063Y-741484D01*
X565063Y-741484D02*
X603158Y-741484D01*
X603158Y-741484D02*
X622205Y-731960D01*
X622205Y-731960D02*
X631729Y-722436D01*
X631729Y-722436D02*
X641253Y-703388D01*
X641253Y-703388D02*
X641253Y-655770D01*
X641253Y-655770D02*
X631729Y-636722D01*
X631729Y-636722D02*
X622205Y-627198D01*
X622205Y-627198D02*
X603158Y-617674D01*
X603158Y-617674D02*
X565063Y-617674D01*
X565063Y-617674D02*
X546015Y-627198D01*
X546015Y-627198D02*
X536491Y-636722D01*
X536491Y-636722D02*
X526967Y-655770D01*
X765062Y-541484D02*
X784110Y-541484D01*
X784110Y-541484D02*
X803158Y-551008D01*
X803158Y-551008D02*
X812682Y-560531D01*
X812682Y-560531D02*
X822205Y-579579D01*
X822205Y-579579D02*
X831729Y-617674D01*
X831729Y-617674D02*
X831729Y-665293D01*
X831729Y-665293D02*
X822205Y-703388D01*
X822205Y-703388D02*
X812682Y-722436D01*
X812682Y-722436D02*
X803158Y-731960D01*
X803158Y-731960D02*
X784110Y-741484D01*
X784110Y-741484D02*
X765062Y-741484D01*
X765062Y-741484D02*
X746015Y-731960D01*
X746015Y-731960D02*
X736491Y-722436D01*
X736491Y-722436D02*
X726967Y-703388D01*
X726967Y-703388D02*
X717443Y-665293D01*
X717443Y-665293D02*
X717443Y-617674D01*
X717443Y-617674D02*
X726967Y-579579D01*
X726967Y-579579D02*
X736491Y-560531D01*
X736491Y-560531D02*
X746015Y-551008D01*
X746015Y-551008D02*
X765062Y-541484D01*
X955539Y-541484D02*
X974586Y-541484D01*
X974586Y-541484D02*
X993634Y-551008D01*
X993634Y-551008D02*
X1003158Y-560531D01*
X1003158Y-560531D02*
X1012682Y-579579D01*
X1012682Y-579579D02*
X1022205Y-617674D01*
X1022205Y-617674D02*
X1022205Y-665293D01*
X1022205Y-665293D02*
X1012682Y-703388D01*
X1012682Y-703388D02*
X1003158Y-722436D01*
X1003158Y-722436D02*
X993634Y-731960D01*
X993634Y-731960D02*
X974586Y-741484D01*
X974586Y-741484D02*
X955539Y-741484D01*
X955539Y-741484D02*
X936491Y-731960D01*
X936491Y-731960D02*
X926967Y-722436D01*
X926967Y-722436D02*
X917443Y-703388D01*
X917443Y-703388D02*
X907920Y-665293D01*
X907920Y-665293D02*
X907920Y-617674D01*
X907920Y-617674D02*
X917443Y-579579D01*
X917443Y-579579D02*
X926967Y-560531D01*
X926967Y-560531D02*
X936491Y-551008D01*
X936491Y-551008D02*
X955539Y-541484D01*
X1107920Y-741484D02*
X1107920Y-608150D01*
X1107920Y-627198D02*
X1117444Y-617674D01*
X1117444Y-617674D02*
X1136491Y-608150D01*
X1136491Y-608150D02*
X1165063Y-608150D01*
X1165063Y-608150D02*
X1184110Y-617674D01*
X1184110Y-617674D02*
X1193634Y-636722D01*
X1193634Y-636722D02*
X1193634Y-741484D01*
X1193634Y-636722D02*
X1203158Y-617674D01*
X1203158Y-617674D02*
X1222205Y-608150D01*
X1222205Y-608150D02*
X1250777Y-608150D01*
X1250777Y-608150D02*
X1269825Y-617674D01*
X1269825Y-617674D02*
X1279348Y-636722D01*
X1279348Y-636722D02*
X1279348Y-741484D01*
X1374586Y-741484D02*
X1374586Y-608150D01*
X1374586Y-627198D02*
X1384110Y-617674D01*
X1384110Y-617674D02*
X1403158Y-608150D01*
X1403158Y-608150D02*
X1431729Y-608150D01*
X1431729Y-608150D02*
X1450777Y-617674D01*
X1450777Y-617674D02*
X1460301Y-636722D01*
X1460301Y-636722D02*
X1460301Y-741484D01*
X1460301Y-636722D02*
X1469824Y-617674D01*
X1469824Y-617674D02*
X1488872Y-608150D01*
X1488872Y-608150D02*
X1517443Y-608150D01*
X1517443Y-608150D02*
X1536491Y-617674D01*
X1536491Y-617674D02*
X1546015Y-636722D01*
X1546015Y-636722D02*
X1546015Y-741484D01*
X1936491Y-531960D02*
X1765063Y-789103D01*
X2193634Y-541484D02*
X2212682Y-541484D01*
X2212682Y-541484D02*
X2231729Y-551008D01*
X2231729Y-551008D02*
X2241253Y-560531D01*
X2241253Y-560531D02*
X2250777Y-579579D01*
X2250777Y-579579D02*
X2260301Y-617674D01*
X2260301Y-617674D02*
X2260301Y-665293D01*
X2260301Y-665293D02*
X2250777Y-703388D01*
X2250777Y-703388D02*
X2241253Y-722436D01*
X2241253Y-722436D02*
X2231729Y-731960D01*
X2231729Y-731960D02*
X2212682Y-741484D01*
X2212682Y-741484D02*
X2193634Y-741484D01*
X2193634Y-741484D02*
X2174587Y-731960D01*
X2174587Y-731960D02*
X2165063Y-722436D01*
X2165063Y-722436D02*
X2155539Y-703388D01*
X2155539Y-703388D02*
X2146015Y-665293D01*
X2146015Y-665293D02*
X2146015Y-617674D01*
X2146015Y-617674D02*
X2155539Y-579579D01*
X2155539Y-579579D02*
X2165063Y-560531D01*
X2165063Y-560531D02*
X2174587Y-551008D01*
X2174587Y-551008D02*
X2193634Y-541484D01*
X2346015Y-722436D02*
X2355539Y-731960D01*
X2355539Y-731960D02*
X2346015Y-741484D01*
X2346015Y-741484D02*
X2336491Y-731960D01*
X2336491Y-731960D02*
X2346015Y-722436D01*
X2346015Y-722436D02*
X2346015Y-741484D01*
X2479348Y-541484D02*
X2498396Y-541484D01*
X2498396Y-541484D02*
X2517444Y-551008D01*
X2517444Y-551008D02*
X2526968Y-560531D01*
X2526968Y-560531D02*
X2536491Y-579579D01*
X2536491Y-579579D02*
X2546015Y-617674D01*
X2546015Y-617674D02*
X2546015Y-665293D01*
X2546015Y-665293D02*
X2536491Y-703388D01*
X2536491Y-703388D02*
X2526968Y-722436D01*
X2526968Y-722436D02*
X2517444Y-731960D01*
X2517444Y-731960D02*
X2498396Y-741484D01*
X2498396Y-741484D02*
X2479348Y-741484D01*
X2479348Y-741484D02*
X2460301Y-731960D01*
X2460301Y-731960D02*
X2450777Y-722436D01*
X2450777Y-722436D02*
X2441253Y-703388D01*
X2441253Y-703388D02*
X2431729Y-665293D01*
X2431729Y-665293D02*
X2431729Y-617674D01*
X2431729Y-617674D02*
X2441253Y-579579D01*
X2441253Y-579579D02*
X2450777Y-560531D01*
X2450777Y-560531D02*
X2460301Y-551008D01*
X2460301Y-551008D02*
X2479348Y-541484D01*
X2622206Y-560531D02*
X2631729Y-551008D01*
X2631729Y-551008D02*
X2650777Y-541484D01*
X2650777Y-541484D02*
X2698396Y-541484D01*
X2698396Y-541484D02*
X2717444Y-551008D01*
X2717444Y-551008D02*
X2726968Y-560531D01*
X2726968Y-560531D02*
X2736491Y-579579D01*
X2736491Y-579579D02*
X2736491Y-598627D01*
X2736491Y-598627D02*
X2726968Y-627198D01*
X2726968Y-627198D02*
X2612682Y-741484D01*
X2612682Y-741484D02*
X2736491Y-741484D01*
X2803158Y-541484D02*
X2926967Y-541484D01*
X2926967Y-541484D02*
X2860301Y-617674D01*
X2860301Y-617674D02*
X2888872Y-617674D01*
X2888872Y-617674D02*
X2907920Y-627198D01*
X2907920Y-627198D02*
X2917444Y-636722D01*
X2917444Y-636722D02*
X2926967Y-655770D01*
X2926967Y-655770D02*
X2926967Y-703388D01*
X2926967Y-703388D02*
X2917444Y-722436D01*
X2917444Y-722436D02*
X2907920Y-731960D01*
X2907920Y-731960D02*
X2888872Y-741484D01*
X2888872Y-741484D02*
X2831729Y-741484D01*
X2831729Y-741484D02*
X2812682Y-731960D01*
X2812682Y-731960D02*
X2803158Y-722436D01*
X3098396Y-541484D02*
X3060301Y-541484D01*
X3060301Y-541484D02*
X3041253Y-551008D01*
X3041253Y-551008D02*
X3031729Y-560531D01*
X3031729Y-560531D02*
X3012682Y-589103D01*
X3012682Y-589103D02*
X3003158Y-627198D01*
X3003158Y-627198D02*
X3003158Y-703388D01*
X3003158Y-703388D02*
X3012682Y-722436D01*
X3012682Y-722436D02*
X3022206Y-731960D01*
X3022206Y-731960D02*
X3041253Y-741484D01*
X3041253Y-741484D02*
X3079348Y-741484D01*
X3079348Y-741484D02*
X3098396Y-731960D01*
X3098396Y-731960D02*
X3107920Y-722436D01*
X3107920Y-722436D02*
X3117444Y-703388D01*
X3117444Y-703388D02*
X3117444Y-655770D01*
X3117444Y-655770D02*
X3107920Y-636722D01*
X3107920Y-636722D02*
X3098396Y-627198D01*
X3098396Y-627198D02*
X3079348Y-617674D01*
X3079348Y-617674D02*
X3041253Y-617674D01*
X3041253Y-617674D02*
X3022206Y-627198D01*
X3022206Y-627198D02*
X3012682Y-636722D01*
X3012682Y-636722D02*
X3003158Y-655770D01*
X3193634Y-541484D02*
X3193634Y-579579D01*
X3269825Y-541484D02*
X3269825Y-579579D01*
X3565063Y-817674D02*
X3555539Y-808150D01*
X3555539Y-808150D02*
X3536491Y-779579D01*
X3536491Y-779579D02*
X3526968Y-760531D01*
X3526968Y-760531D02*
X3517444Y-731960D01*
X3517444Y-731960D02*
X3507920Y-684341D01*
X3507920Y-684341D02*
X3507920Y-646246D01*
X3507920Y-646246D02*
X3517444Y-598627D01*
X3517444Y-598627D02*
X3526968Y-570055D01*
X3526968Y-570055D02*
X3536491Y-551008D01*
X3536491Y-551008D02*
X3555539Y-522436D01*
X3555539Y-522436D02*
X3565063Y-512912D01*
X3746015Y-741484D02*
X3631729Y-741484D01*
X3688872Y-741484D02*
X3688872Y-541484D01*
X3688872Y-541484D02*
X3669825Y-570055D01*
X3669825Y-570055D02*
X3650777Y-589103D01*
X3650777Y-589103D02*
X3631729Y-598627D01*
X3869825Y-541484D02*
X3888872Y-541484D01*
X3888872Y-541484D02*
X3907920Y-551008D01*
X3907920Y-551008D02*
X3917444Y-560531D01*
X3917444Y-560531D02*
X3926968Y-579579D01*
X3926968Y-579579D02*
X3936491Y-617674D01*
X3936491Y-617674D02*
X3936491Y-665293D01*
X3936491Y-665293D02*
X3926968Y-703388D01*
X3926968Y-703388D02*
X3917444Y-722436D01*
X3917444Y-722436D02*
X3907920Y-731960D01*
X3907920Y-731960D02*
X3888872Y-741484D01*
X3888872Y-741484D02*
X3869825Y-741484D01*
X3869825Y-741484D02*
X3850777Y-731960D01*
X3850777Y-731960D02*
X3841253Y-722436D01*
X3841253Y-722436D02*
X3831729Y-703388D01*
X3831729Y-703388D02*
X3822206Y-665293D01*
X3822206Y-665293D02*
X3822206Y-617674D01*
X3822206Y-617674D02*
X3831729Y-579579D01*
X3831729Y-579579D02*
X3841253Y-560531D01*
X3841253Y-560531D02*
X3850777Y-551008D01*
X3850777Y-551008D02*
X3869825Y-541484D01*
X4174587Y-741484D02*
X4174587Y-541484D01*
X4260301Y-741484D02*
X4260301Y-636722D01*
X4260301Y-636722D02*
X4250777Y-617674D01*
X4250777Y-617674D02*
X4231730Y-608150D01*
X4231730Y-608150D02*
X4203158Y-608150D01*
X4203158Y-608150D02*
X4184110Y-617674D01*
X4184110Y-617674D02*
X4174587Y-627198D01*
X4384111Y-741484D02*
X4365063Y-731960D01*
X4365063Y-731960D02*
X4355539Y-722436D01*
X4355539Y-722436D02*
X4346015Y-703388D01*
X4346015Y-703388D02*
X4346015Y-646246D01*
X4346015Y-646246D02*
X4355539Y-627198D01*
X4355539Y-627198D02*
X4365063Y-617674D01*
X4365063Y-617674D02*
X4384111Y-608150D01*
X4384111Y-608150D02*
X4412682Y-608150D01*
X4412682Y-608150D02*
X4431730Y-617674D01*
X4431730Y-617674D02*
X4441253Y-627198D01*
X4441253Y-627198D02*
X4450777Y-646246D01*
X4450777Y-646246D02*
X4450777Y-703388D01*
X4450777Y-703388D02*
X4441253Y-722436D01*
X4441253Y-722436D02*
X4431730Y-731960D01*
X4431730Y-731960D02*
X4412682Y-741484D01*
X4412682Y-741484D02*
X4384111Y-741484D01*
X4565063Y-741484D02*
X4546015Y-731960D01*
X4546015Y-731960D02*
X4536492Y-712912D01*
X4536492Y-712912D02*
X4536492Y-541484D01*
X4717444Y-731960D02*
X4698396Y-741484D01*
X4698396Y-741484D02*
X4660301Y-741484D01*
X4660301Y-741484D02*
X4641253Y-731960D01*
X4641253Y-731960D02*
X4631730Y-712912D01*
X4631730Y-712912D02*
X4631730Y-636722D01*
X4631730Y-636722D02*
X4641253Y-617674D01*
X4641253Y-617674D02*
X4660301Y-608150D01*
X4660301Y-608150D02*
X4698396Y-608150D01*
X4698396Y-608150D02*
X4717444Y-617674D01*
X4717444Y-617674D02*
X4726968Y-636722D01*
X4726968Y-636722D02*
X4726968Y-655770D01*
X4726968Y-655770D02*
X4631730Y-674817D01*
X4803158Y-731960D02*
X4822206Y-741484D01*
X4822206Y-741484D02*
X4860301Y-741484D01*
X4860301Y-741484D02*
X4879349Y-731960D01*
X4879349Y-731960D02*
X4888873Y-712912D01*
X4888873Y-712912D02*
X4888873Y-703388D01*
X4888873Y-703388D02*
X4879349Y-684341D01*
X4879349Y-684341D02*
X4860301Y-674817D01*
X4860301Y-674817D02*
X4831730Y-674817D01*
X4831730Y-674817D02*
X4812682Y-665293D01*
X4812682Y-665293D02*
X4803158Y-646246D01*
X4803158Y-646246D02*
X4803158Y-636722D01*
X4803158Y-636722D02*
X4812682Y-617674D01*
X4812682Y-617674D02*
X4831730Y-608150D01*
X4831730Y-608150D02*
X4860301Y-608150D01*
X4860301Y-608150D02*
X4879349Y-617674D01*
X4955539Y-817674D02*
X4965063Y-808150D01*
X4965063Y-808150D02*
X4984111Y-779579D01*
X4984111Y-779579D02*
X4993634Y-760531D01*
X4993634Y-760531D02*
X5003158Y-731960D01*
X5003158Y-731960D02*
X5012682Y-684341D01*
X5012682Y-684341D02*
X5012682Y-646246D01*
X5012682Y-646246D02*
X5003158Y-598627D01*
X5003158Y-598627D02*
X4993634Y-570055D01*
X4993634Y-570055D02*
X4984111Y-551008D01*
X4984111Y-551008D02*
X4965063Y-522436D01*
X4965063Y-522436D02*
X4955539Y-512912D01*
D12*
X-10000Y-914000D02*
G75*
G03*
X-10000Y-914000I-37500J0D01*
G01*
D10*
X288872Y-805484D02*
X307920Y-805484D01*
X307920Y-805484D02*
X326967Y-815008D01*
X326967Y-815008D02*
X336491Y-824531D01*
X336491Y-824531D02*
X346015Y-843579D01*
X346015Y-843579D02*
X355539Y-881674D01*
X355539Y-881674D02*
X355539Y-929293D01*
X355539Y-929293D02*
X346015Y-967388D01*
X346015Y-967388D02*
X336491Y-986436D01*
X336491Y-986436D02*
X326967Y-995960D01*
X326967Y-995960D02*
X307920Y-1005484D01*
X307920Y-1005484D02*
X288872Y-1005484D01*
X288872Y-1005484D02*
X269824Y-995960D01*
X269824Y-995960D02*
X260301Y-986436D01*
X260301Y-986436D02*
X250777Y-967388D01*
X250777Y-967388D02*
X241253Y-929293D01*
X241253Y-929293D02*
X241253Y-881674D01*
X241253Y-881674D02*
X250777Y-843579D01*
X250777Y-843579D02*
X260301Y-824531D01*
X260301Y-824531D02*
X269824Y-815008D01*
X269824Y-815008D02*
X288872Y-805484D01*
X441253Y-986436D02*
X450777Y-995960D01*
X450777Y-995960D02*
X441253Y-1005484D01*
X441253Y-1005484D02*
X431729Y-995960D01*
X431729Y-995960D02*
X441253Y-986436D01*
X441253Y-986436D02*
X441253Y-1005484D01*
X517443Y-805484D02*
X650777Y-805484D01*
X650777Y-805484D02*
X565063Y-1005484D01*
X822205Y-805484D02*
X726967Y-805484D01*
X726967Y-805484D02*
X717443Y-900722D01*
X717443Y-900722D02*
X726967Y-891198D01*
X726967Y-891198D02*
X746015Y-881674D01*
X746015Y-881674D02*
X793634Y-881674D01*
X793634Y-881674D02*
X812682Y-891198D01*
X812682Y-891198D02*
X822205Y-900722D01*
X822205Y-900722D02*
X831729Y-919769D01*
X831729Y-919769D02*
X831729Y-967388D01*
X831729Y-967388D02*
X822205Y-986436D01*
X822205Y-986436D02*
X812682Y-995960D01*
X812682Y-995960D02*
X793634Y-1005484D01*
X793634Y-1005484D02*
X746015Y-1005484D01*
X746015Y-1005484D02*
X726967Y-995960D01*
X726967Y-995960D02*
X717443Y-986436D01*
X955539Y-805484D02*
X974586Y-805484D01*
X974586Y-805484D02*
X993634Y-815008D01*
X993634Y-815008D02*
X1003158Y-824531D01*
X1003158Y-824531D02*
X1012682Y-843579D01*
X1012682Y-843579D02*
X1022205Y-881674D01*
X1022205Y-881674D02*
X1022205Y-929293D01*
X1022205Y-929293D02*
X1012682Y-967388D01*
X1012682Y-967388D02*
X1003158Y-986436D01*
X1003158Y-986436D02*
X993634Y-995960D01*
X993634Y-995960D02*
X974586Y-1005484D01*
X974586Y-1005484D02*
X955539Y-1005484D01*
X955539Y-1005484D02*
X936491Y-995960D01*
X936491Y-995960D02*
X926967Y-986436D01*
X926967Y-986436D02*
X917443Y-967388D01*
X917443Y-967388D02*
X907920Y-929293D01*
X907920Y-929293D02*
X907920Y-881674D01*
X907920Y-881674D02*
X917443Y-843579D01*
X917443Y-843579D02*
X926967Y-824531D01*
X926967Y-824531D02*
X936491Y-815008D01*
X936491Y-815008D02*
X955539Y-805484D01*
X1107920Y-1005484D02*
X1107920Y-872150D01*
X1107920Y-891198D02*
X1117444Y-881674D01*
X1117444Y-881674D02*
X1136491Y-872150D01*
X1136491Y-872150D02*
X1165063Y-872150D01*
X1165063Y-872150D02*
X1184110Y-881674D01*
X1184110Y-881674D02*
X1193634Y-900722D01*
X1193634Y-900722D02*
X1193634Y-1005484D01*
X1193634Y-900722D02*
X1203158Y-881674D01*
X1203158Y-881674D02*
X1222205Y-872150D01*
X1222205Y-872150D02*
X1250777Y-872150D01*
X1250777Y-872150D02*
X1269825Y-881674D01*
X1269825Y-881674D02*
X1279348Y-900722D01*
X1279348Y-900722D02*
X1279348Y-1005484D01*
X1374586Y-1005484D02*
X1374586Y-872150D01*
X1374586Y-891198D02*
X1384110Y-881674D01*
X1384110Y-881674D02*
X1403158Y-872150D01*
X1403158Y-872150D02*
X1431729Y-872150D01*
X1431729Y-872150D02*
X1450777Y-881674D01*
X1450777Y-881674D02*
X1460301Y-900722D01*
X1460301Y-900722D02*
X1460301Y-1005484D01*
X1460301Y-900722D02*
X1469824Y-881674D01*
X1469824Y-881674D02*
X1488872Y-872150D01*
X1488872Y-872150D02*
X1517443Y-872150D01*
X1517443Y-872150D02*
X1536491Y-881674D01*
X1536491Y-881674D02*
X1546015Y-900722D01*
X1546015Y-900722D02*
X1546015Y-1005484D01*
X1936491Y-795960D02*
X1765063Y-1053103D01*
X2193634Y-805484D02*
X2212682Y-805484D01*
X2212682Y-805484D02*
X2231729Y-815008D01*
X2231729Y-815008D02*
X2241253Y-824531D01*
X2241253Y-824531D02*
X2250777Y-843579D01*
X2250777Y-843579D02*
X2260301Y-881674D01*
X2260301Y-881674D02*
X2260301Y-929293D01*
X2260301Y-929293D02*
X2250777Y-967388D01*
X2250777Y-967388D02*
X2241253Y-986436D01*
X2241253Y-986436D02*
X2231729Y-995960D01*
X2231729Y-995960D02*
X2212682Y-1005484D01*
X2212682Y-1005484D02*
X2193634Y-1005484D01*
X2193634Y-1005484D02*
X2174587Y-995960D01*
X2174587Y-995960D02*
X2165063Y-986436D01*
X2165063Y-986436D02*
X2155539Y-967388D01*
X2155539Y-967388D02*
X2146015Y-929293D01*
X2146015Y-929293D02*
X2146015Y-881674D01*
X2146015Y-881674D02*
X2155539Y-843579D01*
X2155539Y-843579D02*
X2165063Y-824531D01*
X2165063Y-824531D02*
X2174587Y-815008D01*
X2174587Y-815008D02*
X2193634Y-805484D01*
X2346015Y-986436D02*
X2355539Y-995960D01*
X2355539Y-995960D02*
X2346015Y-1005484D01*
X2346015Y-1005484D02*
X2336491Y-995960D01*
X2336491Y-995960D02*
X2346015Y-986436D01*
X2346015Y-986436D02*
X2346015Y-1005484D01*
X2479348Y-805484D02*
X2498396Y-805484D01*
X2498396Y-805484D02*
X2517444Y-815008D01*
X2517444Y-815008D02*
X2526968Y-824531D01*
X2526968Y-824531D02*
X2536491Y-843579D01*
X2536491Y-843579D02*
X2546015Y-881674D01*
X2546015Y-881674D02*
X2546015Y-929293D01*
X2546015Y-929293D02*
X2536491Y-967388D01*
X2536491Y-967388D02*
X2526968Y-986436D01*
X2526968Y-986436D02*
X2517444Y-995960D01*
X2517444Y-995960D02*
X2498396Y-1005484D01*
X2498396Y-1005484D02*
X2479348Y-1005484D01*
X2479348Y-1005484D02*
X2460301Y-995960D01*
X2460301Y-995960D02*
X2450777Y-986436D01*
X2450777Y-986436D02*
X2441253Y-967388D01*
X2441253Y-967388D02*
X2431729Y-929293D01*
X2431729Y-929293D02*
X2431729Y-881674D01*
X2431729Y-881674D02*
X2441253Y-843579D01*
X2441253Y-843579D02*
X2450777Y-824531D01*
X2450777Y-824531D02*
X2460301Y-815008D01*
X2460301Y-815008D02*
X2479348Y-805484D01*
X2622206Y-824531D02*
X2631729Y-815008D01*
X2631729Y-815008D02*
X2650777Y-805484D01*
X2650777Y-805484D02*
X2698396Y-805484D01*
X2698396Y-805484D02*
X2717444Y-815008D01*
X2717444Y-815008D02*
X2726968Y-824531D01*
X2726968Y-824531D02*
X2736491Y-843579D01*
X2736491Y-843579D02*
X2736491Y-862627D01*
X2736491Y-862627D02*
X2726968Y-891198D01*
X2726968Y-891198D02*
X2612682Y-1005484D01*
X2612682Y-1005484D02*
X2736491Y-1005484D01*
X2831729Y-1005484D02*
X2869825Y-1005484D01*
X2869825Y-1005484D02*
X2888872Y-995960D01*
X2888872Y-995960D02*
X2898396Y-986436D01*
X2898396Y-986436D02*
X2917444Y-957865D01*
X2917444Y-957865D02*
X2926967Y-919769D01*
X2926967Y-919769D02*
X2926967Y-843579D01*
X2926967Y-843579D02*
X2917444Y-824531D01*
X2917444Y-824531D02*
X2907920Y-815008D01*
X2907920Y-815008D02*
X2888872Y-805484D01*
X2888872Y-805484D02*
X2850777Y-805484D01*
X2850777Y-805484D02*
X2831729Y-815008D01*
X2831729Y-815008D02*
X2822206Y-824531D01*
X2822206Y-824531D02*
X2812682Y-843579D01*
X2812682Y-843579D02*
X2812682Y-891198D01*
X2812682Y-891198D02*
X2822206Y-910246D01*
X2822206Y-910246D02*
X2831729Y-919769D01*
X2831729Y-919769D02*
X2850777Y-929293D01*
X2850777Y-929293D02*
X2888872Y-929293D01*
X2888872Y-929293D02*
X2907920Y-919769D01*
X2907920Y-919769D02*
X2917444Y-910246D01*
X2917444Y-910246D02*
X2926967Y-891198D01*
X3107920Y-805484D02*
X3012682Y-805484D01*
X3012682Y-805484D02*
X3003158Y-900722D01*
X3003158Y-900722D02*
X3012682Y-891198D01*
X3012682Y-891198D02*
X3031729Y-881674D01*
X3031729Y-881674D02*
X3079348Y-881674D01*
X3079348Y-881674D02*
X3098396Y-891198D01*
X3098396Y-891198D02*
X3107920Y-900722D01*
X3107920Y-900722D02*
X3117444Y-919769D01*
X3117444Y-919769D02*
X3117444Y-967388D01*
X3117444Y-967388D02*
X3107920Y-986436D01*
X3107920Y-986436D02*
X3098396Y-995960D01*
X3098396Y-995960D02*
X3079348Y-1005484D01*
X3079348Y-1005484D02*
X3031729Y-1005484D01*
X3031729Y-1005484D02*
X3012682Y-995960D01*
X3012682Y-995960D02*
X3003158Y-986436D01*
X3193634Y-805484D02*
X3193634Y-843579D01*
X3269825Y-805484D02*
X3269825Y-843579D01*
X3565063Y-1081674D02*
X3555539Y-1072150D01*
X3555539Y-1072150D02*
X3536491Y-1043579D01*
X3536491Y-1043579D02*
X3526968Y-1024531D01*
X3526968Y-1024531D02*
X3517444Y-995960D01*
X3517444Y-995960D02*
X3507920Y-948341D01*
X3507920Y-948341D02*
X3507920Y-910246D01*
X3507920Y-910246D02*
X3517444Y-862627D01*
X3517444Y-862627D02*
X3526968Y-834055D01*
X3526968Y-834055D02*
X3536491Y-815008D01*
X3536491Y-815008D02*
X3555539Y-786436D01*
X3555539Y-786436D02*
X3565063Y-776912D01*
X3622206Y-805484D02*
X3746015Y-805484D01*
X3746015Y-805484D02*
X3679348Y-881674D01*
X3679348Y-881674D02*
X3707920Y-881674D01*
X3707920Y-881674D02*
X3726968Y-891198D01*
X3726968Y-891198D02*
X3736491Y-900722D01*
X3736491Y-900722D02*
X3746015Y-919769D01*
X3746015Y-919769D02*
X3746015Y-967388D01*
X3746015Y-967388D02*
X3736491Y-986436D01*
X3736491Y-986436D02*
X3726968Y-995960D01*
X3726968Y-995960D02*
X3707920Y-1005484D01*
X3707920Y-1005484D02*
X3650777Y-1005484D01*
X3650777Y-1005484D02*
X3631729Y-995960D01*
X3631729Y-995960D02*
X3622206Y-986436D01*
X3869825Y-805484D02*
X3888872Y-805484D01*
X3888872Y-805484D02*
X3907920Y-815008D01*
X3907920Y-815008D02*
X3917444Y-824531D01*
X3917444Y-824531D02*
X3926968Y-843579D01*
X3926968Y-843579D02*
X3936491Y-881674D01*
X3936491Y-881674D02*
X3936491Y-929293D01*
X3936491Y-929293D02*
X3926968Y-967388D01*
X3926968Y-967388D02*
X3917444Y-986436D01*
X3917444Y-986436D02*
X3907920Y-995960D01*
X3907920Y-995960D02*
X3888872Y-1005484D01*
X3888872Y-1005484D02*
X3869825Y-1005484D01*
X3869825Y-1005484D02*
X3850777Y-995960D01*
X3850777Y-995960D02*
X3841253Y-986436D01*
X3841253Y-986436D02*
X3831729Y-967388D01*
X3831729Y-967388D02*
X3822206Y-929293D01*
X3822206Y-929293D02*
X3822206Y-881674D01*
X3822206Y-881674D02*
X3831729Y-843579D01*
X3831729Y-843579D02*
X3841253Y-824531D01*
X3841253Y-824531D02*
X3850777Y-815008D01*
X3850777Y-815008D02*
X3869825Y-805484D01*
X4174587Y-1005484D02*
X4174587Y-805484D01*
X4260301Y-1005484D02*
X4260301Y-900722D01*
X4260301Y-900722D02*
X4250777Y-881674D01*
X4250777Y-881674D02*
X4231730Y-872150D01*
X4231730Y-872150D02*
X4203158Y-872150D01*
X4203158Y-872150D02*
X4184110Y-881674D01*
X4184110Y-881674D02*
X4174587Y-891198D01*
X4384111Y-1005484D02*
X4365063Y-995960D01*
X4365063Y-995960D02*
X4355539Y-986436D01*
X4355539Y-986436D02*
X4346015Y-967388D01*
X4346015Y-967388D02*
X4346015Y-910246D01*
X4346015Y-910246D02*
X4355539Y-891198D01*
X4355539Y-891198D02*
X4365063Y-881674D01*
X4365063Y-881674D02*
X4384111Y-872150D01*
X4384111Y-872150D02*
X4412682Y-872150D01*
X4412682Y-872150D02*
X4431730Y-881674D01*
X4431730Y-881674D02*
X4441253Y-891198D01*
X4441253Y-891198D02*
X4450777Y-910246D01*
X4450777Y-910246D02*
X4450777Y-967388D01*
X4450777Y-967388D02*
X4441253Y-986436D01*
X4441253Y-986436D02*
X4431730Y-995960D01*
X4431730Y-995960D02*
X4412682Y-1005484D01*
X4412682Y-1005484D02*
X4384111Y-1005484D01*
X4565063Y-1005484D02*
X4546015Y-995960D01*
X4546015Y-995960D02*
X4536492Y-976912D01*
X4536492Y-976912D02*
X4536492Y-805484D01*
X4717444Y-995960D02*
X4698396Y-1005484D01*
X4698396Y-1005484D02*
X4660301Y-1005484D01*
X4660301Y-1005484D02*
X4641253Y-995960D01*
X4641253Y-995960D02*
X4631730Y-976912D01*
X4631730Y-976912D02*
X4631730Y-900722D01*
X4631730Y-900722D02*
X4641253Y-881674D01*
X4641253Y-881674D02*
X4660301Y-872150D01*
X4660301Y-872150D02*
X4698396Y-872150D01*
X4698396Y-872150D02*
X4717444Y-881674D01*
X4717444Y-881674D02*
X4726968Y-900722D01*
X4726968Y-900722D02*
X4726968Y-919769D01*
X4726968Y-919769D02*
X4631730Y-938817D01*
X4803158Y-995960D02*
X4822206Y-1005484D01*
X4822206Y-1005484D02*
X4860301Y-1005484D01*
X4860301Y-1005484D02*
X4879349Y-995960D01*
X4879349Y-995960D02*
X4888873Y-976912D01*
X4888873Y-976912D02*
X4888873Y-967388D01*
X4888873Y-967388D02*
X4879349Y-948341D01*
X4879349Y-948341D02*
X4860301Y-938817D01*
X4860301Y-938817D02*
X4831730Y-938817D01*
X4831730Y-938817D02*
X4812682Y-929293D01*
X4812682Y-929293D02*
X4803158Y-910246D01*
X4803158Y-910246D02*
X4803158Y-900722D01*
X4803158Y-900722D02*
X4812682Y-881674D01*
X4812682Y-881674D02*
X4831730Y-872150D01*
X4831730Y-872150D02*
X4860301Y-872150D01*
X4860301Y-872150D02*
X4879349Y-881674D01*
X4955539Y-1081674D02*
X4965063Y-1072150D01*
X4965063Y-1072150D02*
X4984111Y-1043579D01*
X4984111Y-1043579D02*
X4993634Y-1024531D01*
X4993634Y-1024531D02*
X5003158Y-995960D01*
X5003158Y-995960D02*
X5012682Y-948341D01*
X5012682Y-948341D02*
X5012682Y-910246D01*
X5012682Y-910246D02*
X5003158Y-862627D01*
X5003158Y-862627D02*
X4993634Y-834055D01*
X4993634Y-834055D02*
X4984111Y-815008D01*
X4984111Y-815008D02*
X4965063Y-786436D01*
X4965063Y-786436D02*
X4955539Y-776912D01*
D13*
X-50000Y-1138000D02*
X-50000Y-1218000D01*
X-90000Y-1178000D02*
X-10000Y-1178000D01*
D10*
X288872Y-1069484D02*
X307920Y-1069484D01*
X307920Y-1069484D02*
X326967Y-1079008D01*
X326967Y-1079008D02*
X336491Y-1088531D01*
X336491Y-1088531D02*
X346015Y-1107579D01*
X346015Y-1107579D02*
X355539Y-1145674D01*
X355539Y-1145674D02*
X355539Y-1193293D01*
X355539Y-1193293D02*
X346015Y-1231389D01*
X346015Y-1231389D02*
X336491Y-1250436D01*
X336491Y-1250436D02*
X326967Y-1259960D01*
X326967Y-1259960D02*
X307920Y-1269484D01*
X307920Y-1269484D02*
X288872Y-1269484D01*
X288872Y-1269484D02*
X269824Y-1259960D01*
X269824Y-1259960D02*
X260301Y-1250436D01*
X260301Y-1250436D02*
X250777Y-1231389D01*
X250777Y-1231389D02*
X241253Y-1193293D01*
X241253Y-1193293D02*
X241253Y-1145674D01*
X241253Y-1145674D02*
X250777Y-1107579D01*
X250777Y-1107579D02*
X260301Y-1088531D01*
X260301Y-1088531D02*
X269824Y-1079008D01*
X269824Y-1079008D02*
X288872Y-1069484D01*
X441253Y-1250436D02*
X450777Y-1259960D01*
X450777Y-1259960D02*
X441253Y-1269484D01*
X441253Y-1269484D02*
X431729Y-1259960D01*
X431729Y-1259960D02*
X441253Y-1250436D01*
X441253Y-1250436D02*
X441253Y-1269484D01*
X565063Y-1155198D02*
X546015Y-1145674D01*
X546015Y-1145674D02*
X536491Y-1136150D01*
X536491Y-1136150D02*
X526967Y-1117103D01*
X526967Y-1117103D02*
X526967Y-1107579D01*
X526967Y-1107579D02*
X536491Y-1088531D01*
X536491Y-1088531D02*
X546015Y-1079008D01*
X546015Y-1079008D02*
X565063Y-1069484D01*
X565063Y-1069484D02*
X603158Y-1069484D01*
X603158Y-1069484D02*
X622205Y-1079008D01*
X622205Y-1079008D02*
X631729Y-1088531D01*
X631729Y-1088531D02*
X641253Y-1107579D01*
X641253Y-1107579D02*
X641253Y-1117103D01*
X641253Y-1117103D02*
X631729Y-1136150D01*
X631729Y-1136150D02*
X622205Y-1145674D01*
X622205Y-1145674D02*
X603158Y-1155198D01*
X603158Y-1155198D02*
X565063Y-1155198D01*
X565063Y-1155198D02*
X546015Y-1164722D01*
X546015Y-1164722D02*
X536491Y-1174246D01*
X536491Y-1174246D02*
X526967Y-1193293D01*
X526967Y-1193293D02*
X526967Y-1231389D01*
X526967Y-1231389D02*
X536491Y-1250436D01*
X536491Y-1250436D02*
X546015Y-1259960D01*
X546015Y-1259960D02*
X565063Y-1269484D01*
X565063Y-1269484D02*
X603158Y-1269484D01*
X603158Y-1269484D02*
X622205Y-1259960D01*
X622205Y-1259960D02*
X631729Y-1250436D01*
X631729Y-1250436D02*
X641253Y-1231389D01*
X641253Y-1231389D02*
X641253Y-1193293D01*
X641253Y-1193293D02*
X631729Y-1174246D01*
X631729Y-1174246D02*
X622205Y-1164722D01*
X622205Y-1164722D02*
X603158Y-1155198D01*
X765062Y-1069484D02*
X784110Y-1069484D01*
X784110Y-1069484D02*
X803158Y-1079008D01*
X803158Y-1079008D02*
X812682Y-1088531D01*
X812682Y-1088531D02*
X822205Y-1107579D01*
X822205Y-1107579D02*
X831729Y-1145674D01*
X831729Y-1145674D02*
X831729Y-1193293D01*
X831729Y-1193293D02*
X822205Y-1231389D01*
X822205Y-1231389D02*
X812682Y-1250436D01*
X812682Y-1250436D02*
X803158Y-1259960D01*
X803158Y-1259960D02*
X784110Y-1269484D01*
X784110Y-1269484D02*
X765062Y-1269484D01*
X765062Y-1269484D02*
X746015Y-1259960D01*
X746015Y-1259960D02*
X736491Y-1250436D01*
X736491Y-1250436D02*
X726967Y-1231389D01*
X726967Y-1231389D02*
X717443Y-1193293D01*
X717443Y-1193293D02*
X717443Y-1145674D01*
X717443Y-1145674D02*
X726967Y-1107579D01*
X726967Y-1107579D02*
X736491Y-1088531D01*
X736491Y-1088531D02*
X746015Y-1079008D01*
X746015Y-1079008D02*
X765062Y-1069484D01*
X955539Y-1069484D02*
X974586Y-1069484D01*
X974586Y-1069484D02*
X993634Y-1079008D01*
X993634Y-1079008D02*
X1003158Y-1088531D01*
X1003158Y-1088531D02*
X1012682Y-1107579D01*
X1012682Y-1107579D02*
X1022205Y-1145674D01*
X1022205Y-1145674D02*
X1022205Y-1193293D01*
X1022205Y-1193293D02*
X1012682Y-1231389D01*
X1012682Y-1231389D02*
X1003158Y-1250436D01*
X1003158Y-1250436D02*
X993634Y-1259960D01*
X993634Y-1259960D02*
X974586Y-1269484D01*
X974586Y-1269484D02*
X955539Y-1269484D01*
X955539Y-1269484D02*
X936491Y-1259960D01*
X936491Y-1259960D02*
X926967Y-1250436D01*
X926967Y-1250436D02*
X917443Y-1231389D01*
X917443Y-1231389D02*
X907920Y-1193293D01*
X907920Y-1193293D02*
X907920Y-1145674D01*
X907920Y-1145674D02*
X917443Y-1107579D01*
X917443Y-1107579D02*
X926967Y-1088531D01*
X926967Y-1088531D02*
X936491Y-1079008D01*
X936491Y-1079008D02*
X955539Y-1069484D01*
X1107920Y-1269484D02*
X1107920Y-1136150D01*
X1107920Y-1155198D02*
X1117444Y-1145674D01*
X1117444Y-1145674D02*
X1136491Y-1136150D01*
X1136491Y-1136150D02*
X1165063Y-1136150D01*
X1165063Y-1136150D02*
X1184110Y-1145674D01*
X1184110Y-1145674D02*
X1193634Y-1164722D01*
X1193634Y-1164722D02*
X1193634Y-1269484D01*
X1193634Y-1164722D02*
X1203158Y-1145674D01*
X1203158Y-1145674D02*
X1222205Y-1136150D01*
X1222205Y-1136150D02*
X1250777Y-1136150D01*
X1250777Y-1136150D02*
X1269825Y-1145674D01*
X1269825Y-1145674D02*
X1279348Y-1164722D01*
X1279348Y-1164722D02*
X1279348Y-1269484D01*
X1374586Y-1269484D02*
X1374586Y-1136150D01*
X1374586Y-1155198D02*
X1384110Y-1145674D01*
X1384110Y-1145674D02*
X1403158Y-1136150D01*
X1403158Y-1136150D02*
X1431729Y-1136150D01*
X1431729Y-1136150D02*
X1450777Y-1145674D01*
X1450777Y-1145674D02*
X1460301Y-1164722D01*
X1460301Y-1164722D02*
X1460301Y-1269484D01*
X1460301Y-1164722D02*
X1469824Y-1145674D01*
X1469824Y-1145674D02*
X1488872Y-1136150D01*
X1488872Y-1136150D02*
X1517443Y-1136150D01*
X1517443Y-1136150D02*
X1536491Y-1145674D01*
X1536491Y-1145674D02*
X1546015Y-1164722D01*
X1546015Y-1164722D02*
X1546015Y-1269484D01*
X1936491Y-1059960D02*
X1765063Y-1317103D01*
X2193634Y-1069484D02*
X2212682Y-1069484D01*
X2212682Y-1069484D02*
X2231729Y-1079008D01*
X2231729Y-1079008D02*
X2241253Y-1088531D01*
X2241253Y-1088531D02*
X2250777Y-1107579D01*
X2250777Y-1107579D02*
X2260301Y-1145674D01*
X2260301Y-1145674D02*
X2260301Y-1193293D01*
X2260301Y-1193293D02*
X2250777Y-1231389D01*
X2250777Y-1231389D02*
X2241253Y-1250436D01*
X2241253Y-1250436D02*
X2231729Y-1259960D01*
X2231729Y-1259960D02*
X2212682Y-1269484D01*
X2212682Y-1269484D02*
X2193634Y-1269484D01*
X2193634Y-1269484D02*
X2174587Y-1259960D01*
X2174587Y-1259960D02*
X2165063Y-1250436D01*
X2165063Y-1250436D02*
X2155539Y-1231389D01*
X2155539Y-1231389D02*
X2146015Y-1193293D01*
X2146015Y-1193293D02*
X2146015Y-1145674D01*
X2146015Y-1145674D02*
X2155539Y-1107579D01*
X2155539Y-1107579D02*
X2165063Y-1088531D01*
X2165063Y-1088531D02*
X2174587Y-1079008D01*
X2174587Y-1079008D02*
X2193634Y-1069484D01*
X2346015Y-1250436D02*
X2355539Y-1259960D01*
X2355539Y-1259960D02*
X2346015Y-1269484D01*
X2346015Y-1269484D02*
X2336491Y-1259960D01*
X2336491Y-1259960D02*
X2346015Y-1250436D01*
X2346015Y-1250436D02*
X2346015Y-1269484D01*
X2479348Y-1069484D02*
X2498396Y-1069484D01*
X2498396Y-1069484D02*
X2517444Y-1079008D01*
X2517444Y-1079008D02*
X2526968Y-1088531D01*
X2526968Y-1088531D02*
X2536491Y-1107579D01*
X2536491Y-1107579D02*
X2546015Y-1145674D01*
X2546015Y-1145674D02*
X2546015Y-1193293D01*
X2546015Y-1193293D02*
X2536491Y-1231389D01*
X2536491Y-1231389D02*
X2526968Y-1250436D01*
X2526968Y-1250436D02*
X2517444Y-1259960D01*
X2517444Y-1259960D02*
X2498396Y-1269484D01*
X2498396Y-1269484D02*
X2479348Y-1269484D01*
X2479348Y-1269484D02*
X2460301Y-1259960D01*
X2460301Y-1259960D02*
X2450777Y-1250436D01*
X2450777Y-1250436D02*
X2441253Y-1231389D01*
X2441253Y-1231389D02*
X2431729Y-1193293D01*
X2431729Y-1193293D02*
X2431729Y-1145674D01*
X2431729Y-1145674D02*
X2441253Y-1107579D01*
X2441253Y-1107579D02*
X2450777Y-1088531D01*
X2450777Y-1088531D02*
X2460301Y-1079008D01*
X2460301Y-1079008D02*
X2479348Y-1069484D01*
X2612682Y-1069484D02*
X2736491Y-1069484D01*
X2736491Y-1069484D02*
X2669825Y-1145674D01*
X2669825Y-1145674D02*
X2698396Y-1145674D01*
X2698396Y-1145674D02*
X2717444Y-1155198D01*
X2717444Y-1155198D02*
X2726968Y-1164722D01*
X2726968Y-1164722D02*
X2736491Y-1183770D01*
X2736491Y-1183770D02*
X2736491Y-1231389D01*
X2736491Y-1231389D02*
X2726968Y-1250436D01*
X2726968Y-1250436D02*
X2717444Y-1259960D01*
X2717444Y-1259960D02*
X2698396Y-1269484D01*
X2698396Y-1269484D02*
X2641253Y-1269484D01*
X2641253Y-1269484D02*
X2622206Y-1259960D01*
X2622206Y-1259960D02*
X2612682Y-1250436D01*
X2926967Y-1269484D02*
X2812682Y-1269484D01*
X2869825Y-1269484D02*
X2869825Y-1069484D01*
X2869825Y-1069484D02*
X2850777Y-1098055D01*
X2850777Y-1098055D02*
X2831729Y-1117103D01*
X2831729Y-1117103D02*
X2812682Y-1126627D01*
X3107920Y-1069484D02*
X3012682Y-1069484D01*
X3012682Y-1069484D02*
X3003158Y-1164722D01*
X3003158Y-1164722D02*
X3012682Y-1155198D01*
X3012682Y-1155198D02*
X3031729Y-1145674D01*
X3031729Y-1145674D02*
X3079348Y-1145674D01*
X3079348Y-1145674D02*
X3098396Y-1155198D01*
X3098396Y-1155198D02*
X3107920Y-1164722D01*
X3107920Y-1164722D02*
X3117444Y-1183770D01*
X3117444Y-1183770D02*
X3117444Y-1231389D01*
X3117444Y-1231389D02*
X3107920Y-1250436D01*
X3107920Y-1250436D02*
X3098396Y-1259960D01*
X3098396Y-1259960D02*
X3079348Y-1269484D01*
X3079348Y-1269484D02*
X3031729Y-1269484D01*
X3031729Y-1269484D02*
X3012682Y-1259960D01*
X3012682Y-1259960D02*
X3003158Y-1250436D01*
X3193634Y-1069484D02*
X3193634Y-1107579D01*
X3269825Y-1069484D02*
X3269825Y-1107579D01*
X3565063Y-1345674D02*
X3555539Y-1336150D01*
X3555539Y-1336150D02*
X3536491Y-1307579D01*
X3536491Y-1307579D02*
X3526968Y-1288531D01*
X3526968Y-1288531D02*
X3517444Y-1259960D01*
X3517444Y-1259960D02*
X3507920Y-1212341D01*
X3507920Y-1212341D02*
X3507920Y-1174246D01*
X3507920Y-1174246D02*
X3517444Y-1126627D01*
X3517444Y-1126627D02*
X3526968Y-1098055D01*
X3526968Y-1098055D02*
X3536491Y-1079008D01*
X3536491Y-1079008D02*
X3555539Y-1050436D01*
X3555539Y-1050436D02*
X3565063Y-1040912D01*
X3631729Y-1088531D02*
X3641253Y-1079008D01*
X3641253Y-1079008D02*
X3660301Y-1069484D01*
X3660301Y-1069484D02*
X3707920Y-1069484D01*
X3707920Y-1069484D02*
X3726968Y-1079008D01*
X3726968Y-1079008D02*
X3736491Y-1088531D01*
X3736491Y-1088531D02*
X3746015Y-1107579D01*
X3746015Y-1107579D02*
X3746015Y-1126627D01*
X3746015Y-1126627D02*
X3736491Y-1155198D01*
X3736491Y-1155198D02*
X3622206Y-1269484D01*
X3622206Y-1269484D02*
X3746015Y-1269484D01*
X3822206Y-1088531D02*
X3831729Y-1079008D01*
X3831729Y-1079008D02*
X3850777Y-1069484D01*
X3850777Y-1069484D02*
X3898396Y-1069484D01*
X3898396Y-1069484D02*
X3917444Y-1079008D01*
X3917444Y-1079008D02*
X3926968Y-1088531D01*
X3926968Y-1088531D02*
X3936491Y-1107579D01*
X3936491Y-1107579D02*
X3936491Y-1126627D01*
X3936491Y-1126627D02*
X3926968Y-1155198D01*
X3926968Y-1155198D02*
X3812682Y-1269484D01*
X3812682Y-1269484D02*
X3936491Y-1269484D01*
X4060301Y-1069484D02*
X4079349Y-1069484D01*
X4079349Y-1069484D02*
X4098396Y-1079008D01*
X4098396Y-1079008D02*
X4107920Y-1088531D01*
X4107920Y-1088531D02*
X4117444Y-1107579D01*
X4117444Y-1107579D02*
X4126968Y-1145674D01*
X4126968Y-1145674D02*
X4126968Y-1193293D01*
X4126968Y-1193293D02*
X4117444Y-1231389D01*
X4117444Y-1231389D02*
X4107920Y-1250436D01*
X4107920Y-1250436D02*
X4098396Y-1259960D01*
X4098396Y-1259960D02*
X4079349Y-1269484D01*
X4079349Y-1269484D02*
X4060301Y-1269484D01*
X4060301Y-1269484D02*
X4041253Y-1259960D01*
X4041253Y-1259960D02*
X4031729Y-1250436D01*
X4031729Y-1250436D02*
X4022206Y-1231389D01*
X4022206Y-1231389D02*
X4012682Y-1193293D01*
X4012682Y-1193293D02*
X4012682Y-1145674D01*
X4012682Y-1145674D02*
X4022206Y-1107579D01*
X4022206Y-1107579D02*
X4031729Y-1088531D01*
X4031729Y-1088531D02*
X4041253Y-1079008D01*
X4041253Y-1079008D02*
X4060301Y-1069484D01*
X4365063Y-1269484D02*
X4365063Y-1069484D01*
X4450777Y-1269484D02*
X4450777Y-1164722D01*
X4450777Y-1164722D02*
X4441253Y-1145674D01*
X4441253Y-1145674D02*
X4422206Y-1136150D01*
X4422206Y-1136150D02*
X4393634Y-1136150D01*
X4393634Y-1136150D02*
X4374587Y-1145674D01*
X4374587Y-1145674D02*
X4365063Y-1155198D01*
X4574587Y-1269484D02*
X4555539Y-1259960D01*
X4555539Y-1259960D02*
X4546015Y-1250436D01*
X4546015Y-1250436D02*
X4536492Y-1231389D01*
X4536492Y-1231389D02*
X4536492Y-1174246D01*
X4536492Y-1174246D02*
X4546015Y-1155198D01*
X4546015Y-1155198D02*
X4555539Y-1145674D01*
X4555539Y-1145674D02*
X4574587Y-1136150D01*
X4574587Y-1136150D02*
X4603158Y-1136150D01*
X4603158Y-1136150D02*
X4622206Y-1145674D01*
X4622206Y-1145674D02*
X4631730Y-1155198D01*
X4631730Y-1155198D02*
X4641253Y-1174246D01*
X4641253Y-1174246D02*
X4641253Y-1231389D01*
X4641253Y-1231389D02*
X4631730Y-1250436D01*
X4631730Y-1250436D02*
X4622206Y-1259960D01*
X4622206Y-1259960D02*
X4603158Y-1269484D01*
X4603158Y-1269484D02*
X4574587Y-1269484D01*
X4755539Y-1269484D02*
X4736492Y-1259960D01*
X4736492Y-1259960D02*
X4726968Y-1240912D01*
X4726968Y-1240912D02*
X4726968Y-1069484D01*
X4907920Y-1259960D02*
X4888873Y-1269484D01*
X4888873Y-1269484D02*
X4850777Y-1269484D01*
X4850777Y-1269484D02*
X4831730Y-1259960D01*
X4831730Y-1259960D02*
X4822206Y-1240912D01*
X4822206Y-1240912D02*
X4822206Y-1164722D01*
X4822206Y-1164722D02*
X4831730Y-1145674D01*
X4831730Y-1145674D02*
X4850777Y-1136150D01*
X4850777Y-1136150D02*
X4888873Y-1136150D01*
X4888873Y-1136150D02*
X4907920Y-1145674D01*
X4907920Y-1145674D02*
X4917444Y-1164722D01*
X4917444Y-1164722D02*
X4917444Y-1183770D01*
X4917444Y-1183770D02*
X4822206Y-1202817D01*
X4993634Y-1259960D02*
X5012682Y-1269484D01*
X5012682Y-1269484D02*
X5050777Y-1269484D01*
X5050777Y-1269484D02*
X5069825Y-1259960D01*
X5069825Y-1259960D02*
X5079349Y-1240912D01*
X5079349Y-1240912D02*
X5079349Y-1231389D01*
X5079349Y-1231389D02*
X5069825Y-1212341D01*
X5069825Y-1212341D02*
X5050777Y-1202817D01*
X5050777Y-1202817D02*
X5022206Y-1202817D01*
X5022206Y-1202817D02*
X5003158Y-1193293D01*
X5003158Y-1193293D02*
X4993634Y-1174246D01*
X4993634Y-1174246D02*
X4993634Y-1164722D01*
X4993634Y-1164722D02*
X5003158Y-1145674D01*
X5003158Y-1145674D02*
X5022206Y-1136150D01*
X5022206Y-1136150D02*
X5050777Y-1136150D01*
X5050777Y-1136150D02*
X5069825Y-1145674D01*
X5146015Y-1345674D02*
X5155539Y-1336150D01*
X5155539Y-1336150D02*
X5174587Y-1307579D01*
X5174587Y-1307579D02*
X5184111Y-1288531D01*
X5184111Y-1288531D02*
X5193634Y-1259960D01*
X5193634Y-1259960D02*
X5203158Y-1212341D01*
X5203158Y-1212341D02*
X5203158Y-1174246D01*
X5203158Y-1174246D02*
X5193634Y-1126627D01*
X5193634Y-1126627D02*
X5184111Y-1098055D01*
X5184111Y-1098055D02*
X5174587Y-1079008D01*
X5174587Y-1079008D02*
X5155539Y-1050436D01*
X5155539Y-1050436D02*
X5146015Y-1040912D01*
D14*
X-24644Y-1477356D02*
X-24644Y-1406644D01*
X-95356Y-1406644D01*
X-95356Y-1477356D01*
X-24644Y-1477356D01*
D10*
X355539Y-1533484D02*
X241253Y-1533484D01*
X298396Y-1533484D02*
X298396Y-1333484D01*
X298396Y-1333484D02*
X279348Y-1362055D01*
X279348Y-1362055D02*
X260301Y-1381103D01*
X260301Y-1381103D02*
X241253Y-1390627D01*
X441253Y-1514436D02*
X450777Y-1523960D01*
X450777Y-1523960D02*
X441253Y-1533484D01*
X441253Y-1533484D02*
X431729Y-1523960D01*
X431729Y-1523960D02*
X441253Y-1514436D01*
X441253Y-1514436D02*
X441253Y-1533484D01*
X574586Y-1333484D02*
X593634Y-1333484D01*
X593634Y-1333484D02*
X612682Y-1343008D01*
X612682Y-1343008D02*
X622205Y-1352531D01*
X622205Y-1352531D02*
X631729Y-1371579D01*
X631729Y-1371579D02*
X641253Y-1409674D01*
X641253Y-1409674D02*
X641253Y-1457293D01*
X641253Y-1457293D02*
X631729Y-1495388D01*
X631729Y-1495388D02*
X622205Y-1514436D01*
X622205Y-1514436D02*
X612682Y-1523960D01*
X612682Y-1523960D02*
X593634Y-1533484D01*
X593634Y-1533484D02*
X574586Y-1533484D01*
X574586Y-1533484D02*
X555539Y-1523960D01*
X555539Y-1523960D02*
X546015Y-1514436D01*
X546015Y-1514436D02*
X536491Y-1495388D01*
X536491Y-1495388D02*
X526967Y-1457293D01*
X526967Y-1457293D02*
X526967Y-1409674D01*
X526967Y-1409674D02*
X536491Y-1371579D01*
X536491Y-1371579D02*
X546015Y-1352531D01*
X546015Y-1352531D02*
X555539Y-1343008D01*
X555539Y-1343008D02*
X574586Y-1333484D01*
X765062Y-1333484D02*
X784110Y-1333484D01*
X784110Y-1333484D02*
X803158Y-1343008D01*
X803158Y-1343008D02*
X812682Y-1352531D01*
X812682Y-1352531D02*
X822205Y-1371579D01*
X822205Y-1371579D02*
X831729Y-1409674D01*
X831729Y-1409674D02*
X831729Y-1457293D01*
X831729Y-1457293D02*
X822205Y-1495388D01*
X822205Y-1495388D02*
X812682Y-1514436D01*
X812682Y-1514436D02*
X803158Y-1523960D01*
X803158Y-1523960D02*
X784110Y-1533484D01*
X784110Y-1533484D02*
X765062Y-1533484D01*
X765062Y-1533484D02*
X746015Y-1523960D01*
X746015Y-1523960D02*
X736491Y-1514436D01*
X736491Y-1514436D02*
X726967Y-1495388D01*
X726967Y-1495388D02*
X717443Y-1457293D01*
X717443Y-1457293D02*
X717443Y-1409674D01*
X717443Y-1409674D02*
X726967Y-1371579D01*
X726967Y-1371579D02*
X736491Y-1352531D01*
X736491Y-1352531D02*
X746015Y-1343008D01*
X746015Y-1343008D02*
X765062Y-1333484D01*
X955539Y-1333484D02*
X974586Y-1333484D01*
X974586Y-1333484D02*
X993634Y-1343008D01*
X993634Y-1343008D02*
X1003158Y-1352531D01*
X1003158Y-1352531D02*
X1012682Y-1371579D01*
X1012682Y-1371579D02*
X1022205Y-1409674D01*
X1022205Y-1409674D02*
X1022205Y-1457293D01*
X1022205Y-1457293D02*
X1012682Y-1495388D01*
X1012682Y-1495388D02*
X1003158Y-1514436D01*
X1003158Y-1514436D02*
X993634Y-1523960D01*
X993634Y-1523960D02*
X974586Y-1533484D01*
X974586Y-1533484D02*
X955539Y-1533484D01*
X955539Y-1533484D02*
X936491Y-1523960D01*
X936491Y-1523960D02*
X926967Y-1514436D01*
X926967Y-1514436D02*
X917443Y-1495388D01*
X917443Y-1495388D02*
X907920Y-1457293D01*
X907920Y-1457293D02*
X907920Y-1409674D01*
X907920Y-1409674D02*
X917443Y-1371579D01*
X917443Y-1371579D02*
X926967Y-1352531D01*
X926967Y-1352531D02*
X936491Y-1343008D01*
X936491Y-1343008D02*
X955539Y-1333484D01*
X1107920Y-1533484D02*
X1107920Y-1400150D01*
X1107920Y-1419198D02*
X1117444Y-1409674D01*
X1117444Y-1409674D02*
X1136491Y-1400150D01*
X1136491Y-1400150D02*
X1165063Y-1400150D01*
X1165063Y-1400150D02*
X1184110Y-1409674D01*
X1184110Y-1409674D02*
X1193634Y-1428722D01*
X1193634Y-1428722D02*
X1193634Y-1533484D01*
X1193634Y-1428722D02*
X1203158Y-1409674D01*
X1203158Y-1409674D02*
X1222205Y-1400150D01*
X1222205Y-1400150D02*
X1250777Y-1400150D01*
X1250777Y-1400150D02*
X1269825Y-1409674D01*
X1269825Y-1409674D02*
X1279348Y-1428722D01*
X1279348Y-1428722D02*
X1279348Y-1533484D01*
X1374586Y-1533484D02*
X1374586Y-1400150D01*
X1374586Y-1419198D02*
X1384110Y-1409674D01*
X1384110Y-1409674D02*
X1403158Y-1400150D01*
X1403158Y-1400150D02*
X1431729Y-1400150D01*
X1431729Y-1400150D02*
X1450777Y-1409674D01*
X1450777Y-1409674D02*
X1460301Y-1428722D01*
X1460301Y-1428722D02*
X1460301Y-1533484D01*
X1460301Y-1428722D02*
X1469824Y-1409674D01*
X1469824Y-1409674D02*
X1488872Y-1400150D01*
X1488872Y-1400150D02*
X1517443Y-1400150D01*
X1517443Y-1400150D02*
X1536491Y-1409674D01*
X1536491Y-1409674D02*
X1546015Y-1428722D01*
X1546015Y-1428722D02*
X1546015Y-1533484D01*
X1936491Y-1323960D02*
X1765063Y-1581103D01*
X2193634Y-1333484D02*
X2212682Y-1333484D01*
X2212682Y-1333484D02*
X2231729Y-1343008D01*
X2231729Y-1343008D02*
X2241253Y-1352531D01*
X2241253Y-1352531D02*
X2250777Y-1371579D01*
X2250777Y-1371579D02*
X2260301Y-1409674D01*
X2260301Y-1409674D02*
X2260301Y-1457293D01*
X2260301Y-1457293D02*
X2250777Y-1495388D01*
X2250777Y-1495388D02*
X2241253Y-1514436D01*
X2241253Y-1514436D02*
X2231729Y-1523960D01*
X2231729Y-1523960D02*
X2212682Y-1533484D01*
X2212682Y-1533484D02*
X2193634Y-1533484D01*
X2193634Y-1533484D02*
X2174587Y-1523960D01*
X2174587Y-1523960D02*
X2165063Y-1514436D01*
X2165063Y-1514436D02*
X2155539Y-1495388D01*
X2155539Y-1495388D02*
X2146015Y-1457293D01*
X2146015Y-1457293D02*
X2146015Y-1409674D01*
X2146015Y-1409674D02*
X2155539Y-1371579D01*
X2155539Y-1371579D02*
X2165063Y-1352531D01*
X2165063Y-1352531D02*
X2174587Y-1343008D01*
X2174587Y-1343008D02*
X2193634Y-1333484D01*
X2346015Y-1514436D02*
X2355539Y-1523960D01*
X2355539Y-1523960D02*
X2346015Y-1533484D01*
X2346015Y-1533484D02*
X2336491Y-1523960D01*
X2336491Y-1523960D02*
X2346015Y-1514436D01*
X2346015Y-1514436D02*
X2346015Y-1533484D01*
X2479348Y-1333484D02*
X2498396Y-1333484D01*
X2498396Y-1333484D02*
X2517444Y-1343008D01*
X2517444Y-1343008D02*
X2526968Y-1352531D01*
X2526968Y-1352531D02*
X2536491Y-1371579D01*
X2536491Y-1371579D02*
X2546015Y-1409674D01*
X2546015Y-1409674D02*
X2546015Y-1457293D01*
X2546015Y-1457293D02*
X2536491Y-1495388D01*
X2536491Y-1495388D02*
X2526968Y-1514436D01*
X2526968Y-1514436D02*
X2517444Y-1523960D01*
X2517444Y-1523960D02*
X2498396Y-1533484D01*
X2498396Y-1533484D02*
X2479348Y-1533484D01*
X2479348Y-1533484D02*
X2460301Y-1523960D01*
X2460301Y-1523960D02*
X2450777Y-1514436D01*
X2450777Y-1514436D02*
X2441253Y-1495388D01*
X2441253Y-1495388D02*
X2431729Y-1457293D01*
X2431729Y-1457293D02*
X2431729Y-1409674D01*
X2431729Y-1409674D02*
X2441253Y-1371579D01*
X2441253Y-1371579D02*
X2450777Y-1352531D01*
X2450777Y-1352531D02*
X2460301Y-1343008D01*
X2460301Y-1343008D02*
X2479348Y-1333484D01*
X2612682Y-1333484D02*
X2736491Y-1333484D01*
X2736491Y-1333484D02*
X2669825Y-1409674D01*
X2669825Y-1409674D02*
X2698396Y-1409674D01*
X2698396Y-1409674D02*
X2717444Y-1419198D01*
X2717444Y-1419198D02*
X2726968Y-1428722D01*
X2726968Y-1428722D02*
X2736491Y-1447769D01*
X2736491Y-1447769D02*
X2736491Y-1495388D01*
X2736491Y-1495388D02*
X2726968Y-1514436D01*
X2726968Y-1514436D02*
X2717444Y-1523960D01*
X2717444Y-1523960D02*
X2698396Y-1533484D01*
X2698396Y-1533484D02*
X2641253Y-1533484D01*
X2641253Y-1533484D02*
X2622206Y-1523960D01*
X2622206Y-1523960D02*
X2612682Y-1514436D01*
X2831729Y-1533484D02*
X2869825Y-1533484D01*
X2869825Y-1533484D02*
X2888872Y-1523960D01*
X2888872Y-1523960D02*
X2898396Y-1514436D01*
X2898396Y-1514436D02*
X2917444Y-1485865D01*
X2917444Y-1485865D02*
X2926967Y-1447769D01*
X2926967Y-1447769D02*
X2926967Y-1371579D01*
X2926967Y-1371579D02*
X2917444Y-1352531D01*
X2917444Y-1352531D02*
X2907920Y-1343008D01*
X2907920Y-1343008D02*
X2888872Y-1333484D01*
X2888872Y-1333484D02*
X2850777Y-1333484D01*
X2850777Y-1333484D02*
X2831729Y-1343008D01*
X2831729Y-1343008D02*
X2822206Y-1352531D01*
X2822206Y-1352531D02*
X2812682Y-1371579D01*
X2812682Y-1371579D02*
X2812682Y-1419198D01*
X2812682Y-1419198D02*
X2822206Y-1438246D01*
X2822206Y-1438246D02*
X2831729Y-1447769D01*
X2831729Y-1447769D02*
X2850777Y-1457293D01*
X2850777Y-1457293D02*
X2888872Y-1457293D01*
X2888872Y-1457293D02*
X2907920Y-1447769D01*
X2907920Y-1447769D02*
X2917444Y-1438246D01*
X2917444Y-1438246D02*
X2926967Y-1419198D01*
X3098396Y-1400150D02*
X3098396Y-1533484D01*
X3050777Y-1323960D02*
X3003158Y-1466817D01*
X3003158Y-1466817D02*
X3126967Y-1466817D01*
X3193634Y-1333484D02*
X3193634Y-1371579D01*
X3269825Y-1333484D02*
X3269825Y-1371579D01*
X3565063Y-1609674D02*
X3555539Y-1600150D01*
X3555539Y-1600150D02*
X3536491Y-1571579D01*
X3536491Y-1571579D02*
X3526968Y-1552531D01*
X3526968Y-1552531D02*
X3517444Y-1523960D01*
X3517444Y-1523960D02*
X3507920Y-1476341D01*
X3507920Y-1476341D02*
X3507920Y-1438246D01*
X3507920Y-1438246D02*
X3517444Y-1390627D01*
X3517444Y-1390627D02*
X3526968Y-1362055D01*
X3526968Y-1362055D02*
X3536491Y-1343008D01*
X3536491Y-1343008D02*
X3555539Y-1314436D01*
X3555539Y-1314436D02*
X3565063Y-1304912D01*
X3631729Y-1352531D02*
X3641253Y-1343008D01*
X3641253Y-1343008D02*
X3660301Y-1333484D01*
X3660301Y-1333484D02*
X3707920Y-1333484D01*
X3707920Y-1333484D02*
X3726968Y-1343008D01*
X3726968Y-1343008D02*
X3736491Y-1352531D01*
X3736491Y-1352531D02*
X3746015Y-1371579D01*
X3746015Y-1371579D02*
X3746015Y-1390627D01*
X3746015Y-1390627D02*
X3736491Y-1419198D01*
X3736491Y-1419198D02*
X3622206Y-1533484D01*
X3622206Y-1533484D02*
X3746015Y-1533484D01*
X3917444Y-1333484D02*
X3879348Y-1333484D01*
X3879348Y-1333484D02*
X3860301Y-1343008D01*
X3860301Y-1343008D02*
X3850777Y-1352531D01*
X3850777Y-1352531D02*
X3831729Y-1381103D01*
X3831729Y-1381103D02*
X3822206Y-1419198D01*
X3822206Y-1419198D02*
X3822206Y-1495388D01*
X3822206Y-1495388D02*
X3831729Y-1514436D01*
X3831729Y-1514436D02*
X3841253Y-1523960D01*
X3841253Y-1523960D02*
X3860301Y-1533484D01*
X3860301Y-1533484D02*
X3898396Y-1533484D01*
X3898396Y-1533484D02*
X3917444Y-1523960D01*
X3917444Y-1523960D02*
X3926968Y-1514436D01*
X3926968Y-1514436D02*
X3936491Y-1495388D01*
X3936491Y-1495388D02*
X3936491Y-1447769D01*
X3936491Y-1447769D02*
X3926968Y-1428722D01*
X3926968Y-1428722D02*
X3917444Y-1419198D01*
X3917444Y-1419198D02*
X3898396Y-1409674D01*
X3898396Y-1409674D02*
X3860301Y-1409674D01*
X3860301Y-1409674D02*
X3841253Y-1419198D01*
X3841253Y-1419198D02*
X3831729Y-1428722D01*
X3831729Y-1428722D02*
X3822206Y-1447769D01*
X4174587Y-1533484D02*
X4174587Y-1333484D01*
X4260301Y-1533484D02*
X4260301Y-1428722D01*
X4260301Y-1428722D02*
X4250777Y-1409674D01*
X4250777Y-1409674D02*
X4231730Y-1400150D01*
X4231730Y-1400150D02*
X4203158Y-1400150D01*
X4203158Y-1400150D02*
X4184110Y-1409674D01*
X4184110Y-1409674D02*
X4174587Y-1419198D01*
X4384111Y-1533484D02*
X4365063Y-1523960D01*
X4365063Y-1523960D02*
X4355539Y-1514436D01*
X4355539Y-1514436D02*
X4346015Y-1495388D01*
X4346015Y-1495388D02*
X4346015Y-1438246D01*
X4346015Y-1438246D02*
X4355539Y-1419198D01*
X4355539Y-1419198D02*
X4365063Y-1409674D01*
X4365063Y-1409674D02*
X4384111Y-1400150D01*
X4384111Y-1400150D02*
X4412682Y-1400150D01*
X4412682Y-1400150D02*
X4431730Y-1409674D01*
X4431730Y-1409674D02*
X4441253Y-1419198D01*
X4441253Y-1419198D02*
X4450777Y-1438246D01*
X4450777Y-1438246D02*
X4450777Y-1495388D01*
X4450777Y-1495388D02*
X4441253Y-1514436D01*
X4441253Y-1514436D02*
X4431730Y-1523960D01*
X4431730Y-1523960D02*
X4412682Y-1533484D01*
X4412682Y-1533484D02*
X4384111Y-1533484D01*
X4565063Y-1533484D02*
X4546015Y-1523960D01*
X4546015Y-1523960D02*
X4536492Y-1504912D01*
X4536492Y-1504912D02*
X4536492Y-1333484D01*
X4717444Y-1523960D02*
X4698396Y-1533484D01*
X4698396Y-1533484D02*
X4660301Y-1533484D01*
X4660301Y-1533484D02*
X4641253Y-1523960D01*
X4641253Y-1523960D02*
X4631730Y-1504912D01*
X4631730Y-1504912D02*
X4631730Y-1428722D01*
X4631730Y-1428722D02*
X4641253Y-1409674D01*
X4641253Y-1409674D02*
X4660301Y-1400150D01*
X4660301Y-1400150D02*
X4698396Y-1400150D01*
X4698396Y-1400150D02*
X4717444Y-1409674D01*
X4717444Y-1409674D02*
X4726968Y-1428722D01*
X4726968Y-1428722D02*
X4726968Y-1447769D01*
X4726968Y-1447769D02*
X4631730Y-1466817D01*
X4803158Y-1523960D02*
X4822206Y-1533484D01*
X4822206Y-1533484D02*
X4860301Y-1533484D01*
X4860301Y-1533484D02*
X4879349Y-1523960D01*
X4879349Y-1523960D02*
X4888873Y-1504912D01*
X4888873Y-1504912D02*
X4888873Y-1495388D01*
X4888873Y-1495388D02*
X4879349Y-1476341D01*
X4879349Y-1476341D02*
X4860301Y-1466817D01*
X4860301Y-1466817D02*
X4831730Y-1466817D01*
X4831730Y-1466817D02*
X4812682Y-1457293D01*
X4812682Y-1457293D02*
X4803158Y-1438246D01*
X4803158Y-1438246D02*
X4803158Y-1428722D01*
X4803158Y-1428722D02*
X4812682Y-1409674D01*
X4812682Y-1409674D02*
X4831730Y-1400150D01*
X4831730Y-1400150D02*
X4860301Y-1400150D01*
X4860301Y-1400150D02*
X4879349Y-1409674D01*
X4955539Y-1609674D02*
X4965063Y-1600150D01*
X4965063Y-1600150D02*
X4984111Y-1571579D01*
X4984111Y-1571579D02*
X4993634Y-1552531D01*
X4993634Y-1552531D02*
X5003158Y-1523960D01*
X5003158Y-1523960D02*
X5012682Y-1476341D01*
X5012682Y-1476341D02*
X5012682Y-1438246D01*
X5012682Y-1438246D02*
X5003158Y-1390627D01*
X5003158Y-1390627D02*
X4993634Y-1362055D01*
X4993634Y-1362055D02*
X4984111Y-1343008D01*
X4984111Y-1343008D02*
X4965063Y-1314436D01*
X4965063Y-1314436D02*
X4955539Y-1304912D01*
D15*
X-70000Y-1766000D02*
X-10000Y-1706000D01*
X-70000Y-1646000D01*
X-130000Y-1706000D01*
X-70000Y-1766000D01*
D10*
X355539Y-1797484D02*
X241253Y-1797484D01*
X298396Y-1797484D02*
X298396Y-1597484D01*
X298396Y-1597484D02*
X279348Y-1626055D01*
X279348Y-1626055D02*
X260301Y-1645103D01*
X260301Y-1645103D02*
X241253Y-1654627D01*
X441253Y-1778436D02*
X450777Y-1787960D01*
X450777Y-1787960D02*
X441253Y-1797484D01*
X441253Y-1797484D02*
X431729Y-1787960D01*
X431729Y-1787960D02*
X441253Y-1778436D01*
X441253Y-1778436D02*
X441253Y-1797484D01*
X526967Y-1616531D02*
X536491Y-1607008D01*
X536491Y-1607008D02*
X555539Y-1597484D01*
X555539Y-1597484D02*
X603158Y-1597484D01*
X603158Y-1597484D02*
X622205Y-1607008D01*
X622205Y-1607008D02*
X631729Y-1616531D01*
X631729Y-1616531D02*
X641253Y-1635579D01*
X641253Y-1635579D02*
X641253Y-1654627D01*
X641253Y-1654627D02*
X631729Y-1683198D01*
X631729Y-1683198D02*
X517443Y-1797484D01*
X517443Y-1797484D02*
X641253Y-1797484D01*
X765062Y-1597484D02*
X784110Y-1597484D01*
X784110Y-1597484D02*
X803158Y-1607008D01*
X803158Y-1607008D02*
X812682Y-1616531D01*
X812682Y-1616531D02*
X822205Y-1635579D01*
X822205Y-1635579D02*
X831729Y-1673674D01*
X831729Y-1673674D02*
X831729Y-1721293D01*
X831729Y-1721293D02*
X822205Y-1759388D01*
X822205Y-1759388D02*
X812682Y-1778436D01*
X812682Y-1778436D02*
X803158Y-1787960D01*
X803158Y-1787960D02*
X784110Y-1797484D01*
X784110Y-1797484D02*
X765062Y-1797484D01*
X765062Y-1797484D02*
X746015Y-1787960D01*
X746015Y-1787960D02*
X736491Y-1778436D01*
X736491Y-1778436D02*
X726967Y-1759388D01*
X726967Y-1759388D02*
X717443Y-1721293D01*
X717443Y-1721293D02*
X717443Y-1673674D01*
X717443Y-1673674D02*
X726967Y-1635579D01*
X726967Y-1635579D02*
X736491Y-1616531D01*
X736491Y-1616531D02*
X746015Y-1607008D01*
X746015Y-1607008D02*
X765062Y-1597484D01*
X955539Y-1597484D02*
X974586Y-1597484D01*
X974586Y-1597484D02*
X993634Y-1607008D01*
X993634Y-1607008D02*
X1003158Y-1616531D01*
X1003158Y-1616531D02*
X1012682Y-1635579D01*
X1012682Y-1635579D02*
X1022205Y-1673674D01*
X1022205Y-1673674D02*
X1022205Y-1721293D01*
X1022205Y-1721293D02*
X1012682Y-1759388D01*
X1012682Y-1759388D02*
X1003158Y-1778436D01*
X1003158Y-1778436D02*
X993634Y-1787960D01*
X993634Y-1787960D02*
X974586Y-1797484D01*
X974586Y-1797484D02*
X955539Y-1797484D01*
X955539Y-1797484D02*
X936491Y-1787960D01*
X936491Y-1787960D02*
X926967Y-1778436D01*
X926967Y-1778436D02*
X917443Y-1759388D01*
X917443Y-1759388D02*
X907920Y-1721293D01*
X907920Y-1721293D02*
X907920Y-1673674D01*
X907920Y-1673674D02*
X917443Y-1635579D01*
X917443Y-1635579D02*
X926967Y-1616531D01*
X926967Y-1616531D02*
X936491Y-1607008D01*
X936491Y-1607008D02*
X955539Y-1597484D01*
X1107920Y-1797484D02*
X1107920Y-1664150D01*
X1107920Y-1683198D02*
X1117444Y-1673674D01*
X1117444Y-1673674D02*
X1136491Y-1664150D01*
X1136491Y-1664150D02*
X1165063Y-1664150D01*
X1165063Y-1664150D02*
X1184110Y-1673674D01*
X1184110Y-1673674D02*
X1193634Y-1692722D01*
X1193634Y-1692722D02*
X1193634Y-1797484D01*
X1193634Y-1692722D02*
X1203158Y-1673674D01*
X1203158Y-1673674D02*
X1222205Y-1664150D01*
X1222205Y-1664150D02*
X1250777Y-1664150D01*
X1250777Y-1664150D02*
X1269825Y-1673674D01*
X1269825Y-1673674D02*
X1279348Y-1692722D01*
X1279348Y-1692722D02*
X1279348Y-1797484D01*
X1374586Y-1797484D02*
X1374586Y-1664150D01*
X1374586Y-1683198D02*
X1384110Y-1673674D01*
X1384110Y-1673674D02*
X1403158Y-1664150D01*
X1403158Y-1664150D02*
X1431729Y-1664150D01*
X1431729Y-1664150D02*
X1450777Y-1673674D01*
X1450777Y-1673674D02*
X1460301Y-1692722D01*
X1460301Y-1692722D02*
X1460301Y-1797484D01*
X1460301Y-1692722D02*
X1469824Y-1673674D01*
X1469824Y-1673674D02*
X1488872Y-1664150D01*
X1488872Y-1664150D02*
X1517443Y-1664150D01*
X1517443Y-1664150D02*
X1536491Y-1673674D01*
X1536491Y-1673674D02*
X1546015Y-1692722D01*
X1546015Y-1692722D02*
X1546015Y-1797484D01*
X1936491Y-1587960D02*
X1765063Y-1845103D01*
X2193634Y-1597484D02*
X2212682Y-1597484D01*
X2212682Y-1597484D02*
X2231729Y-1607008D01*
X2231729Y-1607008D02*
X2241253Y-1616531D01*
X2241253Y-1616531D02*
X2250777Y-1635579D01*
X2250777Y-1635579D02*
X2260301Y-1673674D01*
X2260301Y-1673674D02*
X2260301Y-1721293D01*
X2260301Y-1721293D02*
X2250777Y-1759388D01*
X2250777Y-1759388D02*
X2241253Y-1778436D01*
X2241253Y-1778436D02*
X2231729Y-1787960D01*
X2231729Y-1787960D02*
X2212682Y-1797484D01*
X2212682Y-1797484D02*
X2193634Y-1797484D01*
X2193634Y-1797484D02*
X2174587Y-1787960D01*
X2174587Y-1787960D02*
X2165063Y-1778436D01*
X2165063Y-1778436D02*
X2155539Y-1759388D01*
X2155539Y-1759388D02*
X2146015Y-1721293D01*
X2146015Y-1721293D02*
X2146015Y-1673674D01*
X2146015Y-1673674D02*
X2155539Y-1635579D01*
X2155539Y-1635579D02*
X2165063Y-1616531D01*
X2165063Y-1616531D02*
X2174587Y-1607008D01*
X2174587Y-1607008D02*
X2193634Y-1597484D01*
X2346015Y-1778436D02*
X2355539Y-1787960D01*
X2355539Y-1787960D02*
X2346015Y-1797484D01*
X2346015Y-1797484D02*
X2336491Y-1787960D01*
X2336491Y-1787960D02*
X2346015Y-1778436D01*
X2346015Y-1778436D02*
X2346015Y-1797484D01*
X2479348Y-1597484D02*
X2498396Y-1597484D01*
X2498396Y-1597484D02*
X2517444Y-1607008D01*
X2517444Y-1607008D02*
X2526968Y-1616531D01*
X2526968Y-1616531D02*
X2536491Y-1635579D01*
X2536491Y-1635579D02*
X2546015Y-1673674D01*
X2546015Y-1673674D02*
X2546015Y-1721293D01*
X2546015Y-1721293D02*
X2536491Y-1759388D01*
X2536491Y-1759388D02*
X2526968Y-1778436D01*
X2526968Y-1778436D02*
X2517444Y-1787960D01*
X2517444Y-1787960D02*
X2498396Y-1797484D01*
X2498396Y-1797484D02*
X2479348Y-1797484D01*
X2479348Y-1797484D02*
X2460301Y-1787960D01*
X2460301Y-1787960D02*
X2450777Y-1778436D01*
X2450777Y-1778436D02*
X2441253Y-1759388D01*
X2441253Y-1759388D02*
X2431729Y-1721293D01*
X2431729Y-1721293D02*
X2431729Y-1673674D01*
X2431729Y-1673674D02*
X2441253Y-1635579D01*
X2441253Y-1635579D02*
X2450777Y-1616531D01*
X2450777Y-1616531D02*
X2460301Y-1607008D01*
X2460301Y-1607008D02*
X2479348Y-1597484D01*
X2717444Y-1664150D02*
X2717444Y-1797484D01*
X2669825Y-1587960D02*
X2622206Y-1730817D01*
X2622206Y-1730817D02*
X2746015Y-1730817D01*
X2803158Y-1597484D02*
X2936491Y-1597484D01*
X2936491Y-1597484D02*
X2850777Y-1797484D01*
X3003158Y-1616531D02*
X3012682Y-1607008D01*
X3012682Y-1607008D02*
X3031729Y-1597484D01*
X3031729Y-1597484D02*
X3079348Y-1597484D01*
X3079348Y-1597484D02*
X3098396Y-1607008D01*
X3098396Y-1607008D02*
X3107920Y-1616531D01*
X3107920Y-1616531D02*
X3117444Y-1635579D01*
X3117444Y-1635579D02*
X3117444Y-1654627D01*
X3117444Y-1654627D02*
X3107920Y-1683198D01*
X3107920Y-1683198D02*
X2993634Y-1797484D01*
X2993634Y-1797484D02*
X3117444Y-1797484D01*
X3193634Y-1597484D02*
X3193634Y-1635579D01*
X3269825Y-1597484D02*
X3269825Y-1635579D01*
X3565063Y-1873674D02*
X3555539Y-1864150D01*
X3555539Y-1864150D02*
X3536491Y-1835579D01*
X3536491Y-1835579D02*
X3526968Y-1816531D01*
X3526968Y-1816531D02*
X3517444Y-1787960D01*
X3517444Y-1787960D02*
X3507920Y-1740341D01*
X3507920Y-1740341D02*
X3507920Y-1702246D01*
X3507920Y-1702246D02*
X3517444Y-1654627D01*
X3517444Y-1654627D02*
X3526968Y-1626055D01*
X3526968Y-1626055D02*
X3536491Y-1607008D01*
X3536491Y-1607008D02*
X3555539Y-1578436D01*
X3555539Y-1578436D02*
X3565063Y-1568912D01*
X3726968Y-1597484D02*
X3688872Y-1597484D01*
X3688872Y-1597484D02*
X3669825Y-1607008D01*
X3669825Y-1607008D02*
X3660301Y-1616531D01*
X3660301Y-1616531D02*
X3641253Y-1645103D01*
X3641253Y-1645103D02*
X3631729Y-1683198D01*
X3631729Y-1683198D02*
X3631729Y-1759388D01*
X3631729Y-1759388D02*
X3641253Y-1778436D01*
X3641253Y-1778436D02*
X3650777Y-1787960D01*
X3650777Y-1787960D02*
X3669825Y-1797484D01*
X3669825Y-1797484D02*
X3707920Y-1797484D01*
X3707920Y-1797484D02*
X3726968Y-1787960D01*
X3726968Y-1787960D02*
X3736491Y-1778436D01*
X3736491Y-1778436D02*
X3746015Y-1759388D01*
X3746015Y-1759388D02*
X3746015Y-1711769D01*
X3746015Y-1711769D02*
X3736491Y-1692722D01*
X3736491Y-1692722D02*
X3726968Y-1683198D01*
X3726968Y-1683198D02*
X3707920Y-1673674D01*
X3707920Y-1673674D02*
X3669825Y-1673674D01*
X3669825Y-1673674D02*
X3650777Y-1683198D01*
X3650777Y-1683198D02*
X3641253Y-1692722D01*
X3641253Y-1692722D02*
X3631729Y-1711769D01*
X3984110Y-1797484D02*
X3984110Y-1597484D01*
X4069825Y-1797484D02*
X4069825Y-1692722D01*
X4069825Y-1692722D02*
X4060301Y-1673674D01*
X4060301Y-1673674D02*
X4041253Y-1664150D01*
X4041253Y-1664150D02*
X4012682Y-1664150D01*
X4012682Y-1664150D02*
X3993634Y-1673674D01*
X3993634Y-1673674D02*
X3984110Y-1683198D01*
X4193634Y-1797484D02*
X4174587Y-1787960D01*
X4174587Y-1787960D02*
X4165063Y-1778436D01*
X4165063Y-1778436D02*
X4155539Y-1759388D01*
X4155539Y-1759388D02*
X4155539Y-1702246D01*
X4155539Y-1702246D02*
X4165063Y-1683198D01*
X4165063Y-1683198D02*
X4174587Y-1673674D01*
X4174587Y-1673674D02*
X4193634Y-1664150D01*
X4193634Y-1664150D02*
X4222206Y-1664150D01*
X4222206Y-1664150D02*
X4241253Y-1673674D01*
X4241253Y-1673674D02*
X4250777Y-1683198D01*
X4250777Y-1683198D02*
X4260301Y-1702246D01*
X4260301Y-1702246D02*
X4260301Y-1759388D01*
X4260301Y-1759388D02*
X4250777Y-1778436D01*
X4250777Y-1778436D02*
X4241253Y-1787960D01*
X4241253Y-1787960D02*
X4222206Y-1797484D01*
X4222206Y-1797484D02*
X4193634Y-1797484D01*
X4374587Y-1797484D02*
X4355539Y-1787960D01*
X4355539Y-1787960D02*
X4346015Y-1768912D01*
X4346015Y-1768912D02*
X4346015Y-1597484D01*
X4526968Y-1787960D02*
X4507920Y-1797484D01*
X4507920Y-1797484D02*
X4469825Y-1797484D01*
X4469825Y-1797484D02*
X4450777Y-1787960D01*
X4450777Y-1787960D02*
X4441253Y-1768912D01*
X4441253Y-1768912D02*
X4441253Y-1692722D01*
X4441253Y-1692722D02*
X4450777Y-1673674D01*
X4450777Y-1673674D02*
X4469825Y-1664150D01*
X4469825Y-1664150D02*
X4507920Y-1664150D01*
X4507920Y-1664150D02*
X4526968Y-1673674D01*
X4526968Y-1673674D02*
X4536492Y-1692722D01*
X4536492Y-1692722D02*
X4536492Y-1711769D01*
X4536492Y-1711769D02*
X4441253Y-1730817D01*
X4612682Y-1787960D02*
X4631730Y-1797484D01*
X4631730Y-1797484D02*
X4669825Y-1797484D01*
X4669825Y-1797484D02*
X4688873Y-1787960D01*
X4688873Y-1787960D02*
X4698396Y-1768912D01*
X4698396Y-1768912D02*
X4698396Y-1759388D01*
X4698396Y-1759388D02*
X4688873Y-1740341D01*
X4688873Y-1740341D02*
X4669825Y-1730817D01*
X4669825Y-1730817D02*
X4641253Y-1730817D01*
X4641253Y-1730817D02*
X4622206Y-1721293D01*
X4622206Y-1721293D02*
X4612682Y-1702246D01*
X4612682Y-1702246D02*
X4612682Y-1692722D01*
X4612682Y-1692722D02*
X4622206Y-1673674D01*
X4622206Y-1673674D02*
X4641253Y-1664150D01*
X4641253Y-1664150D02*
X4669825Y-1664150D01*
X4669825Y-1664150D02*
X4688873Y-1673674D01*
X4765063Y-1873674D02*
X4774587Y-1864150D01*
X4774587Y-1864150D02*
X4793634Y-1835579D01*
X4793634Y-1835579D02*
X4803158Y-1816531D01*
X4803158Y-1816531D02*
X4812682Y-1787960D01*
X4812682Y-1787960D02*
X4822206Y-1740341D01*
X4822206Y-1740341D02*
X4822206Y-1702246D01*
X4822206Y-1702246D02*
X4812682Y-1654627D01*
X4812682Y-1654627D02*
X4803158Y-1626055D01*
X4803158Y-1626055D02*
X4793634Y-1607008D01*
X4793634Y-1607008D02*
X4774587Y-1578436D01*
X4774587Y-1578436D02*
X4765063Y-1568912D01*
M02*
