%TF.GenerationSoftware,KiCad,Pcbnew,7.0.7*%
%TF.CreationDate,2023-09-18T15:24:34+02:00*%
%TF.ProjectId,Noise Toaster PCB,4e6f6973-6520-4546-9f61-737465722050,0.5*%
%TF.SameCoordinates,PX3c67de0PY8c099c0*%
%TF.FileFunction,Soldermask,Top*%
%TF.FilePolarity,Negative*%
%FSLAX46Y46*%
G04 Gerber Fmt 4.6, Leading zero omitted, Abs format (unit mm)*
G04 Created by KiCad (PCBNEW 7.0.7) date 2023-09-18 15:24:34*
%MOMM*%
%LPD*%
G01*
G04 APERTURE LIST*
%ADD10C,1.600000*%
%ADD11R,0.850000X0.850000*%
%ADD12O,1.600000X1.600000*%
%ADD13R,1.200000X1.200000*%
%ADD14C,1.200000*%
%ADD15R,1.600000X1.600000*%
%ADD16R,2.400000X2.400000*%
%ADD17C,2.400000*%
%ADD18R,1.050000X1.500000*%
%ADD19O,1.050000X1.500000*%
%ADD20C,4.300000*%
%ADD21R,1.500000X1.050000*%
%ADD22O,1.500000X1.050000*%
%ADD23R,2.000000X2.000000*%
%ADD24C,2.000000*%
G04 APERTURE END LIST*
D10*
%TO.C,C8*%
X74750000Y13500000D03*
X74750000Y8500000D03*
%TD*%
D11*
%TO.C,X16*%
X40500000Y91500000D03*
%TD*%
D10*
%TO.C,R52*%
X22270000Y63300000D03*
D12*
X32430000Y63300000D03*
%TD*%
D11*
%TO.C,GND*%
X82500000Y91500000D03*
%TD*%
%TO.C,X10*%
X80670000Y4500000D03*
%TD*%
%TO.C,X5*%
X164500000Y50630000D03*
%TD*%
D10*
%TO.C,R25*%
X34650000Y31380000D03*
D12*
X34650000Y21220000D03*
%TD*%
D13*
%TO.C,C25*%
X119400000Y87290000D03*
D14*
X119400000Y88790000D03*
%TD*%
D11*
%TO.C,X13*%
X6250000Y38500000D03*
%TD*%
D15*
%TO.C,U3*%
X111450000Y73700000D03*
D12*
X113990000Y73700000D03*
X116530000Y73700000D03*
X119070000Y73700000D03*
X119070000Y81320000D03*
X116530000Y81320000D03*
X113990000Y81320000D03*
X111450000Y81320000D03*
%TD*%
D10*
%TO.C,R34*%
X65170000Y8420000D03*
D12*
X65170000Y18580000D03*
%TD*%
D16*
%TO.C,C23*%
X101700000Y64430000D03*
D17*
X106700000Y64430000D03*
%TD*%
D18*
%TO.C,Q10*%
X15130000Y88680000D03*
D19*
X16400000Y88680000D03*
X17670000Y88680000D03*
%TD*%
D11*
%TO.C,X14*%
X87250000Y4500000D03*
%TD*%
%TO.C,X26*%
X139720000Y92370000D03*
%TD*%
D10*
%TO.C,R10*%
X26250000Y18660000D03*
D12*
X26250000Y8500000D03*
%TD*%
D11*
%TO.C,X27*%
X100000000Y91500000D03*
%TD*%
D18*
%TO.C,Q9*%
X30420000Y71100000D03*
D19*
X29150000Y71100000D03*
X27880000Y71100000D03*
%TD*%
D10*
%TO.C,R54*%
X49000000Y53000000D03*
D12*
X49000000Y42840000D03*
%TD*%
D10*
%TO.C,R24*%
X162750000Y22920000D03*
D12*
X162750000Y33080000D03*
%TD*%
D10*
%TO.C,R22*%
X154475000Y42380000D03*
D12*
X154475000Y32220000D03*
%TD*%
D10*
%TO.C,R11*%
X137180000Y46650000D03*
D12*
X137180000Y56810000D03*
%TD*%
D11*
%TO.C,X1*%
X164500000Y57000000D03*
%TD*%
D13*
%TO.C,C14*%
X64750000Y58250000D03*
D14*
X64750000Y56750000D03*
%TD*%
D10*
%TO.C,R21*%
X152420000Y46650000D03*
D12*
X142260000Y46650000D03*
%TD*%
D10*
%TO.C,R8*%
X6850000Y31300000D03*
D12*
X6850000Y21140000D03*
%TD*%
D10*
%TO.C,R31*%
X91460000Y36490000D03*
D12*
X101620000Y36490000D03*
%TD*%
D15*
%TO.C,C19*%
X29130000Y80920000D03*
D10*
X29130000Y78920000D03*
%TD*%
D11*
%TO.C,X+*%
X5950000Y77500000D03*
%TD*%
D20*
%TO.C,REF\u002A\u002A*%
X165000000Y4750000D03*
%TD*%
D11*
%TO.C,X7*%
X105500000Y4500000D03*
%TD*%
%TO.C,X8*%
X75500000Y4500000D03*
%TD*%
%TO.C,X15*%
X79000000Y91500000D03*
%TD*%
D10*
%TO.C,R35*%
X53090000Y24000000D03*
D12*
X63250000Y24000000D03*
%TD*%
D15*
%TO.C,C21*%
X96500000Y85000000D03*
D10*
X94500000Y85000000D03*
%TD*%
%TO.C,R70*%
X61550000Y83520000D03*
D12*
X71710000Y83520000D03*
%TD*%
D10*
%TO.C,R37*%
X96540000Y49190000D03*
D12*
X86380000Y49190000D03*
%TD*%
D10*
%TO.C,R12*%
X129420000Y15750000D03*
D12*
X139580000Y15750000D03*
%TD*%
D11*
%TO.C,X3*%
X108750000Y4500000D03*
%TD*%
D16*
%TO.C,C26*%
X49950000Y86197728D03*
D17*
X49950000Y81197728D03*
%TD*%
D11*
%TO.C,X22*%
X6050000Y73500000D03*
%TD*%
D10*
%TO.C,C5*%
X129560000Y49270000D03*
X129560000Y54270000D03*
%TD*%
D15*
%TO.C,U1*%
X119375000Y34700000D03*
D12*
X121915000Y34700000D03*
X124455000Y34700000D03*
X126995000Y34700000D03*
X129535000Y34700000D03*
X132075000Y34700000D03*
X134615000Y34700000D03*
X134615000Y42320000D03*
X132075000Y42320000D03*
X129535000Y42320000D03*
X126995000Y42320000D03*
X124455000Y42320000D03*
X121915000Y42320000D03*
X119375000Y42320000D03*
%TD*%
D10*
%TO.C,R19*%
X38250000Y18580000D03*
D12*
X38250000Y8420000D03*
%TD*%
D10*
%TO.C,C3*%
X13250000Y29000000D03*
X13250000Y24000000D03*
%TD*%
D18*
%TO.C,Q8*%
X81300000Y16170000D03*
D19*
X82570000Y16170000D03*
X83840000Y16170000D03*
%TD*%
D10*
%TO.C,R26*%
X86380000Y26330000D03*
D12*
X76220000Y26330000D03*
%TD*%
D10*
%TO.C,C1*%
X121940000Y46650000D03*
X116940000Y46650000D03*
%TD*%
%TO.C,R14*%
X152420000Y51730000D03*
D12*
X142260000Y51730000D03*
%TD*%
D10*
%TO.C,R47*%
X27330000Y47500000D03*
D12*
X17170000Y47500000D03*
%TD*%
D10*
%TO.C,R69*%
X132100000Y64430000D03*
D12*
X132100000Y74590000D03*
%TD*%
D10*
%TO.C,R59*%
X69310000Y74180000D03*
D12*
X69310000Y64020000D03*
%TD*%
D10*
%TO.C,R68*%
X124480000Y66970000D03*
D12*
X114320000Y66970000D03*
%TD*%
D10*
%TO.C,R57*%
X22750000Y75980000D03*
D12*
X12590000Y75980000D03*
%TD*%
D11*
%TO.C,X6*%
X164500000Y47450000D03*
%TD*%
D10*
%TO.C,R9*%
X20450000Y31380000D03*
D12*
X20450000Y21220000D03*
%TD*%
D11*
%TO.C,X20*%
X37000000Y91500000D03*
%TD*%
D10*
%TO.C,R62*%
X22750000Y81060000D03*
D12*
X12590000Y81060000D03*
%TD*%
D21*
%TO.C,Q5*%
X7890000Y14770000D03*
D22*
X7890000Y13500000D03*
X7890000Y12230000D03*
%TD*%
D10*
%TO.C,R17*%
X139750000Y23790000D03*
D12*
X129590000Y23790000D03*
%TD*%
D10*
%TO.C,R58*%
X38830000Y74180000D03*
D12*
X38830000Y64020000D03*
%TD*%
D15*
%TO.C,C16*%
X77450000Y58790000D03*
D10*
X77450000Y56790000D03*
%TD*%
%TO.C,C24*%
X139720000Y69510000D03*
X139720000Y64510000D03*
%TD*%
D11*
%TO.C,X17*%
X6050000Y61600000D03*
%TD*%
D10*
%TO.C,R32*%
X86380000Y44110000D03*
D12*
X96540000Y44110000D03*
%TD*%
D18*
%TO.C,Q1*%
X116860000Y21250000D03*
D19*
X115590000Y21250000D03*
X114320000Y21250000D03*
%TD*%
D10*
%TO.C,R3*%
X144315000Y42380000D03*
D12*
X144315000Y32220000D03*
%TD*%
D23*
%TO.C,C22*%
X139720000Y82210000D03*
D24*
X139720000Y87210000D03*
%TD*%
D10*
%TO.C,R42*%
X86380000Y54270000D03*
D12*
X96540000Y54270000D03*
%TD*%
D13*
%TO.C,C13*%
X70250000Y31222599D03*
D14*
X70250000Y29722599D03*
%TD*%
D15*
%TO.C,U2*%
X58375000Y44200000D03*
D12*
X60915000Y44200000D03*
X63455000Y44200000D03*
X65995000Y44200000D03*
X68535000Y44200000D03*
X71075000Y44200000D03*
X73615000Y44200000D03*
X73615000Y51820000D03*
X71075000Y51820000D03*
X68535000Y51820000D03*
X65995000Y51820000D03*
X63455000Y51820000D03*
X60915000Y51820000D03*
X58375000Y51820000D03*
%TD*%
D10*
%TO.C,R30*%
X86380000Y31410000D03*
D12*
X76220000Y31410000D03*
%TD*%
D10*
%TO.C,C11*%
X81300000Y41570000D03*
X81300000Y36570000D03*
%TD*%
D16*
%TO.C,C15*%
X87250000Y77500000D03*
D17*
X87250000Y72500000D03*
%TD*%
D11*
%TO.C,X21*%
X6150000Y69500000D03*
%TD*%
D10*
%TO.C,C12*%
X58750000Y13500000D03*
X58750000Y8500000D03*
%TD*%
%TO.C,R7*%
X129560000Y28870000D03*
D12*
X139720000Y28870000D03*
%TD*%
D15*
%TO.C,D1*%
X140990000Y11090000D03*
D12*
X148610000Y11090000D03*
%TD*%
D11*
%TO.C,X19*%
X6050000Y65500000D03*
%TD*%
D20*
%TO.C,REF\u002A\u002A*%
X4500000Y4750000D03*
%TD*%
D11*
%TO.C,X9*%
X83960000Y4500000D03*
%TD*%
D10*
%TO.C,R5*%
X111780000Y28870000D03*
D12*
X111780000Y39030000D03*
%TD*%
D10*
%TO.C,R18*%
X149500000Y17920000D03*
D12*
X149500000Y28080000D03*
%TD*%
D10*
%TO.C,R40*%
X91460000Y16170000D03*
D12*
X101620000Y16170000D03*
%TD*%
D10*
%TO.C,R55*%
X59150000Y64020000D03*
D12*
X59150000Y74180000D03*
%TD*%
D18*
%TO.C,Q7*%
X23480000Y37500000D03*
D19*
X24750000Y37500000D03*
X26020000Y37500000D03*
%TD*%
D11*
%TO.C,X23*%
X75500000Y91500000D03*
%TD*%
D10*
%TO.C,R64*%
X48990000Y64020000D03*
D12*
X48990000Y74180000D03*
%TD*%
D10*
%TO.C,R63*%
X43910000Y64020000D03*
D12*
X43910000Y74180000D03*
%TD*%
D10*
%TO.C,R48*%
X74450000Y64020000D03*
D12*
X74450000Y74180000D03*
%TD*%
D10*
%TO.C,R61*%
X12590000Y70900000D03*
D12*
X22750000Y70900000D03*
%TD*%
D11*
%TO.C,X18*%
X6050000Y57500000D03*
%TD*%
%TO.C,X4*%
X43750000Y4500000D03*
%TD*%
%TO.C,X-*%
X5950000Y81500000D03*
%TD*%
D10*
%TO.C,R45*%
X91460000Y21250000D03*
D12*
X101620000Y21250000D03*
%TD*%
D10*
%TO.C,C10*%
X55090000Y30500000D03*
X50090000Y30500000D03*
%TD*%
D13*
%TO.C,C27*%
X104250000Y76277400D03*
D14*
X104250000Y77777400D03*
%TD*%
D10*
%TO.C,C7*%
X26250000Y29800000D03*
X26250000Y24800000D03*
%TD*%
D11*
%TO.C,X12*%
X6250000Y41500000D03*
%TD*%
D21*
%TO.C,Q2*%
X19750000Y9000000D03*
D22*
X19750000Y10270000D03*
X19750000Y11540000D03*
%TD*%
D10*
%TO.C,C4*%
X124500000Y18750000D03*
X124500000Y23750000D03*
%TD*%
%TO.C,R60*%
X64230000Y74180000D03*
D12*
X64230000Y64020000D03*
%TD*%
D20*
%TO.C,REF\u002A\u002A*%
X165000000Y92750000D03*
%TD*%
D13*
%TO.C,C18*%
X18330000Y63240000D03*
D14*
X16830000Y63240000D03*
%TD*%
D10*
%TO.C,R50*%
X32430000Y58220000D03*
D12*
X22270000Y58220000D03*
%TD*%
D11*
%TO.C,X25*%
X96500000Y91500000D03*
%TD*%
D10*
%TO.C,R2*%
X152420000Y56810000D03*
D12*
X142260000Y56810000D03*
%TD*%
D21*
%TO.C,Q4*%
X121940000Y56810000D03*
D22*
X121940000Y55540000D03*
X121940000Y54270000D03*
%TD*%
D10*
%TO.C,C20*%
X129560000Y87370000D03*
X129560000Y92370000D03*
%TD*%
%TO.C,R27*%
X53750000Y8500000D03*
D12*
X53750000Y18660000D03*
%TD*%
D10*
%TO.C,C9*%
X65250000Y30500000D03*
X60250000Y30500000D03*
%TD*%
%TO.C,R36*%
X48670000Y18660000D03*
D12*
X48670000Y8500000D03*
%TD*%
D11*
%TO.C,X24*%
X92900000Y91500000D03*
%TD*%
D10*
%TO.C,R65*%
X61550000Y88600000D03*
D12*
X71710000Y88600000D03*
%TD*%
D21*
%TO.C,Q6*%
X31610000Y9230000D03*
D22*
X31610000Y10500000D03*
X31610000Y11770000D03*
%TD*%
D10*
%TO.C,C6*%
X156750000Y23000000D03*
X156750000Y18000000D03*
%TD*%
D11*
%TO.C,X11*%
X46750000Y4500000D03*
%TD*%
D10*
%TO.C,R67*%
X124480000Y61890000D03*
D12*
X114320000Y61890000D03*
%TD*%
D10*
%TO.C,R56*%
X32810000Y89100000D03*
D12*
X22650000Y89100000D03*
%TD*%
D10*
%TO.C,R23*%
X149395000Y42380000D03*
D12*
X149395000Y32220000D03*
%TD*%
D10*
%TO.C,R44*%
X91460000Y26330000D03*
D12*
X101620000Y26330000D03*
%TD*%
D10*
%TO.C,R39*%
X101620000Y11090000D03*
D12*
X91460000Y11090000D03*
%TD*%
D21*
%TO.C,Q3*%
X116860000Y54270000D03*
D22*
X116860000Y55540000D03*
X116860000Y56810000D03*
%TD*%
D10*
%TO.C,R4*%
X108830000Y52580000D03*
D12*
X108830000Y42420000D03*
%TD*%
D10*
%TO.C,C2*%
X124480000Y28870000D03*
X119480000Y28870000D03*
%TD*%
%TO.C,R6*%
X124480000Y11090000D03*
D12*
X114320000Y11090000D03*
%TD*%
D10*
%TO.C,R16*%
X103750000Y52580000D03*
D12*
X103750000Y42420000D03*
%TD*%
D20*
%TO.C,REF\u002A\u002A*%
X4500000Y92750000D03*
%TD*%
D11*
%TO.C,X2*%
X164500000Y53730000D03*
%TD*%
D10*
%TO.C,R41*%
X44775000Y52600000D03*
D12*
X34615000Y52600000D03*
%TD*%
D10*
%TO.C,R33*%
X70250000Y8420000D03*
D12*
X70250000Y18580000D03*
%TD*%
D10*
%TO.C,R46*%
X27330000Y52580000D03*
D12*
X17170000Y52580000D03*
%TD*%
D10*
%TO.C,R15*%
X39730000Y31380000D03*
D12*
X39730000Y21220000D03*
%TD*%
M02*
