%TF.GenerationSoftware,KiCad,Pcbnew,7.0.7*%
%TF.CreationDate,2023-09-27T22:13:25+02:00*%
%TF.ProjectId,Noise Toaster PCB,4e6f6973-6520-4546-9f61-737465722050,0.5*%
%TF.SameCoordinates,PX3c67de0PY8c099c0*%
%TF.FileFunction,Drillmap*%
%TF.FilePolarity,Positive*%
%FSLAX45Y45*%
G04 Gerber Fmt 4.5, Leading zero omitted, Abs format (unit mm)*
G04 Created by KiCad (PCBNEW 7.0.7) date 2023-09-27 22:13:25*
%MOMM*%
%LPD*%
G01*
G04 APERTURE LIST*
%ADD10C,0.100000*%
%ADD11C,0.200000*%
%ADD12C,0.050000*%
%ADD13C,0.060000*%
%ADD14C,0.075000*%
%ADD15C,0.080000*%
%ADD16C,0.120000*%
G04 APERTURE END LIST*
D10*
X50000Y9700000D02*
X16875000Y9700000D01*
X16875000Y50000D01*
X50000Y50000D01*
X50000Y9700000D01*
D11*
D12*
X570000Y8175000D02*
X620000Y8125000D01*
X620000Y8175000D02*
X570000Y8125000D01*
X570000Y7775000D02*
X620000Y7725000D01*
X620000Y7775000D02*
X570000Y7725000D01*
X580000Y7375000D02*
X630000Y7325000D01*
X630000Y7375000D02*
X580000Y7325000D01*
X580000Y6575000D02*
X630000Y6525000D01*
X630000Y6575000D02*
X580000Y6525000D01*
X580000Y6185000D02*
X630000Y6135000D01*
X630000Y6185000D02*
X580000Y6135000D01*
X580000Y5775000D02*
X630000Y5725000D01*
X630000Y5775000D02*
X580000Y5725000D01*
X590000Y6975000D02*
X640000Y6925000D01*
X640000Y6975000D02*
X590000Y6925000D01*
X600000Y4175000D02*
X650000Y4125000D01*
X650000Y4175000D02*
X600000Y4125000D01*
X600000Y3875000D02*
X650000Y3825000D01*
X650000Y3875000D02*
X600000Y3825000D01*
X3675000Y9175000D02*
X3725000Y9125000D01*
X3725000Y9175000D02*
X3675000Y9125000D01*
X4025000Y9175000D02*
X4075000Y9125000D01*
X4075000Y9175000D02*
X4025000Y9125000D01*
X4350000Y475000D02*
X4400000Y425000D01*
X4400000Y475000D02*
X4350000Y425000D01*
X4650000Y475000D02*
X4700000Y425000D01*
X4700000Y475000D02*
X4650000Y425000D01*
X7525000Y9175000D02*
X7575000Y9125000D01*
X7575000Y9175000D02*
X7525000Y9125000D01*
X7525000Y475000D02*
X7575000Y425000D01*
X7575000Y475000D02*
X7525000Y425000D01*
X7875000Y9175000D02*
X7925000Y9125000D01*
X7925000Y9175000D02*
X7875000Y9125000D01*
X8042000Y475000D02*
X8092000Y425000D01*
X8092000Y475000D02*
X8042000Y425000D01*
X8225000Y9175000D02*
X8275000Y9125000D01*
X8275000Y9175000D02*
X8225000Y9125000D01*
X8371000Y475000D02*
X8421000Y425000D01*
X8421000Y475000D02*
X8371000Y425000D01*
X8700000Y475000D02*
X8750000Y425000D01*
X8750000Y475000D02*
X8700000Y425000D01*
X9265000Y9175000D02*
X9315000Y9125000D01*
X9315000Y9175000D02*
X9265000Y9125000D01*
X9625000Y9175000D02*
X9675000Y9125000D01*
X9675000Y9175000D02*
X9625000Y9125000D01*
X9975000Y9175000D02*
X10025000Y9125000D01*
X10025000Y9175000D02*
X9975000Y9125000D01*
X10525000Y475000D02*
X10575000Y425000D01*
X10575000Y475000D02*
X10525000Y425000D01*
X10850000Y475000D02*
X10900000Y425000D01*
X10900000Y475000D02*
X10850000Y425000D01*
X13947000Y9262000D02*
X13997000Y9212000D01*
X13997000Y9262000D02*
X13947000Y9212000D01*
X16425000Y5725000D02*
X16475000Y5675000D01*
X16475000Y5725000D02*
X16425000Y5675000D01*
X16425000Y5398000D02*
X16475000Y5348000D01*
X16475000Y5398000D02*
X16425000Y5348000D01*
X16425000Y5088000D02*
X16475000Y5038000D01*
X16475000Y5088000D02*
X16425000Y5038000D01*
X16425000Y4770000D02*
X16475000Y4720000D01*
X16475000Y4770000D02*
X16425000Y4720000D01*
D13*
X1713000Y6324000D02*
G75*
G03*
X1713000Y6324000I-30000J0D01*
G01*
X1863000Y6324000D02*
G75*
G03*
X1863000Y6324000I-30000J0D01*
G01*
X6505000Y5825000D02*
G75*
G03*
X6505000Y5825000I-30000J0D01*
G01*
X6505000Y5675000D02*
G75*
G03*
X6505000Y5675000I-30000J0D01*
G01*
X7055000Y3122260D02*
G75*
G03*
X7055000Y3122260I-30000J0D01*
G01*
X7055000Y2972260D02*
G75*
G03*
X7055000Y2972260I-30000J0D01*
G01*
X10455000Y7777740D02*
G75*
G03*
X10455000Y7777740I-30000J0D01*
G01*
X10455000Y7627740D02*
G75*
G03*
X10455000Y7627740I-30000J0D01*
G01*
X11970000Y8879000D02*
G75*
G03*
X11970000Y8879000I-30000J0D01*
G01*
X11970000Y8729000D02*
G75*
G03*
X11970000Y8729000I-30000J0D01*
G01*
D14*
X789000Y1514500D02*
X789000Y1439500D01*
X751500Y1477000D02*
X826500Y1477000D01*
X789000Y1387500D02*
X789000Y1312500D01*
X751500Y1350000D02*
X826500Y1350000D01*
X789000Y1260500D02*
X789000Y1185500D01*
X751500Y1223000D02*
X826500Y1223000D01*
X1513000Y8905500D02*
X1513000Y8830500D01*
X1475500Y8868000D02*
X1550500Y8868000D01*
X1640000Y8905500D02*
X1640000Y8830500D01*
X1602500Y8868000D02*
X1677500Y8868000D01*
X1767000Y8905500D02*
X1767000Y8830500D01*
X1729500Y8868000D02*
X1804500Y8868000D01*
X1975000Y1191500D02*
X1975000Y1116500D01*
X1937500Y1154000D02*
X2012500Y1154000D01*
X1975000Y1064500D02*
X1975000Y989500D01*
X1937500Y1027000D02*
X2012500Y1027000D01*
X1975000Y937500D02*
X1975000Y862500D01*
X1937500Y900000D02*
X2012500Y900000D01*
X2348000Y3787500D02*
X2348000Y3712500D01*
X2310500Y3750000D02*
X2385500Y3750000D01*
X2475000Y3787500D02*
X2475000Y3712500D01*
X2437500Y3750000D02*
X2512500Y3750000D01*
X2602000Y3787500D02*
X2602000Y3712500D01*
X2564500Y3750000D02*
X2639500Y3750000D01*
X2788000Y7147500D02*
X2788000Y7072500D01*
X2750500Y7110000D02*
X2825500Y7110000D01*
X2915000Y7147500D02*
X2915000Y7072500D01*
X2877500Y7110000D02*
X2952500Y7110000D01*
X3042000Y7147500D02*
X3042000Y7072500D01*
X3004500Y7110000D02*
X3079500Y7110000D01*
X3161000Y1214500D02*
X3161000Y1139500D01*
X3123500Y1177000D02*
X3198500Y1177000D01*
X3161000Y1087500D02*
X3161000Y1012500D01*
X3123500Y1050000D02*
X3198500Y1050000D01*
X3161000Y960500D02*
X3161000Y885500D01*
X3123500Y923000D02*
X3198500Y923000D01*
X8130000Y1654500D02*
X8130000Y1579500D01*
X8092500Y1617000D02*
X8167500Y1617000D01*
X8257000Y1654500D02*
X8257000Y1579500D01*
X8219500Y1617000D02*
X8294500Y1617000D01*
X8384000Y1654500D02*
X8384000Y1579500D01*
X8346500Y1617000D02*
X8421500Y1617000D01*
X11432000Y2162500D02*
X11432000Y2087500D01*
X11394500Y2125000D02*
X11469500Y2125000D01*
X11559000Y2162500D02*
X11559000Y2087500D01*
X11521500Y2125000D02*
X11596500Y2125000D01*
X11686000Y5718500D02*
X11686000Y5643500D01*
X11648500Y5681000D02*
X11723500Y5681000D01*
X11686000Y5591500D02*
X11686000Y5516500D01*
X11648500Y5554000D02*
X11723500Y5554000D01*
X11686000Y5464500D02*
X11686000Y5389500D01*
X11648500Y5427000D02*
X11723500Y5427000D01*
X11686000Y2162500D02*
X11686000Y2087500D01*
X11648500Y2125000D02*
X11723500Y2125000D01*
X12194000Y5718500D02*
X12194000Y5643500D01*
X12156500Y5681000D02*
X12231500Y5681000D01*
X12194000Y5591500D02*
X12194000Y5516500D01*
X12156500Y5554000D02*
X12231500Y5554000D01*
X12194000Y5464500D02*
X12194000Y5389500D01*
X12156500Y5427000D02*
X12231500Y5427000D01*
D15*
X713284Y3101715D02*
X713284Y3158284D01*
X656716Y3158284D01*
X656716Y3101715D01*
X713284Y3101715D01*
X713284Y2085715D02*
X713284Y2142285D01*
X656716Y2142285D01*
X656716Y2085715D01*
X713284Y2085715D01*
X1287285Y8077715D02*
X1287285Y8134284D01*
X1230716Y8134284D01*
X1230716Y8077715D01*
X1287285Y8077715D01*
X1287285Y7569715D02*
X1287285Y7626284D01*
X1230716Y7626284D01*
X1230716Y7569715D01*
X1287285Y7569715D01*
X1287285Y7061715D02*
X1287285Y7118284D01*
X1230716Y7118284D01*
X1230716Y7061715D01*
X1287285Y7061715D01*
X1353285Y2871715D02*
X1353285Y2928284D01*
X1296716Y2928284D01*
X1296716Y2871715D01*
X1353285Y2871715D01*
X1353285Y2371716D02*
X1353285Y2428285D01*
X1296716Y2428285D01*
X1296716Y2371716D01*
X1353285Y2371716D01*
X1745284Y5229716D02*
X1745284Y5286285D01*
X1688715Y5286285D01*
X1688715Y5229716D01*
X1745284Y5229716D01*
X1745284Y4721716D02*
X1745284Y4778285D01*
X1688715Y4778285D01*
X1688715Y4721716D01*
X1745284Y4721716D01*
X2073284Y3109715D02*
X2073284Y3166284D01*
X2016715Y3166284D01*
X2016715Y3109715D01*
X2073284Y3109715D01*
X2073284Y2093715D02*
X2073284Y2150285D01*
X2016715Y2150285D01*
X2016715Y2093715D01*
X2073284Y2093715D01*
X2255285Y6301715D02*
X2255285Y6358284D01*
X2198716Y6358284D01*
X2198716Y6301715D01*
X2255285Y6301715D01*
X2255285Y5793715D02*
X2255285Y5850284D01*
X2198716Y5850284D01*
X2198716Y5793715D01*
X2255285Y5793715D01*
X2293285Y8881716D02*
X2293285Y8938285D01*
X2236716Y8938285D01*
X2236716Y8881716D01*
X2293285Y8881716D01*
X2303285Y8077715D02*
X2303285Y8134284D01*
X2246716Y8134284D01*
X2246716Y8077715D01*
X2303285Y8077715D01*
X2303285Y7569715D02*
X2303285Y7626284D01*
X2246716Y7626284D01*
X2246716Y7569715D01*
X2303285Y7569715D01*
X2303285Y7061715D02*
X2303285Y7118284D01*
X2246716Y7118284D01*
X2246716Y7061715D01*
X2303285Y7061715D01*
X2653285Y2951715D02*
X2653285Y3008284D01*
X2596716Y3008284D01*
X2596716Y2951715D01*
X2653285Y2951715D01*
X2653285Y2451716D02*
X2653285Y2508285D01*
X2596716Y2508285D01*
X2596716Y2451716D01*
X2653285Y2451716D01*
X2653285Y1837715D02*
X2653285Y1894284D01*
X2596716Y1894284D01*
X2596716Y1837715D01*
X2653285Y1837715D01*
X2653285Y821715D02*
X2653285Y878284D01*
X2596716Y878284D01*
X2596716Y821715D01*
X2653285Y821715D01*
X2761285Y5229716D02*
X2761285Y5286285D01*
X2704716Y5286285D01*
X2704716Y5229716D01*
X2761285Y5229716D01*
X2761285Y4721716D02*
X2761285Y4778285D01*
X2704716Y4778285D01*
X2704716Y4721716D01*
X2761285Y4721716D01*
X2941284Y8063715D02*
X2941284Y8120284D01*
X2884715Y8120284D01*
X2884715Y8063715D01*
X2941284Y8063715D01*
X2941284Y7863715D02*
X2941284Y7920284D01*
X2884715Y7920284D01*
X2884715Y7863715D01*
X2941284Y7863715D01*
X3271284Y6301715D02*
X3271284Y6358284D01*
X3214715Y6358284D01*
X3214715Y6301715D01*
X3271284Y6301715D01*
X3271284Y5793715D02*
X3271284Y5850284D01*
X3214715Y5850284D01*
X3214715Y5793715D01*
X3271284Y5793715D01*
X3309284Y8881716D02*
X3309284Y8938285D01*
X3252715Y8938285D01*
X3252715Y8881716D01*
X3309284Y8881716D01*
X3489784Y5231716D02*
X3489784Y5288285D01*
X3433215Y5288285D01*
X3433215Y5231716D01*
X3489784Y5231716D01*
X3493284Y3109715D02*
X3493284Y3166284D01*
X3436715Y3166284D01*
X3436715Y3109715D01*
X3493284Y3109715D01*
X3493284Y2093715D02*
X3493284Y2150285D01*
X3436715Y2150285D01*
X3436715Y2093715D01*
X3493284Y2093715D01*
X3853284Y1829715D02*
X3853284Y1886284D01*
X3796715Y1886284D01*
X3796715Y1829715D01*
X3853284Y1829715D01*
X3853284Y813715D02*
X3853284Y870284D01*
X3796715Y870284D01*
X3796715Y813715D01*
X3853284Y813715D01*
X3911284Y7389715D02*
X3911284Y7446284D01*
X3854715Y7446284D01*
X3854715Y7389715D01*
X3911284Y7389715D01*
X3911284Y6373715D02*
X3911284Y6430284D01*
X3854715Y6430284D01*
X3854715Y6373715D01*
X3911284Y6373715D01*
X4001284Y3109715D02*
X4001284Y3166284D01*
X3944715Y3166284D01*
X3944715Y3109715D01*
X4001284Y3109715D01*
X4001284Y2093715D02*
X4001284Y2150285D01*
X3944715Y2150285D01*
X3944715Y2093715D01*
X4001284Y2093715D01*
X4419285Y7389715D02*
X4419285Y7446284D01*
X4362716Y7446284D01*
X4362716Y7389715D01*
X4419285Y7389715D01*
X4419285Y6373715D02*
X4419285Y6430284D01*
X4362716Y6430284D01*
X4362716Y6373715D01*
X4419285Y6373715D01*
X4505785Y5231716D02*
X4505785Y5288285D01*
X4449216Y5288285D01*
X4449216Y5231716D01*
X4505785Y5231716D01*
X4895285Y1837715D02*
X4895285Y1894284D01*
X4838716Y1894284D01*
X4838716Y1837715D01*
X4895285Y1837715D01*
X4895285Y821715D02*
X4895285Y878284D01*
X4838716Y878284D01*
X4838716Y821715D01*
X4895285Y821715D01*
X4927285Y7389715D02*
X4927285Y7446284D01*
X4870716Y7446284D01*
X4870716Y7389715D01*
X4927285Y7389715D01*
X4927285Y6373715D02*
X4927285Y6430284D01*
X4870716Y6430284D01*
X4870716Y6373715D01*
X4927285Y6373715D01*
X4928285Y5271716D02*
X4928285Y5328285D01*
X4871716Y5328285D01*
X4871716Y5271716D01*
X4928285Y5271716D01*
X4928285Y4255716D02*
X4928285Y4312285D01*
X4871716Y4312285D01*
X4871716Y4255716D01*
X4928285Y4255716D01*
X5037285Y3021715D02*
X5037285Y3078284D01*
X4980716Y3078284D01*
X4980716Y3021715D01*
X5037285Y3021715D01*
X5337285Y2371716D02*
X5337285Y2428285D01*
X5280716Y2428285D01*
X5280716Y2371716D01*
X5337285Y2371716D01*
X5403285Y1837715D02*
X5403285Y1894284D01*
X5346716Y1894284D01*
X5346716Y1837715D01*
X5403285Y1837715D01*
X5403285Y821715D02*
X5403285Y878284D01*
X5346716Y878284D01*
X5346716Y821715D01*
X5403285Y821715D01*
X5537285Y3021715D02*
X5537285Y3078284D01*
X5480716Y3078284D01*
X5480716Y3021715D01*
X5537285Y3021715D01*
X5865784Y5153716D02*
X5865784Y5210285D01*
X5809215Y5210285D01*
X5809215Y5153716D01*
X5865784Y5153716D01*
X5865784Y4391716D02*
X5865784Y4448285D01*
X5809215Y4448285D01*
X5809215Y4391716D01*
X5865784Y4391716D01*
X5903284Y1321716D02*
X5903284Y1378285D01*
X5846715Y1378285D01*
X5846715Y1321716D01*
X5903284Y1321716D01*
X5903284Y821715D02*
X5903284Y878284D01*
X5846715Y878284D01*
X5846715Y821715D01*
X5903284Y821715D01*
X5943284Y7389715D02*
X5943284Y7446284D01*
X5886715Y7446284D01*
X5886715Y7389715D01*
X5943284Y7389715D01*
X5943284Y6373715D02*
X5943284Y6430284D01*
X5886715Y6430284D01*
X5886715Y6373715D01*
X5943284Y6373715D01*
X6053284Y3021715D02*
X6053284Y3078284D01*
X5996715Y3078284D01*
X5996715Y3021715D01*
X6053284Y3021715D01*
X6119784Y5153716D02*
X6119784Y5210285D01*
X6063215Y5210285D01*
X6063215Y5153716D01*
X6119784Y5153716D01*
X6119784Y4391716D02*
X6119784Y4448285D01*
X6063215Y4448285D01*
X6063215Y4391716D01*
X6119784Y4391716D01*
X6183284Y8831716D02*
X6183284Y8888285D01*
X6126715Y8888285D01*
X6126715Y8831716D01*
X6183284Y8831716D01*
X6183284Y8323715D02*
X6183284Y8380284D01*
X6126715Y8380284D01*
X6126715Y8323715D01*
X6183284Y8323715D01*
X6353284Y2371716D02*
X6353284Y2428285D01*
X6296715Y2428285D01*
X6296715Y2371716D01*
X6353284Y2371716D01*
X6373784Y5153716D02*
X6373784Y5210285D01*
X6317215Y5210285D01*
X6317215Y5153716D01*
X6373784Y5153716D01*
X6373784Y4391716D02*
X6373784Y4448285D01*
X6317215Y4448285D01*
X6317215Y4391716D01*
X6373784Y4391716D01*
X6451284Y7389715D02*
X6451284Y7446284D01*
X6394715Y7446284D01*
X6394715Y7389715D01*
X6451284Y7389715D01*
X6451284Y6373715D02*
X6451284Y6430284D01*
X6394715Y6430284D01*
X6394715Y6373715D01*
X6451284Y6373715D01*
X6545284Y1829715D02*
X6545284Y1886284D01*
X6488715Y1886284D01*
X6488715Y1829715D01*
X6545284Y1829715D01*
X6545284Y813715D02*
X6545284Y870284D01*
X6488715Y870284D01*
X6488715Y813715D01*
X6545284Y813715D01*
X6553284Y3021715D02*
X6553284Y3078284D01*
X6496715Y3078284D01*
X6496715Y3021715D01*
X6553284Y3021715D01*
X6627784Y5153716D02*
X6627784Y5210285D01*
X6571215Y5210285D01*
X6571215Y5153716D01*
X6627784Y5153716D01*
X6627784Y4391716D02*
X6627784Y4448285D01*
X6571215Y4448285D01*
X6571215Y4391716D01*
X6627784Y4391716D01*
X6881784Y5153716D02*
X6881784Y5210285D01*
X6825215Y5210285D01*
X6825215Y5153716D01*
X6881784Y5153716D01*
X6881784Y4391716D02*
X6881784Y4448285D01*
X6825215Y4448285D01*
X6825215Y4391716D01*
X6881784Y4391716D01*
X6959284Y7389715D02*
X6959284Y7446284D01*
X6902715Y7446284D01*
X6902715Y7389715D01*
X6959284Y7389715D01*
X6959284Y6373715D02*
X6959284Y6430284D01*
X6902715Y6430284D01*
X6902715Y6373715D01*
X6959284Y6373715D01*
X7053284Y1829715D02*
X7053284Y1886284D01*
X6996715Y1886284D01*
X6996715Y1829715D01*
X7053284Y1829715D01*
X7053284Y813715D02*
X7053284Y870284D01*
X6996715Y870284D01*
X6996715Y813715D01*
X7053284Y813715D01*
X7135784Y5153716D02*
X7135784Y5210285D01*
X7079215Y5210285D01*
X7079215Y5153716D01*
X7135784Y5153716D01*
X7135784Y4391716D02*
X7135784Y4448285D01*
X7079215Y4448285D01*
X7079215Y4391716D01*
X7135784Y4391716D01*
X7199284Y8831716D02*
X7199284Y8888285D01*
X7142715Y8888285D01*
X7142715Y8831716D01*
X7199284Y8831716D01*
X7199284Y8323715D02*
X7199284Y8380284D01*
X7142715Y8380284D01*
X7142715Y8323715D01*
X7199284Y8323715D01*
X7389784Y5153716D02*
X7389784Y5210285D01*
X7333215Y5210285D01*
X7333215Y5153716D01*
X7389784Y5153716D01*
X7389784Y4391716D02*
X7389784Y4448285D01*
X7333215Y4448285D01*
X7333215Y4391716D01*
X7389784Y4391716D01*
X7473284Y7389715D02*
X7473284Y7446284D01*
X7416715Y7446284D01*
X7416715Y7389715D01*
X7473284Y7389715D01*
X7473284Y6373715D02*
X7473284Y6430284D01*
X7416715Y6430284D01*
X7416715Y6373715D01*
X7473284Y6373715D01*
X7503284Y1321716D02*
X7503284Y1378285D01*
X7446715Y1378285D01*
X7446715Y1321716D01*
X7503284Y1321716D01*
X7503284Y821715D02*
X7503284Y878284D01*
X7446715Y878284D01*
X7446715Y821715D01*
X7503284Y821715D01*
X7650284Y3112715D02*
X7650284Y3169284D01*
X7593715Y3169284D01*
X7593715Y3112715D01*
X7650284Y3112715D01*
X7650284Y2604716D02*
X7650284Y2661285D01*
X7593715Y2661285D01*
X7593715Y2604716D01*
X7650284Y2604716D01*
X7773284Y5850715D02*
X7773284Y5907284D01*
X7716715Y5907284D01*
X7716715Y5850715D01*
X7773284Y5850715D01*
X7773284Y5650715D02*
X7773284Y5707284D01*
X7716715Y5707284D01*
X7716715Y5650715D01*
X7773284Y5650715D01*
X8158284Y4128715D02*
X8158284Y4185284D01*
X8101715Y4185284D01*
X8101715Y4128715D01*
X8158284Y4128715D01*
X8158284Y3628715D02*
X8158284Y3685284D01*
X8101715Y3685284D01*
X8101715Y3628715D01*
X8158284Y3628715D01*
X8666285Y5398716D02*
X8666285Y5455285D01*
X8609716Y5455285D01*
X8609716Y5398716D01*
X8666285Y5398716D01*
X8666285Y4890716D02*
X8666285Y4947285D01*
X8609716Y4947285D01*
X8609716Y4890716D01*
X8666285Y4890716D01*
X8666285Y4382716D02*
X8666285Y4439285D01*
X8609716Y4439285D01*
X8609716Y4382716D01*
X8666285Y4382716D01*
X8666285Y3112715D02*
X8666285Y3169284D01*
X8609716Y3169284D01*
X8609716Y3112715D01*
X8666285Y3112715D01*
X8666285Y2604716D02*
X8666285Y2661285D01*
X8609716Y2661285D01*
X8609716Y2604716D01*
X8666285Y2604716D01*
X9174285Y3620715D02*
X9174285Y3677284D01*
X9117716Y3677284D01*
X9117716Y3620715D01*
X9174285Y3620715D01*
X9174285Y2604716D02*
X9174285Y2661285D01*
X9117716Y2661285D01*
X9117716Y2604716D01*
X9174285Y2604716D01*
X9174285Y2096715D02*
X9174285Y2153285D01*
X9117716Y2153285D01*
X9117716Y2096715D01*
X9174285Y2096715D01*
X9174285Y1588715D02*
X9174285Y1645284D01*
X9117716Y1645284D01*
X9117716Y1588715D01*
X9174285Y1588715D01*
X9174285Y1080716D02*
X9174285Y1137285D01*
X9117716Y1137285D01*
X9117716Y1080716D01*
X9174285Y1080716D01*
X9478285Y8471716D02*
X9478285Y8528285D01*
X9421716Y8528285D01*
X9421716Y8471716D01*
X9478285Y8471716D01*
X9678285Y8471716D02*
X9678285Y8528285D01*
X9621716Y8528285D01*
X9621716Y8471716D01*
X9678285Y8471716D01*
X9682285Y5398716D02*
X9682285Y5455285D01*
X9625716Y5455285D01*
X9625716Y5398716D01*
X9682285Y5398716D01*
X9682285Y4890716D02*
X9682285Y4947285D01*
X9625716Y4947285D01*
X9625716Y4890716D01*
X9682285Y4890716D01*
X9682285Y4382716D02*
X9682285Y4439285D01*
X9625716Y4439285D01*
X9625716Y4382716D01*
X9682285Y4382716D01*
X10190285Y3620715D02*
X10190285Y3677284D01*
X10133716Y3677284D01*
X10133716Y3620715D01*
X10190285Y3620715D01*
X10190285Y2604716D02*
X10190285Y2661285D01*
X10133716Y2661285D01*
X10133716Y2604716D01*
X10190285Y2604716D01*
X10190285Y2096715D02*
X10190285Y2153285D01*
X10133716Y2153285D01*
X10133716Y2096715D01*
X10190285Y2096715D01*
X10190285Y1588715D02*
X10190285Y1645284D01*
X10133716Y1645284D01*
X10133716Y1588715D01*
X10190285Y1588715D01*
X10190285Y1080716D02*
X10190285Y1137285D01*
X10133716Y1137285D01*
X10133716Y1080716D01*
X10190285Y1080716D01*
X10403285Y5229716D02*
X10403285Y5286285D01*
X10346716Y5286285D01*
X10346716Y5229716D01*
X10403285Y5229716D01*
X10403285Y4213716D02*
X10403285Y4270285D01*
X10346716Y4270285D01*
X10346716Y4213716D01*
X10403285Y4213716D01*
X10911285Y5229716D02*
X10911285Y5286285D01*
X10854716Y5286285D01*
X10854716Y5229716D01*
X10911285Y5229716D01*
X10911285Y4213716D02*
X10911285Y4270285D01*
X10854716Y4270285D01*
X10854716Y4213716D01*
X10911285Y4213716D01*
X11173285Y8103715D02*
X11173285Y8160284D01*
X11116716Y8160284D01*
X11116716Y8103715D01*
X11173285Y8103715D01*
X11173285Y7341715D02*
X11173285Y7398284D01*
X11116716Y7398284D01*
X11116716Y7341715D01*
X11173285Y7341715D01*
X11206284Y3874715D02*
X11206284Y3931284D01*
X11149716Y3931284D01*
X11149716Y3874715D01*
X11206284Y3874715D01*
X11206284Y2858715D02*
X11206284Y2915284D01*
X11149716Y2915284D01*
X11149716Y2858715D01*
X11206284Y2858715D01*
X11427284Y8103715D02*
X11427284Y8160284D01*
X11370715Y8160284D01*
X11370715Y8103715D01*
X11427284Y8103715D01*
X11427284Y7341715D02*
X11427284Y7398284D01*
X11370715Y7398284D01*
X11370715Y7341715D01*
X11427284Y7341715D01*
X11460284Y6668715D02*
X11460284Y6725284D01*
X11403715Y6725284D01*
X11403715Y6668715D01*
X11460284Y6668715D01*
X11460284Y6160715D02*
X11460284Y6217284D01*
X11403715Y6217284D01*
X11403715Y6160715D01*
X11460284Y6160715D01*
X11460284Y1080716D02*
X11460284Y1137285D01*
X11403715Y1137285D01*
X11403715Y1080716D01*
X11460284Y1080716D01*
X11681284Y8103715D02*
X11681284Y8160284D01*
X11624715Y8160284D01*
X11624715Y8103715D01*
X11681284Y8103715D01*
X11681284Y7341715D02*
X11681284Y7398284D01*
X11624715Y7398284D01*
X11624715Y7341715D01*
X11681284Y7341715D01*
X11722284Y4636716D02*
X11722284Y4693285D01*
X11665715Y4693285D01*
X11665715Y4636716D01*
X11722284Y4636716D01*
X11935284Y8103715D02*
X11935284Y8160284D01*
X11878715Y8160284D01*
X11878715Y8103715D01*
X11935284Y8103715D01*
X11935284Y7341715D02*
X11935284Y7398284D01*
X11878715Y7398284D01*
X11878715Y7341715D01*
X11935284Y7341715D01*
X11965784Y4203716D02*
X11965784Y4260285D01*
X11909215Y4260285D01*
X11909215Y4203716D01*
X11965784Y4203716D01*
X11965784Y3441715D02*
X11965784Y3498284D01*
X11909215Y3498284D01*
X11909215Y3441715D01*
X11965784Y3441715D01*
X11976284Y2858715D02*
X11976284Y2915284D01*
X11919715Y2915284D01*
X11919715Y2858715D01*
X11976284Y2858715D01*
X12219784Y4203716D02*
X12219784Y4260285D01*
X12163215Y4260285D01*
X12163215Y4203716D01*
X12219784Y4203716D01*
X12219784Y3441715D02*
X12219784Y3498284D01*
X12163215Y3498284D01*
X12163215Y3441715D01*
X12219784Y3441715D01*
X12222284Y4636716D02*
X12222284Y4693285D01*
X12165715Y4693285D01*
X12165715Y4636716D01*
X12222284Y4636716D01*
X12473784Y4203716D02*
X12473784Y4260285D01*
X12417215Y4260285D01*
X12417215Y4203716D01*
X12473784Y4203716D01*
X12473784Y3441715D02*
X12473784Y3498284D01*
X12417215Y3498284D01*
X12417215Y3441715D01*
X12473784Y3441715D01*
X12476284Y6668715D02*
X12476284Y6725284D01*
X12419715Y6725284D01*
X12419715Y6668715D01*
X12476284Y6668715D01*
X12476284Y6160715D02*
X12476284Y6217284D01*
X12419715Y6217284D01*
X12419715Y6160715D01*
X12476284Y6160715D01*
X12476284Y2858715D02*
X12476284Y2915284D01*
X12419715Y2915284D01*
X12419715Y2858715D01*
X12476284Y2858715D01*
X12476284Y1080716D02*
X12476284Y1137285D01*
X12419715Y1137285D01*
X12419715Y1080716D01*
X12476284Y1080716D01*
X12478284Y2346716D02*
X12478284Y2403285D01*
X12421715Y2403285D01*
X12421715Y2346716D01*
X12478284Y2346716D01*
X12478284Y1846715D02*
X12478284Y1903284D01*
X12421715Y1903284D01*
X12421715Y1846715D01*
X12478284Y1846715D01*
X12727784Y4203716D02*
X12727784Y4260285D01*
X12671215Y4260285D01*
X12671215Y4203716D01*
X12727784Y4203716D01*
X12727784Y3441715D02*
X12727784Y3498284D01*
X12671215Y3498284D01*
X12671215Y3441715D01*
X12727784Y3441715D01*
X12970284Y1546715D02*
X12970284Y1603284D01*
X12913715Y1603284D01*
X12913715Y1546715D01*
X12970284Y1546715D01*
X12981784Y4203716D02*
X12981784Y4260285D01*
X12925215Y4260285D01*
X12925215Y4203716D01*
X12981784Y4203716D01*
X12981784Y3441715D02*
X12981784Y3498284D01*
X12925215Y3498284D01*
X12925215Y3441715D01*
X12981784Y3441715D01*
X12984284Y9208716D02*
X12984284Y9265285D01*
X12927715Y9265285D01*
X12927715Y9208716D01*
X12984284Y9208716D01*
X12984284Y8708716D02*
X12984284Y8765285D01*
X12927715Y8765285D01*
X12927715Y8708716D01*
X12984284Y8708716D01*
X12984284Y5398716D02*
X12984284Y5455285D01*
X12927715Y5455285D01*
X12927715Y5398716D01*
X12984284Y5398716D01*
X12984284Y4898716D02*
X12984284Y4955285D01*
X12927715Y4955285D01*
X12927715Y4898716D01*
X12984284Y4898716D01*
X12984284Y2858715D02*
X12984284Y2915284D01*
X12927715Y2915284D01*
X12927715Y2858715D01*
X12984284Y2858715D01*
X12987284Y2350716D02*
X12987284Y2407285D01*
X12930715Y2407285D01*
X12930715Y2350716D01*
X12987284Y2350716D01*
X13235784Y4203716D02*
X13235784Y4260285D01*
X13179215Y4260285D01*
X13179215Y4203716D01*
X13235784Y4203716D01*
X13235784Y3441715D02*
X13235784Y3498284D01*
X13179215Y3498284D01*
X13179215Y3441715D01*
X13235784Y3441715D01*
X13238284Y7430715D02*
X13238284Y7487284D01*
X13181715Y7487284D01*
X13181715Y7430715D01*
X13238284Y7430715D01*
X13238284Y6414715D02*
X13238284Y6471284D01*
X13181715Y6471284D01*
X13181715Y6414715D01*
X13238284Y6414715D01*
X13489784Y4203716D02*
X13489784Y4260285D01*
X13433215Y4260285D01*
X13433215Y4203716D01*
X13489784Y4203716D01*
X13489784Y3441715D02*
X13489784Y3498284D01*
X13433215Y3498284D01*
X13433215Y3441715D01*
X13489784Y3441715D01*
X13746284Y5652715D02*
X13746284Y5709284D01*
X13689715Y5709284D01*
X13689715Y5652715D01*
X13746284Y5652715D01*
X13746284Y4636716D02*
X13746284Y4693285D01*
X13689715Y4693285D01*
X13689715Y4636716D01*
X13746284Y4636716D01*
X13986284Y1546715D02*
X13986284Y1603284D01*
X13929715Y1603284D01*
X13929715Y1546715D01*
X13986284Y1546715D01*
X14000284Y6922715D02*
X14000284Y6979284D01*
X13943715Y6979284D01*
X13943715Y6922715D01*
X14000284Y6922715D01*
X14000284Y6422715D02*
X14000284Y6479284D01*
X13943715Y6479284D01*
X13943715Y6422715D01*
X14000284Y6422715D01*
X14000284Y2858715D02*
X14000284Y2915284D01*
X13943715Y2915284D01*
X13943715Y2858715D01*
X14000284Y2858715D01*
X14003284Y2350716D02*
X14003284Y2407285D01*
X13946715Y2407285D01*
X13946715Y2350716D01*
X14003284Y2350716D01*
X14127284Y1080716D02*
X14127284Y1137285D01*
X14070715Y1137285D01*
X14070715Y1080716D01*
X14127284Y1080716D01*
X14254284Y5652715D02*
X14254284Y5709284D01*
X14197715Y5709284D01*
X14197715Y5652715D01*
X14254284Y5652715D01*
X14254284Y5144716D02*
X14254284Y5201285D01*
X14197715Y5201285D01*
X14197715Y5144716D01*
X14254284Y5144716D01*
X14254284Y4636716D02*
X14254284Y4693285D01*
X14197715Y4693285D01*
X14197715Y4636716D01*
X14254284Y4636716D01*
X14459784Y4209716D02*
X14459784Y4266285D01*
X14403215Y4266285D01*
X14403215Y4209716D01*
X14459784Y4209716D01*
X14459784Y3193715D02*
X14459784Y3250284D01*
X14403215Y3250284D01*
X14403215Y3193715D01*
X14459784Y3193715D01*
X14889284Y1080716D02*
X14889284Y1137285D01*
X14832715Y1137285D01*
X14832715Y1080716D01*
X14889284Y1080716D01*
X14967784Y4209716D02*
X14967784Y4266285D01*
X14911215Y4266285D01*
X14911215Y4209716D01*
X14967784Y4209716D01*
X14967784Y3193715D02*
X14967784Y3250284D01*
X14911215Y3250284D01*
X14911215Y3193715D01*
X14967784Y3193715D01*
X14978284Y2779716D02*
X14978284Y2836284D01*
X14921715Y2836284D01*
X14921715Y2779716D01*
X14978284Y2779716D01*
X14978284Y1763715D02*
X14978284Y1820284D01*
X14921715Y1820284D01*
X14921715Y1763715D01*
X14978284Y1763715D01*
X15270284Y5652715D02*
X15270284Y5709284D01*
X15213715Y5709284D01*
X15213715Y5652715D01*
X15270284Y5652715D01*
X15270284Y5144716D02*
X15270284Y5201285D01*
X15213715Y5201285D01*
X15213715Y5144716D01*
X15270284Y5144716D01*
X15270284Y4636716D02*
X15270284Y4693285D01*
X15213715Y4693285D01*
X15213715Y4636716D01*
X15270284Y4636716D01*
X15475784Y4209716D02*
X15475784Y4266285D01*
X15419215Y4266285D01*
X15419215Y4209716D01*
X15475784Y4209716D01*
X15475784Y3193715D02*
X15475784Y3250284D01*
X15419215Y3250284D01*
X15419215Y3193715D01*
X15475784Y3193715D01*
X15703284Y2271716D02*
X15703284Y2328285D01*
X15646715Y2328285D01*
X15646715Y2271716D01*
X15703284Y2271716D01*
X15703284Y1771715D02*
X15703284Y1828284D01*
X15646715Y1828284D01*
X15646715Y1771715D01*
X15703284Y1771715D01*
X16303284Y3279715D02*
X16303284Y3336284D01*
X16246715Y3336284D01*
X16246715Y3279715D01*
X16303284Y3279715D01*
X16303284Y2263716D02*
X16303284Y2320285D01*
X16246715Y2320285D01*
X16246715Y2263716D01*
X16303284Y2263716D01*
D10*
X13972000Y8671000D02*
X14022000Y8721000D01*
X13972000Y8771000D01*
X13922000Y8721000D01*
X13972000Y8671000D01*
X13972000Y8171000D02*
X14022000Y8221000D01*
X13972000Y8271000D01*
X13922000Y8221000D01*
X13972000Y8171000D01*
D16*
X4935000Y8679773D02*
X5055000Y8559773D01*
X5055000Y8679773D02*
X4935000Y8559773D01*
X5055000Y8619773D02*
G75*
G03*
X5055000Y8619773I-60000J0D01*
G01*
X4935000Y8179773D02*
X5055000Y8059773D01*
X5055000Y8179773D02*
X4935000Y8059773D01*
X5055000Y8119773D02*
G75*
G03*
X5055000Y8119773I-60000J0D01*
G01*
X8665000Y7810000D02*
X8785000Y7690000D01*
X8785000Y7810000D02*
X8665000Y7690000D01*
X8785000Y7750000D02*
G75*
G03*
X8785000Y7750000I-60000J0D01*
G01*
X8665000Y7310000D02*
X8785000Y7190000D01*
X8785000Y7310000D02*
X8665000Y7190000D01*
X8785000Y7250000D02*
G75*
G03*
X8785000Y7250000I-60000J0D01*
G01*
X10110000Y6503000D02*
X10230000Y6383000D01*
X10230000Y6503000D02*
X10110000Y6383000D01*
X10230000Y6443000D02*
G75*
G03*
X10230000Y6443000I-60000J0D01*
G01*
X10610000Y6503000D02*
X10730000Y6383000D01*
X10730000Y6503000D02*
X10610000Y6383000D01*
X10730000Y6443000D02*
G75*
G03*
X10730000Y6443000I-60000J0D01*
G01*
D11*
X305777Y-266484D02*
X305777Y-66484D01*
X305777Y-66484D02*
X353396Y-66484D01*
X353396Y-66484D02*
X381967Y-76008D01*
X381967Y-76008D02*
X401015Y-95055D01*
X401015Y-95055D02*
X410539Y-114103D01*
X410539Y-114103D02*
X420062Y-152198D01*
X420062Y-152198D02*
X420062Y-180769D01*
X420062Y-180769D02*
X410539Y-218865D01*
X410539Y-218865D02*
X401015Y-237912D01*
X401015Y-237912D02*
X381967Y-256960D01*
X381967Y-256960D02*
X353396Y-266484D01*
X353396Y-266484D02*
X305777Y-266484D01*
X505777Y-266484D02*
X505777Y-133150D01*
X505777Y-171246D02*
X515301Y-152198D01*
X515301Y-152198D02*
X524824Y-142674D01*
X524824Y-142674D02*
X543872Y-133150D01*
X543872Y-133150D02*
X562920Y-133150D01*
X629586Y-266484D02*
X629586Y-133150D01*
X629586Y-66484D02*
X620063Y-76008D01*
X620063Y-76008D02*
X629586Y-85531D01*
X629586Y-85531D02*
X639110Y-76008D01*
X639110Y-76008D02*
X629586Y-66484D01*
X629586Y-66484D02*
X629586Y-85531D01*
X753396Y-266484D02*
X734348Y-256960D01*
X734348Y-256960D02*
X724824Y-237912D01*
X724824Y-237912D02*
X724824Y-66484D01*
X858158Y-266484D02*
X839110Y-256960D01*
X839110Y-256960D02*
X829586Y-237912D01*
X829586Y-237912D02*
X829586Y-66484D01*
X1086729Y-266484D02*
X1086729Y-66484D01*
X1086729Y-66484D02*
X1153396Y-209341D01*
X1153396Y-209341D02*
X1220063Y-66484D01*
X1220063Y-66484D02*
X1220063Y-266484D01*
X1401015Y-266484D02*
X1401015Y-161722D01*
X1401015Y-161722D02*
X1391491Y-142674D01*
X1391491Y-142674D02*
X1372444Y-133150D01*
X1372444Y-133150D02*
X1334348Y-133150D01*
X1334348Y-133150D02*
X1315301Y-142674D01*
X1401015Y-256960D02*
X1381967Y-266484D01*
X1381967Y-266484D02*
X1334348Y-266484D01*
X1334348Y-266484D02*
X1315301Y-256960D01*
X1315301Y-256960D02*
X1305777Y-237912D01*
X1305777Y-237912D02*
X1305777Y-218865D01*
X1305777Y-218865D02*
X1315301Y-199817D01*
X1315301Y-199817D02*
X1334348Y-190293D01*
X1334348Y-190293D02*
X1381967Y-190293D01*
X1381967Y-190293D02*
X1401015Y-180769D01*
X1496253Y-133150D02*
X1496253Y-333150D01*
X1496253Y-142674D02*
X1515301Y-133150D01*
X1515301Y-133150D02*
X1553396Y-133150D01*
X1553396Y-133150D02*
X1572443Y-142674D01*
X1572443Y-142674D02*
X1581967Y-152198D01*
X1581967Y-152198D02*
X1591491Y-171246D01*
X1591491Y-171246D02*
X1591491Y-228388D01*
X1591491Y-228388D02*
X1581967Y-247436D01*
X1581967Y-247436D02*
X1572443Y-256960D01*
X1572443Y-256960D02*
X1553396Y-266484D01*
X1553396Y-266484D02*
X1515301Y-266484D01*
X1515301Y-266484D02*
X1496253Y-256960D01*
X1677205Y-247436D02*
X1686729Y-256960D01*
X1686729Y-256960D02*
X1677205Y-266484D01*
X1677205Y-266484D02*
X1667682Y-256960D01*
X1667682Y-256960D02*
X1677205Y-247436D01*
X1677205Y-247436D02*
X1677205Y-266484D01*
X1677205Y-142674D02*
X1686729Y-152198D01*
X1686729Y-152198D02*
X1677205Y-161722D01*
X1677205Y-161722D02*
X1667682Y-152198D01*
X1667682Y-152198D02*
X1677205Y-142674D01*
X1677205Y-142674D02*
X1677205Y-161722D01*
D12*
X-5000Y-570000D02*
X45000Y-620000D01*
X45000Y-570000D02*
X-5000Y-620000D01*
D11*
X343872Y-486484D02*
X362920Y-486484D01*
X362920Y-486484D02*
X381967Y-496008D01*
X381967Y-496008D02*
X391491Y-505531D01*
X391491Y-505531D02*
X401015Y-524579D01*
X401015Y-524579D02*
X410539Y-562674D01*
X410539Y-562674D02*
X410539Y-610293D01*
X410539Y-610293D02*
X401015Y-648389D01*
X401015Y-648389D02*
X391491Y-667436D01*
X391491Y-667436D02*
X381967Y-676960D01*
X381967Y-676960D02*
X362920Y-686484D01*
X362920Y-686484D02*
X343872Y-686484D01*
X343872Y-686484D02*
X324824Y-676960D01*
X324824Y-676960D02*
X315301Y-667436D01*
X315301Y-667436D02*
X305777Y-648389D01*
X305777Y-648389D02*
X296253Y-610293D01*
X296253Y-610293D02*
X296253Y-562674D01*
X296253Y-562674D02*
X305777Y-524579D01*
X305777Y-524579D02*
X315301Y-505531D01*
X315301Y-505531D02*
X324824Y-496008D01*
X324824Y-496008D02*
X343872Y-486484D01*
X496253Y-667436D02*
X505777Y-676960D01*
X505777Y-676960D02*
X496253Y-686484D01*
X496253Y-686484D02*
X486729Y-676960D01*
X486729Y-676960D02*
X496253Y-667436D01*
X496253Y-667436D02*
X496253Y-686484D01*
X686729Y-486484D02*
X591491Y-486484D01*
X591491Y-486484D02*
X581967Y-581722D01*
X581967Y-581722D02*
X591491Y-572198D01*
X591491Y-572198D02*
X610539Y-562674D01*
X610539Y-562674D02*
X658158Y-562674D01*
X658158Y-562674D02*
X677205Y-572198D01*
X677205Y-572198D02*
X686729Y-581722D01*
X686729Y-581722D02*
X696253Y-600770D01*
X696253Y-600770D02*
X696253Y-648389D01*
X696253Y-648389D02*
X686729Y-667436D01*
X686729Y-667436D02*
X677205Y-676960D01*
X677205Y-676960D02*
X658158Y-686484D01*
X658158Y-686484D02*
X610539Y-686484D01*
X610539Y-686484D02*
X591491Y-676960D01*
X591491Y-676960D02*
X581967Y-667436D01*
X820062Y-486484D02*
X839110Y-486484D01*
X839110Y-486484D02*
X858158Y-496008D01*
X858158Y-496008D02*
X867682Y-505531D01*
X867682Y-505531D02*
X877205Y-524579D01*
X877205Y-524579D02*
X886729Y-562674D01*
X886729Y-562674D02*
X886729Y-610293D01*
X886729Y-610293D02*
X877205Y-648389D01*
X877205Y-648389D02*
X867682Y-667436D01*
X867682Y-667436D02*
X858158Y-676960D01*
X858158Y-676960D02*
X839110Y-686484D01*
X839110Y-686484D02*
X820062Y-686484D01*
X820062Y-686484D02*
X801015Y-676960D01*
X801015Y-676960D02*
X791491Y-667436D01*
X791491Y-667436D02*
X781967Y-648389D01*
X781967Y-648389D02*
X772443Y-610293D01*
X772443Y-610293D02*
X772443Y-562674D01*
X772443Y-562674D02*
X781967Y-524579D01*
X781967Y-524579D02*
X791491Y-505531D01*
X791491Y-505531D02*
X801015Y-496008D01*
X801015Y-496008D02*
X820062Y-486484D01*
X1010539Y-486484D02*
X1029586Y-486484D01*
X1029586Y-486484D02*
X1048634Y-496008D01*
X1048634Y-496008D02*
X1058158Y-505531D01*
X1058158Y-505531D02*
X1067682Y-524579D01*
X1067682Y-524579D02*
X1077205Y-562674D01*
X1077205Y-562674D02*
X1077205Y-610293D01*
X1077205Y-610293D02*
X1067682Y-648389D01*
X1067682Y-648389D02*
X1058158Y-667436D01*
X1058158Y-667436D02*
X1048634Y-676960D01*
X1048634Y-676960D02*
X1029586Y-686484D01*
X1029586Y-686484D02*
X1010539Y-686484D01*
X1010539Y-686484D02*
X991491Y-676960D01*
X991491Y-676960D02*
X981967Y-667436D01*
X981967Y-667436D02*
X972443Y-648389D01*
X972443Y-648389D02*
X962920Y-610293D01*
X962920Y-610293D02*
X962920Y-562674D01*
X962920Y-562674D02*
X972443Y-524579D01*
X972443Y-524579D02*
X981967Y-505531D01*
X981967Y-505531D02*
X991491Y-496008D01*
X991491Y-496008D02*
X1010539Y-486484D01*
X1162920Y-686484D02*
X1162920Y-553150D01*
X1162920Y-572198D02*
X1172444Y-562674D01*
X1172444Y-562674D02*
X1191491Y-553150D01*
X1191491Y-553150D02*
X1220063Y-553150D01*
X1220063Y-553150D02*
X1239110Y-562674D01*
X1239110Y-562674D02*
X1248634Y-581722D01*
X1248634Y-581722D02*
X1248634Y-686484D01*
X1248634Y-581722D02*
X1258158Y-562674D01*
X1258158Y-562674D02*
X1277205Y-553150D01*
X1277205Y-553150D02*
X1305777Y-553150D01*
X1305777Y-553150D02*
X1324825Y-562674D01*
X1324825Y-562674D02*
X1334348Y-581722D01*
X1334348Y-581722D02*
X1334348Y-686484D01*
X1429586Y-686484D02*
X1429586Y-553150D01*
X1429586Y-572198D02*
X1439110Y-562674D01*
X1439110Y-562674D02*
X1458158Y-553150D01*
X1458158Y-553150D02*
X1486729Y-553150D01*
X1486729Y-553150D02*
X1505777Y-562674D01*
X1505777Y-562674D02*
X1515301Y-581722D01*
X1515301Y-581722D02*
X1515301Y-686484D01*
X1515301Y-581722D02*
X1524824Y-562674D01*
X1524824Y-562674D02*
X1543872Y-553150D01*
X1543872Y-553150D02*
X1572443Y-553150D01*
X1572443Y-553150D02*
X1591491Y-562674D01*
X1591491Y-562674D02*
X1601015Y-581722D01*
X1601015Y-581722D02*
X1601015Y-686484D01*
X1991491Y-476960D02*
X1820063Y-734103D01*
X2248634Y-486484D02*
X2267682Y-486484D01*
X2267682Y-486484D02*
X2286729Y-496008D01*
X2286729Y-496008D02*
X2296253Y-505531D01*
X2296253Y-505531D02*
X2305777Y-524579D01*
X2305777Y-524579D02*
X2315301Y-562674D01*
X2315301Y-562674D02*
X2315301Y-610293D01*
X2315301Y-610293D02*
X2305777Y-648389D01*
X2305777Y-648389D02*
X2296253Y-667436D01*
X2296253Y-667436D02*
X2286729Y-676960D01*
X2286729Y-676960D02*
X2267682Y-686484D01*
X2267682Y-686484D02*
X2248634Y-686484D01*
X2248634Y-686484D02*
X2229587Y-676960D01*
X2229587Y-676960D02*
X2220063Y-667436D01*
X2220063Y-667436D02*
X2210539Y-648389D01*
X2210539Y-648389D02*
X2201015Y-610293D01*
X2201015Y-610293D02*
X2201015Y-562674D01*
X2201015Y-562674D02*
X2210539Y-524579D01*
X2210539Y-524579D02*
X2220063Y-505531D01*
X2220063Y-505531D02*
X2229587Y-496008D01*
X2229587Y-496008D02*
X2248634Y-486484D01*
X2401015Y-667436D02*
X2410539Y-676960D01*
X2410539Y-676960D02*
X2401015Y-686484D01*
X2401015Y-686484D02*
X2391491Y-676960D01*
X2391491Y-676960D02*
X2401015Y-667436D01*
X2401015Y-667436D02*
X2401015Y-686484D01*
X2534348Y-486484D02*
X2553396Y-486484D01*
X2553396Y-486484D02*
X2572444Y-496008D01*
X2572444Y-496008D02*
X2581968Y-505531D01*
X2581968Y-505531D02*
X2591491Y-524579D01*
X2591491Y-524579D02*
X2601015Y-562674D01*
X2601015Y-562674D02*
X2601015Y-610293D01*
X2601015Y-610293D02*
X2591491Y-648389D01*
X2591491Y-648389D02*
X2581968Y-667436D01*
X2581968Y-667436D02*
X2572444Y-676960D01*
X2572444Y-676960D02*
X2553396Y-686484D01*
X2553396Y-686484D02*
X2534348Y-686484D01*
X2534348Y-686484D02*
X2515301Y-676960D01*
X2515301Y-676960D02*
X2505777Y-667436D01*
X2505777Y-667436D02*
X2496253Y-648389D01*
X2496253Y-648389D02*
X2486729Y-610293D01*
X2486729Y-610293D02*
X2486729Y-562674D01*
X2486729Y-562674D02*
X2496253Y-524579D01*
X2496253Y-524579D02*
X2505777Y-505531D01*
X2505777Y-505531D02*
X2515301Y-496008D01*
X2515301Y-496008D02*
X2534348Y-486484D01*
X2791491Y-686484D02*
X2677206Y-686484D01*
X2734348Y-686484D02*
X2734348Y-486484D01*
X2734348Y-486484D02*
X2715301Y-515055D01*
X2715301Y-515055D02*
X2696253Y-534103D01*
X2696253Y-534103D02*
X2677206Y-543627D01*
X2886729Y-686484D02*
X2924825Y-686484D01*
X2924825Y-686484D02*
X2943872Y-676960D01*
X2943872Y-676960D02*
X2953396Y-667436D01*
X2953396Y-667436D02*
X2972444Y-638865D01*
X2972444Y-638865D02*
X2981967Y-600770D01*
X2981967Y-600770D02*
X2981967Y-524579D01*
X2981967Y-524579D02*
X2972444Y-505531D01*
X2972444Y-505531D02*
X2962920Y-496008D01*
X2962920Y-496008D02*
X2943872Y-486484D01*
X2943872Y-486484D02*
X2905777Y-486484D01*
X2905777Y-486484D02*
X2886729Y-496008D01*
X2886729Y-496008D02*
X2877206Y-505531D01*
X2877206Y-505531D02*
X2867682Y-524579D01*
X2867682Y-524579D02*
X2867682Y-572198D01*
X2867682Y-572198D02*
X2877206Y-591246D01*
X2877206Y-591246D02*
X2886729Y-600770D01*
X2886729Y-600770D02*
X2905777Y-610293D01*
X2905777Y-610293D02*
X2943872Y-610293D01*
X2943872Y-610293D02*
X2962920Y-600770D01*
X2962920Y-600770D02*
X2972444Y-591246D01*
X2972444Y-591246D02*
X2981967Y-572198D01*
X3048634Y-486484D02*
X3181967Y-486484D01*
X3181967Y-486484D02*
X3096253Y-686484D01*
X3248634Y-486484D02*
X3248634Y-524579D01*
X3324825Y-486484D02*
X3324825Y-524579D01*
X3620063Y-762674D02*
X3610539Y-753150D01*
X3610539Y-753150D02*
X3591491Y-724579D01*
X3591491Y-724579D02*
X3581968Y-705531D01*
X3581968Y-705531D02*
X3572444Y-676960D01*
X3572444Y-676960D02*
X3562920Y-629341D01*
X3562920Y-629341D02*
X3562920Y-591246D01*
X3562920Y-591246D02*
X3572444Y-543627D01*
X3572444Y-543627D02*
X3581968Y-515055D01*
X3581968Y-515055D02*
X3591491Y-496008D01*
X3591491Y-496008D02*
X3610539Y-467436D01*
X3610539Y-467436D02*
X3620063Y-457912D01*
X3677206Y-486484D02*
X3801015Y-486484D01*
X3801015Y-486484D02*
X3734348Y-562674D01*
X3734348Y-562674D02*
X3762920Y-562674D01*
X3762920Y-562674D02*
X3781968Y-572198D01*
X3781968Y-572198D02*
X3791491Y-581722D01*
X3791491Y-581722D02*
X3801015Y-600770D01*
X3801015Y-600770D02*
X3801015Y-648389D01*
X3801015Y-648389D02*
X3791491Y-667436D01*
X3791491Y-667436D02*
X3781968Y-676960D01*
X3781968Y-676960D02*
X3762920Y-686484D01*
X3762920Y-686484D02*
X3705777Y-686484D01*
X3705777Y-686484D02*
X3686729Y-676960D01*
X3686729Y-676960D02*
X3677206Y-667436D01*
X3924825Y-486484D02*
X3943872Y-486484D01*
X3943872Y-486484D02*
X3962920Y-496008D01*
X3962920Y-496008D02*
X3972444Y-505531D01*
X3972444Y-505531D02*
X3981968Y-524579D01*
X3981968Y-524579D02*
X3991491Y-562674D01*
X3991491Y-562674D02*
X3991491Y-610293D01*
X3991491Y-610293D02*
X3981968Y-648389D01*
X3981968Y-648389D02*
X3972444Y-667436D01*
X3972444Y-667436D02*
X3962920Y-676960D01*
X3962920Y-676960D02*
X3943872Y-686484D01*
X3943872Y-686484D02*
X3924825Y-686484D01*
X3924825Y-686484D02*
X3905777Y-676960D01*
X3905777Y-676960D02*
X3896253Y-667436D01*
X3896253Y-667436D02*
X3886729Y-648389D01*
X3886729Y-648389D02*
X3877206Y-610293D01*
X3877206Y-610293D02*
X3877206Y-562674D01*
X3877206Y-562674D02*
X3886729Y-524579D01*
X3886729Y-524579D02*
X3896253Y-505531D01*
X3896253Y-505531D02*
X3905777Y-496008D01*
X3905777Y-496008D02*
X3924825Y-486484D01*
X4229587Y-686484D02*
X4229587Y-486484D01*
X4315301Y-686484D02*
X4315301Y-581722D01*
X4315301Y-581722D02*
X4305777Y-562674D01*
X4305777Y-562674D02*
X4286730Y-553150D01*
X4286730Y-553150D02*
X4258158Y-553150D01*
X4258158Y-553150D02*
X4239111Y-562674D01*
X4239111Y-562674D02*
X4229587Y-572198D01*
X4439111Y-686484D02*
X4420063Y-676960D01*
X4420063Y-676960D02*
X4410539Y-667436D01*
X4410539Y-667436D02*
X4401015Y-648389D01*
X4401015Y-648389D02*
X4401015Y-591246D01*
X4401015Y-591246D02*
X4410539Y-572198D01*
X4410539Y-572198D02*
X4420063Y-562674D01*
X4420063Y-562674D02*
X4439111Y-553150D01*
X4439111Y-553150D02*
X4467682Y-553150D01*
X4467682Y-553150D02*
X4486730Y-562674D01*
X4486730Y-562674D02*
X4496253Y-572198D01*
X4496253Y-572198D02*
X4505777Y-591246D01*
X4505777Y-591246D02*
X4505777Y-648389D01*
X4505777Y-648389D02*
X4496253Y-667436D01*
X4496253Y-667436D02*
X4486730Y-676960D01*
X4486730Y-676960D02*
X4467682Y-686484D01*
X4467682Y-686484D02*
X4439111Y-686484D01*
X4620063Y-686484D02*
X4601015Y-676960D01*
X4601015Y-676960D02*
X4591492Y-657912D01*
X4591492Y-657912D02*
X4591492Y-486484D01*
X4772444Y-676960D02*
X4753396Y-686484D01*
X4753396Y-686484D02*
X4715301Y-686484D01*
X4715301Y-686484D02*
X4696253Y-676960D01*
X4696253Y-676960D02*
X4686730Y-657912D01*
X4686730Y-657912D02*
X4686730Y-581722D01*
X4686730Y-581722D02*
X4696253Y-562674D01*
X4696253Y-562674D02*
X4715301Y-553150D01*
X4715301Y-553150D02*
X4753396Y-553150D01*
X4753396Y-553150D02*
X4772444Y-562674D01*
X4772444Y-562674D02*
X4781968Y-581722D01*
X4781968Y-581722D02*
X4781968Y-600770D01*
X4781968Y-600770D02*
X4686730Y-619817D01*
X4858158Y-676960D02*
X4877206Y-686484D01*
X4877206Y-686484D02*
X4915301Y-686484D01*
X4915301Y-686484D02*
X4934349Y-676960D01*
X4934349Y-676960D02*
X4943873Y-657912D01*
X4943873Y-657912D02*
X4943873Y-648389D01*
X4943873Y-648389D02*
X4934349Y-629341D01*
X4934349Y-629341D02*
X4915301Y-619817D01*
X4915301Y-619817D02*
X4886730Y-619817D01*
X4886730Y-619817D02*
X4867682Y-610293D01*
X4867682Y-610293D02*
X4858158Y-591246D01*
X4858158Y-591246D02*
X4858158Y-581722D01*
X4858158Y-581722D02*
X4867682Y-562674D01*
X4867682Y-562674D02*
X4886730Y-553150D01*
X4886730Y-553150D02*
X4915301Y-553150D01*
X4915301Y-553150D02*
X4934349Y-562674D01*
X5010539Y-762674D02*
X5020063Y-753150D01*
X5020063Y-753150D02*
X5039111Y-724579D01*
X5039111Y-724579D02*
X5048634Y-705531D01*
X5048634Y-705531D02*
X5058158Y-676960D01*
X5058158Y-676960D02*
X5067682Y-629341D01*
X5067682Y-629341D02*
X5067682Y-591246D01*
X5067682Y-591246D02*
X5058158Y-543627D01*
X5058158Y-543627D02*
X5048634Y-515055D01*
X5048634Y-515055D02*
X5039111Y-496008D01*
X5039111Y-496008D02*
X5020063Y-467436D01*
X5020063Y-467436D02*
X5010539Y-457912D01*
D13*
X45000Y-859000D02*
G75*
G03*
X45000Y-859000I-30000J0D01*
G01*
D11*
X343872Y-750484D02*
X362920Y-750484D01*
X362920Y-750484D02*
X381967Y-760008D01*
X381967Y-760008D02*
X391491Y-769531D01*
X391491Y-769531D02*
X401015Y-788579D01*
X401015Y-788579D02*
X410539Y-826674D01*
X410539Y-826674D02*
X410539Y-874293D01*
X410539Y-874293D02*
X401015Y-912388D01*
X401015Y-912388D02*
X391491Y-931436D01*
X391491Y-931436D02*
X381967Y-940960D01*
X381967Y-940960D02*
X362920Y-950484D01*
X362920Y-950484D02*
X343872Y-950484D01*
X343872Y-950484D02*
X324824Y-940960D01*
X324824Y-940960D02*
X315301Y-931436D01*
X315301Y-931436D02*
X305777Y-912388D01*
X305777Y-912388D02*
X296253Y-874293D01*
X296253Y-874293D02*
X296253Y-826674D01*
X296253Y-826674D02*
X305777Y-788579D01*
X305777Y-788579D02*
X315301Y-769531D01*
X315301Y-769531D02*
X324824Y-760008D01*
X324824Y-760008D02*
X343872Y-750484D01*
X496253Y-931436D02*
X505777Y-940960D01*
X505777Y-940960D02*
X496253Y-950484D01*
X496253Y-950484D02*
X486729Y-940960D01*
X486729Y-940960D02*
X496253Y-931436D01*
X496253Y-931436D02*
X496253Y-950484D01*
X677205Y-750484D02*
X639110Y-750484D01*
X639110Y-750484D02*
X620063Y-760008D01*
X620063Y-760008D02*
X610539Y-769531D01*
X610539Y-769531D02*
X591491Y-798103D01*
X591491Y-798103D02*
X581967Y-836198D01*
X581967Y-836198D02*
X581967Y-912388D01*
X581967Y-912388D02*
X591491Y-931436D01*
X591491Y-931436D02*
X601015Y-940960D01*
X601015Y-940960D02*
X620063Y-950484D01*
X620063Y-950484D02*
X658158Y-950484D01*
X658158Y-950484D02*
X677205Y-940960D01*
X677205Y-940960D02*
X686729Y-931436D01*
X686729Y-931436D02*
X696253Y-912388D01*
X696253Y-912388D02*
X696253Y-864769D01*
X696253Y-864769D02*
X686729Y-845722D01*
X686729Y-845722D02*
X677205Y-836198D01*
X677205Y-836198D02*
X658158Y-826674D01*
X658158Y-826674D02*
X620063Y-826674D01*
X620063Y-826674D02*
X601015Y-836198D01*
X601015Y-836198D02*
X591491Y-845722D01*
X591491Y-845722D02*
X581967Y-864769D01*
X820062Y-750484D02*
X839110Y-750484D01*
X839110Y-750484D02*
X858158Y-760008D01*
X858158Y-760008D02*
X867682Y-769531D01*
X867682Y-769531D02*
X877205Y-788579D01*
X877205Y-788579D02*
X886729Y-826674D01*
X886729Y-826674D02*
X886729Y-874293D01*
X886729Y-874293D02*
X877205Y-912388D01*
X877205Y-912388D02*
X867682Y-931436D01*
X867682Y-931436D02*
X858158Y-940960D01*
X858158Y-940960D02*
X839110Y-950484D01*
X839110Y-950484D02*
X820062Y-950484D01*
X820062Y-950484D02*
X801015Y-940960D01*
X801015Y-940960D02*
X791491Y-931436D01*
X791491Y-931436D02*
X781967Y-912388D01*
X781967Y-912388D02*
X772443Y-874293D01*
X772443Y-874293D02*
X772443Y-826674D01*
X772443Y-826674D02*
X781967Y-788579D01*
X781967Y-788579D02*
X791491Y-769531D01*
X791491Y-769531D02*
X801015Y-760008D01*
X801015Y-760008D02*
X820062Y-750484D01*
X1010539Y-750484D02*
X1029586Y-750484D01*
X1029586Y-750484D02*
X1048634Y-760008D01*
X1048634Y-760008D02*
X1058158Y-769531D01*
X1058158Y-769531D02*
X1067682Y-788579D01*
X1067682Y-788579D02*
X1077205Y-826674D01*
X1077205Y-826674D02*
X1077205Y-874293D01*
X1077205Y-874293D02*
X1067682Y-912388D01*
X1067682Y-912388D02*
X1058158Y-931436D01*
X1058158Y-931436D02*
X1048634Y-940960D01*
X1048634Y-940960D02*
X1029586Y-950484D01*
X1029586Y-950484D02*
X1010539Y-950484D01*
X1010539Y-950484D02*
X991491Y-940960D01*
X991491Y-940960D02*
X981967Y-931436D01*
X981967Y-931436D02*
X972443Y-912388D01*
X972443Y-912388D02*
X962920Y-874293D01*
X962920Y-874293D02*
X962920Y-826674D01*
X962920Y-826674D02*
X972443Y-788579D01*
X972443Y-788579D02*
X981967Y-769531D01*
X981967Y-769531D02*
X991491Y-760008D01*
X991491Y-760008D02*
X1010539Y-750484D01*
X1162920Y-950484D02*
X1162920Y-817150D01*
X1162920Y-836198D02*
X1172444Y-826674D01*
X1172444Y-826674D02*
X1191491Y-817150D01*
X1191491Y-817150D02*
X1220063Y-817150D01*
X1220063Y-817150D02*
X1239110Y-826674D01*
X1239110Y-826674D02*
X1248634Y-845722D01*
X1248634Y-845722D02*
X1248634Y-950484D01*
X1248634Y-845722D02*
X1258158Y-826674D01*
X1258158Y-826674D02*
X1277205Y-817150D01*
X1277205Y-817150D02*
X1305777Y-817150D01*
X1305777Y-817150D02*
X1324825Y-826674D01*
X1324825Y-826674D02*
X1334348Y-845722D01*
X1334348Y-845722D02*
X1334348Y-950484D01*
X1429586Y-950484D02*
X1429586Y-817150D01*
X1429586Y-836198D02*
X1439110Y-826674D01*
X1439110Y-826674D02*
X1458158Y-817150D01*
X1458158Y-817150D02*
X1486729Y-817150D01*
X1486729Y-817150D02*
X1505777Y-826674D01*
X1505777Y-826674D02*
X1515301Y-845722D01*
X1515301Y-845722D02*
X1515301Y-950484D01*
X1515301Y-845722D02*
X1524824Y-826674D01*
X1524824Y-826674D02*
X1543872Y-817150D01*
X1543872Y-817150D02*
X1572443Y-817150D01*
X1572443Y-817150D02*
X1591491Y-826674D01*
X1591491Y-826674D02*
X1601015Y-845722D01*
X1601015Y-845722D02*
X1601015Y-950484D01*
X1991491Y-740960D02*
X1820063Y-998103D01*
X2248634Y-750484D02*
X2267682Y-750484D01*
X2267682Y-750484D02*
X2286729Y-760008D01*
X2286729Y-760008D02*
X2296253Y-769531D01*
X2296253Y-769531D02*
X2305777Y-788579D01*
X2305777Y-788579D02*
X2315301Y-826674D01*
X2315301Y-826674D02*
X2315301Y-874293D01*
X2315301Y-874293D02*
X2305777Y-912388D01*
X2305777Y-912388D02*
X2296253Y-931436D01*
X2296253Y-931436D02*
X2286729Y-940960D01*
X2286729Y-940960D02*
X2267682Y-950484D01*
X2267682Y-950484D02*
X2248634Y-950484D01*
X2248634Y-950484D02*
X2229587Y-940960D01*
X2229587Y-940960D02*
X2220063Y-931436D01*
X2220063Y-931436D02*
X2210539Y-912388D01*
X2210539Y-912388D02*
X2201015Y-874293D01*
X2201015Y-874293D02*
X2201015Y-826674D01*
X2201015Y-826674D02*
X2210539Y-788579D01*
X2210539Y-788579D02*
X2220063Y-769531D01*
X2220063Y-769531D02*
X2229587Y-760008D01*
X2229587Y-760008D02*
X2248634Y-750484D01*
X2401015Y-931436D02*
X2410539Y-940960D01*
X2410539Y-940960D02*
X2401015Y-950484D01*
X2401015Y-950484D02*
X2391491Y-940960D01*
X2391491Y-940960D02*
X2401015Y-931436D01*
X2401015Y-931436D02*
X2401015Y-950484D01*
X2534348Y-750484D02*
X2553396Y-750484D01*
X2553396Y-750484D02*
X2572444Y-760008D01*
X2572444Y-760008D02*
X2581968Y-769531D01*
X2581968Y-769531D02*
X2591491Y-788579D01*
X2591491Y-788579D02*
X2601015Y-826674D01*
X2601015Y-826674D02*
X2601015Y-874293D01*
X2601015Y-874293D02*
X2591491Y-912388D01*
X2591491Y-912388D02*
X2581968Y-931436D01*
X2581968Y-931436D02*
X2572444Y-940960D01*
X2572444Y-940960D02*
X2553396Y-950484D01*
X2553396Y-950484D02*
X2534348Y-950484D01*
X2534348Y-950484D02*
X2515301Y-940960D01*
X2515301Y-940960D02*
X2505777Y-931436D01*
X2505777Y-931436D02*
X2496253Y-912388D01*
X2496253Y-912388D02*
X2486729Y-874293D01*
X2486729Y-874293D02*
X2486729Y-826674D01*
X2486729Y-826674D02*
X2496253Y-788579D01*
X2496253Y-788579D02*
X2505777Y-769531D01*
X2505777Y-769531D02*
X2515301Y-760008D01*
X2515301Y-760008D02*
X2534348Y-750484D01*
X2677206Y-769531D02*
X2686729Y-760008D01*
X2686729Y-760008D02*
X2705777Y-750484D01*
X2705777Y-750484D02*
X2753396Y-750484D01*
X2753396Y-750484D02*
X2772444Y-760008D01*
X2772444Y-760008D02*
X2781968Y-769531D01*
X2781968Y-769531D02*
X2791491Y-788579D01*
X2791491Y-788579D02*
X2791491Y-807627D01*
X2791491Y-807627D02*
X2781968Y-836198D01*
X2781968Y-836198D02*
X2667682Y-950484D01*
X2667682Y-950484D02*
X2791491Y-950484D01*
X2858158Y-750484D02*
X2981967Y-750484D01*
X2981967Y-750484D02*
X2915301Y-826674D01*
X2915301Y-826674D02*
X2943872Y-826674D01*
X2943872Y-826674D02*
X2962920Y-836198D01*
X2962920Y-836198D02*
X2972444Y-845722D01*
X2972444Y-845722D02*
X2981967Y-864769D01*
X2981967Y-864769D02*
X2981967Y-912388D01*
X2981967Y-912388D02*
X2972444Y-931436D01*
X2972444Y-931436D02*
X2962920Y-940960D01*
X2962920Y-940960D02*
X2943872Y-950484D01*
X2943872Y-950484D02*
X2886729Y-950484D01*
X2886729Y-950484D02*
X2867682Y-940960D01*
X2867682Y-940960D02*
X2858158Y-931436D01*
X3153396Y-750484D02*
X3115301Y-750484D01*
X3115301Y-750484D02*
X3096253Y-760008D01*
X3096253Y-760008D02*
X3086729Y-769531D01*
X3086729Y-769531D02*
X3067682Y-798103D01*
X3067682Y-798103D02*
X3058158Y-836198D01*
X3058158Y-836198D02*
X3058158Y-912388D01*
X3058158Y-912388D02*
X3067682Y-931436D01*
X3067682Y-931436D02*
X3077206Y-940960D01*
X3077206Y-940960D02*
X3096253Y-950484D01*
X3096253Y-950484D02*
X3134348Y-950484D01*
X3134348Y-950484D02*
X3153396Y-940960D01*
X3153396Y-940960D02*
X3162920Y-931436D01*
X3162920Y-931436D02*
X3172444Y-912388D01*
X3172444Y-912388D02*
X3172444Y-864769D01*
X3172444Y-864769D02*
X3162920Y-845722D01*
X3162920Y-845722D02*
X3153396Y-836198D01*
X3153396Y-836198D02*
X3134348Y-826674D01*
X3134348Y-826674D02*
X3096253Y-826674D01*
X3096253Y-826674D02*
X3077206Y-836198D01*
X3077206Y-836198D02*
X3067682Y-845722D01*
X3067682Y-845722D02*
X3058158Y-864769D01*
X3248634Y-750484D02*
X3248634Y-788579D01*
X3324825Y-750484D02*
X3324825Y-788579D01*
X3620063Y-1026674D02*
X3610539Y-1017150D01*
X3610539Y-1017150D02*
X3591491Y-988579D01*
X3591491Y-988579D02*
X3581968Y-969531D01*
X3581968Y-969531D02*
X3572444Y-940960D01*
X3572444Y-940960D02*
X3562920Y-893341D01*
X3562920Y-893341D02*
X3562920Y-855246D01*
X3562920Y-855246D02*
X3572444Y-807627D01*
X3572444Y-807627D02*
X3581968Y-779055D01*
X3581968Y-779055D02*
X3591491Y-760008D01*
X3591491Y-760008D02*
X3610539Y-731436D01*
X3610539Y-731436D02*
X3620063Y-721912D01*
X3801015Y-950484D02*
X3686729Y-950484D01*
X3743872Y-950484D02*
X3743872Y-750484D01*
X3743872Y-750484D02*
X3724825Y-779055D01*
X3724825Y-779055D02*
X3705777Y-798103D01*
X3705777Y-798103D02*
X3686729Y-807627D01*
X3924825Y-750484D02*
X3943872Y-750484D01*
X3943872Y-750484D02*
X3962920Y-760008D01*
X3962920Y-760008D02*
X3972444Y-769531D01*
X3972444Y-769531D02*
X3981968Y-788579D01*
X3981968Y-788579D02*
X3991491Y-826674D01*
X3991491Y-826674D02*
X3991491Y-874293D01*
X3991491Y-874293D02*
X3981968Y-912388D01*
X3981968Y-912388D02*
X3972444Y-931436D01*
X3972444Y-931436D02*
X3962920Y-940960D01*
X3962920Y-940960D02*
X3943872Y-950484D01*
X3943872Y-950484D02*
X3924825Y-950484D01*
X3924825Y-950484D02*
X3905777Y-940960D01*
X3905777Y-940960D02*
X3896253Y-931436D01*
X3896253Y-931436D02*
X3886729Y-912388D01*
X3886729Y-912388D02*
X3877206Y-874293D01*
X3877206Y-874293D02*
X3877206Y-826674D01*
X3877206Y-826674D02*
X3886729Y-788579D01*
X3886729Y-788579D02*
X3896253Y-769531D01*
X3896253Y-769531D02*
X3905777Y-760008D01*
X3905777Y-760008D02*
X3924825Y-750484D01*
X4229587Y-950484D02*
X4229587Y-750484D01*
X4315301Y-950484D02*
X4315301Y-845722D01*
X4315301Y-845722D02*
X4305777Y-826674D01*
X4305777Y-826674D02*
X4286730Y-817150D01*
X4286730Y-817150D02*
X4258158Y-817150D01*
X4258158Y-817150D02*
X4239111Y-826674D01*
X4239111Y-826674D02*
X4229587Y-836198D01*
X4439111Y-950484D02*
X4420063Y-940960D01*
X4420063Y-940960D02*
X4410539Y-931436D01*
X4410539Y-931436D02*
X4401015Y-912388D01*
X4401015Y-912388D02*
X4401015Y-855246D01*
X4401015Y-855246D02*
X4410539Y-836198D01*
X4410539Y-836198D02*
X4420063Y-826674D01*
X4420063Y-826674D02*
X4439111Y-817150D01*
X4439111Y-817150D02*
X4467682Y-817150D01*
X4467682Y-817150D02*
X4486730Y-826674D01*
X4486730Y-826674D02*
X4496253Y-836198D01*
X4496253Y-836198D02*
X4505777Y-855246D01*
X4505777Y-855246D02*
X4505777Y-912388D01*
X4505777Y-912388D02*
X4496253Y-931436D01*
X4496253Y-931436D02*
X4486730Y-940960D01*
X4486730Y-940960D02*
X4467682Y-950484D01*
X4467682Y-950484D02*
X4439111Y-950484D01*
X4620063Y-950484D02*
X4601015Y-940960D01*
X4601015Y-940960D02*
X4591492Y-921912D01*
X4591492Y-921912D02*
X4591492Y-750484D01*
X4772444Y-940960D02*
X4753396Y-950484D01*
X4753396Y-950484D02*
X4715301Y-950484D01*
X4715301Y-950484D02*
X4696253Y-940960D01*
X4696253Y-940960D02*
X4686730Y-921912D01*
X4686730Y-921912D02*
X4686730Y-845722D01*
X4686730Y-845722D02*
X4696253Y-826674D01*
X4696253Y-826674D02*
X4715301Y-817150D01*
X4715301Y-817150D02*
X4753396Y-817150D01*
X4753396Y-817150D02*
X4772444Y-826674D01*
X4772444Y-826674D02*
X4781968Y-845722D01*
X4781968Y-845722D02*
X4781968Y-864769D01*
X4781968Y-864769D02*
X4686730Y-883817D01*
X4858158Y-940960D02*
X4877206Y-950484D01*
X4877206Y-950484D02*
X4915301Y-950484D01*
X4915301Y-950484D02*
X4934349Y-940960D01*
X4934349Y-940960D02*
X4943873Y-921912D01*
X4943873Y-921912D02*
X4943873Y-912388D01*
X4943873Y-912388D02*
X4934349Y-893341D01*
X4934349Y-893341D02*
X4915301Y-883817D01*
X4915301Y-883817D02*
X4886730Y-883817D01*
X4886730Y-883817D02*
X4867682Y-874293D01*
X4867682Y-874293D02*
X4858158Y-855246D01*
X4858158Y-855246D02*
X4858158Y-845722D01*
X4858158Y-845722D02*
X4867682Y-826674D01*
X4867682Y-826674D02*
X4886730Y-817150D01*
X4886730Y-817150D02*
X4915301Y-817150D01*
X4915301Y-817150D02*
X4934349Y-826674D01*
X5010539Y-1026674D02*
X5020063Y-1017150D01*
X5020063Y-1017150D02*
X5039111Y-988579D01*
X5039111Y-988579D02*
X5048634Y-969531D01*
X5048634Y-969531D02*
X5058158Y-940960D01*
X5058158Y-940960D02*
X5067682Y-893341D01*
X5067682Y-893341D02*
X5067682Y-855246D01*
X5067682Y-855246D02*
X5058158Y-807627D01*
X5058158Y-807627D02*
X5048634Y-779055D01*
X5048634Y-779055D02*
X5039111Y-760008D01*
X5039111Y-760008D02*
X5020063Y-731436D01*
X5020063Y-731436D02*
X5010539Y-721912D01*
D14*
X7500Y-1085500D02*
X7500Y-1160500D01*
X-30000Y-1123000D02*
X45000Y-1123000D01*
D11*
X343872Y-1014484D02*
X362920Y-1014484D01*
X362920Y-1014484D02*
X381967Y-1024008D01*
X381967Y-1024008D02*
X391491Y-1033531D01*
X391491Y-1033531D02*
X401015Y-1052579D01*
X401015Y-1052579D02*
X410539Y-1090674D01*
X410539Y-1090674D02*
X410539Y-1138293D01*
X410539Y-1138293D02*
X401015Y-1176389D01*
X401015Y-1176389D02*
X391491Y-1195436D01*
X391491Y-1195436D02*
X381967Y-1204960D01*
X381967Y-1204960D02*
X362920Y-1214484D01*
X362920Y-1214484D02*
X343872Y-1214484D01*
X343872Y-1214484D02*
X324824Y-1204960D01*
X324824Y-1204960D02*
X315301Y-1195436D01*
X315301Y-1195436D02*
X305777Y-1176389D01*
X305777Y-1176389D02*
X296253Y-1138293D01*
X296253Y-1138293D02*
X296253Y-1090674D01*
X296253Y-1090674D02*
X305777Y-1052579D01*
X305777Y-1052579D02*
X315301Y-1033531D01*
X315301Y-1033531D02*
X324824Y-1024008D01*
X324824Y-1024008D02*
X343872Y-1014484D01*
X496253Y-1195436D02*
X505777Y-1204960D01*
X505777Y-1204960D02*
X496253Y-1214484D01*
X496253Y-1214484D02*
X486729Y-1204960D01*
X486729Y-1204960D02*
X496253Y-1195436D01*
X496253Y-1195436D02*
X496253Y-1214484D01*
X572444Y-1014484D02*
X705777Y-1014484D01*
X705777Y-1014484D02*
X620063Y-1214484D01*
X877205Y-1014484D02*
X781967Y-1014484D01*
X781967Y-1014484D02*
X772443Y-1109722D01*
X772443Y-1109722D02*
X781967Y-1100198D01*
X781967Y-1100198D02*
X801015Y-1090674D01*
X801015Y-1090674D02*
X848634Y-1090674D01*
X848634Y-1090674D02*
X867682Y-1100198D01*
X867682Y-1100198D02*
X877205Y-1109722D01*
X877205Y-1109722D02*
X886729Y-1128770D01*
X886729Y-1128770D02*
X886729Y-1176389D01*
X886729Y-1176389D02*
X877205Y-1195436D01*
X877205Y-1195436D02*
X867682Y-1204960D01*
X867682Y-1204960D02*
X848634Y-1214484D01*
X848634Y-1214484D02*
X801015Y-1214484D01*
X801015Y-1214484D02*
X781967Y-1204960D01*
X781967Y-1204960D02*
X772443Y-1195436D01*
X1010539Y-1014484D02*
X1029586Y-1014484D01*
X1029586Y-1014484D02*
X1048634Y-1024008D01*
X1048634Y-1024008D02*
X1058158Y-1033531D01*
X1058158Y-1033531D02*
X1067682Y-1052579D01*
X1067682Y-1052579D02*
X1077205Y-1090674D01*
X1077205Y-1090674D02*
X1077205Y-1138293D01*
X1077205Y-1138293D02*
X1067682Y-1176389D01*
X1067682Y-1176389D02*
X1058158Y-1195436D01*
X1058158Y-1195436D02*
X1048634Y-1204960D01*
X1048634Y-1204960D02*
X1029586Y-1214484D01*
X1029586Y-1214484D02*
X1010539Y-1214484D01*
X1010539Y-1214484D02*
X991491Y-1204960D01*
X991491Y-1204960D02*
X981967Y-1195436D01*
X981967Y-1195436D02*
X972443Y-1176389D01*
X972443Y-1176389D02*
X962920Y-1138293D01*
X962920Y-1138293D02*
X962920Y-1090674D01*
X962920Y-1090674D02*
X972443Y-1052579D01*
X972443Y-1052579D02*
X981967Y-1033531D01*
X981967Y-1033531D02*
X991491Y-1024008D01*
X991491Y-1024008D02*
X1010539Y-1014484D01*
X1162920Y-1214484D02*
X1162920Y-1081150D01*
X1162920Y-1100198D02*
X1172444Y-1090674D01*
X1172444Y-1090674D02*
X1191491Y-1081150D01*
X1191491Y-1081150D02*
X1220063Y-1081150D01*
X1220063Y-1081150D02*
X1239110Y-1090674D01*
X1239110Y-1090674D02*
X1248634Y-1109722D01*
X1248634Y-1109722D02*
X1248634Y-1214484D01*
X1248634Y-1109722D02*
X1258158Y-1090674D01*
X1258158Y-1090674D02*
X1277205Y-1081150D01*
X1277205Y-1081150D02*
X1305777Y-1081150D01*
X1305777Y-1081150D02*
X1324825Y-1090674D01*
X1324825Y-1090674D02*
X1334348Y-1109722D01*
X1334348Y-1109722D02*
X1334348Y-1214484D01*
X1429586Y-1214484D02*
X1429586Y-1081150D01*
X1429586Y-1100198D02*
X1439110Y-1090674D01*
X1439110Y-1090674D02*
X1458158Y-1081150D01*
X1458158Y-1081150D02*
X1486729Y-1081150D01*
X1486729Y-1081150D02*
X1505777Y-1090674D01*
X1505777Y-1090674D02*
X1515301Y-1109722D01*
X1515301Y-1109722D02*
X1515301Y-1214484D01*
X1515301Y-1109722D02*
X1524824Y-1090674D01*
X1524824Y-1090674D02*
X1543872Y-1081150D01*
X1543872Y-1081150D02*
X1572443Y-1081150D01*
X1572443Y-1081150D02*
X1591491Y-1090674D01*
X1591491Y-1090674D02*
X1601015Y-1109722D01*
X1601015Y-1109722D02*
X1601015Y-1214484D01*
X1991491Y-1004960D02*
X1820063Y-1262103D01*
X2248634Y-1014484D02*
X2267682Y-1014484D01*
X2267682Y-1014484D02*
X2286729Y-1024008D01*
X2286729Y-1024008D02*
X2296253Y-1033531D01*
X2296253Y-1033531D02*
X2305777Y-1052579D01*
X2305777Y-1052579D02*
X2315301Y-1090674D01*
X2315301Y-1090674D02*
X2315301Y-1138293D01*
X2315301Y-1138293D02*
X2305777Y-1176389D01*
X2305777Y-1176389D02*
X2296253Y-1195436D01*
X2296253Y-1195436D02*
X2286729Y-1204960D01*
X2286729Y-1204960D02*
X2267682Y-1214484D01*
X2267682Y-1214484D02*
X2248634Y-1214484D01*
X2248634Y-1214484D02*
X2229587Y-1204960D01*
X2229587Y-1204960D02*
X2220063Y-1195436D01*
X2220063Y-1195436D02*
X2210539Y-1176389D01*
X2210539Y-1176389D02*
X2201015Y-1138293D01*
X2201015Y-1138293D02*
X2201015Y-1090674D01*
X2201015Y-1090674D02*
X2210539Y-1052579D01*
X2210539Y-1052579D02*
X2220063Y-1033531D01*
X2220063Y-1033531D02*
X2229587Y-1024008D01*
X2229587Y-1024008D02*
X2248634Y-1014484D01*
X2401015Y-1195436D02*
X2410539Y-1204960D01*
X2410539Y-1204960D02*
X2401015Y-1214484D01*
X2401015Y-1214484D02*
X2391491Y-1204960D01*
X2391491Y-1204960D02*
X2401015Y-1195436D01*
X2401015Y-1195436D02*
X2401015Y-1214484D01*
X2534348Y-1014484D02*
X2553396Y-1014484D01*
X2553396Y-1014484D02*
X2572444Y-1024008D01*
X2572444Y-1024008D02*
X2581968Y-1033531D01*
X2581968Y-1033531D02*
X2591491Y-1052579D01*
X2591491Y-1052579D02*
X2601015Y-1090674D01*
X2601015Y-1090674D02*
X2601015Y-1138293D01*
X2601015Y-1138293D02*
X2591491Y-1176389D01*
X2591491Y-1176389D02*
X2581968Y-1195436D01*
X2581968Y-1195436D02*
X2572444Y-1204960D01*
X2572444Y-1204960D02*
X2553396Y-1214484D01*
X2553396Y-1214484D02*
X2534348Y-1214484D01*
X2534348Y-1214484D02*
X2515301Y-1204960D01*
X2515301Y-1204960D02*
X2505777Y-1195436D01*
X2505777Y-1195436D02*
X2496253Y-1176389D01*
X2496253Y-1176389D02*
X2486729Y-1138293D01*
X2486729Y-1138293D02*
X2486729Y-1090674D01*
X2486729Y-1090674D02*
X2496253Y-1052579D01*
X2496253Y-1052579D02*
X2505777Y-1033531D01*
X2505777Y-1033531D02*
X2515301Y-1024008D01*
X2515301Y-1024008D02*
X2534348Y-1014484D01*
X2677206Y-1033531D02*
X2686729Y-1024008D01*
X2686729Y-1024008D02*
X2705777Y-1014484D01*
X2705777Y-1014484D02*
X2753396Y-1014484D01*
X2753396Y-1014484D02*
X2772444Y-1024008D01*
X2772444Y-1024008D02*
X2781968Y-1033531D01*
X2781968Y-1033531D02*
X2791491Y-1052579D01*
X2791491Y-1052579D02*
X2791491Y-1071627D01*
X2791491Y-1071627D02*
X2781968Y-1100198D01*
X2781968Y-1100198D02*
X2667682Y-1214484D01*
X2667682Y-1214484D02*
X2791491Y-1214484D01*
X2886729Y-1214484D02*
X2924825Y-1214484D01*
X2924825Y-1214484D02*
X2943872Y-1204960D01*
X2943872Y-1204960D02*
X2953396Y-1195436D01*
X2953396Y-1195436D02*
X2972444Y-1166865D01*
X2972444Y-1166865D02*
X2981967Y-1128770D01*
X2981967Y-1128770D02*
X2981967Y-1052579D01*
X2981967Y-1052579D02*
X2972444Y-1033531D01*
X2972444Y-1033531D02*
X2962920Y-1024008D01*
X2962920Y-1024008D02*
X2943872Y-1014484D01*
X2943872Y-1014484D02*
X2905777Y-1014484D01*
X2905777Y-1014484D02*
X2886729Y-1024008D01*
X2886729Y-1024008D02*
X2877206Y-1033531D01*
X2877206Y-1033531D02*
X2867682Y-1052579D01*
X2867682Y-1052579D02*
X2867682Y-1100198D01*
X2867682Y-1100198D02*
X2877206Y-1119246D01*
X2877206Y-1119246D02*
X2886729Y-1128770D01*
X2886729Y-1128770D02*
X2905777Y-1138293D01*
X2905777Y-1138293D02*
X2943872Y-1138293D01*
X2943872Y-1138293D02*
X2962920Y-1128770D01*
X2962920Y-1128770D02*
X2972444Y-1119246D01*
X2972444Y-1119246D02*
X2981967Y-1100198D01*
X3162920Y-1014484D02*
X3067682Y-1014484D01*
X3067682Y-1014484D02*
X3058158Y-1109722D01*
X3058158Y-1109722D02*
X3067682Y-1100198D01*
X3067682Y-1100198D02*
X3086729Y-1090674D01*
X3086729Y-1090674D02*
X3134348Y-1090674D01*
X3134348Y-1090674D02*
X3153396Y-1100198D01*
X3153396Y-1100198D02*
X3162920Y-1109722D01*
X3162920Y-1109722D02*
X3172444Y-1128770D01*
X3172444Y-1128770D02*
X3172444Y-1176389D01*
X3172444Y-1176389D02*
X3162920Y-1195436D01*
X3162920Y-1195436D02*
X3153396Y-1204960D01*
X3153396Y-1204960D02*
X3134348Y-1214484D01*
X3134348Y-1214484D02*
X3086729Y-1214484D01*
X3086729Y-1214484D02*
X3067682Y-1204960D01*
X3067682Y-1204960D02*
X3058158Y-1195436D01*
X3248634Y-1014484D02*
X3248634Y-1052579D01*
X3324825Y-1014484D02*
X3324825Y-1052579D01*
X3620063Y-1290674D02*
X3610539Y-1281150D01*
X3610539Y-1281150D02*
X3591491Y-1252579D01*
X3591491Y-1252579D02*
X3581968Y-1233531D01*
X3581968Y-1233531D02*
X3572444Y-1204960D01*
X3572444Y-1204960D02*
X3562920Y-1157341D01*
X3562920Y-1157341D02*
X3562920Y-1119246D01*
X3562920Y-1119246D02*
X3572444Y-1071627D01*
X3572444Y-1071627D02*
X3581968Y-1043055D01*
X3581968Y-1043055D02*
X3591491Y-1024008D01*
X3591491Y-1024008D02*
X3610539Y-995436D01*
X3610539Y-995436D02*
X3620063Y-985912D01*
X3677206Y-1014484D02*
X3801015Y-1014484D01*
X3801015Y-1014484D02*
X3734348Y-1090674D01*
X3734348Y-1090674D02*
X3762920Y-1090674D01*
X3762920Y-1090674D02*
X3781968Y-1100198D01*
X3781968Y-1100198D02*
X3791491Y-1109722D01*
X3791491Y-1109722D02*
X3801015Y-1128770D01*
X3801015Y-1128770D02*
X3801015Y-1176389D01*
X3801015Y-1176389D02*
X3791491Y-1195436D01*
X3791491Y-1195436D02*
X3781968Y-1204960D01*
X3781968Y-1204960D02*
X3762920Y-1214484D01*
X3762920Y-1214484D02*
X3705777Y-1214484D01*
X3705777Y-1214484D02*
X3686729Y-1204960D01*
X3686729Y-1204960D02*
X3677206Y-1195436D01*
X3924825Y-1014484D02*
X3943872Y-1014484D01*
X3943872Y-1014484D02*
X3962920Y-1024008D01*
X3962920Y-1024008D02*
X3972444Y-1033531D01*
X3972444Y-1033531D02*
X3981968Y-1052579D01*
X3981968Y-1052579D02*
X3991491Y-1090674D01*
X3991491Y-1090674D02*
X3991491Y-1138293D01*
X3991491Y-1138293D02*
X3981968Y-1176389D01*
X3981968Y-1176389D02*
X3972444Y-1195436D01*
X3972444Y-1195436D02*
X3962920Y-1204960D01*
X3962920Y-1204960D02*
X3943872Y-1214484D01*
X3943872Y-1214484D02*
X3924825Y-1214484D01*
X3924825Y-1214484D02*
X3905777Y-1204960D01*
X3905777Y-1204960D02*
X3896253Y-1195436D01*
X3896253Y-1195436D02*
X3886729Y-1176389D01*
X3886729Y-1176389D02*
X3877206Y-1138293D01*
X3877206Y-1138293D02*
X3877206Y-1090674D01*
X3877206Y-1090674D02*
X3886729Y-1052579D01*
X3886729Y-1052579D02*
X3896253Y-1033531D01*
X3896253Y-1033531D02*
X3905777Y-1024008D01*
X3905777Y-1024008D02*
X3924825Y-1014484D01*
X4229587Y-1214484D02*
X4229587Y-1014484D01*
X4315301Y-1214484D02*
X4315301Y-1109722D01*
X4315301Y-1109722D02*
X4305777Y-1090674D01*
X4305777Y-1090674D02*
X4286730Y-1081150D01*
X4286730Y-1081150D02*
X4258158Y-1081150D01*
X4258158Y-1081150D02*
X4239111Y-1090674D01*
X4239111Y-1090674D02*
X4229587Y-1100198D01*
X4439111Y-1214484D02*
X4420063Y-1204960D01*
X4420063Y-1204960D02*
X4410539Y-1195436D01*
X4410539Y-1195436D02*
X4401015Y-1176389D01*
X4401015Y-1176389D02*
X4401015Y-1119246D01*
X4401015Y-1119246D02*
X4410539Y-1100198D01*
X4410539Y-1100198D02*
X4420063Y-1090674D01*
X4420063Y-1090674D02*
X4439111Y-1081150D01*
X4439111Y-1081150D02*
X4467682Y-1081150D01*
X4467682Y-1081150D02*
X4486730Y-1090674D01*
X4486730Y-1090674D02*
X4496253Y-1100198D01*
X4496253Y-1100198D02*
X4505777Y-1119246D01*
X4505777Y-1119246D02*
X4505777Y-1176389D01*
X4505777Y-1176389D02*
X4496253Y-1195436D01*
X4496253Y-1195436D02*
X4486730Y-1204960D01*
X4486730Y-1204960D02*
X4467682Y-1214484D01*
X4467682Y-1214484D02*
X4439111Y-1214484D01*
X4620063Y-1214484D02*
X4601015Y-1204960D01*
X4601015Y-1204960D02*
X4591492Y-1185912D01*
X4591492Y-1185912D02*
X4591492Y-1014484D01*
X4772444Y-1204960D02*
X4753396Y-1214484D01*
X4753396Y-1214484D02*
X4715301Y-1214484D01*
X4715301Y-1214484D02*
X4696253Y-1204960D01*
X4696253Y-1204960D02*
X4686730Y-1185912D01*
X4686730Y-1185912D02*
X4686730Y-1109722D01*
X4686730Y-1109722D02*
X4696253Y-1090674D01*
X4696253Y-1090674D02*
X4715301Y-1081150D01*
X4715301Y-1081150D02*
X4753396Y-1081150D01*
X4753396Y-1081150D02*
X4772444Y-1090674D01*
X4772444Y-1090674D02*
X4781968Y-1109722D01*
X4781968Y-1109722D02*
X4781968Y-1128770D01*
X4781968Y-1128770D02*
X4686730Y-1147817D01*
X4858158Y-1204960D02*
X4877206Y-1214484D01*
X4877206Y-1214484D02*
X4915301Y-1214484D01*
X4915301Y-1214484D02*
X4934349Y-1204960D01*
X4934349Y-1204960D02*
X4943873Y-1185912D01*
X4943873Y-1185912D02*
X4943873Y-1176389D01*
X4943873Y-1176389D02*
X4934349Y-1157341D01*
X4934349Y-1157341D02*
X4915301Y-1147817D01*
X4915301Y-1147817D02*
X4886730Y-1147817D01*
X4886730Y-1147817D02*
X4867682Y-1138293D01*
X4867682Y-1138293D02*
X4858158Y-1119246D01*
X4858158Y-1119246D02*
X4858158Y-1109722D01*
X4858158Y-1109722D02*
X4867682Y-1090674D01*
X4867682Y-1090674D02*
X4886730Y-1081150D01*
X4886730Y-1081150D02*
X4915301Y-1081150D01*
X4915301Y-1081150D02*
X4934349Y-1090674D01*
X5010539Y-1290674D02*
X5020063Y-1281150D01*
X5020063Y-1281150D02*
X5039111Y-1252579D01*
X5039111Y-1252579D02*
X5048634Y-1233531D01*
X5048634Y-1233531D02*
X5058158Y-1204960D01*
X5058158Y-1204960D02*
X5067682Y-1157341D01*
X5067682Y-1157341D02*
X5067682Y-1119246D01*
X5067682Y-1119246D02*
X5058158Y-1071627D01*
X5058158Y-1071627D02*
X5048634Y-1043055D01*
X5048634Y-1043055D02*
X5039111Y-1024008D01*
X5039111Y-1024008D02*
X5020063Y-995436D01*
X5020063Y-995436D02*
X5010539Y-985912D01*
D15*
X33285Y-1415284D02*
X33285Y-1358716D01*
X-23284Y-1358716D01*
X-23284Y-1415284D01*
X33285Y-1415284D01*
D11*
X343872Y-1278484D02*
X362920Y-1278484D01*
X362920Y-1278484D02*
X381967Y-1288008D01*
X381967Y-1288008D02*
X391491Y-1297531D01*
X391491Y-1297531D02*
X401015Y-1316579D01*
X401015Y-1316579D02*
X410539Y-1354674D01*
X410539Y-1354674D02*
X410539Y-1402293D01*
X410539Y-1402293D02*
X401015Y-1440388D01*
X401015Y-1440388D02*
X391491Y-1459436D01*
X391491Y-1459436D02*
X381967Y-1468960D01*
X381967Y-1468960D02*
X362920Y-1478484D01*
X362920Y-1478484D02*
X343872Y-1478484D01*
X343872Y-1478484D02*
X324824Y-1468960D01*
X324824Y-1468960D02*
X315301Y-1459436D01*
X315301Y-1459436D02*
X305777Y-1440388D01*
X305777Y-1440388D02*
X296253Y-1402293D01*
X296253Y-1402293D02*
X296253Y-1354674D01*
X296253Y-1354674D02*
X305777Y-1316579D01*
X305777Y-1316579D02*
X315301Y-1297531D01*
X315301Y-1297531D02*
X324824Y-1288008D01*
X324824Y-1288008D02*
X343872Y-1278484D01*
X496253Y-1459436D02*
X505777Y-1468960D01*
X505777Y-1468960D02*
X496253Y-1478484D01*
X496253Y-1478484D02*
X486729Y-1468960D01*
X486729Y-1468960D02*
X496253Y-1459436D01*
X496253Y-1459436D02*
X496253Y-1478484D01*
X620063Y-1364198D02*
X601015Y-1354674D01*
X601015Y-1354674D02*
X591491Y-1345150D01*
X591491Y-1345150D02*
X581967Y-1326103D01*
X581967Y-1326103D02*
X581967Y-1316579D01*
X581967Y-1316579D02*
X591491Y-1297531D01*
X591491Y-1297531D02*
X601015Y-1288008D01*
X601015Y-1288008D02*
X620063Y-1278484D01*
X620063Y-1278484D02*
X658158Y-1278484D01*
X658158Y-1278484D02*
X677205Y-1288008D01*
X677205Y-1288008D02*
X686729Y-1297531D01*
X686729Y-1297531D02*
X696253Y-1316579D01*
X696253Y-1316579D02*
X696253Y-1326103D01*
X696253Y-1326103D02*
X686729Y-1345150D01*
X686729Y-1345150D02*
X677205Y-1354674D01*
X677205Y-1354674D02*
X658158Y-1364198D01*
X658158Y-1364198D02*
X620063Y-1364198D01*
X620063Y-1364198D02*
X601015Y-1373722D01*
X601015Y-1373722D02*
X591491Y-1383246D01*
X591491Y-1383246D02*
X581967Y-1402293D01*
X581967Y-1402293D02*
X581967Y-1440388D01*
X581967Y-1440388D02*
X591491Y-1459436D01*
X591491Y-1459436D02*
X601015Y-1468960D01*
X601015Y-1468960D02*
X620063Y-1478484D01*
X620063Y-1478484D02*
X658158Y-1478484D01*
X658158Y-1478484D02*
X677205Y-1468960D01*
X677205Y-1468960D02*
X686729Y-1459436D01*
X686729Y-1459436D02*
X696253Y-1440388D01*
X696253Y-1440388D02*
X696253Y-1402293D01*
X696253Y-1402293D02*
X686729Y-1383246D01*
X686729Y-1383246D02*
X677205Y-1373722D01*
X677205Y-1373722D02*
X658158Y-1364198D01*
X820062Y-1278484D02*
X839110Y-1278484D01*
X839110Y-1278484D02*
X858158Y-1288008D01*
X858158Y-1288008D02*
X867682Y-1297531D01*
X867682Y-1297531D02*
X877205Y-1316579D01*
X877205Y-1316579D02*
X886729Y-1354674D01*
X886729Y-1354674D02*
X886729Y-1402293D01*
X886729Y-1402293D02*
X877205Y-1440388D01*
X877205Y-1440388D02*
X867682Y-1459436D01*
X867682Y-1459436D02*
X858158Y-1468960D01*
X858158Y-1468960D02*
X839110Y-1478484D01*
X839110Y-1478484D02*
X820062Y-1478484D01*
X820062Y-1478484D02*
X801015Y-1468960D01*
X801015Y-1468960D02*
X791491Y-1459436D01*
X791491Y-1459436D02*
X781967Y-1440388D01*
X781967Y-1440388D02*
X772443Y-1402293D01*
X772443Y-1402293D02*
X772443Y-1354674D01*
X772443Y-1354674D02*
X781967Y-1316579D01*
X781967Y-1316579D02*
X791491Y-1297531D01*
X791491Y-1297531D02*
X801015Y-1288008D01*
X801015Y-1288008D02*
X820062Y-1278484D01*
X1010539Y-1278484D02*
X1029586Y-1278484D01*
X1029586Y-1278484D02*
X1048634Y-1288008D01*
X1048634Y-1288008D02*
X1058158Y-1297531D01*
X1058158Y-1297531D02*
X1067682Y-1316579D01*
X1067682Y-1316579D02*
X1077205Y-1354674D01*
X1077205Y-1354674D02*
X1077205Y-1402293D01*
X1077205Y-1402293D02*
X1067682Y-1440388D01*
X1067682Y-1440388D02*
X1058158Y-1459436D01*
X1058158Y-1459436D02*
X1048634Y-1468960D01*
X1048634Y-1468960D02*
X1029586Y-1478484D01*
X1029586Y-1478484D02*
X1010539Y-1478484D01*
X1010539Y-1478484D02*
X991491Y-1468960D01*
X991491Y-1468960D02*
X981967Y-1459436D01*
X981967Y-1459436D02*
X972443Y-1440388D01*
X972443Y-1440388D02*
X962920Y-1402293D01*
X962920Y-1402293D02*
X962920Y-1354674D01*
X962920Y-1354674D02*
X972443Y-1316579D01*
X972443Y-1316579D02*
X981967Y-1297531D01*
X981967Y-1297531D02*
X991491Y-1288008D01*
X991491Y-1288008D02*
X1010539Y-1278484D01*
X1162920Y-1478484D02*
X1162920Y-1345150D01*
X1162920Y-1364198D02*
X1172444Y-1354674D01*
X1172444Y-1354674D02*
X1191491Y-1345150D01*
X1191491Y-1345150D02*
X1220063Y-1345150D01*
X1220063Y-1345150D02*
X1239110Y-1354674D01*
X1239110Y-1354674D02*
X1248634Y-1373722D01*
X1248634Y-1373722D02*
X1248634Y-1478484D01*
X1248634Y-1373722D02*
X1258158Y-1354674D01*
X1258158Y-1354674D02*
X1277205Y-1345150D01*
X1277205Y-1345150D02*
X1305777Y-1345150D01*
X1305777Y-1345150D02*
X1324825Y-1354674D01*
X1324825Y-1354674D02*
X1334348Y-1373722D01*
X1334348Y-1373722D02*
X1334348Y-1478484D01*
X1429586Y-1478484D02*
X1429586Y-1345150D01*
X1429586Y-1364198D02*
X1439110Y-1354674D01*
X1439110Y-1354674D02*
X1458158Y-1345150D01*
X1458158Y-1345150D02*
X1486729Y-1345150D01*
X1486729Y-1345150D02*
X1505777Y-1354674D01*
X1505777Y-1354674D02*
X1515301Y-1373722D01*
X1515301Y-1373722D02*
X1515301Y-1478484D01*
X1515301Y-1373722D02*
X1524824Y-1354674D01*
X1524824Y-1354674D02*
X1543872Y-1345150D01*
X1543872Y-1345150D02*
X1572443Y-1345150D01*
X1572443Y-1345150D02*
X1591491Y-1354674D01*
X1591491Y-1354674D02*
X1601015Y-1373722D01*
X1601015Y-1373722D02*
X1601015Y-1478484D01*
X1991491Y-1268960D02*
X1820063Y-1526103D01*
X2248634Y-1278484D02*
X2267682Y-1278484D01*
X2267682Y-1278484D02*
X2286729Y-1288008D01*
X2286729Y-1288008D02*
X2296253Y-1297531D01*
X2296253Y-1297531D02*
X2305777Y-1316579D01*
X2305777Y-1316579D02*
X2315301Y-1354674D01*
X2315301Y-1354674D02*
X2315301Y-1402293D01*
X2315301Y-1402293D02*
X2305777Y-1440388D01*
X2305777Y-1440388D02*
X2296253Y-1459436D01*
X2296253Y-1459436D02*
X2286729Y-1468960D01*
X2286729Y-1468960D02*
X2267682Y-1478484D01*
X2267682Y-1478484D02*
X2248634Y-1478484D01*
X2248634Y-1478484D02*
X2229587Y-1468960D01*
X2229587Y-1468960D02*
X2220063Y-1459436D01*
X2220063Y-1459436D02*
X2210539Y-1440388D01*
X2210539Y-1440388D02*
X2201015Y-1402293D01*
X2201015Y-1402293D02*
X2201015Y-1354674D01*
X2201015Y-1354674D02*
X2210539Y-1316579D01*
X2210539Y-1316579D02*
X2220063Y-1297531D01*
X2220063Y-1297531D02*
X2229587Y-1288008D01*
X2229587Y-1288008D02*
X2248634Y-1278484D01*
X2401015Y-1459436D02*
X2410539Y-1468960D01*
X2410539Y-1468960D02*
X2401015Y-1478484D01*
X2401015Y-1478484D02*
X2391491Y-1468960D01*
X2391491Y-1468960D02*
X2401015Y-1459436D01*
X2401015Y-1459436D02*
X2401015Y-1478484D01*
X2534348Y-1278484D02*
X2553396Y-1278484D01*
X2553396Y-1278484D02*
X2572444Y-1288008D01*
X2572444Y-1288008D02*
X2581968Y-1297531D01*
X2581968Y-1297531D02*
X2591491Y-1316579D01*
X2591491Y-1316579D02*
X2601015Y-1354674D01*
X2601015Y-1354674D02*
X2601015Y-1402293D01*
X2601015Y-1402293D02*
X2591491Y-1440388D01*
X2591491Y-1440388D02*
X2581968Y-1459436D01*
X2581968Y-1459436D02*
X2572444Y-1468960D01*
X2572444Y-1468960D02*
X2553396Y-1478484D01*
X2553396Y-1478484D02*
X2534348Y-1478484D01*
X2534348Y-1478484D02*
X2515301Y-1468960D01*
X2515301Y-1468960D02*
X2505777Y-1459436D01*
X2505777Y-1459436D02*
X2496253Y-1440388D01*
X2496253Y-1440388D02*
X2486729Y-1402293D01*
X2486729Y-1402293D02*
X2486729Y-1354674D01*
X2486729Y-1354674D02*
X2496253Y-1316579D01*
X2496253Y-1316579D02*
X2505777Y-1297531D01*
X2505777Y-1297531D02*
X2515301Y-1288008D01*
X2515301Y-1288008D02*
X2534348Y-1278484D01*
X2667682Y-1278484D02*
X2791491Y-1278484D01*
X2791491Y-1278484D02*
X2724825Y-1354674D01*
X2724825Y-1354674D02*
X2753396Y-1354674D01*
X2753396Y-1354674D02*
X2772444Y-1364198D01*
X2772444Y-1364198D02*
X2781968Y-1373722D01*
X2781968Y-1373722D02*
X2791491Y-1392770D01*
X2791491Y-1392770D02*
X2791491Y-1440388D01*
X2791491Y-1440388D02*
X2781968Y-1459436D01*
X2781968Y-1459436D02*
X2772444Y-1468960D01*
X2772444Y-1468960D02*
X2753396Y-1478484D01*
X2753396Y-1478484D02*
X2696253Y-1478484D01*
X2696253Y-1478484D02*
X2677206Y-1468960D01*
X2677206Y-1468960D02*
X2667682Y-1459436D01*
X2981967Y-1478484D02*
X2867682Y-1478484D01*
X2924825Y-1478484D02*
X2924825Y-1278484D01*
X2924825Y-1278484D02*
X2905777Y-1307055D01*
X2905777Y-1307055D02*
X2886729Y-1326103D01*
X2886729Y-1326103D02*
X2867682Y-1335627D01*
X3162920Y-1278484D02*
X3067682Y-1278484D01*
X3067682Y-1278484D02*
X3058158Y-1373722D01*
X3058158Y-1373722D02*
X3067682Y-1364198D01*
X3067682Y-1364198D02*
X3086729Y-1354674D01*
X3086729Y-1354674D02*
X3134348Y-1354674D01*
X3134348Y-1354674D02*
X3153396Y-1364198D01*
X3153396Y-1364198D02*
X3162920Y-1373722D01*
X3162920Y-1373722D02*
X3172444Y-1392770D01*
X3172444Y-1392770D02*
X3172444Y-1440388D01*
X3172444Y-1440388D02*
X3162920Y-1459436D01*
X3162920Y-1459436D02*
X3153396Y-1468960D01*
X3153396Y-1468960D02*
X3134348Y-1478484D01*
X3134348Y-1478484D02*
X3086729Y-1478484D01*
X3086729Y-1478484D02*
X3067682Y-1468960D01*
X3067682Y-1468960D02*
X3058158Y-1459436D01*
X3248634Y-1278484D02*
X3248634Y-1316579D01*
X3324825Y-1278484D02*
X3324825Y-1316579D01*
X3620063Y-1554674D02*
X3610539Y-1545150D01*
X3610539Y-1545150D02*
X3591491Y-1516579D01*
X3591491Y-1516579D02*
X3581968Y-1497531D01*
X3581968Y-1497531D02*
X3572444Y-1468960D01*
X3572444Y-1468960D02*
X3562920Y-1421341D01*
X3562920Y-1421341D02*
X3562920Y-1383246D01*
X3562920Y-1383246D02*
X3572444Y-1335627D01*
X3572444Y-1335627D02*
X3581968Y-1307055D01*
X3581968Y-1307055D02*
X3591491Y-1288008D01*
X3591491Y-1288008D02*
X3610539Y-1259436D01*
X3610539Y-1259436D02*
X3620063Y-1249912D01*
X3801015Y-1478484D02*
X3686729Y-1478484D01*
X3743872Y-1478484D02*
X3743872Y-1278484D01*
X3743872Y-1278484D02*
X3724825Y-1307055D01*
X3724825Y-1307055D02*
X3705777Y-1326103D01*
X3705777Y-1326103D02*
X3686729Y-1335627D01*
X3896253Y-1478484D02*
X3934348Y-1478484D01*
X3934348Y-1478484D02*
X3953396Y-1468960D01*
X3953396Y-1468960D02*
X3962920Y-1459436D01*
X3962920Y-1459436D02*
X3981968Y-1430865D01*
X3981968Y-1430865D02*
X3991491Y-1392770D01*
X3991491Y-1392770D02*
X3991491Y-1316579D01*
X3991491Y-1316579D02*
X3981968Y-1297531D01*
X3981968Y-1297531D02*
X3972444Y-1288008D01*
X3972444Y-1288008D02*
X3953396Y-1278484D01*
X3953396Y-1278484D02*
X3915301Y-1278484D01*
X3915301Y-1278484D02*
X3896253Y-1288008D01*
X3896253Y-1288008D02*
X3886729Y-1297531D01*
X3886729Y-1297531D02*
X3877206Y-1316579D01*
X3877206Y-1316579D02*
X3877206Y-1364198D01*
X3877206Y-1364198D02*
X3886729Y-1383246D01*
X3886729Y-1383246D02*
X3896253Y-1392770D01*
X3896253Y-1392770D02*
X3915301Y-1402293D01*
X3915301Y-1402293D02*
X3953396Y-1402293D01*
X3953396Y-1402293D02*
X3972444Y-1392770D01*
X3972444Y-1392770D02*
X3981968Y-1383246D01*
X3981968Y-1383246D02*
X3991491Y-1364198D01*
X4115301Y-1278484D02*
X4134349Y-1278484D01*
X4134349Y-1278484D02*
X4153396Y-1288008D01*
X4153396Y-1288008D02*
X4162920Y-1297531D01*
X4162920Y-1297531D02*
X4172444Y-1316579D01*
X4172444Y-1316579D02*
X4181968Y-1354674D01*
X4181968Y-1354674D02*
X4181968Y-1402293D01*
X4181968Y-1402293D02*
X4172444Y-1440388D01*
X4172444Y-1440388D02*
X4162920Y-1459436D01*
X4162920Y-1459436D02*
X4153396Y-1468960D01*
X4153396Y-1468960D02*
X4134349Y-1478484D01*
X4134349Y-1478484D02*
X4115301Y-1478484D01*
X4115301Y-1478484D02*
X4096253Y-1468960D01*
X4096253Y-1468960D02*
X4086729Y-1459436D01*
X4086729Y-1459436D02*
X4077206Y-1440388D01*
X4077206Y-1440388D02*
X4067682Y-1402293D01*
X4067682Y-1402293D02*
X4067682Y-1354674D01*
X4067682Y-1354674D02*
X4077206Y-1316579D01*
X4077206Y-1316579D02*
X4086729Y-1297531D01*
X4086729Y-1297531D02*
X4096253Y-1288008D01*
X4096253Y-1288008D02*
X4115301Y-1278484D01*
X4420063Y-1478484D02*
X4420063Y-1278484D01*
X4505777Y-1478484D02*
X4505777Y-1373722D01*
X4505777Y-1373722D02*
X4496253Y-1354674D01*
X4496253Y-1354674D02*
X4477206Y-1345150D01*
X4477206Y-1345150D02*
X4448634Y-1345150D01*
X4448634Y-1345150D02*
X4429587Y-1354674D01*
X4429587Y-1354674D02*
X4420063Y-1364198D01*
X4629587Y-1478484D02*
X4610539Y-1468960D01*
X4610539Y-1468960D02*
X4601015Y-1459436D01*
X4601015Y-1459436D02*
X4591492Y-1440388D01*
X4591492Y-1440388D02*
X4591492Y-1383246D01*
X4591492Y-1383246D02*
X4601015Y-1364198D01*
X4601015Y-1364198D02*
X4610539Y-1354674D01*
X4610539Y-1354674D02*
X4629587Y-1345150D01*
X4629587Y-1345150D02*
X4658158Y-1345150D01*
X4658158Y-1345150D02*
X4677206Y-1354674D01*
X4677206Y-1354674D02*
X4686730Y-1364198D01*
X4686730Y-1364198D02*
X4696253Y-1383246D01*
X4696253Y-1383246D02*
X4696253Y-1440388D01*
X4696253Y-1440388D02*
X4686730Y-1459436D01*
X4686730Y-1459436D02*
X4677206Y-1468960D01*
X4677206Y-1468960D02*
X4658158Y-1478484D01*
X4658158Y-1478484D02*
X4629587Y-1478484D01*
X4810539Y-1478484D02*
X4791492Y-1468960D01*
X4791492Y-1468960D02*
X4781968Y-1449912D01*
X4781968Y-1449912D02*
X4781968Y-1278484D01*
X4962920Y-1468960D02*
X4943873Y-1478484D01*
X4943873Y-1478484D02*
X4905777Y-1478484D01*
X4905777Y-1478484D02*
X4886730Y-1468960D01*
X4886730Y-1468960D02*
X4877206Y-1449912D01*
X4877206Y-1449912D02*
X4877206Y-1373722D01*
X4877206Y-1373722D02*
X4886730Y-1354674D01*
X4886730Y-1354674D02*
X4905777Y-1345150D01*
X4905777Y-1345150D02*
X4943873Y-1345150D01*
X4943873Y-1345150D02*
X4962920Y-1354674D01*
X4962920Y-1354674D02*
X4972444Y-1373722D01*
X4972444Y-1373722D02*
X4972444Y-1392770D01*
X4972444Y-1392770D02*
X4877206Y-1411817D01*
X5048634Y-1468960D02*
X5067682Y-1478484D01*
X5067682Y-1478484D02*
X5105777Y-1478484D01*
X5105777Y-1478484D02*
X5124825Y-1468960D01*
X5124825Y-1468960D02*
X5134349Y-1449912D01*
X5134349Y-1449912D02*
X5134349Y-1440388D01*
X5134349Y-1440388D02*
X5124825Y-1421341D01*
X5124825Y-1421341D02*
X5105777Y-1411817D01*
X5105777Y-1411817D02*
X5077206Y-1411817D01*
X5077206Y-1411817D02*
X5058158Y-1402293D01*
X5058158Y-1402293D02*
X5048634Y-1383246D01*
X5048634Y-1383246D02*
X5048634Y-1373722D01*
X5048634Y-1373722D02*
X5058158Y-1354674D01*
X5058158Y-1354674D02*
X5077206Y-1345150D01*
X5077206Y-1345150D02*
X5105777Y-1345150D01*
X5105777Y-1345150D02*
X5124825Y-1354674D01*
X5201015Y-1554674D02*
X5210539Y-1545150D01*
X5210539Y-1545150D02*
X5229587Y-1516579D01*
X5229587Y-1516579D02*
X5239111Y-1497531D01*
X5239111Y-1497531D02*
X5248634Y-1468960D01*
X5248634Y-1468960D02*
X5258158Y-1421341D01*
X5258158Y-1421341D02*
X5258158Y-1383246D01*
X5258158Y-1383246D02*
X5248634Y-1335627D01*
X5248634Y-1335627D02*
X5239111Y-1307055D01*
X5239111Y-1307055D02*
X5229587Y-1288008D01*
X5229587Y-1288008D02*
X5210539Y-1259436D01*
X5210539Y-1259436D02*
X5201015Y-1249912D01*
D10*
X-5000Y-1701000D02*
X45000Y-1651000D01*
X-5000Y-1601000D01*
X-55000Y-1651000D01*
X-5000Y-1701000D01*
D11*
X410539Y-1742484D02*
X296253Y-1742484D01*
X353396Y-1742484D02*
X353396Y-1542484D01*
X353396Y-1542484D02*
X334348Y-1571055D01*
X334348Y-1571055D02*
X315301Y-1590103D01*
X315301Y-1590103D02*
X296253Y-1599627D01*
X496253Y-1723436D02*
X505777Y-1732960D01*
X505777Y-1732960D02*
X496253Y-1742484D01*
X496253Y-1742484D02*
X486729Y-1732960D01*
X486729Y-1732960D02*
X496253Y-1723436D01*
X496253Y-1723436D02*
X496253Y-1742484D01*
X629586Y-1542484D02*
X648634Y-1542484D01*
X648634Y-1542484D02*
X667682Y-1552008D01*
X667682Y-1552008D02*
X677205Y-1561531D01*
X677205Y-1561531D02*
X686729Y-1580579D01*
X686729Y-1580579D02*
X696253Y-1618674D01*
X696253Y-1618674D02*
X696253Y-1666293D01*
X696253Y-1666293D02*
X686729Y-1704388D01*
X686729Y-1704388D02*
X677205Y-1723436D01*
X677205Y-1723436D02*
X667682Y-1732960D01*
X667682Y-1732960D02*
X648634Y-1742484D01*
X648634Y-1742484D02*
X629586Y-1742484D01*
X629586Y-1742484D02*
X610539Y-1732960D01*
X610539Y-1732960D02*
X601015Y-1723436D01*
X601015Y-1723436D02*
X591491Y-1704388D01*
X591491Y-1704388D02*
X581967Y-1666293D01*
X581967Y-1666293D02*
X581967Y-1618674D01*
X581967Y-1618674D02*
X591491Y-1580579D01*
X591491Y-1580579D02*
X601015Y-1561531D01*
X601015Y-1561531D02*
X610539Y-1552008D01*
X610539Y-1552008D02*
X629586Y-1542484D01*
X820062Y-1542484D02*
X839110Y-1542484D01*
X839110Y-1542484D02*
X858158Y-1552008D01*
X858158Y-1552008D02*
X867682Y-1561531D01*
X867682Y-1561531D02*
X877205Y-1580579D01*
X877205Y-1580579D02*
X886729Y-1618674D01*
X886729Y-1618674D02*
X886729Y-1666293D01*
X886729Y-1666293D02*
X877205Y-1704388D01*
X877205Y-1704388D02*
X867682Y-1723436D01*
X867682Y-1723436D02*
X858158Y-1732960D01*
X858158Y-1732960D02*
X839110Y-1742484D01*
X839110Y-1742484D02*
X820062Y-1742484D01*
X820062Y-1742484D02*
X801015Y-1732960D01*
X801015Y-1732960D02*
X791491Y-1723436D01*
X791491Y-1723436D02*
X781967Y-1704388D01*
X781967Y-1704388D02*
X772443Y-1666293D01*
X772443Y-1666293D02*
X772443Y-1618674D01*
X772443Y-1618674D02*
X781967Y-1580579D01*
X781967Y-1580579D02*
X791491Y-1561531D01*
X791491Y-1561531D02*
X801015Y-1552008D01*
X801015Y-1552008D02*
X820062Y-1542484D01*
X1010539Y-1542484D02*
X1029586Y-1542484D01*
X1029586Y-1542484D02*
X1048634Y-1552008D01*
X1048634Y-1552008D02*
X1058158Y-1561531D01*
X1058158Y-1561531D02*
X1067682Y-1580579D01*
X1067682Y-1580579D02*
X1077205Y-1618674D01*
X1077205Y-1618674D02*
X1077205Y-1666293D01*
X1077205Y-1666293D02*
X1067682Y-1704388D01*
X1067682Y-1704388D02*
X1058158Y-1723436D01*
X1058158Y-1723436D02*
X1048634Y-1732960D01*
X1048634Y-1732960D02*
X1029586Y-1742484D01*
X1029586Y-1742484D02*
X1010539Y-1742484D01*
X1010539Y-1742484D02*
X991491Y-1732960D01*
X991491Y-1732960D02*
X981967Y-1723436D01*
X981967Y-1723436D02*
X972443Y-1704388D01*
X972443Y-1704388D02*
X962920Y-1666293D01*
X962920Y-1666293D02*
X962920Y-1618674D01*
X962920Y-1618674D02*
X972443Y-1580579D01*
X972443Y-1580579D02*
X981967Y-1561531D01*
X981967Y-1561531D02*
X991491Y-1552008D01*
X991491Y-1552008D02*
X1010539Y-1542484D01*
X1162920Y-1742484D02*
X1162920Y-1609150D01*
X1162920Y-1628198D02*
X1172444Y-1618674D01*
X1172444Y-1618674D02*
X1191491Y-1609150D01*
X1191491Y-1609150D02*
X1220063Y-1609150D01*
X1220063Y-1609150D02*
X1239110Y-1618674D01*
X1239110Y-1618674D02*
X1248634Y-1637722D01*
X1248634Y-1637722D02*
X1248634Y-1742484D01*
X1248634Y-1637722D02*
X1258158Y-1618674D01*
X1258158Y-1618674D02*
X1277205Y-1609150D01*
X1277205Y-1609150D02*
X1305777Y-1609150D01*
X1305777Y-1609150D02*
X1324825Y-1618674D01*
X1324825Y-1618674D02*
X1334348Y-1637722D01*
X1334348Y-1637722D02*
X1334348Y-1742484D01*
X1429586Y-1742484D02*
X1429586Y-1609150D01*
X1429586Y-1628198D02*
X1439110Y-1618674D01*
X1439110Y-1618674D02*
X1458158Y-1609150D01*
X1458158Y-1609150D02*
X1486729Y-1609150D01*
X1486729Y-1609150D02*
X1505777Y-1618674D01*
X1505777Y-1618674D02*
X1515301Y-1637722D01*
X1515301Y-1637722D02*
X1515301Y-1742484D01*
X1515301Y-1637722D02*
X1524824Y-1618674D01*
X1524824Y-1618674D02*
X1543872Y-1609150D01*
X1543872Y-1609150D02*
X1572443Y-1609150D01*
X1572443Y-1609150D02*
X1591491Y-1618674D01*
X1591491Y-1618674D02*
X1601015Y-1637722D01*
X1601015Y-1637722D02*
X1601015Y-1742484D01*
X1991491Y-1532960D02*
X1820063Y-1790103D01*
X2248634Y-1542484D02*
X2267682Y-1542484D01*
X2267682Y-1542484D02*
X2286729Y-1552008D01*
X2286729Y-1552008D02*
X2296253Y-1561531D01*
X2296253Y-1561531D02*
X2305777Y-1580579D01*
X2305777Y-1580579D02*
X2315301Y-1618674D01*
X2315301Y-1618674D02*
X2315301Y-1666293D01*
X2315301Y-1666293D02*
X2305777Y-1704388D01*
X2305777Y-1704388D02*
X2296253Y-1723436D01*
X2296253Y-1723436D02*
X2286729Y-1732960D01*
X2286729Y-1732960D02*
X2267682Y-1742484D01*
X2267682Y-1742484D02*
X2248634Y-1742484D01*
X2248634Y-1742484D02*
X2229587Y-1732960D01*
X2229587Y-1732960D02*
X2220063Y-1723436D01*
X2220063Y-1723436D02*
X2210539Y-1704388D01*
X2210539Y-1704388D02*
X2201015Y-1666293D01*
X2201015Y-1666293D02*
X2201015Y-1618674D01*
X2201015Y-1618674D02*
X2210539Y-1580579D01*
X2210539Y-1580579D02*
X2220063Y-1561531D01*
X2220063Y-1561531D02*
X2229587Y-1552008D01*
X2229587Y-1552008D02*
X2248634Y-1542484D01*
X2401015Y-1723436D02*
X2410539Y-1732960D01*
X2410539Y-1732960D02*
X2401015Y-1742484D01*
X2401015Y-1742484D02*
X2391491Y-1732960D01*
X2391491Y-1732960D02*
X2401015Y-1723436D01*
X2401015Y-1723436D02*
X2401015Y-1742484D01*
X2534348Y-1542484D02*
X2553396Y-1542484D01*
X2553396Y-1542484D02*
X2572444Y-1552008D01*
X2572444Y-1552008D02*
X2581968Y-1561531D01*
X2581968Y-1561531D02*
X2591491Y-1580579D01*
X2591491Y-1580579D02*
X2601015Y-1618674D01*
X2601015Y-1618674D02*
X2601015Y-1666293D01*
X2601015Y-1666293D02*
X2591491Y-1704388D01*
X2591491Y-1704388D02*
X2581968Y-1723436D01*
X2581968Y-1723436D02*
X2572444Y-1732960D01*
X2572444Y-1732960D02*
X2553396Y-1742484D01*
X2553396Y-1742484D02*
X2534348Y-1742484D01*
X2534348Y-1742484D02*
X2515301Y-1732960D01*
X2515301Y-1732960D02*
X2505777Y-1723436D01*
X2505777Y-1723436D02*
X2496253Y-1704388D01*
X2496253Y-1704388D02*
X2486729Y-1666293D01*
X2486729Y-1666293D02*
X2486729Y-1618674D01*
X2486729Y-1618674D02*
X2496253Y-1580579D01*
X2496253Y-1580579D02*
X2505777Y-1561531D01*
X2505777Y-1561531D02*
X2515301Y-1552008D01*
X2515301Y-1552008D02*
X2534348Y-1542484D01*
X2667682Y-1542484D02*
X2791491Y-1542484D01*
X2791491Y-1542484D02*
X2724825Y-1618674D01*
X2724825Y-1618674D02*
X2753396Y-1618674D01*
X2753396Y-1618674D02*
X2772444Y-1628198D01*
X2772444Y-1628198D02*
X2781968Y-1637722D01*
X2781968Y-1637722D02*
X2791491Y-1656769D01*
X2791491Y-1656769D02*
X2791491Y-1704388D01*
X2791491Y-1704388D02*
X2781968Y-1723436D01*
X2781968Y-1723436D02*
X2772444Y-1732960D01*
X2772444Y-1732960D02*
X2753396Y-1742484D01*
X2753396Y-1742484D02*
X2696253Y-1742484D01*
X2696253Y-1742484D02*
X2677206Y-1732960D01*
X2677206Y-1732960D02*
X2667682Y-1723436D01*
X2886729Y-1742484D02*
X2924825Y-1742484D01*
X2924825Y-1742484D02*
X2943872Y-1732960D01*
X2943872Y-1732960D02*
X2953396Y-1723436D01*
X2953396Y-1723436D02*
X2972444Y-1694865D01*
X2972444Y-1694865D02*
X2981967Y-1656769D01*
X2981967Y-1656769D02*
X2981967Y-1580579D01*
X2981967Y-1580579D02*
X2972444Y-1561531D01*
X2972444Y-1561531D02*
X2962920Y-1552008D01*
X2962920Y-1552008D02*
X2943872Y-1542484D01*
X2943872Y-1542484D02*
X2905777Y-1542484D01*
X2905777Y-1542484D02*
X2886729Y-1552008D01*
X2886729Y-1552008D02*
X2877206Y-1561531D01*
X2877206Y-1561531D02*
X2867682Y-1580579D01*
X2867682Y-1580579D02*
X2867682Y-1628198D01*
X2867682Y-1628198D02*
X2877206Y-1647246D01*
X2877206Y-1647246D02*
X2886729Y-1656769D01*
X2886729Y-1656769D02*
X2905777Y-1666293D01*
X2905777Y-1666293D02*
X2943872Y-1666293D01*
X2943872Y-1666293D02*
X2962920Y-1656769D01*
X2962920Y-1656769D02*
X2972444Y-1647246D01*
X2972444Y-1647246D02*
X2981967Y-1628198D01*
X3153396Y-1609150D02*
X3153396Y-1742484D01*
X3105777Y-1532960D02*
X3058158Y-1675817D01*
X3058158Y-1675817D02*
X3181967Y-1675817D01*
X3248634Y-1542484D02*
X3248634Y-1580579D01*
X3324825Y-1542484D02*
X3324825Y-1580579D01*
X3620063Y-1818674D02*
X3610539Y-1809150D01*
X3610539Y-1809150D02*
X3591491Y-1780579D01*
X3591491Y-1780579D02*
X3581968Y-1761531D01*
X3581968Y-1761531D02*
X3572444Y-1732960D01*
X3572444Y-1732960D02*
X3562920Y-1685341D01*
X3562920Y-1685341D02*
X3562920Y-1647246D01*
X3562920Y-1647246D02*
X3572444Y-1599627D01*
X3572444Y-1599627D02*
X3581968Y-1571055D01*
X3581968Y-1571055D02*
X3591491Y-1552008D01*
X3591491Y-1552008D02*
X3610539Y-1523436D01*
X3610539Y-1523436D02*
X3620063Y-1513912D01*
X3686729Y-1561531D02*
X3696253Y-1552008D01*
X3696253Y-1552008D02*
X3715301Y-1542484D01*
X3715301Y-1542484D02*
X3762920Y-1542484D01*
X3762920Y-1542484D02*
X3781968Y-1552008D01*
X3781968Y-1552008D02*
X3791491Y-1561531D01*
X3791491Y-1561531D02*
X3801015Y-1580579D01*
X3801015Y-1580579D02*
X3801015Y-1599627D01*
X3801015Y-1599627D02*
X3791491Y-1628198D01*
X3791491Y-1628198D02*
X3677206Y-1742484D01*
X3677206Y-1742484D02*
X3801015Y-1742484D01*
X4039110Y-1742484D02*
X4039110Y-1542484D01*
X4124825Y-1742484D02*
X4124825Y-1637722D01*
X4124825Y-1637722D02*
X4115301Y-1618674D01*
X4115301Y-1618674D02*
X4096253Y-1609150D01*
X4096253Y-1609150D02*
X4067682Y-1609150D01*
X4067682Y-1609150D02*
X4048634Y-1618674D01*
X4048634Y-1618674D02*
X4039110Y-1628198D01*
X4248634Y-1742484D02*
X4229587Y-1732960D01*
X4229587Y-1732960D02*
X4220063Y-1723436D01*
X4220063Y-1723436D02*
X4210539Y-1704388D01*
X4210539Y-1704388D02*
X4210539Y-1647246D01*
X4210539Y-1647246D02*
X4220063Y-1628198D01*
X4220063Y-1628198D02*
X4229587Y-1618674D01*
X4229587Y-1618674D02*
X4248634Y-1609150D01*
X4248634Y-1609150D02*
X4277206Y-1609150D01*
X4277206Y-1609150D02*
X4296253Y-1618674D01*
X4296253Y-1618674D02*
X4305777Y-1628198D01*
X4305777Y-1628198D02*
X4315301Y-1647246D01*
X4315301Y-1647246D02*
X4315301Y-1704388D01*
X4315301Y-1704388D02*
X4305777Y-1723436D01*
X4305777Y-1723436D02*
X4296253Y-1732960D01*
X4296253Y-1732960D02*
X4277206Y-1742484D01*
X4277206Y-1742484D02*
X4248634Y-1742484D01*
X4429587Y-1742484D02*
X4410539Y-1732960D01*
X4410539Y-1732960D02*
X4401015Y-1713912D01*
X4401015Y-1713912D02*
X4401015Y-1542484D01*
X4581968Y-1732960D02*
X4562920Y-1742484D01*
X4562920Y-1742484D02*
X4524825Y-1742484D01*
X4524825Y-1742484D02*
X4505777Y-1732960D01*
X4505777Y-1732960D02*
X4496253Y-1713912D01*
X4496253Y-1713912D02*
X4496253Y-1637722D01*
X4496253Y-1637722D02*
X4505777Y-1618674D01*
X4505777Y-1618674D02*
X4524825Y-1609150D01*
X4524825Y-1609150D02*
X4562920Y-1609150D01*
X4562920Y-1609150D02*
X4581968Y-1618674D01*
X4581968Y-1618674D02*
X4591492Y-1637722D01*
X4591492Y-1637722D02*
X4591492Y-1656769D01*
X4591492Y-1656769D02*
X4496253Y-1675817D01*
X4667682Y-1732960D02*
X4686730Y-1742484D01*
X4686730Y-1742484D02*
X4724825Y-1742484D01*
X4724825Y-1742484D02*
X4743873Y-1732960D01*
X4743873Y-1732960D02*
X4753396Y-1713912D01*
X4753396Y-1713912D02*
X4753396Y-1704388D01*
X4753396Y-1704388D02*
X4743873Y-1685341D01*
X4743873Y-1685341D02*
X4724825Y-1675817D01*
X4724825Y-1675817D02*
X4696253Y-1675817D01*
X4696253Y-1675817D02*
X4677206Y-1666293D01*
X4677206Y-1666293D02*
X4667682Y-1647246D01*
X4667682Y-1647246D02*
X4667682Y-1637722D01*
X4667682Y-1637722D02*
X4677206Y-1618674D01*
X4677206Y-1618674D02*
X4696253Y-1609150D01*
X4696253Y-1609150D02*
X4724825Y-1609150D01*
X4724825Y-1609150D02*
X4743873Y-1618674D01*
X4820063Y-1818674D02*
X4829587Y-1809150D01*
X4829587Y-1809150D02*
X4848634Y-1780579D01*
X4848634Y-1780579D02*
X4858158Y-1761531D01*
X4858158Y-1761531D02*
X4867682Y-1732960D01*
X4867682Y-1732960D02*
X4877206Y-1685341D01*
X4877206Y-1685341D02*
X4877206Y-1647246D01*
X4877206Y-1647246D02*
X4867682Y-1599627D01*
X4867682Y-1599627D02*
X4858158Y-1571055D01*
X4858158Y-1571055D02*
X4848634Y-1552008D01*
X4848634Y-1552008D02*
X4829587Y-1523436D01*
X4829587Y-1523436D02*
X4820063Y-1513912D01*
D16*
X-75000Y-1855000D02*
X45000Y-1975000D01*
X45000Y-1855000D02*
X-75000Y-1975000D01*
X45000Y-1915000D02*
G75*
G03*
X45000Y-1915000I-60000J0D01*
G01*
D11*
X410539Y-2006484D02*
X296253Y-2006484D01*
X353396Y-2006484D02*
X353396Y-1806484D01*
X353396Y-1806484D02*
X334348Y-1835055D01*
X334348Y-1835055D02*
X315301Y-1854103D01*
X315301Y-1854103D02*
X296253Y-1863627D01*
X496253Y-1987436D02*
X505777Y-1996960D01*
X505777Y-1996960D02*
X496253Y-2006484D01*
X496253Y-2006484D02*
X486729Y-1996960D01*
X486729Y-1996960D02*
X496253Y-1987436D01*
X496253Y-1987436D02*
X496253Y-2006484D01*
X581967Y-1825531D02*
X591491Y-1816008D01*
X591491Y-1816008D02*
X610539Y-1806484D01*
X610539Y-1806484D02*
X658158Y-1806484D01*
X658158Y-1806484D02*
X677205Y-1816008D01*
X677205Y-1816008D02*
X686729Y-1825531D01*
X686729Y-1825531D02*
X696253Y-1844579D01*
X696253Y-1844579D02*
X696253Y-1863627D01*
X696253Y-1863627D02*
X686729Y-1892198D01*
X686729Y-1892198D02*
X572444Y-2006484D01*
X572444Y-2006484D02*
X696253Y-2006484D01*
X820062Y-1806484D02*
X839110Y-1806484D01*
X839110Y-1806484D02*
X858158Y-1816008D01*
X858158Y-1816008D02*
X867682Y-1825531D01*
X867682Y-1825531D02*
X877205Y-1844579D01*
X877205Y-1844579D02*
X886729Y-1882674D01*
X886729Y-1882674D02*
X886729Y-1930293D01*
X886729Y-1930293D02*
X877205Y-1968388D01*
X877205Y-1968388D02*
X867682Y-1987436D01*
X867682Y-1987436D02*
X858158Y-1996960D01*
X858158Y-1996960D02*
X839110Y-2006484D01*
X839110Y-2006484D02*
X820062Y-2006484D01*
X820062Y-2006484D02*
X801015Y-1996960D01*
X801015Y-1996960D02*
X791491Y-1987436D01*
X791491Y-1987436D02*
X781967Y-1968388D01*
X781967Y-1968388D02*
X772443Y-1930293D01*
X772443Y-1930293D02*
X772443Y-1882674D01*
X772443Y-1882674D02*
X781967Y-1844579D01*
X781967Y-1844579D02*
X791491Y-1825531D01*
X791491Y-1825531D02*
X801015Y-1816008D01*
X801015Y-1816008D02*
X820062Y-1806484D01*
X1010539Y-1806484D02*
X1029586Y-1806484D01*
X1029586Y-1806484D02*
X1048634Y-1816008D01*
X1048634Y-1816008D02*
X1058158Y-1825531D01*
X1058158Y-1825531D02*
X1067682Y-1844579D01*
X1067682Y-1844579D02*
X1077205Y-1882674D01*
X1077205Y-1882674D02*
X1077205Y-1930293D01*
X1077205Y-1930293D02*
X1067682Y-1968388D01*
X1067682Y-1968388D02*
X1058158Y-1987436D01*
X1058158Y-1987436D02*
X1048634Y-1996960D01*
X1048634Y-1996960D02*
X1029586Y-2006484D01*
X1029586Y-2006484D02*
X1010539Y-2006484D01*
X1010539Y-2006484D02*
X991491Y-1996960D01*
X991491Y-1996960D02*
X981967Y-1987436D01*
X981967Y-1987436D02*
X972443Y-1968388D01*
X972443Y-1968388D02*
X962920Y-1930293D01*
X962920Y-1930293D02*
X962920Y-1882674D01*
X962920Y-1882674D02*
X972443Y-1844579D01*
X972443Y-1844579D02*
X981967Y-1825531D01*
X981967Y-1825531D02*
X991491Y-1816008D01*
X991491Y-1816008D02*
X1010539Y-1806484D01*
X1162920Y-2006484D02*
X1162920Y-1873150D01*
X1162920Y-1892198D02*
X1172444Y-1882674D01*
X1172444Y-1882674D02*
X1191491Y-1873150D01*
X1191491Y-1873150D02*
X1220063Y-1873150D01*
X1220063Y-1873150D02*
X1239110Y-1882674D01*
X1239110Y-1882674D02*
X1248634Y-1901722D01*
X1248634Y-1901722D02*
X1248634Y-2006484D01*
X1248634Y-1901722D02*
X1258158Y-1882674D01*
X1258158Y-1882674D02*
X1277205Y-1873150D01*
X1277205Y-1873150D02*
X1305777Y-1873150D01*
X1305777Y-1873150D02*
X1324825Y-1882674D01*
X1324825Y-1882674D02*
X1334348Y-1901722D01*
X1334348Y-1901722D02*
X1334348Y-2006484D01*
X1429586Y-2006484D02*
X1429586Y-1873150D01*
X1429586Y-1892198D02*
X1439110Y-1882674D01*
X1439110Y-1882674D02*
X1458158Y-1873150D01*
X1458158Y-1873150D02*
X1486729Y-1873150D01*
X1486729Y-1873150D02*
X1505777Y-1882674D01*
X1505777Y-1882674D02*
X1515301Y-1901722D01*
X1515301Y-1901722D02*
X1515301Y-2006484D01*
X1515301Y-1901722D02*
X1524824Y-1882674D01*
X1524824Y-1882674D02*
X1543872Y-1873150D01*
X1543872Y-1873150D02*
X1572443Y-1873150D01*
X1572443Y-1873150D02*
X1591491Y-1882674D01*
X1591491Y-1882674D02*
X1601015Y-1901722D01*
X1601015Y-1901722D02*
X1601015Y-2006484D01*
X1991491Y-1796960D02*
X1820063Y-2054103D01*
X2248634Y-1806484D02*
X2267682Y-1806484D01*
X2267682Y-1806484D02*
X2286729Y-1816008D01*
X2286729Y-1816008D02*
X2296253Y-1825531D01*
X2296253Y-1825531D02*
X2305777Y-1844579D01*
X2305777Y-1844579D02*
X2315301Y-1882674D01*
X2315301Y-1882674D02*
X2315301Y-1930293D01*
X2315301Y-1930293D02*
X2305777Y-1968388D01*
X2305777Y-1968388D02*
X2296253Y-1987436D01*
X2296253Y-1987436D02*
X2286729Y-1996960D01*
X2286729Y-1996960D02*
X2267682Y-2006484D01*
X2267682Y-2006484D02*
X2248634Y-2006484D01*
X2248634Y-2006484D02*
X2229587Y-1996960D01*
X2229587Y-1996960D02*
X2220063Y-1987436D01*
X2220063Y-1987436D02*
X2210539Y-1968388D01*
X2210539Y-1968388D02*
X2201015Y-1930293D01*
X2201015Y-1930293D02*
X2201015Y-1882674D01*
X2201015Y-1882674D02*
X2210539Y-1844579D01*
X2210539Y-1844579D02*
X2220063Y-1825531D01*
X2220063Y-1825531D02*
X2229587Y-1816008D01*
X2229587Y-1816008D02*
X2248634Y-1806484D01*
X2401015Y-1987436D02*
X2410539Y-1996960D01*
X2410539Y-1996960D02*
X2401015Y-2006484D01*
X2401015Y-2006484D02*
X2391491Y-1996960D01*
X2391491Y-1996960D02*
X2401015Y-1987436D01*
X2401015Y-1987436D02*
X2401015Y-2006484D01*
X2534348Y-1806484D02*
X2553396Y-1806484D01*
X2553396Y-1806484D02*
X2572444Y-1816008D01*
X2572444Y-1816008D02*
X2581968Y-1825531D01*
X2581968Y-1825531D02*
X2591491Y-1844579D01*
X2591491Y-1844579D02*
X2601015Y-1882674D01*
X2601015Y-1882674D02*
X2601015Y-1930293D01*
X2601015Y-1930293D02*
X2591491Y-1968388D01*
X2591491Y-1968388D02*
X2581968Y-1987436D01*
X2581968Y-1987436D02*
X2572444Y-1996960D01*
X2572444Y-1996960D02*
X2553396Y-2006484D01*
X2553396Y-2006484D02*
X2534348Y-2006484D01*
X2534348Y-2006484D02*
X2515301Y-1996960D01*
X2515301Y-1996960D02*
X2505777Y-1987436D01*
X2505777Y-1987436D02*
X2496253Y-1968388D01*
X2496253Y-1968388D02*
X2486729Y-1930293D01*
X2486729Y-1930293D02*
X2486729Y-1882674D01*
X2486729Y-1882674D02*
X2496253Y-1844579D01*
X2496253Y-1844579D02*
X2505777Y-1825531D01*
X2505777Y-1825531D02*
X2515301Y-1816008D01*
X2515301Y-1816008D02*
X2534348Y-1806484D01*
X2772444Y-1873150D02*
X2772444Y-2006484D01*
X2724825Y-1796960D02*
X2677206Y-1939817D01*
X2677206Y-1939817D02*
X2801015Y-1939817D01*
X2858158Y-1806484D02*
X2991491Y-1806484D01*
X2991491Y-1806484D02*
X2905777Y-2006484D01*
X3058158Y-1825531D02*
X3067682Y-1816008D01*
X3067682Y-1816008D02*
X3086729Y-1806484D01*
X3086729Y-1806484D02*
X3134348Y-1806484D01*
X3134348Y-1806484D02*
X3153396Y-1816008D01*
X3153396Y-1816008D02*
X3162920Y-1825531D01*
X3162920Y-1825531D02*
X3172444Y-1844579D01*
X3172444Y-1844579D02*
X3172444Y-1863627D01*
X3172444Y-1863627D02*
X3162920Y-1892198D01*
X3162920Y-1892198D02*
X3048634Y-2006484D01*
X3048634Y-2006484D02*
X3172444Y-2006484D01*
X3248634Y-1806484D02*
X3248634Y-1844579D01*
X3324825Y-1806484D02*
X3324825Y-1844579D01*
X3620063Y-2082674D02*
X3610539Y-2073150D01*
X3610539Y-2073150D02*
X3591491Y-2044579D01*
X3591491Y-2044579D02*
X3581968Y-2025531D01*
X3581968Y-2025531D02*
X3572444Y-1996960D01*
X3572444Y-1996960D02*
X3562920Y-1949341D01*
X3562920Y-1949341D02*
X3562920Y-1911246D01*
X3562920Y-1911246D02*
X3572444Y-1863627D01*
X3572444Y-1863627D02*
X3581968Y-1835055D01*
X3581968Y-1835055D02*
X3591491Y-1816008D01*
X3591491Y-1816008D02*
X3610539Y-1787436D01*
X3610539Y-1787436D02*
X3620063Y-1777912D01*
X3781968Y-1806484D02*
X3743872Y-1806484D01*
X3743872Y-1806484D02*
X3724825Y-1816008D01*
X3724825Y-1816008D02*
X3715301Y-1825531D01*
X3715301Y-1825531D02*
X3696253Y-1854103D01*
X3696253Y-1854103D02*
X3686729Y-1892198D01*
X3686729Y-1892198D02*
X3686729Y-1968388D01*
X3686729Y-1968388D02*
X3696253Y-1987436D01*
X3696253Y-1987436D02*
X3705777Y-1996960D01*
X3705777Y-1996960D02*
X3724825Y-2006484D01*
X3724825Y-2006484D02*
X3762920Y-2006484D01*
X3762920Y-2006484D02*
X3781968Y-1996960D01*
X3781968Y-1996960D02*
X3791491Y-1987436D01*
X3791491Y-1987436D02*
X3801015Y-1968388D01*
X3801015Y-1968388D02*
X3801015Y-1920769D01*
X3801015Y-1920769D02*
X3791491Y-1901722D01*
X3791491Y-1901722D02*
X3781968Y-1892198D01*
X3781968Y-1892198D02*
X3762920Y-1882674D01*
X3762920Y-1882674D02*
X3724825Y-1882674D01*
X3724825Y-1882674D02*
X3705777Y-1892198D01*
X3705777Y-1892198D02*
X3696253Y-1901722D01*
X3696253Y-1901722D02*
X3686729Y-1920769D01*
X4039110Y-2006484D02*
X4039110Y-1806484D01*
X4124825Y-2006484D02*
X4124825Y-1901722D01*
X4124825Y-1901722D02*
X4115301Y-1882674D01*
X4115301Y-1882674D02*
X4096253Y-1873150D01*
X4096253Y-1873150D02*
X4067682Y-1873150D01*
X4067682Y-1873150D02*
X4048634Y-1882674D01*
X4048634Y-1882674D02*
X4039110Y-1892198D01*
X4248634Y-2006484D02*
X4229587Y-1996960D01*
X4229587Y-1996960D02*
X4220063Y-1987436D01*
X4220063Y-1987436D02*
X4210539Y-1968388D01*
X4210539Y-1968388D02*
X4210539Y-1911246D01*
X4210539Y-1911246D02*
X4220063Y-1892198D01*
X4220063Y-1892198D02*
X4229587Y-1882674D01*
X4229587Y-1882674D02*
X4248634Y-1873150D01*
X4248634Y-1873150D02*
X4277206Y-1873150D01*
X4277206Y-1873150D02*
X4296253Y-1882674D01*
X4296253Y-1882674D02*
X4305777Y-1892198D01*
X4305777Y-1892198D02*
X4315301Y-1911246D01*
X4315301Y-1911246D02*
X4315301Y-1968388D01*
X4315301Y-1968388D02*
X4305777Y-1987436D01*
X4305777Y-1987436D02*
X4296253Y-1996960D01*
X4296253Y-1996960D02*
X4277206Y-2006484D01*
X4277206Y-2006484D02*
X4248634Y-2006484D01*
X4429587Y-2006484D02*
X4410539Y-1996960D01*
X4410539Y-1996960D02*
X4401015Y-1977912D01*
X4401015Y-1977912D02*
X4401015Y-1806484D01*
X4581968Y-1996960D02*
X4562920Y-2006484D01*
X4562920Y-2006484D02*
X4524825Y-2006484D01*
X4524825Y-2006484D02*
X4505777Y-1996960D01*
X4505777Y-1996960D02*
X4496253Y-1977912D01*
X4496253Y-1977912D02*
X4496253Y-1901722D01*
X4496253Y-1901722D02*
X4505777Y-1882674D01*
X4505777Y-1882674D02*
X4524825Y-1873150D01*
X4524825Y-1873150D02*
X4562920Y-1873150D01*
X4562920Y-1873150D02*
X4581968Y-1882674D01*
X4581968Y-1882674D02*
X4591492Y-1901722D01*
X4591492Y-1901722D02*
X4591492Y-1920769D01*
X4591492Y-1920769D02*
X4496253Y-1939817D01*
X4667682Y-1996960D02*
X4686730Y-2006484D01*
X4686730Y-2006484D02*
X4724825Y-2006484D01*
X4724825Y-2006484D02*
X4743873Y-1996960D01*
X4743873Y-1996960D02*
X4753396Y-1977912D01*
X4753396Y-1977912D02*
X4753396Y-1968388D01*
X4753396Y-1968388D02*
X4743873Y-1949341D01*
X4743873Y-1949341D02*
X4724825Y-1939817D01*
X4724825Y-1939817D02*
X4696253Y-1939817D01*
X4696253Y-1939817D02*
X4677206Y-1930293D01*
X4677206Y-1930293D02*
X4667682Y-1911246D01*
X4667682Y-1911246D02*
X4667682Y-1901722D01*
X4667682Y-1901722D02*
X4677206Y-1882674D01*
X4677206Y-1882674D02*
X4696253Y-1873150D01*
X4696253Y-1873150D02*
X4724825Y-1873150D01*
X4724825Y-1873150D02*
X4743873Y-1882674D01*
X4820063Y-2082674D02*
X4829587Y-2073150D01*
X4829587Y-2073150D02*
X4848634Y-2044579D01*
X4848634Y-2044579D02*
X4858158Y-2025531D01*
X4858158Y-2025531D02*
X4867682Y-1996960D01*
X4867682Y-1996960D02*
X4877206Y-1949341D01*
X4877206Y-1949341D02*
X4877206Y-1911246D01*
X4877206Y-1911246D02*
X4867682Y-1863627D01*
X4867682Y-1863627D02*
X4858158Y-1835055D01*
X4858158Y-1835055D02*
X4848634Y-1816008D01*
X4848634Y-1816008D02*
X4829587Y-1787436D01*
X4829587Y-1787436D02*
X4820063Y-1777912D01*
M02*
