M48
; DRILL file {KiCad 7.0.7} date Mi 27 Sep 2023 22:13:22 CEST
; FORMAT={-:-/ absolute / metric / decimal}
; #@! TF.CreationDate,2023-09-27T22:13:22+02:00
; #@! TF.GenerationSoftware,Kicad,Pcbnew,7.0.7
; #@! TF.FileFunction,Plated,1,2,PTH
FMAT,2
METRIC
; #@! TA.AperFunction,Plated,PTH,ComponentDrill
T1C0.500
; #@! TA.AperFunction,Plated,PTH,ComponentDrill
T2C0.600
; #@! TA.AperFunction,Plated,PTH,ComponentDrill
T3C0.750
; #@! TA.AperFunction,Plated,PTH,ComponentDrill
T4C0.800
; #@! TA.AperFunction,Plated,PTH,ComponentDrill
T5C1.000
; #@! TA.AperFunction,Plated,PTH,ComponentDrill
T6C1.200
%
G90
G05
T1
X5.95Y81.5
X5.95Y77.5
X6.05Y73.5
X6.05Y65.5
X6.05Y61.6
X6.05Y57.5
X6.15Y69.5
X6.25Y41.5
X6.25Y38.5
X37.0Y91.5
X40.5Y91.5
X43.75Y4.5
X46.75Y4.5
X75.5Y91.5
X75.5Y4.5
X79.0Y91.5
X80.67Y4.5
X82.5Y91.5
X83.96Y4.5
X87.25Y4.5
X92.9Y91.5
X96.5Y91.5
X100.0Y91.5
X105.5Y4.5
X108.75Y4.5
X139.72Y92.37
X164.5Y57.0
X164.5Y53.73
X164.5Y50.63
X164.5Y47.45
T2
X16.83Y63.24
X18.33Y63.24
X64.75Y58.25
X64.75Y56.75
X70.25Y31.223
X70.25Y29.723
X104.25Y77.777
X104.25Y76.277
X119.4Y88.79
X119.4Y87.29
T3
X7.89Y14.77
X7.89Y13.5
X7.89Y12.23
X15.13Y88.68
X16.4Y88.68
X17.67Y88.68
X19.75Y11.54
X19.75Y10.27
X19.75Y9.0
X23.48Y37.5
X24.75Y37.5
X26.02Y37.5
X27.88Y71.1
X29.15Y71.1
X30.42Y71.1
X31.61Y11.77
X31.61Y10.5
X31.61Y9.23
X81.3Y16.17
X82.57Y16.17
X83.84Y16.17
X114.32Y21.25
X115.59Y21.25
X116.86Y56.81
X116.86Y55.54
X116.86Y54.27
X116.86Y21.25
X121.94Y56.81
X121.94Y55.54
X121.94Y54.27
T4
X6.85Y31.3
X6.85Y21.14
X12.59Y81.06
X12.59Y75.98
X12.59Y70.9
X13.25Y29.0
X13.25Y24.0
X17.17Y52.58
X17.17Y47.5
X20.45Y31.38
X20.45Y21.22
X22.27Y63.3
X22.27Y58.22
X22.65Y89.1
X22.75Y81.06
X22.75Y75.98
X22.75Y70.9
X26.25Y29.8
X26.25Y24.8
X26.25Y18.66
X26.25Y8.5
X27.33Y52.58
X27.33Y47.5
X29.13Y80.92
X29.13Y78.92
X32.43Y63.3
X32.43Y58.22
X32.81Y89.1
X34.615Y52.6
X34.65Y31.38
X34.65Y21.22
X38.25Y18.58
X38.25Y8.42
X38.83Y74.18
X38.83Y64.02
X39.73Y31.38
X39.73Y21.22
X43.91Y74.18
X43.91Y64.02
X44.775Y52.6
X48.67Y18.66
X48.67Y8.5
X48.99Y74.18
X48.99Y64.02
X49.0Y53.0
X49.0Y42.84
X50.09Y30.5
X53.09Y24.0
X53.75Y18.66
X53.75Y8.5
X55.09Y30.5
X58.375Y51.82
X58.375Y44.2
X58.75Y13.5
X58.75Y8.5
X59.15Y74.18
X59.15Y64.02
X60.25Y30.5
X60.915Y51.82
X60.915Y44.2
X61.55Y88.6
X61.55Y83.52
X63.25Y24.0
X63.455Y51.82
X63.455Y44.2
X64.23Y74.18
X64.23Y64.02
X65.17Y18.58
X65.17Y8.42
X65.25Y30.5
X65.995Y51.82
X65.995Y44.2
X68.535Y51.82
X68.535Y44.2
X69.31Y74.18
X69.31Y64.02
X70.25Y18.58
X70.25Y8.42
X71.075Y51.82
X71.075Y44.2
X71.71Y88.6
X71.71Y83.52
X73.615Y51.82
X73.615Y44.2
X74.45Y74.18
X74.45Y64.02
X74.75Y13.5
X74.75Y8.5
X76.22Y31.41
X76.22Y26.33
X77.45Y58.79
X77.45Y56.79
X81.3Y41.57
X81.3Y36.57
X86.38Y54.27
X86.38Y49.19
X86.38Y44.11
X86.38Y31.41
X86.38Y26.33
X91.46Y36.49
X91.46Y26.33
X91.46Y21.25
X91.46Y16.17
X91.46Y11.09
X94.5Y85.0
X96.5Y85.0
X96.54Y54.27
X96.54Y49.19
X96.54Y44.11
X101.62Y36.49
X101.62Y26.33
X101.62Y21.25
X101.62Y16.17
X101.62Y11.09
X103.75Y52.58
X103.75Y42.42
X108.83Y52.58
X108.83Y42.42
X111.45Y81.32
X111.45Y73.7
X111.78Y39.03
X111.78Y28.87
X113.99Y81.32
X113.99Y73.7
X114.32Y66.97
X114.32Y61.89
X114.32Y11.09
X116.53Y81.32
X116.53Y73.7
X116.94Y46.65
X119.07Y81.32
X119.07Y73.7
X119.375Y42.32
X119.375Y34.7
X119.48Y28.87
X121.915Y42.32
X121.915Y34.7
X121.94Y46.65
X124.455Y42.32
X124.455Y34.7
X124.48Y66.97
X124.48Y61.89
X124.48Y28.87
X124.48Y11.09
X124.5Y23.75
X124.5Y18.75
X126.995Y42.32
X126.995Y34.7
X129.42Y15.75
X129.535Y42.32
X129.535Y34.7
X129.56Y92.37
X129.56Y87.37
X129.56Y54.27
X129.56Y49.27
X129.56Y28.87
X129.59Y23.79
X132.075Y42.32
X132.075Y34.7
X132.1Y74.59
X132.1Y64.43
X134.615Y42.32
X134.615Y34.7
X137.18Y56.81
X137.18Y46.65
X139.58Y15.75
X139.72Y69.51
X139.72Y64.51
X139.72Y28.87
X139.75Y23.79
X140.99Y11.09
X142.26Y56.81
X142.26Y51.73
X142.26Y46.65
X144.315Y42.38
X144.315Y32.22
X148.61Y11.09
X149.395Y42.38
X149.395Y32.22
X149.5Y28.08
X149.5Y17.92
X152.42Y56.81
X152.42Y51.73
X152.42Y46.65
X154.475Y42.38
X154.475Y32.22
X156.75Y23.0
X156.75Y18.0
X162.75Y33.08
X162.75Y22.92
T5
X139.72Y87.21
X139.72Y82.21
T6
X49.95Y86.198
X49.95Y81.198
X87.25Y77.5
X87.25Y72.5
X101.7Y64.43
X106.7Y64.43
T0
M30
