<?xml version="1.0" encoding="UTF-8" standalone="no"?>
<!-- Created with Inkscape (http://www.inkscape.org/) -->

<svg
   version="1.1"
   id="svg1"
   width="971.52002"
   height="735.35999"
   viewBox="0 0 971.52002 735.35999"
   sodipodi:docname="front panel template back - classic.svg"
   inkscape:version="1.3.2 (091e20ef0f, 2023-11-25)"
   xml:space="preserve"
   xmlns:inkscape="http://www.inkscape.org/namespaces/inkscape"
   xmlns:sodipodi="http://sodipodi.sourceforge.net/DTD/sodipodi-0.dtd"
   xmlns="http://www.w3.org/2000/svg"
   xmlns:svg="http://www.w3.org/2000/svg"><defs
     id="defs1" /><sodipodi:namedview
     id="namedview1"
     pagecolor="#ffffff"
     bordercolor="#000000"
     borderopacity="0.25"
     inkscape:showpageshadow="2"
     inkscape:pageopacity="0.0"
     inkscape:pagecheckerboard="0"
     inkscape:deskcolor="#d1d1d1"
     inkscape:zoom="5.3555099"
     inkscape:cx="367.09857"
     inkscape:cy="582.85767"
     inkscape:window-width="1503"
     inkscape:window-height="933"
     inkscape:window-x="0"
     inkscape:window-y="0"
     inkscape:window-maximized="1"
     inkscape:current-layer="g57"><inkscape:page
       x="0"
       y="0"
       inkscape:label="1"
       id="page1"
       width="971.52002"
       height="735.35999"
       margin="0"
       bleed="0" /></sodipodi:namedview><g
     id="g51"
     inkscape:label="S11"
     style="stroke:#000000"><path
       style="color:#000000;fill:#000000;stroke:none;stroke-width:1.08906;-inkscape-stroke:none"
       d="m 689.09121,529.58203 c -6e-5,0 -0.47484,0.084 -0.47489,0.084 -5e-5,10e-6 -0.3706,0.21676 -0.37064,0.21679 -3e-5,4e-5 -0.24785,0.31246 -0.24786,0.3125 -2e-5,5e-5 -0.0926,0.38862 -0.0926,0.38867 v 53.96485 c 0,5e-5 0.0973,0.39644 0.0973,0.39648 2e-5,5e-5 0.25015,0.31052 0.25018,0.31055 4e-5,3e-5 0.36828,0.21092 0.36833,0.21094 5e-5,2e-5 0.47019,0.082 0.47025,0.082 h 32.62565 c 6e-5,0 0.47252,-0.082 0.47257,-0.082 5e-5,-2e-5 0.36828,-0.21091 0.36833,-0.21094 4e-5,-3e-5 0.25016,-0.3105 0.25017,-0.31055 4e-5,-4e-5 0.0973,-0.39643 0.0973,-0.39648 v -53.96485 c 0,-5e-5 -0.0926,-0.38862 -0.0926,-0.38867 -2e-5,-4e-5 -0.24783,-0.31246 -0.24786,-0.3125 -5e-5,-3e-5 -0.37291,-0.21678 -0.37297,-0.21679 -4e-5,-2e-5 -0.47482,-0.084 -0.47488,-0.084 z m 1.18605,2 h 30.25588 v 51.9668 h -30.25588 z"
       id="rect96-1-0-9-6-5-4-8-6" /><path
       style="-inkscape-font-specification:'Inconsolata Bold';stroke:none;stroke-width:2"
       d="m 711.79995,524.58235 q 0.90933,0 1.716,-0.264 0.792,-0.27866 1.32,-0.836 l -0.80667,-1.364 -0.0587,-0.11734 -0.132,0.0733 q -0.0293,0.11733 -0.0733,0.23467 -0.0587,0.10266 -0.23466,0.264 -0.36667,0.27866 -0.80667,0.45466 -0.45467,0.176 -0.98267,0.176 -0.68934,0 -1.11467,-0.29333 -0.44,-0.308 -0.44,-0.89467 0,-0.29333 0.132,-0.54267 0.132,-0.264 0.528,-0.528 0.38133,-0.264 1.144,-0.616 0.93867,-0.41067 1.49601,-0.82133 0.54266,-0.42534 0.77733,-0.90934 0.23467,-0.49867 0.23467,-1.11467 0,-0.67467 -0.36667,-1.20267 -0.38133,-0.528 -1.04133,-0.836 -0.66001,-0.308 -1.51067,-0.308 -1.68668,0 -2.77201,1.17334 l 0.968,1.11466 0.088,0.10267 0.11733,-0.088 q 0.0147,-0.11733 0.0587,-0.22 0.0293,-0.11733 0.19067,-0.29333 0.27867,-0.264 0.60133,-0.352 0.308,-0.088 0.73334,-0.088 0.60133,0 0.95333,0.27866 0.352,0.27867 0.352,0.64534 0,0.29333 -0.132,0.528 -0.132,0.23467 -0.528,0.49867 -0.41066,0.264 -1.24667,0.63066 -0.924,0.42534 -1.452,0.83601 -0.528,0.396 -0.73333,0.88 -0.22,0.484 -0.22,1.12933 0,0.66001 0.33733,1.27601 0.33733,0.616 1.056,1.012 0.71867,0.38133 1.84801,0.38133 z m -6.83469,-0.16133 v -7.33335 l 1.65734,0.58667 0.352,-1.1 -2.43467,-1.29067 h -1.232 v 9.13735 z m -7.33335,0 v -7.33335 l 1.65734,0.58667 0.352,-1.1 -2.43467,-1.29067 h -1.232 v 9.13735 z"
       id="text1-4-6-253"
       aria-label="S11" /></g><g
     id="g55"
     inkscape:label="S10"
     style="stroke:#000000;stroke-opacity:1"><path
       style="color:#000000;fill:#000000;stroke:none;-inkscape-stroke:none"
       d="m 269.56445,554.80664 c -12.11781,0 -21.95898,9.84117 -21.95898,21.95898 0,12.11782 9.84117,21.95899 21.95898,21.95899 12.11782,0 21.95899,-9.84117 21.95899,-21.95899 0,-12.11781 -9.84117,-21.95898 -21.95899,-21.95898 z m 0,1.67773 c 11.21119,0 20.28125,9.07007 20.28125,20.28125 0,11.21119 -9.07006,20.28126 -20.28125,20.28125 -11.21118,0 -20.28125,-9.07006 -20.28125,-20.28125 0,-11.21118 9.07007,-20.28124 20.28125,-20.28125 z"
       id="path96-7-2-5-6" /><path
       style="-inkscape-font-specification:'Inconsolata Bold';stroke:none;stroke-width:2"
       d="m -277.00046,549.79238 q -0.90934,0 -1.71601,-0.264 -0.792,-0.27867 -1.32,-0.83601 l 0.80667,-1.364 0.0587,-0.11733 0.132,0.0733 q 0.0293,0.11733 0.0733,0.23467 0.0587,0.10266 0.23467,0.264 0.36666,0.27867 0.80666,0.45467 0.45467,0.176 0.98267,0.176 0.68934,0 1.11467,-0.29334 0.44,-0.308 0.44,-0.89467 0,-0.29333 -0.132,-0.54266 -0.132,-0.264 -0.528,-0.52801 -0.38133,-0.264 -1.144,-0.616 -0.93867,-0.41066 -1.496,-0.82133 -0.54267,-0.42534 -0.77734,-0.90934 -0.23467,-0.49867 -0.23467,-1.11467 0,-0.67467 0.36667,-1.20267 0.38134,-0.528 1.04134,-0.836 0.66,-0.308 1.51067,-0.308 1.68667,0 2.772,1.17334 l -0.968,1.11467 -0.088,0.10266 -0.11733,-0.088 q -0.0147,-0.11733 -0.0587,-0.22 -0.0293,-0.11733 -0.19067,-0.29333 -0.27866,-0.264 -0.60133,-0.352 -0.308,-0.088 -0.73334,-0.088 -0.60133,0 -0.95333,0.27866 -0.352,0.27867 -0.352,0.64534 0,0.29333 0.132,0.528 0.132,0.23467 0.528,0.49867 0.41067,0.264 1.24667,0.63067 0.924,0.42533 1.452,0.836 0.528,0.396 0.73334,0.88 0.22,0.484 0.22,1.12934 0,0.66 -0.33734,1.276 -0.33733,0.616 -1.056,1.012 -0.71867,0.38134 -1.848,0.38134 z m 6.83468,-0.16134 v -7.33335 l -1.65734,0.58667 -0.352,-1.1 2.43467,-1.29067 h 1.23201 v 9.13735 z m 7.94935,0.176 q -1.43734,0 -2.288,-1.21733 -0.83601,-1.21734 -0.83601,-3.47601 0,-2.22934 0.83601,-3.49068 0.85066,-1.26133 2.288,-1.26133 1.43734,0 2.27334,1.26133 0.85067,1.26134 0.85067,3.49068 0,2.25867 -0.85067,3.47601 -0.836,1.21733 -2.27334,1.21733 z m -1.584,-4.69334 q 0,0.60133 0.0587,1.11467 l 2.81601,-3.34401 q -0.396,-1.188 -1.29067,-1.188 -0.792,0 -1.188,0.90933 -0.396,0.89467 -0.396,2.50801 z m 1.584,3.41734 q 0.792,0 1.188,-0.88 0.396,-0.89467 0.396,-2.53734 0,-0.572 -0.0587,-1.07067 l -2.81601,3.32934 q 0.396,1.15867 1.29067,1.15867 z"
       id="text1-4-6-90"
       transform="scale(-1,1)"
       aria-label="S10" /></g><g
     id="g47"
     inkscape:label="S9"
     style="stroke:#000000"><path
       style="color:#000000;fill:#000000;stroke:none;stroke-width:1.08906;-inkscape-stroke:none"
       d="m 491.3316,433.58203 c -6e-5,0 -0.46092,0.0801 -0.46098,0.0801 -5e-5,2e-5 -0.37754,0.21286 -0.37759,0.21289 -3e-5,3e-5 -0.25479,0.31831 -0.25481,0.31836 -2e-5,4e-5 -0.0926,0.39057 -0.0926,0.39062 v 53.96485 c 10e-6,5e-5 0.0996,0.39839 0.0996,0.39844 2e-5,4e-5 0.25477,0.31442 0.25481,0.31445 5e-5,3e-5 0.3729,0.20896 0.37296,0.20898 5e-5,2e-5 0.4586,0.0781 0.45866,0.0781 h 32.6256 c 6e-5,0 0.46786,-0.082 0.46793,-0.082 5e-5,-2e-5 0.37987,-0.21872 0.37991,-0.21875 3e-5,-4e-5 0.24785,-0.31637 0.24787,-0.31641 10e-6,-4e-5 0.0926,-0.38276 0.0926,-0.38281 V 434.584 c 0,-5e-5 -0.0858,-0.37495 -0.0858,-0.375 -10e-6,-4e-5 -0.24783,-0.32027 -0.24786,-0.32031 -4e-5,-3e-5 -0.38448,-0.22459 -0.38454,-0.22461 -5e-5,-2e-5 -0.47019,-0.082 -0.47025,-0.082 z m 1.18605,2 h 30.25582 v 51.9668 h -30.25582 z"
       id="rect96-1-0-9-6-5-4" /><path
       style="-inkscape-font-specification:'Inconsolata Bold';stroke:none;stroke-width:2"
       d="m -511.40024,428.7437 q -0.90934,0 -1.71601,-0.264 -0.792,-0.27867 -1.32,-0.836 l 0.80667,-1.36401 0.0587,-0.11733 0.13201,0.0733 q 0.0293,0.11734 0.0733,0.23467 0.0587,0.10267 0.23467,0.264 0.36666,0.27867 0.80666,0.45467 0.45467,0.176 0.98267,0.176 0.68934,0 1.11467,-0.29333 0.44,-0.308 0.44,-0.89467 0,-0.29334 -0.132,-0.54267 -0.132,-0.264 -0.528,-0.528 -0.38133,-0.264 -1.144,-0.616 -0.93867,-0.41067 -1.496,-0.82134 -0.54267,-0.42533 -0.77734,-0.90933 -0.23467,-0.49867 -0.23467,-1.11467 0,-0.67467 0.36667,-1.20267 0.38134,-0.528 1.04134,-0.836 0.66,-0.308 1.51067,-0.308 1.68667,0 2.772,1.17333 l -0.968,1.11467 -0.088,0.10267 -0.11733,-0.088 q -0.0147,-0.11734 -0.0587,-0.22 -0.0293,-0.11734 -0.19067,-0.29334 -0.27866,-0.264 -0.60133,-0.352 -0.308,-0.088 -0.73334,-0.088 -0.60133,0 -0.95333,0.27867 -0.352,0.27867 -0.352,0.64533 0,0.29334 0.132,0.52801 0.132,0.23466 0.528,0.49866 0.41067,0.264 1.24667,0.63067 0.924,0.42534 1.452,0.836 0.528,0.396 0.73334,0.88001 0.22,0.484 0.22,1.12933 0,0.66 -0.33734,1.276 -0.33733,0.61601 -1.056,1.01201 -0.71867,0.38133 -1.848,0.38133 z m 7.48001,0.0147 q -0.95333,0 -1.73067,-0.36667 -0.76267,-0.36667 -1.17333,-1.08534 l 1.15867,-0.95333 0.11733,-0.088 0.0733,0.10267 q 0,0.11733 0.044,0.22 0.044,0.10266 0.19067,0.29333 0.51334,0.528 1.30534,0.528 0.66,0 1.08533,-0.484 0.42534,-0.49867 0.42534,-1.24667 0,-0.80667 -0.41067,-1.30534 -0.41067,-0.51333 -1.144,-0.51333 -0.92401,0 -1.48134,0.71867 l -1.012,-0.264 0.33733,-4.86935 h 4.88401 v 1.33467 h -3.50534 l -0.132,2.06801 q 0.264,-0.14667 0.616,-0.23467 0.36667,-0.088 0.67467,-0.088 1.21734,0 1.98001,0.792 0.76266,0.77734 0.76266,2.24401 0,0.99733 -0.396,1.716 -0.396,0.704 -1.1,1.1 -0.68933,0.38134 -1.56934,0.38134 z"
       id="text1-4-6-4"
       transform="scale(-1,1)"
       aria-label="S5" /></g><g
     id="g54"
     inkscape:label="S8"
     style="stroke:#000000;stroke-opacity:1"><path
       style="color:#000000;fill:#000000;stroke:none;stroke-width:1.08906;-inkscape-stroke:none"
       d="m 328.13274,550.70312 c -6e-5,0 -0.45631,0.0762 -0.45636,0.0762 -4e-5,2e-5 -0.37523,0.20895 -0.37528,0.20898 -3e-5,3e-5 -0.25942,0.32027 -0.25944,0.32031 -2e-5,5e-5 -0.0973,0.39448 -0.0973,0.39453 v 53.96485 c 0,5e-5 0.0926,0.38667 0.0926,0.38672 2e-5,4e-5 0.24783,0.31442 0.24786,0.31445 5e-5,3e-5 0.37291,0.21678 0.37297,0.2168 4e-5,2e-5 0.47482,0.082 0.47488,0.082 h 32.62565 c 5e-5,0 0.47483,-0.082 0.47488,-0.082 5e-5,-2e-5 0.3706,-0.21677 0.37064,-0.2168 3e-5,-3e-5 0.24784,-0.31441 0.24786,-0.31445 2e-5,-5e-5 0.0926,-0.38667 0.0926,-0.38672 v -53.96485 c 0,-5e-5 -0.095,-0.39448 -0.095,-0.39453 -3e-5,-4e-5 -0.25942,-0.32028 -0.25945,-0.32031 -4e-5,-3e-5 -0.37753,-0.20896 -0.37759,-0.20898 -5e-5,-2e-5 -0.45397,-0.0762 -0.45403,-0.0762 z m 1.18372,2 h 30.25588 v 51.96485 h -30.25588 z"
       id="rect96-1-0-9-6-5" /><path
       style="-inkscape-font-specification:'Inconsolata Bold';stroke:none;stroke-width:2"
       d="m -350.13501,545.70337 v -9.13736 h 2.88934 q 1.672,0 2.44934,0.73334 0.77733,0.73333 0.77733,1.95067 0,0.49867 -0.22,1.012 -0.20533,0.49867 -0.60133,0.89467 -0.38134,0.396 -0.89467,0.58667 l 1.96534,3.96001 h -1.74534 l -1.84801,-3.79868 h -1.1 v 3.79868 z m 1.672,-5.17735 h 1.33467 q 0.704,0 1.056,-0.32266 0.352,-0.33734 0.352,-0.90934 0,-0.528 -0.352,-0.90933 -0.352,-0.38134 -1.056,-0.38134 h -1.33467 z m 8.05202,5.17735 v -7.33335 l -1.65734,0.58667 -0.352,-1.10001 2.43467,-1.29067 h 1.23201 v 9.13736 z"
       id="text1-4-6-46"
       transform="scale(-1,1)"
       aria-label="R1" /></g><g
     id="g53"
     inkscape:label="S7"
     style="stroke:#000000"><path
       style="color:#000000;fill:#000000;stroke:none;stroke-width:1.08906;-inkscape-stroke:none"
       d="m 491.33152,533.42187 c -7e-5,0 -0.45862,0.0781 -0.45866,0.0781 -7e-5,2e-5 -0.37291,0.20895 -0.37296,0.20898 -4e-5,4e-5 -0.25479,0.31441 -0.25481,0.31446 -3e-5,4e-5 -0.0996,0.40034 -0.0996,0.40039 v 53.96484 c 10e-6,5e-5 0.0926,0.38863 0.0926,0.38867 3e-5,5e-5 0.25478,0.31833 0.25482,0.31836 5e-5,4e-5 0.37754,0.21287 0.37759,0.21289 6e-5,2e-5 0.46092,0.0801 0.46098,0.0801 h 32.62559 c 6e-5,0 0.4702,-0.082 0.47025,-0.082 5e-5,-2e-5 0.3845,-0.22457 0.38454,-0.22461 3e-5,-3e-5 0.24785,-0.32027 0.24785,-0.32031 2e-5,-5e-5 0.0858,-0.373 0.0858,-0.37305 v -53.96484 c 0,-5e-5 -0.0926,-0.38472 -0.0926,-0.38477 -10e-6,-4e-5 -0.24783,-0.31637 -0.24787,-0.3164 -4e-5,-4e-5 -0.37986,-0.21873 -0.37991,-0.21875 -5e-5,-2e-5 -0.46786,-0.082 -0.46793,-0.082 z m 1.18605,2 h 30.25581 v 51.9668 h -30.25581 z"
       id="rect96-1-0-9-6-5-4-8" /><path
       style="-inkscape-font-specification:'Inconsolata Bold';stroke:none;stroke-width:2"
       d="m 511.26818,528.42139 q 0.90932,0 1.716,-0.264 0.792,-0.27867 1.32,-0.836 l -0.80667,-1.364 -0.0587,-0.11734 -0.13199,0.0733 q -0.0293,0.11733 -0.0733,0.23466 -0.0587,0.10267 -0.23466,0.264 -0.36667,0.27867 -0.80667,0.45467 -0.45467,0.176 -0.98267,0.176 -0.68934,0 -1.11468,-0.29333 -0.44,-0.308 -0.44,-0.89467 0,-0.29333 0.132,-0.54267 0.132,-0.264 0.528,-0.528 0.38133,-0.264 1.144,-0.616 0.93867,-0.41067 1.49601,-0.82134 0.54266,-0.42533 0.77733,-0.90933 0.23467,-0.49867 0.23467,-1.11467 0,-0.67467 -0.36667,-1.20267 -0.38133,-0.528 -1.04133,-0.836 -0.66001,-0.308 -1.51067,-0.308 -1.68668,0 -2.77201,1.17333 l 0.968,1.11467 0.088,0.10267 0.11733,-0.088 q 0.0147,-0.11733 0.0587,-0.22 0.0293,-0.11733 0.19067,-0.29333 0.27867,-0.26401 0.60133,-0.35201 0.308,-0.088 0.73334,-0.088 0.60133,0 0.95333,0.27867 0.352,0.27867 0.352,0.64534 0,0.29333 -0.132,0.528 -0.132,0.23466 -0.528,0.49867 -0.41066,0.264 -1.24667,0.63066 -0.924,0.42534 -1.452,0.83601 -0.528,0.396 -0.73333,0.88 -0.22001,0.484 -0.22001,1.12933 0,0.66 0.33734,1.27601 0.33733,0.616 1.056,1.012 0.71867,0.38133 1.84801,0.38133 z m -5.60268,-0.16133 q -0.64534,-2.00934 -1.33468,-3.90134 -0.704,-1.89201 -1.48133,-3.81335 h 3.68133 v -1.42267 h -5.54401 v 0.90934 q 0.836,2.00934 1.584,4.03334 0.748,2.02401 1.37867,4.19468 z"
       id="text1-4-6-6"
       aria-label="S7" /></g><g
     id="g48"
     inkscape:label="S6"
     style="stroke:#000000"><path
       style="color:#000000;fill:#000000;stroke:none;stroke-width:1.08909;-inkscape-stroke:none"
       d="m 575.81119,381.74219 c -6e-5,0 -0.44242,0.0722 -0.44247,0.0723 -6e-5,2e-5 -0.38221,0.20895 -0.38225,0.20899 -4e-5,3e-5 -0.26408,0.32222 -0.26411,0.32226 -10e-6,5e-5 -0.0973,0.39644 -0.0973,0.39649 v 53.96679 c 0,6e-5 0.0926,0.38863 0.0926,0.38868 2e-5,4e-5 0.25479,0.31832 0.25482,0.31836 5e-5,3e-5 0.37525,0.21287 0.37531,0.21289 4e-5,2e-5 0.46326,0.0801 0.46332,0.0801 h 32.62775 c 6e-5,0 0.47023,-0.082 0.47027,-0.082 6e-5,-2e-5 0.38453,-0.22457 0.38457,-0.22461 3e-5,-3e-5 0.24554,-0.32026 0.24556,-0.32031 3e-5,-4e-5 0.0858,-0.37299 0.0858,-0.37305 v -53.96679 c 0,-5e-5 -0.088,-0.37886 -0.088,-0.37891 -2e-5,-4e-5 -0.25943,-0.32809 -0.25947,-0.32812 -4e-5,-4e-5 -0.38683,-0.21678 -0.38687,-0.2168 -6e-5,-2e-5 -0.45169,-0.0762 -0.45175,-0.0762 z m 1.18613,2 h 30.25549 v 51.96679 h -30.25549 z"
       id="rect96-1-0-9-6" /><path
       style="-inkscape-font-specification:'Inconsolata Bold';stroke:none;stroke-width:2"
       d="m -595.82841,376.74236 q -0.90933,0 -1.716,-0.264 -0.792,-0.27867 -1.32,-0.836 l 0.80667,-1.36401 0.0587,-0.11733 0.132,0.0733 q 0.0293,0.11734 0.0733,0.23467 0.0587,0.10267 0.23466,0.264 0.36667,0.27867 0.80667,0.45467 0.45467,0.176 0.98267,0.176 0.68934,0 1.11467,-0.29334 0.44,-0.308 0.44,-0.89466 0,-0.29334 -0.132,-0.54267 -0.132,-0.264 -0.528,-0.528 -0.38133,-0.264 -1.144,-0.61601 -0.93867,-0.41066 -1.49601,-0.82133 -0.54266,-0.42533 -0.77733,-0.90934 -0.23467,-0.49866 -0.23467,-1.11467 0,-0.67466 0.36667,-1.20266 0.38133,-0.52801 1.04134,-0.83601 0.66,-0.308 1.51067,-0.308 1.68667,0 2.772,1.17334 l -0.968,1.11467 -0.088,0.10266 -0.11733,-0.088 q -0.0147,-0.11733 -0.0587,-0.22 -0.0293,-0.11733 -0.19067,-0.29333 -0.27867,-0.264 -0.60133,-0.352 -0.308,-0.088 -0.73334,-0.088 -0.60133,0 -0.95333,0.27867 -0.352,0.27866 -0.352,0.64533 0,0.29334 0.132,0.528 0.132,0.23467 0.528,0.49867 0.41066,0.264 1.24667,0.63067 0.924,0.42533 1.452,0.836 0.528,0.396 0.73334,0.88 0.22,0.484 0.22,1.12934 0,0.66 -0.33734,1.276 -0.33733,0.616 -1.056,1.012 -0.71867,0.38134 -1.84801,0.38134 z m 7.59736,0 q -0.98267,0 -1.67201,-0.54267 -0.67467,-0.54267 -1.04133,-1.51067 -0.352,-0.98267 -0.352,-2.30267 0,-1.61334 0.44,-2.74268 0.44,-1.144 1.21733,-1.74533 0.77734,-0.60134 1.77467,-0.60134 0.60134,0 1.21734,0.22 0.616,0.20534 1.1,0.67467 l -0.90933,1.012 -0.088,0.11734 -0.11734,-0.088 q 0,-0.132 -0.088,-0.20534 -0.0733,-0.0733 -0.264,-0.20533 -0.32267,-0.14667 -0.704,-0.14667 -0.27867,0 -0.60133,0.10267 -0.30801,0.088 -0.60134,0.38133 -0.29333,0.27867 -0.49867,0.82134 -0.20533,0.528 -0.24933,1.39334 0.29333,-0.38134 0.748,-0.58667 0.46934,-0.22 0.93867,-0.22 0.73333,0 1.32,0.33733 0.58667,0.33734 0.924,0.99734 0.35201,0.66 0.35201,1.65733 0,0.90934 -0.36667,1.62801 -0.36667,0.71867 -1.012,1.144 -0.64534,0.41067 -1.46667,0.41067 z m 0.0293,-1.33467 q 0.55733,0 0.90933,-0.49867 0.36667,-0.51333 0.36667,-1.34934 0,-0.86533 -0.41067,-1.276 -0.396,-0.41067 -0.88,-0.41067 -0.45467,0 -0.80667,0.27867 -0.33733,0.27867 -0.60133,0.71867 -0.0587,1.11467 0.33733,1.83334 0.396,0.71866 1.08534,0.704 z"
       id="text1-4-6-7"
       transform="scale(-1,1)"
       aria-label="S6" /></g><g
     id="g49"
     inkscape:label="S5"
     style="stroke:#000000"><path
       style="color:#000000;fill:#000000;stroke:none;stroke-width:1.08906;-inkscape-stroke:none"
       d="m 691.01128,381.74219 c -6e-5,0 -0.44239,0.0722 -0.44244,0.0723 -6e-5,2e-5 -0.37987,0.20895 -0.37992,0.20899 -3e-5,3e-5 -0.26637,0.32222 -0.26639,0.32226 -3e-5,5e-5 -0.0973,0.39644 -0.0973,0.39649 v 53.96679 c 0,6e-5 0.0926,0.38863 0.0926,0.38868 2e-5,4e-5 0.25478,0.31832 0.25481,0.31836 5e-5,3e-5 0.37754,0.21287 0.37759,0.21289 6e-5,2e-5 0.46092,0.0801 0.46098,0.0801 h 32.62559 c 7e-5,0 0.46325,-0.08 0.46331,-0.0801 6e-5,-2e-5 0.37755,-0.21286 0.37759,-0.21289 4e-5,-4e-5 0.25247,-0.31832 0.2525,-0.31836 2e-5,-5e-5 0.095,-0.38862 0.095,-0.38868 v -53.96679 c 0,-5e-5 -0.0973,-0.39644 -0.0973,-0.39649 -2e-5,-4e-5 -0.26636,-0.32223 -0.26639,-0.32226 -5e-5,-4e-5 -0.37986,-0.20897 -0.37992,-0.20899 -5e-5,-2e-5 -0.4447,-0.0723 -0.44477,-0.0723 z m 1.18605,2 h 30.25582 v 51.96679 h -30.25582 z"
       id="rect96-1-0-9-6-5-4-8-6-0" /><path
       style="-inkscape-font-specification:'Inconsolata Bold';stroke:none;stroke-width:2"
       d="m -711.07987,376.72734 q -0.90934,0 -1.716,-0.264 -0.79201,-0.27866 -1.32001,-0.836 l 0.80667,-1.364 0.0587,-0.11734 0.132,0.0733 q 0.0293,0.11733 0.0733,0.23466 0.0587,0.10267 0.23467,0.26401 0.36667,0.27866 0.80667,0.45466 0.45467,0.176 0.98267,0.176 0.68933,0 1.11467,-0.29333 0.44,-0.308 0.44,-0.89467 0,-0.29333 -0.132,-0.54267 -0.132,-0.264 -0.528,-0.528 -0.38134,-0.264 -1.14401,-0.616 -0.93867,-0.41067 -1.496,-0.82134 -0.54267,-0.42533 -0.77734,-0.90933 -0.23466,-0.49867 -0.23466,-1.11467 0,-0.67467 0.36666,-1.20267 0.38134,-0.528 1.04134,-0.836 0.66,-0.308 1.51067,-0.308 1.68667,0 2.77201,1.17333 l -0.96801,1.11467 -0.088,0.10267 -0.11733,-0.088 q -0.0147,-0.11733 -0.0587,-0.22 -0.0293,-0.11733 -0.19066,-0.29333 -0.27867,-0.264 -0.60134,-0.35201 -0.308,-0.088 -0.73333,-0.088 -0.60134,0 -0.95334,0.27867 -0.352,0.27867 -0.352,0.64534 0,0.29333 0.132,0.528 0.132,0.23467 0.528,0.49867 0.41067,0.264 1.24667,0.63066 0.924,0.42534 1.45201,0.83601 0.528,0.396 0.73333,0.88 0.22,0.484 0.22,1.12933 0,0.66001 -0.33733,1.27601 -0.33734,0.616 -1.05601,1.012 -0.71866,0.38133 -1.848,0.38133 z m 7.48002,0.0147 q -0.95334,0 -1.73067,-0.36667 -0.76267,-0.36667 -1.17334,-1.08533 l 1.15867,-0.95334 0.11733,-0.088 0.0733,0.10267 q 0,0.11733 0.044,0.22 0.044,0.10267 0.19066,0.29333 0.51334,0.528 1.30534,0.528 0.66,0 1.08534,-0.484 0.42533,-0.49867 0.42533,-1.24667 0,-0.80667 -0.41067,-1.30533 -0.41066,-0.51334 -1.144,-0.51334 -0.924,0 -1.48134,0.71867 l -1.012,-0.264 0.33734,-4.86934 h 4.88401 v 1.33466 h -3.50534 l -0.132,2.06801 q 0.264,-0.14667 0.616,-0.23467 0.36666,-0.088 0.67466,-0.088 1.21734,0 1.98001,0.792 0.76267,0.77734 0.76267,2.24401 0,0.99733 -0.396,1.716 -0.396,0.704 -1.10001,1.10001 -0.68933,0.38133 -1.56933,0.38133 z"
       id="text1-4-6-1"
       transform="scale(-1,1)"
       aria-label="S5" /></g><g
     id="g44"
     inkscape:label="S4"
     style="stroke:#000000"
     transform="matrix(1.1861283,0,0,1,-49.458871,0)"><path
       style="color:#000000;fill:#000000;stroke:none;-inkscape-stroke:none"
       d="m 251.9707,322.22266 c -5e-5,0 -0.373,0.0722 -0.37304,0.0723 -5e-5,2e-5 -0.32028,0.207 -0.32032,0.20703 -3e-5,4e-5 -0.22459,0.32418 -0.22461,0.32422 -1e-5,5e-5 -0.082,0.39643 -0.082,0.39649 v 53.96484 c 0,5e-5 0.0781,0.39058 0.0781,0.39062 2e-5,5e-5 0.21481,0.31638 0.21484,0.31641 4e-5,4e-5 0.31832,0.21483 0.31836,0.21484 5e-5,2e-5 0.38862,0.0781 0.38867,0.0781 h 27.50782 c 5e-5,0 0.39644,-0.0801 0.39648,-0.0801 4e-5,-2e-5 0.32419,-0.22457 0.32422,-0.22461 3e-5,-3e-5 0.20896,-0.32222 0.20898,-0.32226 2e-5,-5e-5 0.0703,-0.373 0.0703,-0.37305 v -53.96484 c 0,-6e-5 -0.0742,-0.37887 -0.0742,-0.37891 -2e-5,-4e-5 -0.21872,-0.32809 -0.21875,-0.32813 -4e-5,-3e-5 -0.32613,-0.21873 -0.32618,-0.21875 -4e-5,-10e-6 -0.3808,-0.0742 -0.38085,-0.0742 z m 1,2 h 25.50782 V 376.1875 H 252.9707 Z"
       id="rect96-1-0-9" /><path
       style="-inkscape-font-specification:'Inconsolata Bold';stroke:none;stroke-width:1.83639"
       d="m 244.19556,354.92778 q 0.76664,0 1.44673,-0.264 0.66772,-0.27867 1.11287,-0.836 l -0.68009,-1.36401 -0.0495,-0.11734 -0.11128,0.0733 q -0.0247,0.11733 -0.0618,0.23466 -0.0495,0.10271 -0.19784,0.264 -0.30913,0.27867 -0.68009,0.45468 -0.38332,0.17599 -0.82847,0.17599 -0.58116,0 -0.93975,-0.29333 -0.37096,-0.308 -0.37096,-0.89467 0,-0.29334 0.11129,-0.54268 0.11128,-0.26399 0.44515,-0.52799 0.32149,-0.26401 0.96449,-0.616 0.79137,-0.41068 1.26124,-0.82134 0.45752,-0.42534 0.65537,-0.90934 0.19784,-0.49867 0.19784,-1.11467 0,-0.67467 -0.30913,-1.20268 -0.3215,-0.528 -0.87793,-0.836 -0.55643,-0.30801 -1.27362,-0.30801 -1.422,0 -2.33703,1.17335 l 0.81611,1.11467 0.0742,0.1027 0.0989,-0.088 q 0.0124,-0.11734 0.0495,-0.22001 0.0247,-0.11732 0.16075,-0.29332 0.23493,-0.26401 0.50697,-0.35201 0.25967,-0.088 0.61826,-0.088 0.50697,0 0.80374,0.27867 0.29676,0.27867 0.29676,0.64533 0,0.29334 -0.11128,0.52801 -0.11129,0.23466 -0.44515,0.49867 -0.34622,0.264 -1.05104,0.63066 -0.77901,0.42534 -1.22416,0.83601 -0.44515,0.396 -0.61826,0.88 -0.18548,0.48401 -0.18548,1.12934 0,0.66 0.2844,1.27601 0.2844,0.616 0.8903,1.01201 0.60589,0.38133 1.55802,0.38133 z m -6.70195,-0.16134 v -2.17067 h 3.01711 v -1.08534 l -3.33861,-5.88136 h -1.03867 v 5.63202 h -1.01396 v 1.34935 h 1.01396 v 2.156 z m 1.60748,-3.47601 h -1.64457 v -3.05068 z"
       id="text1-4-6-8"
       aria-label="S4" /></g><g
     id="g43"
     inkscape:label="S3"
     style="stroke:#000000"
     transform="matrix(1.1861283,0,0,1,-49.458871,0)"><path
       style="color:#000000;fill:#000000;stroke:none;-inkscape-stroke:none"
       d="m 251.9707,256.94336 c -5e-5,0 -0.373,0.0722 -0.37304,0.0723 -5e-5,2e-5 -0.32028,0.207 -0.32032,0.20704 -3e-5,3e-5 -0.22459,0.32417 -0.22461,0.32421 -1e-5,5e-5 -0.082,0.39644 -0.082,0.39649 v 53.96484 c 0,6e-5 0.0781,0.38863 0.0781,0.38867 2e-5,5e-5 0.21481,0.31833 0.21484,0.31836 4e-5,4e-5 0.31832,0.21483 0.31836,0.21485 5e-5,2e-5 0.38862,0.0781 0.38867,0.0781 h 27.50782 c 5e-5,0 0.39644,-0.082 0.39648,-0.082 4e-5,-2e-5 0.32419,-0.22457 0.32422,-0.22461 3e-5,-3e-5 0.20896,-0.32026 0.20898,-0.32031 2e-5,-5e-5 0.0703,-0.37299 0.0703,-0.37305 v -53.96484 c 0,-5e-5 -0.0742,-0.38082 -0.0742,-0.38086 -2e-5,-4e-5 -0.21872,-0.32614 -0.21875,-0.32617 -4e-5,-3e-5 -0.32613,-0.21873 -0.32618,-0.21875 -4e-5,-2e-5 -0.3808,-0.0742 -0.38085,-0.0742 z m 1,2 h 25.50782 V 310.9082 H 252.9707 Z"
       id="rect96-1-0" /><path
       style="-inkscape-font-specification:'Inconsolata Bold';stroke:none;stroke-width:1.83639"
       d="m -265.9525,265.9466 q -0.83494,0 -1.57562,-0.24241 -0.72722,-0.25587 -1.21203,-0.76761 l 0.74068,-1.25242 0.0539,-0.10774 0.1212,0.0673 q 0.0269,0.10773 0.0673,0.21547 0.0539,0.0943 0.21547,0.2424 0.33667,0.25587 0.74068,0.41748 0.41747,0.1616 0.90228,0.1616 0.63294,0 1.02348,-0.26934 0.40401,-0.2828 0.40401,-0.82148 0,-0.26934 -0.1212,-0.49827 -0.1212,-0.24241 -0.48481,-0.48481 -0.35014,-0.24241 -1.05042,-0.56561 -0.86188,-0.37708 -1.37362,-0.75415 -0.49828,-0.39054 -0.71375,-0.83495 -0.21547,-0.45787 -0.21547,-1.02348 0,-0.61948 0.33668,-1.10429 0.35014,-0.48481 0.95615,-0.76761 0.60601,-0.28281 1.38709,-0.28281 1.54869,0 2.54524,1.07736 l -0.88881,1.02348 -0.0808,0.0943 -0.10773,-0.0808 q -0.0135,-0.10774 -0.0539,-0.20201 -0.0269,-0.10773 -0.17507,-0.26933 -0.25587,-0.24241 -0.55214,-0.32321 -0.28281,-0.0808 -0.67335,-0.0808 -0.55214,0 -0.87535,0.25587 -0.3232,0.25587 -0.3232,0.59254 0,0.26934 0.1212,0.48481 0.1212,0.21547 0.48481,0.45788 0.37707,0.2424 1.14469,0.57907 0.84841,0.39054 1.33322,0.76762 0.48481,0.3636 0.67334,0.80801 0.20201,0.44441 0.20201,1.03695 0,0.60601 -0.30974,1.17162 -0.30974,0.56561 -0.96962,0.92922 -0.65988,0.35014 -1.69683,0.35014 z m 6.63918,0.0135 q -0.74067,0 -1.44095,-0.2424 -0.70028,-0.25587 -1.13122,-0.76761 l 0.76761,-1.11776 0.0808,-0.10773 0.10774,0.0673 q 0.0269,0.10774 0.0539,0.21547 0.0404,0.10774 0.20201,0.26934 0.2424,0.21547 0.56561,0.35014 0.3232,0.1212 0.72721,0.1212 0.64641,0 0.98308,-0.3636 0.35014,-0.37708 0.35014,-0.96962 0,-0.83495 -0.56561,-1.15815 -0.55214,-0.32321 -1.64296,-0.20201 v -1.18508 q 0.79455,0.0135 1.22549,-0.14814 0.44441,-0.17507 0.61948,-0.47134 0.17507,-0.29627 0.17507,-0.63295 0,-0.49827 -0.30974,-0.78108 -0.29627,-0.29627 -0.80802,-0.29627 -0.404,0 -0.79454,0.16161 -0.37708,0.14813 -0.67335,0.4848 l -0.87535,-0.88881 q 0.47134,-0.55214 1.11776,-0.78108 0.64641,-0.22894 1.27935,-0.22894 0.74068,0 1.30629,0.28281 0.57908,0.2828 0.90228,0.76761 0.32321,0.48481 0.32321,1.11775 0,0.70028 -0.40401,1.19856 -0.39054,0.4848 -0.90228,0.68681 0.39054,0.13467 0.74068,0.40401 0.36361,0.26933 0.57908,0.70027 0.22893,0.43094 0.22893,1.02349 0,0.70028 -0.33667,1.26589 -0.33667,0.55214 -0.96962,0.88881 -0.61947,0.33667 -1.48136,0.33667 z"
       id="text1-4-6-0"
       transform="scale(-0.91819338,1.0890952)"
       aria-label="S3" /></g><g
     id="g17"
     inkscape:label="S2"
     style="stroke:#000000"><path
       style="color:#000000;fill:#000000;stroke:none;stroke-width:1.0891;-inkscape-stroke:none"
       d="m 343.49078,137.90234 c -6e-5,0 -0.46096,0.0781 -0.46101,0.0781 -5e-5,2e-5 -0.37758,0.21481 -0.37761,0.21484 -4e-5,4e-5 -0.25481,0.31832 -0.25484,0.31836 -2e-5,5e-5 -0.0926,0.38862 -0.0926,0.38867 v 53.96485 c 0,5e-5 0.0926,0.38862 0.0926,0.38867 3e-5,4e-5 0.2548,0.32028 0.25484,0.32031 3e-5,4e-5 0.37756,0.21287 0.37761,0.21289 5e-5,2e-5 0.46095,0.0801 0.46101,0.0801 h 32.62781 c 7e-5,0 0.46096,-0.0801 0.46102,-0.0801 4e-5,-2e-5 0.37756,-0.21285 0.3776,-0.21289 5e-5,-3e-5 0.25482,-0.32027 0.25485,-0.32031 2e-5,-5e-5 0.0926,-0.38862 0.0926,-0.38867 v -53.96485 c 0,-5e-5 -0.0926,-0.38862 -0.0926,-0.38867 -3e-5,-4e-5 -0.2548,-0.31832 -0.25485,-0.31836 -4e-5,-3e-5 -0.37756,-0.21482 -0.3776,-0.21484 -6e-5,-2e-5 -0.46095,-0.0781 -0.46102,-0.0781 z m 1.18613,2 h 30.25555 v 51.9668 h -30.25555 z"
       id="rect96" /><path
       style="-inkscape-font-specification:'Inconsolata Bold';fill:#000000;stroke:none;stroke-width:2"
       d="m 363.46401,132.90239 q 0.90934,0 1.71601,-0.264 0.792,-0.27867 1.32,-0.836 l -0.80667,-1.364 -0.0587,-0.11734 -0.13201,0.0733 q -0.0293,0.11733 -0.0733,0.23466 -0.0587,0.10267 -0.23467,0.264 -0.36666,0.27867 -0.80666,0.45467 -0.45467,0.176 -0.98267,0.176 -0.68934,0 -1.11467,-0.29333 -0.44,-0.308 -0.44,-0.89467 0,-0.29334 0.132,-0.54267 0.132,-0.264 0.528,-0.528 0.38133,-0.264 1.144,-0.616 0.93867,-0.41067 1.496,-0.82134 0.54267,-0.42533 0.77734,-0.90933 0.23467,-0.49867 0.23467,-1.11467 0,-0.67467 -0.36667,-1.20267 -0.38134,-0.528 -1.04134,-0.836 -0.66,-0.308 -1.51067,-0.308 -1.68667,0 -2.772,1.17333 l 0.968,1.11467 0.088,0.10267 0.11733,-0.088 q 0.0147,-0.11734 0.0587,-0.22 0.0293,-0.11734 0.19067,-0.29334 0.27866,-0.264 0.60133,-0.352 0.308,-0.088 0.73334,-0.088 0.60133,0 0.95333,0.27867 0.352,0.27867 0.352,0.64533 0,0.29334 -0.132,0.52801 -0.132,0.23466 -0.528,0.49866 -0.41067,0.264 -1.24667,0.63067 -0.924,0.42534 -1.452,0.836 -0.528,0.396 -0.73334,0.88001 -0.22,0.484 -0.22,1.12933 0,0.66 0.33734,1.276 0.33733,0.61601 1.056,1.01201 0.71867,0.38133 1.848,0.38133 z m -4.62001,-1.39334 q -1.056,-1.02666 -1.83333,-1.77467 -0.77734,-0.76266 -1.29067,-1.34933 -0.51334,-0.60134 -0.76267,-1.12934 -0.24934,-0.54267 -0.24934,-1.144 0,-1.26134 1.29067,-1.26134 0.46934,0 0.85067,0.16134 0.38134,0.16133 0.68934,0.528 0.132,0.20533 0.176,0.308 0.0293,0.10266 0.0147,0.22 l 0.088,0.10267 0.10267,-0.0733 1.144,-0.88 q -0.49866,-0.836 -1.30533,-1.29067 -0.82134,-0.45467 -1.77467,-0.45467 -0.79201,0 -1.43734,0.33734 -0.64534,0.32266 -1.02667,0.90933 -0.38133,0.58667 -0.38133,1.39334 0,0.93867 0.44,1.74534 0.44,0.792 1.24667,1.628 0.792,0.836 1.848,1.90667 h -2.88934 q -0.23467,0 -0.33733,-0.0293 -0.11734,-0.0293 -0.20534,-0.11734 h -0.132 v 1.49601 h 5.73468 z"
       id="text3"
       aria-label="S2" /></g><g
     id="g37"
     inkscape:label="S1"
     style="stroke:#000000"><path
       style="color:#000000;fill:#000000;stroke:none;stroke-width:1.08906;-inkscape-stroke:none"
       d="m 602.63232,137.90234 c -6e-5,0 -0.46556,0.0801 -0.46562,0.0801 -4e-5,2e-5 -0.37986,0.22067 -0.3799,0.2207 -3e-5,4e-5 -0.25016,0.31637 -0.25018,0.31641 -3e-5,5e-5 -0.0904,0.38276 -0.0904,0.38281 v 53.96485 c 0,5e-5 0.0858,0.37495 0.0858,0.375 10e-6,4e-5 0.24783,0.32028 0.24786,0.32031 4e-5,3e-5 0.38217,0.22459 0.38223,0.22461 5e-5,2e-5 0.47018,0.082 0.47024,0.082 h 32.62785 c 6e-5,0 0.46092,-0.0801 0.46098,-0.0801 5e-5,-2e-5 0.37754,-0.21285 0.37759,-0.21289 4e-5,-3e-5 0.25247,-0.31831 0.2525,-0.31836 2e-5,-4e-5 0.095,-0.39057 0.095,-0.39062 v -53.96485 c 0,-5e-5 -0.0996,-0.39839 -0.0996,-0.39843 -2e-5,-5e-5 -0.25709,-0.31442 -0.25713,-0.31446 -4e-5,-3e-5 -0.37058,-0.20896 -0.37064,-0.20898 -5e-5,-2e-5 -0.4586,-0.0781 -0.45866,-0.0781 z m 1.18605,2 h 30.25575 v 51.9668 h -30.25575 z"
       id="rect96-1" /><path
       style="-inkscape-font-specification:'Inconsolata Semi-Bold';stroke:none;stroke-width:2"
       d="m -621.63025,133.06336 q -0.90933,0 -1.68667,-0.27867 -0.76267,-0.27867 -1.30534,-0.836 l 0.71867,-1.21734 0.0733,-0.132 0.11733,0.0733 q 0.0293,0.10267 0.0733,0.22001 0.044,0.11733 0.22,0.29333 0.36667,0.27867 0.83601,0.46933 0.46933,0.176 1.02667,0.176 0.73333,0 1.20266,-0.352 0.46934,-0.352 0.46934,-0.95333 0,-0.352 -0.14667,-0.616 -0.132,-0.264 -0.54267,-0.528 -0.41066,-0.27867 -1.20267,-0.63067 -1.42267,-0.60134 -1.98,-1.26134 -0.54267,-0.66 -0.54267,-1.55467 0,-0.66 0.36667,-1.188 0.36667,-0.528 1.012,-0.82134 0.64534,-0.308 1.49601,-0.308 1.64267,0 2.71333,1.17334 l -0.85066,0.99733 -0.088,0.11734 -0.10267,-0.088 q -0.0147,-0.11734 -0.0587,-0.23467 -0.0293,-0.11733 -0.19066,-0.29333 -0.30801,-0.27867 -0.66001,-0.38134 -0.33733,-0.10267 -0.80666,-0.10267 -0.63067,0 -1.01201,0.32267 -0.36666,0.32267 -0.36666,0.748 0,0.33734 0.14666,0.60134 0.14667,0.24933 0.572,0.528 0.44,0.27867 1.29067,0.64533 0.92401,0.41067 1.43734,0.80667 0.528,0.396 0.73334,0.86534 0.22,0.45467 0.22,1.07067 0,0.66 -0.33734,1.276 -0.33733,0.60134 -1.04133,0.99734 -0.68934,0.396 -1.80401,0.396 z m 6.90802,-0.16134 v -7.52401 l -1.71601,0.572 -0.32266,-0.90934 2.43467,-1.29067 h 1.056 v 9.15202 z"
       id="text1-4-6-2"
       transform="scale(-1,1)"
       aria-label="S1" /></g><g
     id="g39"
     inkscape:label="R66"
     style="stroke:#000000"><path
       style="color:#000000;fill:#000000;stroke:none;-inkscape-stroke:none"
       d="m 705.4043,226.10547 c -14.44677,0 -26.17773,11.73292 -26.17774,26.17969 0,14.44677 11.73097,26.17968 26.17774,26.17968 14.44677,1e-5 26.17969,-11.73291 26.17968,-26.17968 0,-14.44677 -11.73291,-26.17969 -26.17968,-26.17969 z m 0,2 c 13.36589,0 24.17968,10.8138 24.17968,24.17969 10e-6,13.36589 -10.81379,24.17969 -24.17968,24.17968 -13.36589,0 -24.17774,-10.81379 -24.17774,-24.17968 1e-5,-13.36589 10.81185,-24.17969 24.17774,-24.17969 z"
       id="path96-78-7" /><path
       style="-inkscape-font-specification:'Inconsolata Bold';stroke:none;stroke-width:1.99998"
       d="m 715.7442,221.10298 v -9.13729 h -2.88932 q -1.672,0 -2.44933,0.73333 -0.77733,0.73333 -0.77733,1.95066 0,0.49866 0.22,1.01199 0.20534,0.49867 0.60133,0.89467 0.38134,0.39599 0.89467,0.58666 l -1.96533,3.95998 h 1.74533 l 1.84799,-3.79865 h 1.09999 v 3.79865 z m -1.672,-5.17731 h -1.33466 q -0.70399,0 -1.05599,-0.32266 -0.352,-0.33734 -0.352,-0.90933 0,-0.528 0.352,-0.90933 0.352,-0.38133 1.05599,-0.38133 h 1.33466 z m -8.81462,5.33864 q 0.98266,0 1.67199,-0.54266 0.67466,-0.54266 1.04133,-1.51066 0.352,-0.98266 0.352,-2.30266 0,-1.61332 -0.44,-2.74265 -0.44,-1.144 -1.21733,-1.74533 -0.77733,-0.60133 -1.77466,-0.60133 -0.60133,0 -1.21733,0.22 -0.61599,0.20534 -1.09999,0.67467 l 0.90933,1.01199 0.088,0.11733 0.11733,-0.088 q 0,-0.13199 0.088,-0.20533 0.0733,-0.0733 0.264,-0.20533 0.32266,-0.14667 0.704,-0.14667 0.27866,0 0.60133,0.10267 0.308,0.088 0.60133,0.38133 0.29333,0.27867 0.49866,0.82133 0.20533,0.528 0.24933,1.39333 -0.29333,-0.38133 -0.74799,-0.58667 -0.46933,-0.21999 -0.93866,-0.21999 -0.73333,0 -1.32,0.33733 -0.58666,0.33733 -0.92399,0.99733 -0.352,0.65999 -0.352,1.65732 0,0.90933 0.36666,1.62799 0.36667,0.71867 1.012,1.144 0.64533,0.41066 1.46666,0.41066 z m -0.0293,-1.33466 q -0.55733,0 -0.90932,-0.49866 -0.36667,-0.51333 -0.36667,-1.34933 0,-0.86533 0.41066,-1.27599 0.396,-0.41067 0.88,-0.41067 0.45467,0 0.80666,0.27867 0.33734,0.27866 0.60133,0.71866 0.0587,1.11466 -0.33733,1.83333 -0.396,0.71866 -1.08533,0.70399 z m -7.30396,1.33466 q 0.98266,0 1.67199,-0.54266 0.67466,-0.54266 1.04133,-1.51066 0.352,-0.98266 0.352,-2.30266 0,-1.61332 -0.44,-2.74265 -0.44,-1.144 -1.21733,-1.74533 -0.77733,-0.60133 -1.77466,-0.60133 -0.60133,0 -1.21733,0.22 -0.61599,0.20534 -1.09999,0.67467 l 0.90933,1.01199 0.088,0.11733 0.11733,-0.088 q 0,-0.13199 0.088,-0.20533 0.0733,-0.0733 0.264,-0.20533 0.32266,-0.14667 0.704,-0.14667 0.27866,0 0.60133,0.10267 0.308,0.088 0.60133,0.38133 0.29333,0.27867 0.49866,0.82133 0.20533,0.528 0.24933,1.39333 -0.29333,-0.38133 -0.74799,-0.58667 -0.46933,-0.21999 -0.93866,-0.21999 -0.73333,0 -1.32,0.33733 -0.58666,0.33733 -0.92399,0.99733 -0.352,0.65999 -0.352,1.65732 0,0.90933 0.36666,1.62799 0.36667,0.71867 1.012,1.144 0.64533,0.41066 1.46666,0.41066 z m -0.0293,-1.33466 q -0.55733,0 -0.90933,-0.49866 -0.36666,-0.51333 -0.36666,-1.34933 0,-0.86533 0.41066,-1.27599 0.396,-0.41067 0.88,-0.41067 0.45467,0 0.80666,0.27867 0.33734,0.27866 0.60133,0.71866 0.0587,1.11466 -0.33733,1.83333 -0.396,0.71866 -1.08533,0.70399 z"
       id="text1-4-6-59"
       aria-label="R66" /></g><g
     id="g46"
     inkscape:label="R53"
     style="stroke:#000000;stroke-opacity:1"><path
       style="color:#000000;fill:#000000;stroke:none;-inkscape-stroke:none"
       d="m 396.28516,448.82422 c -14.44678,0 -26.17969,11.73291 -26.17969,26.17969 0,14.44677 11.73291,26.17969 26.17969,26.17968 14.44677,1e-5 26.17969,-11.73291 26.17968,-26.17968 1e-5,-14.44678 -11.73291,-26.17969 -26.17968,-26.17969 z m 0,2 c 13.36589,0 24.17969,10.81379 24.17968,24.17969 1e-5,13.36589 -10.81379,24.17969 -24.17968,24.17968 -13.3659,1e-5 -24.17969,-10.81379 -24.17969,-24.17968 0,-13.3659 10.81379,-24.17969 24.17969,-24.17969 z"
       id="path96-7-2-5" /><path
       style="-inkscape-font-specification:'Inconsolata Bold';stroke:none;stroke-width:2"
       d="m -406.52985,443.64835 v -9.13736 h 2.88934 q 1.67201,0 2.44934,0.73334 0.77734,0.73333 0.77734,1.95067 0,0.49867 -0.22,1.012 -0.20534,0.49867 -0.60134,0.89467 -0.38133,0.396 -0.89467,0.58667 l 1.96534,3.96001 h -1.74534 l -1.848,-3.79868 h -1.1 v 3.79868 z m 1.67201,-5.17735 h 1.33467 q 0.704,0 1.056,-0.32267 0.352,-0.33733 0.352,-0.90933 0,-0.528 -0.352,-0.90934 -0.352,-0.38133 -1.056,-0.38133 h -1.33467 z m 8.69735,5.35335 q -0.95334,0 -1.73067,-0.36667 -0.76267,-0.36667 -1.17334,-1.08534 l 1.15867,-0.95333 0.11734,-0.088 0.0733,0.10266 q 0,0.11734 0.044,0.22 0.044,0.10267 0.19067,0.29334 0.51333,0.528 1.30533,0.528 0.66,0 1.08534,-0.484 0.42533,-0.49867 0.42533,-1.24667 0,-0.80667 -0.41067,-1.30534 -0.41066,-0.51333 -1.144,-0.51333 -0.924,0 -1.48133,0.71867 l -1.01201,-0.264 0.33734,-4.86935 h 4.88401 v 1.33467 h -3.50534 l -0.132,2.06801 q 0.264,-0.14667 0.616,-0.23467 0.36667,-0.088 0.67467,-0.088 1.21733,0 1.98,0.792 0.76267,0.77734 0.76267,2.24401 0,0.99733 -0.396,1.716 -0.396,0.704 -1.1,1.1 -0.68934,0.38134 -1.56934,0.38134 z m 7.08402,0 q -0.80667,0 -1.56934,-0.264 -0.76267,-0.27867 -1.232,-0.83601 l 0.836,-1.21733 0.088,-0.11734 0.11733,0.0733 q 0.0293,0.11733 0.0587,0.23466 0.044,0.11734 0.22,0.29334 0.264,0.23467 0.616,0.38133 0.352,0.132 0.792,0.132 0.704,0 1.07067,-0.396 0.38133,-0.41067 0.38133,-1.056 0,-0.90934 -0.616,-1.26134 -0.60133,-0.352 -1.78933,-0.22 v -1.29067 q 0.86533,0.0147 1.33467,-0.16133 0.484,-0.19067 0.67466,-0.51333 0.19067,-0.32267 0.19067,-0.68934 0,-0.54267 -0.33733,-0.85067 -0.32267,-0.32267 -0.88001,-0.32267 -0.44,0 -0.86533,0.176 -0.41067,0.16134 -0.73334,0.52801 l -0.95333,-0.96801 q 0.51333,-0.60133 1.21734,-0.85066 0.704,-0.24934 1.39333,-0.24934 0.80667,0 1.42267,0.308 0.63067,0.308 0.98267,0.836 0.352,0.52801 0.352,1.21734 0,0.76267 -0.44,1.30534 -0.42533,0.528 -0.98267,0.748 0.42534,0.14667 0.80667,0.44 0.396,0.29333 0.63067,0.76267 0.24933,0.46933 0.24933,1.11467 0,0.76267 -0.36667,1.37867 -0.36666,0.60133 -1.056,0.968 -0.67467,0.36667 -1.61333,0.36667 z"
       id="text1-4-6-64"
       transform="scale(-1,1)"
       aria-label="R53" /></g><g
     id="g45"
     inkscape:label="R51"
     style="stroke:#000000;stroke-opacity:1"><path
       style="color:#000000;fill:#000000;stroke:none;-inkscape-stroke:none"
       d="m 283.00586,448.82422 c -14.44677,0 -26.17969,11.73292 -26.17969,26.17969 0,14.44677 11.73292,26.17968 26.17969,26.17968 14.44677,1e-5 26.17969,-11.73291 26.17969,-26.17968 0,-14.44678 -11.73292,-26.17969 -26.17969,-26.17969 z m 0,2 c 13.36589,0 24.17969,10.81379 24.17969,24.17969 0,13.36589 -10.8138,24.17969 -24.17969,24.17968 -13.36589,0 -24.17969,-10.81379 -24.17969,-24.17968 0,-13.36589 10.8138,-24.17969 24.17969,-24.17969 z"
       id="path96-7-2" /><path
       style="-inkscape-font-specification:'Inconsolata Bold';stroke:none;stroke-width:2"
       d="m 292.36321,443.64835 v -9.13736 h -2.88934 q -1.672,0 -2.44934,0.73334 -0.77733,0.73333 -0.77733,1.95067 0,0.49867 0.22,1.012 0.20533,0.49867 0.60133,0.89467 0.38134,0.396 0.89467,0.58667 l -1.96533,3.96001 h 1.74533 l 1.84801,-3.79868 h 1.1 v 3.79868 z m -1.672,-5.17735 h -1.33467 q -0.704,0 -1.056,-0.32267 -0.352,-0.33733 -0.352,-0.90933 0,-0.528 0.352,-0.90934 0.352,-0.38133 1.056,-0.38133 h 1.33467 z m -8.69735,5.35335 q 0.95333,0 1.73067,-0.36667 0.76267,-0.36667 1.17333,-1.08534 l -1.15867,-0.95333 -0.11733,-0.088 -0.0733,0.10266 q 0,0.11734 -0.044,0.22 -0.044,0.10267 -0.19067,0.29334 -0.51334,0.528 -1.30534,0.528 -0.66,0 -1.08533,-0.484 -0.42534,-0.49867 -0.42534,-1.24667 0,-0.80667 0.41067,-1.30534 0.41067,-0.51333 1.144,-0.51333 0.92401,0 1.48134,0.71867 l 1.012,-0.264 -0.33733,-4.86935 h -4.88401 v 1.33467 h 3.50534 l 0.132,2.06801 q -0.264,-0.14667 -0.616,-0.23467 -0.36667,-0.088 -0.67467,-0.088 -1.21734,0 -1.98001,0.792 -0.76266,0.77734 -0.76266,2.24401 0,0.99733 0.396,1.716 0.396,0.704 1.1,1.1 0.68933,0.38134 1.56934,0.38134 z m -6.68802,-0.176 V 436.315 l 1.65734,0.58666 0.352,-1.1 -2.43467,-1.29067 h -1.23201 v 9.13736 z"
       id="text1-4-6-10"
       aria-label="R51" /></g><g
     id="g52"
     inkscape:label="R49"
     style="stroke:#000000;stroke-opacity:1"><path
       style="color:#000000;fill:#000000;stroke:none;-inkscape-stroke:none"
       d="m 592.12695,533.30469 c -14.44677,0 -26.17969,11.73291 -26.17968,26.17968 0,14.44678 11.73291,26.17969 26.17968,26.17969 14.44677,0 26.17773,-11.73292 26.17774,-26.17969 0,-14.44677 -11.73097,-26.17968 -26.17774,-26.17968 z m 0,2 c 13.36589,0 24.17774,10.81379 24.17774,24.17968 -1e-5,13.36589 -10.81185,24.17969 -24.17774,24.17969 -13.36589,0 -24.17968,-10.81379 -24.17968,-24.17969 -10e-6,-13.36589 10.81379,-24.17968 24.17968,-24.17968 z"
       id="path96-7-2-5-3" /><path
       style="-inkscape-font-specification:'Inconsolata Bold';stroke:none;stroke-width:2"
       d="M -597.81662,528.30536 V 519.168 h 2.88934 q 1.672,0 2.44934,0.73334 0.77733,0.73333 0.77733,1.95067 0,0.49867 -0.22,1.012 -0.20533,0.49867 -0.60133,0.89467 -0.38134,0.396 -0.89467,0.58667 l 1.96534,3.96001 h -1.74534 l -1.84801,-3.79868 h -1.1 v 3.79868 z m 1.672,-5.17735 h 1.33467 q 0.704,0 1.056,-0.32266 0.352,-0.33734 0.352,-0.90934 0,-0.528 -0.352,-0.90933 -0.352,-0.38134 -1.056,-0.38134 h -1.33467 z m 8.05202,5.17735 v -7.33335 l -1.65734,0.58667 -0.352,-1.10001 2.43467,-1.29067 h 1.23201 v 9.13736 z"
       id="text1-4-6-56"
       transform="scale(-1,1)"
       aria-label="R1" /></g><g
     id="g58"
     inkscape:label="R43"
     style="stroke:#000000"><path
       style="-inkscape-font-specification:'Inconsolata Bold';stroke:none;stroke-width:2"
       d="m 682.14642,289.76431 v -9.13735 h -2.88934 q -1.672,0 -2.44934,0.73333 -0.77733,0.73334 -0.77733,1.95067 0,0.49867 0.22,1.01201 0.20533,0.49866 0.60133,0.89467 0.38133,0.396 0.89467,0.58666 l -1.96534,3.96001 h 1.74534 l 1.848,-3.79867 h 1.10001 v 3.79867 z m -1.672,-5.17734 h -1.33467 q -0.70401,0 -1.05601,-0.32267 -0.352,-0.33733 -0.352,-0.90934 0,-0.528 0.352,-0.90933 0.352,-0.38133 1.05601,-0.38133 h 1.33467 z m -9.16669,5.17734 v -2.17067 h 3.57867 v -1.08533 l -3.96001,-5.88135 h -1.232 v 5.63201 h -1.20267 v 1.34934 h 1.20267 v 2.156 z m 1.90667,-3.47601 h -1.95067 v -3.05067 z m -8.52135,3.65201 q 0.80666,0 1.56933,-0.264 0.76267,-0.27866 1.23201,-0.836 l -0.83601,-1.21734 -0.088,-0.11733 -0.11733,0.0733 q -0.0293,0.11734 -0.0587,0.23467 -0.044,0.11734 -0.22,0.29334 -0.264,0.23466 -0.616,0.38133 -0.352,0.132 -0.792,0.132 -0.704,0 -1.07067,-0.396 -0.38133,-0.41067 -0.38133,-1.056 0,-0.90934 0.616,-1.26134 0.60133,-0.352 1.78933,-0.22 v -1.29067 q -0.86533,0.0147 -1.33466,-0.16133 -0.48401,-0.19067 -0.67467,-0.51334 -0.19067,-0.32267 -0.19067,-0.68933 0,-0.54267 0.33733,-0.85067 0.32267,-0.32267 0.88001,-0.32267 0.44,0 0.86533,0.176 0.41067,0.16134 0.73334,0.528 l 0.95333,-0.968 q -0.51333,-0.60133 -1.21733,-0.85067 -0.70401,-0.24933 -1.39334,-0.24933 -0.80667,0 -1.42267,0.308 -0.63067,0.308 -0.98267,0.836 -0.352,0.528 -0.352,1.21734 0,0.76267 0.44,1.30533 0.42533,0.528 0.98267,0.748 -0.42533,0.14667 -0.80667,0.44001 -0.396,0.29333 -0.63067,0.76266 -0.24933,0.46934 -0.24933,1.11467 0,0.76267 0.36667,1.37867 0.36666,0.60134 1.056,0.96801 0.67467,0.36666 1.61334,0.36666 z"
       id="text1-4-6-25"
       aria-label="R43" /><path
       style="color:#000000;fill:#000000;stroke:none;stroke-miterlimit:10;-inkscape-stroke:none"
       d="m 648.75977,234.98242 v 28.07422 6.5 h -5.625 v 32 h 5.625 v 6.5 25.27734 h -39.86133 v 2 h 41.86133 v -27.27734 -6.5 h 5.625 v -32 h -5.625 v -6.5 -26.07422 h 36.1582 v -2 z m -3.625,36.57422 h 9.25 v 28 h -9.25 z"
       id="path1-43" /></g><g
     id="g40"
     inkscape:label="R38"
     style="stroke:#000000"><path
       style="color:#000000;fill:#000000;stroke:none;-inkscape-stroke:none"
       d="m 592.12695,289.46484 c -14.44677,0 -26.17968,11.73292 -26.17968,26.17969 -10e-6,14.44678 11.73291,26.17969 26.17968,26.17969 14.44677,-1e-5 26.17774,-11.73292 26.17774,-26.17969 -1e-5,-14.44676 -11.73097,-26.17968 -26.17774,-26.17969 z m 0,2 c 13.36589,1e-5 24.17773,10.8138 24.17774,24.17969 0,13.36589 -10.81185,24.17969 -24.17774,24.17969 -13.36589,0 -24.17969,-10.81379 -24.17968,-24.17969 0,-13.36589 10.81379,-24.17969 24.17968,-24.17969 z"
       id="path96-78" /><path
       style="-inkscape-font-specification:'Inconsolata Bold';stroke:none;stroke-width:2"
       d="m 602.48799,284.46503 v -9.13736 h -2.88934 q -1.67201,0 -2.44934,0.73334 -0.77734,0.73333 -0.77734,1.95067 0,0.49867 0.22,1.012 0.20534,0.49867 0.60134,0.89467 0.38133,0.396 0.89467,0.58667 l -1.96534,3.96001 h 1.74533 l 1.84801,-3.79868 h 1.1 v 3.79868 z m -1.67201,-5.17735 h -1.33467 q -0.704,0 -1.056,-0.32267 -0.352,-0.33733 -0.352,-0.90933 0,-0.528 0.352,-0.90934 0.352,-0.38133 1.056,-0.38133 h 1.33467 z m -8.44802,5.35335 q 0.80667,0 1.56934,-0.264 0.76267,-0.27867 1.232,-0.83601 l -0.836,-1.21733 -0.088,-0.11734 -0.11733,0.0733 q -0.0293,0.11733 -0.0587,0.23467 -0.044,0.11733 -0.22,0.29333 -0.264,0.23467 -0.616,0.38133 -0.352,0.132 -0.792,0.132 -0.70401,0 -1.07067,-0.396 -0.38134,-0.41066 -0.38134,-1.056 0,-0.90933 0.616,-1.26134 0.60134,-0.352 1.78934,-0.22 v -1.29067 q -0.86533,0.0147 -1.33467,-0.16133 -0.484,-0.19067 -0.67467,-0.51333 -0.19066,-0.32267 -0.19066,-0.68934 0,-0.54267 0.33733,-0.85067 0.32267,-0.32266 0.88,-0.32266 0.44,0 0.86534,0.176 0.41067,0.16133 0.73333,0.528 l 0.95334,-0.96801 q -0.51334,-0.60133 -1.21734,-0.85066 -0.704,-0.24934 -1.39333,-0.24934 -0.80667,0 -1.42267,0.308 -0.63067,0.308 -0.98267,0.836 -0.352,0.52801 -0.352,1.21734 0,0.76267 0.44,1.30534 0.42533,0.528 0.98267,0.748 -0.42534,0.14667 -0.80667,0.44 -0.396,0.29333 -0.63067,0.76267 -0.24933,0.46933 -0.24933,1.11467 0,0.76267 0.36666,1.37867 0.36667,0.60133 1.05601,0.968 0.67466,0.36667 1.61333,0.36667 z m -7.55335,-0.0147 q 0.924,0 1.61334,-0.32267 0.67467,-0.33733 1.056,-0.89467 0.36667,-0.572 0.36667,-1.29067 0,-0.88 -0.46934,-1.496 -0.484,-0.63067 -1.24667,-1.02667 0.57201,-0.352 0.92401,-0.89467 0.352,-0.55733 0.352,-1.17333 0,-0.66 -0.32267,-1.18801 -0.32267,-0.54266 -0.924,-0.85066 -0.60134,-0.308 -1.43734,-0.308 -1.276,0 -1.96534,0.66 -0.68933,0.66 -0.68933,1.59867 0,0.73333 0.33733,1.29067 0.33734,0.55733 0.90934,0.90933 -0.73334,0.38134 -1.144,1.02667 -0.41067,0.63067 -0.41067,1.408 0,0.73334 0.38133,1.32001 0.38134,0.572 1.07067,0.90933 0.68934,0.32267 1.59867,0.32267 z m -0.308,-5.48535 q -0.42533,-0.308 -0.64533,-0.71866 -0.22,-0.42534 -0.22,-0.86534 0,-0.42533 0.308,-0.71867 0.29333,-0.308 0.82133,-0.308 0.528,0 0.80667,0.29334 0.27867,0.29333 0.27867,0.704 0,0.54267 -0.38134,0.924 -0.396,0.38133 -0.968,0.68933 z m 0.27867,4.12135 q -0.68934,0 -1.04134,-0.36667 -0.352,-0.36667 -0.352,-0.924 0,-0.58667 0.46934,-1.04134 0.45466,-0.45467 1.21733,-0.704 0.51334,0.27867 0.82134,0.704 0.308,0.42534 0.308,0.99734 0,0.572 -0.38134,0.95333 -0.38133,0.38134 -1.04133,0.38134 z"
       id="text1-4-6-9"
       aria-label="R38" /></g><g
     id="g41"
     inkscape:label="R29"
     style="stroke:#000000"><path
       style="color:#000000;fill:#000000;stroke:none;-inkscape-stroke:none"
       d="m 490.36523,289.46484 c -14.44677,0 -26.17968,11.73292 -26.17968,26.17969 0,14.44678 11.73291,26.17969 26.17968,26.17969 14.44677,-1e-5 26.17774,-11.73292 26.17774,-26.17969 -10e-6,-14.44676 -11.73097,-26.17968 -26.17774,-26.17969 z m 0,2 c 13.36589,1e-5 24.17774,10.8138 24.17774,24.17969 0,13.36589 -10.81184,24.17969 -24.17774,24.17969 -13.36589,0 -24.17968,-10.81379 -24.17968,-24.17969 0,-13.36589 10.81379,-24.17969 24.17968,-24.17969 z"
       id="path96-9" /><path
       style="-inkscape-font-specification:'Inconsolata Bold';stroke:none;stroke-width:2"
       d="m -500.66028,284.30334 v -9.13735 h 2.88934 q 1.672,0 2.44934,0.73334 0.77733,0.73333 0.77733,1.95067 0,0.49866 -0.22,1.012 -0.20533,0.49867 -0.60133,0.89467 -0.38134,0.396 -0.89467,0.58667 l 1.96534,3.96 h -1.74534 l -1.848,-3.79867 h -1.10001 v 3.79867 z m 1.672,-5.17734 h 1.33467 q 0.704,0 1.05601,-0.32267 0.352,-0.33733 0.352,-0.90933 0,-0.528 -0.352,-0.90934 -0.35201,-0.38133 -1.05601,-0.38133 h -1.33467 z m 5.83735,3.94534 q 1.056,-1.02667 1.83334,-1.77467 0.77733,-0.76267 1.29067,-1.34934 0.51333,-0.60133 0.76267,-1.12933 0.24933,-0.54267 0.24933,-1.144 0,-1.26134 -1.29067,-1.26134 -0.46933,0 -0.85067,0.16133 -0.38133,0.16134 -0.68933,0.528 -0.132,0.20534 -0.176,0.30801 -0.0293,0.10266 -0.0147,0.22 l -0.088,0.10266 -0.10267,-0.0733 -1.144,-0.88 q 0.49867,-0.836 1.30534,-1.29067 0.82133,-0.45467 1.77467,-0.45467 0.792,0 1.43733,0.33733 0.64534,0.32267 1.02667,0.90934 0.38134,0.58667 0.38134,1.39334 0,0.93866 -0.44,1.74533 -0.44001,0.79201 -1.24667,1.62801 -0.79201,0.836 -1.84801,1.90667 h 2.88934 q 0.23467,0 0.33734,-0.0293 0.11733,-0.0293 0.20533,-0.11733 h 0.132 v 1.496 h -5.73468 z m 9.78269,1.39334 q -0.68934,0 -1.33467,-0.176 -0.64534,-0.19067 -1.17334,-0.64534 l 0.85067,-1.21733 0.0733,-0.11734 0.11733,0.0733 q 0.0293,0.11733 0.088,0.22 0.0587,0.088 0.24933,0.24933 0.46934,0.264 1.07067,0.264 0.71867,0 1.17334,-0.67467 0.45467,-0.68933 0.60133,-1.81867 -0.66,0.42534 -1.52533,0.42534 -0.79201,0 -1.42267,-0.352 -0.63067,-0.352 -1.01201,-1.01201 -0.36666,-0.66 -0.36666,-1.54 0,-0.88 0.396,-1.584 0.41067,-0.704 1.08533,-1.11467 0.67467,-0.41067 1.51067,-0.41067 1.43734,0 2.17068,1.1 0.748,1.08534 0.748,3.13868 0,2.53734 -0.86534,3.85734 -0.85067,1.32 -2.43467,1.33467 z m -1.056,-6.27735 q 0,0.76267 0.396,1.15867 0.41067,0.396 0.98267,0.396 0.44,0 0.792,-0.11733 0.36667,-0.132 0.64533,-0.45467 -0.0293,-1.54 -0.396,-2.17067 -0.352,-0.64534 -1.04133,-0.64534 -0.616,0 -0.99734,0.49867 -0.38133,0.484 -0.38133,1.33467 z"
       id="text1-4-6-83"
       transform="scale(-1,1)"
       aria-label="R29" /></g><g
     id="g42"
     inkscape:label="R28"
     style="stroke:#000000"><path
       style="color:#000000;fill:#000000;stroke:none;-inkscape-stroke:none"
       d="m 388.60352,289.46484 c -14.44677,1e-5 -26.17773,11.73293 -26.17774,26.17969 0,14.44677 11.73097,26.17968 26.17774,26.17969 14.44677,0 26.17968,-11.73291 26.17968,-26.17969 0,-14.44677 -11.73291,-26.17969 -26.17968,-26.17969 z m 0,2 c 13.36589,0 24.17968,10.8138 24.17968,24.17969 0,13.3659 -10.81379,24.17969 -24.17968,24.17969 -13.3659,0 -24.17774,-10.8138 -24.17774,-24.17969 0,-13.36589 10.81185,-24.17968 24.17774,-24.17969 z"
       id="path96-7" /><path
       style="-inkscape-font-specification:'Inconsolata Bold';stroke:none;stroke-width:2"
       d="m 398.96691,284.3027 v -9.13734 h -2.88933 q -1.672,0 -2.44934,0.73333 -0.77733,0.73334 -0.77733,1.95067 0,0.49867 0.22,1.012 0.20533,0.49867 0.60133,0.89467 0.38133,0.396 0.89467,0.58667 l -1.96534,3.96 h 1.74534 l 1.848,-3.79867 h 1.1 v 3.79867 z m -1.672,-5.17734 h -1.33467 q -0.704,0 -1.056,-0.32266 -0.352,-0.33734 -0.352,-0.90934 0,-0.528 0.352,-0.90933 0.352,-0.38133 1.056,-0.38133 h 1.33467 z m -5.83734,3.94534 q -1.056,-1.02667 -1.83333,-1.77467 -0.77734,-0.76266 -1.29067,-1.34933 -0.51334,-0.60134 -0.76267,-1.12934 -0.24933,-0.54266 -0.24933,-1.144 0,-1.26133 1.29067,-1.26133 0.46933,0 0.85066,0.16133 0.38134,0.16134 0.68934,0.528 0.132,0.20534 0.176,0.308 0.0293,0.10267 0.0147,0.22 l 0.088,0.10267 0.10267,-0.0733 1.144,-0.88 q -0.49867,-0.83601 -1.30533,-1.29067 -0.82134,-0.45467 -1.77467,-0.45467 -0.792,0 -1.43734,0.33733 -0.64533,0.32267 -1.02666,0.90934 -0.38134,0.58667 -0.38134,1.39333 0,0.93867 0.44,1.74534 0.44,0.792 1.24667,1.628 0.792,0.836 1.848,1.90667 h -2.88933 q -0.23467,0 -0.33734,-0.0293 -0.11733,-0.0293 -0.20533,-0.11734 h -0.132 v 1.496 h 5.73467 z m -10.16401,1.39334 q 0.924,0 1.61334,-0.32267 0.67466,-0.33733 1.056,-0.89467 0.36666,-0.572 0.36666,-1.29067 0,-0.88 -0.46933,-1.496 -0.484,-0.63066 -1.24667,-1.02666 0.572,-0.35201 0.924,-0.89467 0.352,-0.55734 0.352,-1.17334 0,-0.66 -0.32266,-1.188 -0.32267,-0.54267 -0.924,-0.85067 -0.60134,-0.308 -1.43734,-0.308 -1.276,0 -1.96534,0.66 -0.68933,0.66 -0.68933,1.59867 0,0.73334 0.33733,1.29067 0.33734,0.55733 0.90934,0.90934 -0.73334,0.38133 -1.144,1.02666 -0.41067,0.63067 -0.41067,1.408 0,0.73334 0.38133,1.32001 0.38134,0.572 1.07067,0.90933 0.68934,0.32267 1.59867,0.32267 z m -0.308,-5.48534 q -0.42533,-0.308 -0.64533,-0.71867 -0.22,-0.42533 -0.22,-0.86533 0,-0.42534 0.308,-0.71867 0.29333,-0.308 0.82133,-0.308 0.528,0 0.80667,0.29333 0.27866,0.29334 0.27866,0.704 0,0.54267 -0.38133,0.924 -0.396,0.38134 -0.968,0.68934 z m 0.27867,4.12134 q -0.68934,0 -1.04134,-0.36667 -0.352,-0.36667 -0.352,-0.924 0,-0.58667 0.46934,-1.04134 0.45466,-0.45466 1.21733,-0.704 0.51333,0.27867 0.82133,0.704 0.30801,0.42534 0.30801,0.99734 0,0.572 -0.38134,0.95333 -0.38133,0.38134 -1.04133,0.38134 z"
       id="text1-4-6-24"
       aria-label="R28" /></g><g
     id="g25"
     inkscape:label="R22"
     style="stroke:#000000"><path
       style="color:#000000;fill:#000000;stroke:none;-inkscape-stroke:none"
       d="m 538.94531,139.70508 c -14.44677,0 -26.17968,11.73292 -26.17969,26.17969 0,14.44677 11.73292,26.17968 26.17969,26.17968 14.44677,0 26.17969,-11.73291 26.17969,-26.17968 0,-14.44677 -11.73292,-26.17969 -26.17969,-26.17969 z m 0,2 c 13.36589,0 24.17969,10.8138 24.17969,24.17969 0,13.36589 -10.8138,24.17968 -24.17969,24.17968 -13.36589,0 -24.17969,-10.81379 -24.17969,-24.17968 10e-6,-13.3659 10.8138,-24.17969 24.17969,-24.17969 z"
       id="path96-3-1" /><path
       style="-inkscape-font-specification:'Inconsolata Bold';stroke:none;stroke-width:2"
       d="M -549.23404,134.70535 V 125.568 h 2.88934 q 1.672,0 2.44934,0.73333 0.77733,0.73334 0.77733,1.95067 0,0.49867 -0.22,1.01201 -0.20533,0.49866 -0.60133,0.89467 -0.38134,0.396 -0.89467,0.58666 l 1.96534,3.96001 h -1.74534 l -1.84801,-3.79867 h -1.1 v 3.79867 z m 1.672,-5.17734 h 1.33467 q 0.704,0 1.056,-0.32267 0.35201,-0.33733 0.35201,-0.90934 0,-0.528 -0.35201,-0.90933 -0.352,-0.38133 -1.056,-0.38133 h -1.33467 z m 5.83735,3.94534 q 1.056,-1.02667 1.83334,-1.77467 0.77733,-0.76267 1.29067,-1.34934 0.51333,-0.60133 0.76266,-1.12933 0.24934,-0.54267 0.24934,-1.14401 0,-1.26133 -1.29067,-1.26133 -0.46934,0 -0.85067,0.16133 -0.38133,0.16134 -0.68933,0.528 -0.132,0.20534 -0.176,0.308 -0.0293,0.10267 -0.0147,0.22 l -0.088,0.10267 -0.10267,-0.0733 -1.144,-0.88 q 0.49867,-0.83601 1.30533,-1.29067 0.82134,-0.45467 1.77468,-0.45467 0.792,0 1.43733,0.33733 0.64534,0.32267 1.02667,0.90934 0.38134,0.58667 0.38134,1.39333 0,0.93867 -0.44001,1.74534 -0.44,0.792 -1.24666,1.62801 -0.79201,0.836 -1.84801,1.90667 h 2.88934 q 0.23467,0 0.33733,-0.0293 0.11734,-0.0293 0.20534,-0.11733 h 0.132 v 1.496 h -5.73468 z m 7.33335,0 q 1.056,-1.02667 1.83334,-1.77467 0.77733,-0.76267 1.29067,-1.34934 0.51333,-0.60133 0.76266,-1.12933 0.24934,-0.54267 0.24934,-1.14401 0,-1.26133 -1.29067,-1.26133 -0.46934,0 -0.85067,0.16133 -0.38133,0.16134 -0.68933,0.528 -0.132,0.20534 -0.176,0.308 -0.0293,0.10267 -0.0147,0.22 l -0.088,0.10267 -0.10267,-0.0733 -1.144,-0.88 q 0.49867,-0.83601 1.30534,-1.29067 0.82133,-0.45467 1.77467,-0.45467 0.792,0 1.43733,0.33733 0.64534,0.32267 1.02667,0.90934 0.38134,0.58667 0.38134,1.39333 0,0.93867 -0.44001,1.74534 -0.44,0.792 -1.24666,1.62801 -0.79201,0.836 -1.84801,1.90667 h 2.88934 q 0.23467,0 0.33734,-0.0293 0.11733,-0.0293 0.20533,-0.11733 h 0.132 v 1.496 h -5.73468 z"
       id="text1-4-6-3"
       transform="scale(-1,1)"
       aria-label="R22" /></g><g
     id="g18"
     inkscape:label="R13"
     style="stroke:#000000"><path
       style="color:#000000;fill:#000000;stroke:none;-inkscape-stroke:none"
       d="m 436.99414,139.70508 c -14.44677,0 -26.17968,11.73292 -26.17969,26.17969 0,14.44677 11.73292,26.17968 26.17969,26.17968 14.44677,0 26.17969,-11.73291 26.17969,-26.17968 -1e-5,-14.44677 -11.73292,-26.17969 -26.17969,-26.17969 z m 0,2 c 13.36589,0 24.17968,10.81379 24.17969,24.17969 0,13.36589 -10.81379,24.17968 -24.17969,24.17968 -13.36589,0 -24.17969,-10.81379 -24.17969,-24.17968 10e-6,-13.3659 10.8138,-24.17969 24.17969,-24.17969 z"
       id="path96-3" /><path
       d="M -447.23883,134.52936 V 125.392 h 2.88934 q 1.672,0 2.44934,0.73334 0.77733,0.73333 0.77733,1.95067 0,0.49867 -0.22,1.012 -0.20533,0.49867 -0.60133,0.89467 -0.38134,0.396 -0.89467,0.58667 l 1.96534,3.96001 h -1.74534 l -1.84801,-3.79868 h -1.1 v 3.79868 z m 1.672,-5.17735 h 1.33467 q 0.704,0 1.056,-0.32266 0.352,-0.33734 0.352,-0.90934 0,-0.528 -0.352,-0.90934 -0.352,-0.38133 -1.056,-0.38133 h -1.33467 z m 8.05202,5.17735 v -7.33335 l -1.65734,0.58667 -0.352,-1.10001 2.43467,-1.29067 h 1.23201 v 9.13736 z m 7.72935,0.176 q -0.80667,0 -1.56934,-0.264 -0.76266,-0.27867 -1.232,-0.836 l 0.836,-1.21734 0.088,-0.11733 0.11734,0.0733 q 0.0293,0.11733 0.0587,0.23467 0.044,0.11733 0.22,0.29333 0.264,0.23467 0.61601,0.38133 0.352,0.13201 0.792,0.13201 0.704,0 1.07067,-0.39601 0.38133,-0.41066 0.38133,-1.056 0,-0.90933 -0.616,-1.26133 -0.60134,-0.35201 -1.78934,-0.22 v -1.29067 q 0.86534,0.0147 1.33467,-0.16134 0.484,-0.19067 0.67467,-0.51333 0.19067,-0.32267 0.19067,-0.68934 0,-0.54267 -0.33734,-0.85067 -0.32266,-0.32266 -0.88,-0.32266 -0.44,0 -0.86533,0.176 -0.41067,0.16133 -0.73334,0.528 l -0.95334,-0.968 q 0.51334,-0.60134 1.21734,-0.85067 0.704,-0.24934 1.39334,-0.24934 0.80667,0 1.42267,0.308 0.63067,0.308 0.98267,0.83601 0.352,0.528 0.352,1.21733 0,0.76267 -0.44,1.30534 -0.42534,0.528 -0.98267,0.748 0.42533,0.14667 0.80667,0.44 0.396,0.29334 0.63066,0.76267 0.24934,0.46933 0.24934,1.11467 0,0.76267 -0.36667,1.37867 -0.36667,0.60133 -1.056,0.968 -0.67467,0.36667 -1.61334,0.36667 z"
       id="text6"
       style="-inkscape-font-specification:'Inconsolata Bold';stroke:none;stroke-width:2"
       transform="scale(-1,1)"
       aria-label="R13" /></g><g
     id="g3"
     inkscape:label="R1"
     style="stroke:#000000;fill:#000000"><path
       style="color:#000000;stroke:none;-inkscape-stroke:none"
       d="m 283.00586,139.70508 c -14.44677,0 -26.17968,11.73292 -26.17969,26.17969 0,14.44677 11.73292,26.17968 26.17969,26.17968 14.44677,0 26.17969,-11.73291 26.17969,-26.17968 -10e-6,-14.44677 -11.73292,-26.17969 -26.17969,-26.17969 z m 0,2 c 13.36589,0 24.17968,10.81379 24.17969,24.17969 0,13.36589 -10.8138,24.17968 -24.17969,24.17968 -13.36589,0 -24.17969,-10.81379 -24.17969,-24.17968 1e-5,-13.36589 10.8138,-24.17969 24.17969,-24.17969 z"
       id="path96" /><path
       d="M -288.69654,134.70535 V 125.568 h 2.88934 q 1.67201,0 2.44934,0.73333 0.77734,0.73334 0.77734,1.95067 0,0.49867 -0.22,1.01201 -0.20534,0.49866 -0.60134,0.89467 -0.38133,0.396 -0.89467,0.58666 l 1.96534,3.96001 h -1.74533 l -1.84801,-3.79867 h -1.1 v 3.79867 z m 1.67201,-5.17734 h 1.33467 q 0.704,0 1.056,-0.32267 0.352,-0.33733 0.352,-0.90934 0,-0.528 -0.352,-0.90933 -0.352,-0.38133 -1.056,-0.38133 h -1.33467 z m 8.05202,5.17734 V 127.372 l -1.65734,0.58667 -0.352,-1.1 2.43467,-1.29067 h 1.232 v 9.13735 z"
       id="text7"
       style="-inkscape-font-specification:'Inconsolata Bold';stroke:none;stroke-width:2"
       transform="scale(-1,1)"
       aria-label="R1" /></g><g
     id="g38"
     inkscape:label="J1"
     style="stroke:#000000"><path
       style="-inkscape-font-specification:'Inconsolata Bold';stroke:none;stroke-width:2"
       d="m 708.807,100.14635 q 0.704,0 1.33467,-0.24933 0.63067,-0.249334 1.056,-0.762668 l -0.82133,-1.305337 -0.0733,-0.117333 -0.11733,0.07333 q -0.0293,0.117334 -0.0733,0.234667 -0.044,0.117334 -0.22001,0.293334 -0.44,0.308001 -0.93866,0.308001 -1.15867,0 -1.15867,-1.936004 v -4.561344 h 1.68667 v -1.33467 h -4.67868 v 1.33467 h 1.34934 v 4.678677 q -0.0147,1.144003 0.36666,1.892005 0.38134,0.733335 0.99734,1.100002 0.616,0.352 1.29067,0.352 z m -7.53868,-0.219997 v -7.33335 l 1.65733,0.586668 0.352,-1.100002 -2.43467,-1.29067 h -1.232 v 9.137354 z"
       id="text1-4-6-5"
       aria-label="J1" /><path
       style="color:#000000;fill:#000000;stroke:none;-inkscape-stroke:none"
       d="m 705.4043,105.14648 c -14.44678,0 -26.17969,11.73292 -26.17969,26.17969 0,14.44677 11.73292,26.17969 26.17969,26.17969 14.44676,0 26.17968,-11.73292 26.17968,-26.17969 10e-6,-14.44677 -11.73291,-26.17968 -26.17968,-26.17969 z m 0,2 c 13.36589,1e-5 24.17969,10.8138 24.17968,24.17969 0,13.36589 -10.8138,24.17969 -24.17968,24.17969 -13.36589,0 -24.17969,-10.8138 -24.17969,-24.17969 0,-13.36589 10.81379,-24.17969 24.17969,-24.17969 z"
       id="path96-78-6" /></g><g
     id="g50"
     inkscape:label="LED1"
     style="stroke:#000000"><path
       style="color:#000000;fill:#000000;stroke:none;-inkscape-stroke:none"
       d="m 630.52539,460.50391 c -10.11801,0 -18.34179,8.22379 -18.3418,18.34179 10e-6,10.11801 8.22379,18.3418 18.3418,18.3418 10.11801,0 18.3418,-8.22379 18.3418,-18.3418 0,-10.11801 -8.22379,-18.3418 -18.3418,-18.34179 z m 0,2 c 9.03713,-1e-5 16.3418,7.30466 16.3418,16.34179 0,9.03714 -7.30467,16.3418 -16.3418,16.3418 -9.03713,0 -16.34179,-7.30467 -16.3418,-16.3418 10e-6,-9.03713 7.30467,-16.34179 16.3418,-16.34179 z"
       id="path96-7-2-5-6-0" /><path
       style="-inkscape-font-specification:'Inconsolata Bold';stroke:none;stroke-width:2"
       d="m 643.46139,446.36701 h -1.804 v 0.132 q 0.088,0.088 0.11733,0.20533 0.0147,0.10267 0.0147,0.33734 v 7.11335 h -4.19468 v 1.34933 h 5.86668 z m -7.24535,9.13735 v -9.13735 h -5.95468 v 1.34934 h 4.34134 v 2.34667 h -3.564 v 1.364 h 3.564 v 2.72801 h -4.29734 v 1.34933 z m -7.20135,0 v -9.13735 h -2.36134 q -1.20267,0 -1.86267,0.33733 -0.67467,0.32267 -1.12933,0.92401 -0.45467,0.616 -0.70401,1.46667 -0.264,0.85066 -0.264,1.90667 0.0293,1.37867 0.45467,2.40534 0.42534,1.012 1.33467,1.55467 0.89467,0.54266 2.34667,0.54266 z m -1.61334,-1.29067 h -0.528 q -0.93867,0 -1.496,-0.396 -0.572,-0.396 -0.82134,-1.11467 -0.24933,-0.71866 -0.23466,-1.68667 0,-1.012 0.22,-1.76 0.20533,-0.748 0.73333,-1.15867 0.528,-0.41067 1.43734,-0.41067 h 0.68933 z m -8.15468,1.29067 v -7.33335 l 1.65734,0.58667 0.352,-1.1 -2.43467,-1.29067 h -1.23201 v 9.13735 z"
       id="text1-4-6-19"
       aria-label="LED1" /></g><g
     id="g57"
     inkscape:label="D3"
     style="stroke:#000000;stroke-opacity:1"><path
       id="path1-8"
       style="color:#000000;fill:#000000;stroke:none;stroke-miterlimit:10;-inkscape-stroke:none"
       d="m 395.28516,500.25977 v 25.49414 h -10.17969 l 9.375,15 h -8.4707 v 2 h 9.27539 v 23.79875 c 0.68225,0.0297 1.35629,0.16068 2,0.38868 v -24.18743 h 9.27343 v -2 h -8.46875 l 9.37305,-15 h -10.17773 v -25.49414 z m -6.57032,27.49414 h 15.13868 l -7.56836,12.11132 z m -27.80078,49.86914 v 2 h 22.29526 c -0.0729,-0.39304 -0.11156,-0.79168 -0.11532,-1.19141 0.004,-0.27045 0.0233,-0.54044 0.0587,-0.80859 z"
       sodipodi:nodetypes="ccccccccccccccccccccccccccc" /><path
       style="-inkscape-font-specification:'Inconsolata Bold';stroke:none;stroke-width:2"
       d="m -425.71502,520.82733 v -9.13735 h 2.36134 q 1.20267,0 1.86267,0.33733 0.67467,0.32267 1.12933,0.924 0.45467,0.616 0.704,1.46667 0.26401,0.85067 0.26401,1.90667 -0.0293,1.37867 -0.45467,2.40534 -0.42534,1.01201 -1.33467,1.55467 -0.89467,0.54267 -2.34667,0.54267 z m 1.61333,-1.29067 h 0.52801 q 0.93866,0 1.496,-0.396 0.572,-0.396 0.82133,-1.11467 0.24934,-0.71867 0.23467,-1.68667 0,-1.012 -0.22,-1.76 -0.20533,-0.748 -0.73333,-1.15867 -0.52801,-0.41067 -1.43734,-0.41067 h -0.68934 z m 8.55069,1.46667 q -0.80667,0 -1.56934,-0.264 -0.76266,-0.27867 -1.232,-0.836 l 0.836,-1.21734 0.088,-0.11733 0.11734,0.0733 q 0.0293,0.11734 0.0587,0.23467 0.044,0.11733 0.22,0.29333 0.264,0.23467 0.61601,0.38134 0.352,0.132 0.792,0.132 0.704,0 1.07067,-0.396 0.38133,-0.41067 0.38133,-1.056 0,-0.90934 -0.616,-1.26134 -0.60134,-0.352 -1.78934,-0.22 v -1.29067 q 0.86534,0.0147 1.33467,-0.16133 0.484,-0.19067 0.67467,-0.51334 0.19067,-0.32267 0.19067,-0.68933 0,-0.54267 -0.33734,-0.85067 -0.32266,-0.32267 -0.88,-0.32267 -0.44,0 -0.86533,0.176 -0.41067,0.16133 -0.73334,0.528 l -0.95334,-0.968 q 0.51334,-0.60134 1.21734,-0.85067 0.704,-0.24933 1.39334,-0.24933 0.80667,0 1.42267,0.308 0.63067,0.308 0.98267,0.836 0.352,0.528 0.352,1.21734 0,0.76266 -0.44,1.30533 -0.42534,0.528 -0.98267,0.748 0.42533,0.14667 0.80667,0.44 0.396,0.29334 0.63066,0.76267 0.24934,0.46934 0.24934,1.11467 0,0.76267 -0.36667,1.37867 -0.36667,0.60134 -1.056,0.968 -0.67467,0.36667 -1.61334,0.36667 z"
       id="text1-4-6-597"
       transform="scale(-1,1)"
       aria-label="D3" /></g><g
     id="g56"
     inkscape:label="D2"
     style="stroke:#000000;stroke-opacity:1"><path
       style="color:#000000;fill:#000000;stroke:none;stroke-miterlimit:10;-inkscape-stroke:none"
       d="m 272.61523,498.31055 -0.10937,18.70312 h 38.07812 l -0.27148,11.26367 h -9.29883 v 2 h 8.4707 l -9.375,15 h 10.17969 v 33.72461 l 18.00032,0 v -2 l -16.00032,0 v -31.72461 h 10.17969 l -9.375,-15 h 8.4707 v -2 h -9.25 l 0.31836,-13.26367 h -38.11523 l 0.0976,-16.6914 z m 38.67383,32.85156 7.57227,12.11523 H 303.7168 Z"
       id="path1-8-1"
       sodipodi:nodetypes="ccccccccccccccccccccccccccc" /><path
       style="-inkscape-font-specification:'Inconsolata Bold';stroke:none;stroke-width:2"
       d="m -339.84201,523.41437 v -9.13736 h 2.36134 q 1.20267,0 1.86267,0.33734 0.67467,0.32266 1.12934,0.924 0.45467,0.616 0.704,1.46667 0.264,0.85067 0.264,1.90667 -0.0293,1.37867 -0.45467,2.40534 -0.42533,1.012 -1.33467,1.55467 -0.89466,0.54267 -2.34667,0.54267 z m 1.61334,-1.29067 h 0.528 q 0.93867,0 1.49601,-0.396 0.572,-0.396 0.82133,-1.11467 0.24933,-0.71867 0.23467,-1.68667 0,-1.012 -0.22,-1.76001 -0.20534,-0.748 -0.73334,-1.15867 -0.528,-0.41066 -1.43733,-0.41066 h -0.68934 z m 5.94001,0.0587 q 1.05601,-1.02666 1.83334,-1.77467 0.77734,-0.76266 1.29067,-1.34933 0.51334,-0.60134 0.76267,-1.12934 0.24933,-0.54267 0.24933,-1.144 0,-1.26134 -1.29067,-1.26134 -0.46933,0 -0.85066,0.16134 -0.38134,0.16133 -0.68934,0.528 -0.132,0.20533 -0.176,0.308 -0.0293,0.10267 -0.0147,0.22 l -0.088,0.10267 -0.10266,-0.0733 -1.14401,-0.88 q 0.49867,-0.836 1.30534,-1.29067 0.82134,-0.45467 1.77467,-0.45467 0.792,0 1.43734,0.33734 0.64533,0.32266 1.02667,0.90933 0.38133,0.58667 0.38133,1.39334 0,0.93867 -0.44,1.74534 -0.44,0.792 -1.24667,1.628 -0.792,0.836 -1.848,1.90667 h 2.88934 q 0.23466,0 0.33733,-0.0293 0.11733,-0.0293 0.20533,-0.11734 h 0.132 v 1.49601 h -5.73468 z"
       id="text1-4-6-03"
       transform="scale(-1,1)"
       aria-label="D2" /></g><g
     id="g59"
     inkscape:label="C17"
     style="stroke:#b70000"
     transform="translate(-2.5293854,0.21130619)"><path
       style="-inkscape-font-specification:'Inconsolata Bold';stroke:none;stroke-width:2"
       d="m 483.7945,544.02339 q 0.99733,0 1.83334,-0.484 0.82133,-0.49866 1.32,-1.54 0.484,-1.04134 0.484,-2.65467 0,-1.34934 -0.32267,-2.25868 -0.33733,-0.924 -0.88,-1.46667 -0.54267,-0.54266 -1.188,-0.77733 -0.66,-0.24933 -1.30534,-0.24933 -1.02667,0 -1.76,0.46933 -0.748,0.46933 -1.12934,1.32 l 1.04134,0.77734 0.11733,0.0733 0.0733,-0.11733 q -0.0147,-0.10267 0.0293,-0.20534 0.0293,-0.11733 0.14667,-0.32266 0.32266,-0.38134 0.67466,-0.51334 0.33734,-0.14666 0.71867,-0.14666 0.55734,0 1.056,0.38133 0.48401,0.38133 0.79201,1.12934 0.29333,0.73333 0.29333,1.83333 0,1.58401 -0.572,2.49334 -0.58667,0.89467 -1.46667,0.89467 -0.54267,0 -0.93867,-0.23467 -0.396,-0.23466 -0.71867,-0.77733 l -1.144,0.85067 q 0.51333,0.836 1.21734,1.188 0.68933,0.33733 1.628,0.33733 z m -6.29202,-0.16133 v -7.33335 l 1.65734,0.58667 0.352,-1.1 -2.43467,-1.29067 h -1.232 v 9.13735 z m -6.10134,0 q -0.64534,-2.00934 -1.33467,-3.90134 -0.704,-1.89201 -1.48134,-3.81334 h 3.68134 v -1.42267 h -5.54401 v 0.90933 q 0.836,2.00934 1.584,4.03334 0.748,2.02401 1.37867,4.19468 z"
       id="text1-4-6-28"
       aria-label="C17" /><path
       style="color:#000000;fill:#000000;stroke:none;stroke-miterlimit:10;-inkscape-stroke:none"
       d="m 472.84766,549.02344 v 8.29101 h -12.95118 v 20.8125 h 33.65625 v -2 h -31.65625 v -16.8125 h 10.95118 v 8.3086 h 2 v -18.59961 z m 5.69921,0 v 18.59961 h 2 v -8.22461 c 11.87449,0.17559 10.89945,0.0401 13.71094,0 l -0.0293,-2 c -2.92074,0.0417 -1.74795,0.1775 -13.68165,0 v -8.375 z"
       id="path1-4" /></g></svg>
