M48
; DRILL file {KiCad 7.0.8} date So 29 Okt 2023 18:00:53 CET
; FORMAT={-:-/ absolute / metric / decimal}
; #@! TF.CreationDate,2023-10-29T18:00:53+01:00
; #@! TF.GenerationSoftware,Kicad,Pcbnew,7.0.8
; #@! TF.FileFunction,Plated,1,2,PTH
FMAT,2
METRIC
; #@! TA.AperFunction,Plated,PTH,ComponentDrill
T1C0.600
; #@! TA.AperFunction,Plated,PTH,ComponentDrill
T2C0.750
; #@! TA.AperFunction,Plated,PTH,ComponentDrill
T3C0.800
; #@! TA.AperFunction,Plated,PTH,ComponentDrill
T4C1.000
; #@! TA.AperFunction,Plated,PTH,ComponentDrill
T5C1.200
%
G90
G05
T1
X11.755Y42.22
X13.255Y42.22
X42.87Y43.49
X42.87Y41.99
X55.57Y22.535
X55.57Y21.035
X91.765Y60.0
X91.765Y58.5
X98.75Y63.81
X98.75Y62.31
T2
X5.045Y13.645
X5.045Y12.375
X5.045Y11.105
X10.485Y60.0
X11.755Y60.0
X12.39Y7.93
X12.39Y6.66
X12.39Y5.39
X13.025Y60.0
X18.74Y42.68
X18.74Y18.725
X20.01Y42.68
X20.01Y18.725
X21.28Y42.68
X21.28Y18.725
X26.995Y7.93
X26.995Y6.66
X26.995Y5.39
X60.015Y17.095
X61.285Y17.095
X62.555Y17.095
X84.78Y38.41
X84.78Y37.14
X84.78Y35.87
X89.86Y38.41
X89.86Y37.14
X89.86Y35.87
X91.13Y22.895
X92.4Y22.895
X93.67Y22.895
T3
X5.151Y57.079
X5.151Y55.079
X5.151Y50.221
X5.151Y48.221
X5.151Y46.221
X5.151Y44.221
X5.151Y42.221
X5.405Y34.727
X5.405Y32.727
X5.405Y28.885
X5.405Y18.725
X10.485Y19.36
X10.485Y14.36
X11.755Y55.555
X11.755Y51.745
X11.755Y47.935
X11.755Y28.885
X11.755Y25.075
X13.66Y33.33
X13.68Y37.065
X14.295Y21.9
X14.295Y11.74
X17.47Y60.635
X17.47Y8.485
X17.47Y3.485
X21.915Y55.555
X21.915Y51.745
X21.915Y47.935
X21.915Y28.885
X21.915Y25.075
X22.55Y15.55
X22.55Y5.39
X23.82Y33.33
X23.84Y37.065
X27.63Y60.635
X27.63Y54.285
X27.63Y52.285
X27.63Y31.425
X27.63Y28.25
X27.63Y18.09
X28.265Y45.395
X28.265Y35.235
X31.44Y28.25
X31.44Y18.09
X31.44Y13.645
X31.44Y3.485
X32.075Y45.395
X32.075Y35.235
X35.885Y45.395
X35.885Y35.235
X36.139Y3.993
X37.155Y28.25
X37.155Y18.09
X37.251Y64.699
X37.79Y31.425
X39.251Y64.699
X40.925Y26.345
X40.925Y21.9
X41.045Y18.725
X41.045Y8.565
X41.251Y64.699
X43.251Y64.699
X43.505Y38.41
X43.505Y30.79
X44.775Y18.725
X44.775Y8.565
X45.315Y3.739
X45.925Y26.345
X46.045Y38.41
X46.045Y30.79
X47.315Y3.739
X47.95Y62.54
X47.95Y58.73
X48.585Y38.41
X48.585Y30.79
X48.585Y13.645
X48.585Y8.645
X49.16Y54.285
X49.16Y44.125
X49.22Y26.345
X49.315Y3.739
X51.085Y21.9
X51.125Y38.41
X51.125Y30.79
X51.315Y3.739
X52.395Y18.09
X52.395Y7.93
X53.03Y54.285
X53.03Y44.125
X53.315Y3.739
X53.665Y38.41
X53.665Y30.79
X54.22Y26.345
X56.15Y18.09
X56.15Y7.93
X56.205Y38.41
X56.205Y30.79
X56.84Y54.285
X56.84Y44.125
X58.11Y62.54
X58.11Y58.73
X58.745Y38.41
X58.745Y30.79
X60.015Y26.9
X60.015Y21.9
X60.015Y13.01
X60.015Y8.01
X60.65Y54.285
X60.65Y44.125
X63.19Y31.425
X63.19Y27.615
X63.19Y23.805
X65.095Y38.73
X65.095Y36.73
X65.73Y18.725
X65.73Y14.915
X65.73Y11.105
X65.73Y7.295
X67.921Y3.739
X69.159Y64.699
X69.921Y3.739
X70.175Y44.125
X70.175Y40.315
X70.175Y36.505
X71.921Y3.739
X73.35Y31.425
X73.35Y27.615
X73.35Y23.805
X75.89Y18.725
X75.89Y14.915
X75.89Y11.105
X75.89Y7.295
X79.065Y27.615
X79.065Y17.455
X79.065Y6.66
X79.129Y64.699
X79.7Y58.095
X79.7Y14.875
X79.7Y9.875
X80.335Y44.125
X80.335Y40.315
X80.335Y36.505
X81.129Y64.699
X81.7Y58.095
X82.875Y31.425
X82.875Y27.615
X82.875Y17.455
X83.129Y64.699
X83.51Y14.28
X83.51Y10.47
X85.129Y64.699
X86.685Y27.615
X86.685Y17.455
X87.875Y31.425
X89.225Y6.66
X90.535Y28.25
X92.4Y6.025
X93.67Y14.28
X93.67Y10.47
X94.94Y39.68
X94.94Y32.06
X95.535Y28.25
X96.845Y10.47
X97.48Y47.3
X97.48Y43.49
X97.48Y39.68
X97.48Y32.06
X98.115Y58.73
X98.115Y51.11
X98.648Y28.86
X98.648Y18.7
X100.02Y39.68
X100.02Y32.06
X100.02Y6.025
X100.655Y58.73
X100.655Y51.11
X102.408Y23.932
X102.408Y13.772
X102.56Y39.68
X102.56Y32.06
X103.195Y58.73
X103.195Y51.11
X105.1Y39.68
X105.1Y32.06
X105.735Y58.73
X105.735Y51.11
X105.964Y23.932
X105.964Y13.772
X107.005Y10.47
X107.64Y47.3
X107.64Y43.49
X107.64Y39.68
X107.64Y32.06
X109.545Y57.42
X109.545Y52.42
X109.621Y23.932
X109.621Y13.772
X110.18Y39.68
X110.18Y32.06
X113.355Y55.555
X113.355Y45.395
X113.355Y22.535
X113.355Y12.375
X113.99Y33.33
X113.99Y29.52
X113.99Y25.71
X114.625Y41.545
X114.625Y36.545
X117.165Y50.435
X117.165Y45.435
X117.165Y22.535
X117.165Y17.535
X121.61Y21.9
X121.61Y11.74
X124.15Y33.33
X124.15Y29.52
X124.15Y25.71
X127.579Y31.425
X127.579Y29.425
X127.579Y27.425
T4
X119.07Y63.175
X119.07Y58.175
X121.737Y53.269
X121.737Y50.729
X121.737Y48.189
X121.737Y45.649
X121.737Y43.109
X121.737Y40.569
X124.277Y53.269
X124.277Y50.729
X124.277Y48.189
X124.277Y45.649
X124.277Y43.109
X124.277Y40.569
X126.817Y53.269
X126.817Y50.729
X126.817Y48.189
X126.817Y45.649
X126.817Y43.109
X126.817Y40.569
X129.357Y53.269
X129.357Y50.729
X129.357Y48.189
X129.357Y45.649
X129.357Y43.109
X129.357Y40.569
T5
X38.425Y56.583
X38.425Y51.583
X70.175Y56.583
X70.175Y51.583
X85.657Y49.205
X90.657Y49.205
T0
M30
